<svg xmlns="http://www.w3.org/2000/svg" viewBox="0 0 400 140">
  <defs>
    <style>
      .cls-1 {
        fill: #556a8a;
      }

      .cls-2 {
        fill: #868787;
      }

      .cls-3 {
        fill: #e5e5e5;
      }

      .cls-4 {
        fill: none;
      }

      .cls-4, .cls-5 {
        stroke: #556a8a;
        stroke-miterlimit: 10;
        stroke-width: 2px;
      }

      .cls-5 {
        fill: #fff;
      }
    </style>
  </defs>
  <title>xamarin-mac-ui</title>
  <g id="ICONS">
    <g>
      <rect class="cls-1" x="197" y="92" width="6" height="28"/>
      <rect class="cls-2" x="132" y="25" width="136" height="74" rx="4" ry="4"/>
      <path class="cls-3" d="M268,85V95a4,4,0,0,1-4,4H136a4,4,0,0,1-4-4V85Z"/>
      <rect class="cls-4" x="132" y="25" width="136" height="74" rx="4" ry="4"/>
      <rect class="cls-2" x="198" y="93" width="4" height="2"/>
      <rect class="cls-1" x="168" y="118" width="64" height="2" rx="1" ry="1"/>
      <rect class="cls-5" x="146" y="35" width="16" height="16"/>
      <rect class="cls-5" x="169" y="35" width="68.94" height="15" rx="2" ry="2"/>
      <rect class="cls-5" x="146.06" y="61" width="68.94" height="15" rx="2" ry="2"/>
      <g>
        <rect class="cls-1" x="153" y="38" width="2" height="10"/>
        <rect class="cls-1" x="153" y="38" width="2" height="10" transform="translate(111 197) rotate(-90)"/>
      </g>
      <path class="cls-3" d="M245.16,79.25a1,1,0,0,0,1.12.18l1.79-1a1,1,0,0,0,.26-1.33l-1-2.28c-.37-.56-.49-1.19.84-2.95a1.75,1.75,0,0,1,1.63-.58l2.72.31a1.18,1.18,0,0,0,.9-.6l.6-2.16c.08-.21-.15-.79-.8-1l-2.45-.94a1.27,1.27,0,0,1-.94-1.29s-.48-2.54.43-3.12l1.94-1.4a1.24,1.24,0,0,0,.26-1.32l-1.19-1.87a.77.77,0,0,0-1.07-.21l0,0-2.28,1c-.58.35-2.57-.72-3-.88a2.5,2.5,0,0,1-.73-1.73l.44-2.43a1.13,1.13,0,0,0-.73-1.21l-2-.29a1,1,0,0,0-1.14.52L240,55.31c-.19.62-.73,1.37-2.64,1.39,0,0-1.51-.2-1.89-.71l-1.49-2.23a1,1,0,0,0-1.12-.18L231,54.78a.77.77,0,0,0-.16,1.08l0,0,1,2.48c.39.85-.65,2.36-.81,2.76a1.64,1.64,0,0,1-1.71.78l-2.64-.5a1.22,1.22,0,0,0-1,.8l-.6,2.16a1.38,1.38,0,0,0,.8,1l2.49.93c1.37.34,1.23,1.74,1.37,2.65.09.48.1,1-.83,1.58l-2,1.61a1,1,0,0,0-.18,1.12l1.19,1.87a1,1,0,0,0,1,.39l2.36-1.24c.85-.39,1.27-.25,1.61.13a14,14,0,0,1,1.29,1,1.4,1.4,0,0,1,.83,1.47l-.5,2.64a1.21,1.21,0,0,0,.8,1l1.94.5a1,1,0,0,0,1.14-.52l.73-2.56a1.59,1.59,0,0,1,1.37-1.12l1.48-.16c.57-.26,1-.1,1.65.62l1.6,2m-1-15.52a5.5,5.5,0,0,1-1.82,7.35,5.11,5.11,0,0,1-7.1-1.39q-.14-.21-.26-.43a5.25,5.25,0,0,1,1.74-7.14,5.32,5.32,0,0,1,7.38,1.48l.07.11"/>
    </g>
  </g>
</svg>
