<svg xmlns="http://www.w3.org/2000/svg" viewBox="0 0 400 140">
  <defs>
    <style>
      .cls-1 {
        fill: #fff;
      }

      .cls-2 {
        fill: #e5e5e5;
      }

      .cls-3, .cls-6 {
        fill: none;
      }

      .cls-3 {
        stroke: #556a8a;
        stroke-miterlimit: 10;
        stroke-width: 2px;
      }

      .cls-4 {
        fill: #556a8a;
      }

      .cls-5 {
        fill: #adbdca;
      }

      .cls-7 {
        fill: #868787;
      }

      .cls-8 {
        fill: #ababab;
      }
    </style>
  </defs>
  <title>xamarin-mac-platform-features</title>
  <g id="ICONS">
    <g>
      <g>
        <path class="cls-1" d="M298.19,96.26c2.09,1.78,1.56,3.24-1.19,3.24H231c-2.75,0-3.29-1.46-1.19-3.24l5.38-4.57,7.31-6.21a15.21,15.21,0,0,1,8.5-3h26a15.84,15.84,0,0,1,8.81,3.24l.62.53L294,92.74Z"/>
        <polygon class="cls-2" points="290 89 238.76 89 238.76 87.95 245.76 82 281.76 82 290 89"/>
        <path class="cls-3" d="M300.71,99.57,285.65,85.42A14.61,14.61,0,0,0,277,82H251a15.83,15.83,0,0,0-8.81,3.24L226,99"/>
        <rect class="cls-1" x="225" y="98.5" width="78" height="18" rx="4" ry="4"/>
        <path class="cls-2" d="M233,99v18h-4a4,4,0,0,1-4-4V103a4,4,0,0,1,4-4Z"/>
        <path class="cls-2" d="M295,99v18h4a4,4,0,0,0,4-4V103a4,4,0,0,0-4-4Z"/>
        <rect class="cls-3" x="225" y="99" width="78" height="18" rx="4" ry="4"/>
        <rect class="cls-4" x="237" y="102" width="54" height="2" rx="1" ry="1"/>
      </g>
      <g>
        <g>
          <polygon class="cls-4" points="224.82 121 133.29 121 139.01 114 219.47 114 224.82 121"/>
          <polygon class="cls-5" points="216.22 119 141.89 119 144.5 116 213.69 116 216.22 119"/>
          <polygon class="cls-4" points="199.31 107 158.69 107 154.01 112 203.99 112 199.31 107"/>
          <polygon class="cls-4" points="181.4 108.34 175.93 108.34 177.02 97.39 180.31 97.39 181.4 108.34"/>
          <rect class="cls-1" x="120" y="34" width="119" height="65" rx="4" ry="4" transform="translate(359 133) rotate(180)"/>
          <path class="cls-2" d="M238.76,50.27V39.4a4.35,4.35,0,0,0-4.35-4.35H124.67a4.35,4.35,0,0,0-4.35,4.35V50.27Z"/>
          <rect class="cls-3" x="120" y="34" width="119" height="65" rx="4" ry="4" transform="translate(359 133) rotate(180)"/>
        </g>
        <rect class="cls-6" x="110" y="29.62" width="138" height="98.88"/>
      </g>
      <g>
        <g>
          <path class="cls-7" d="M97,45a2.61,2.61,0,0,0,2.25,2.59c12.83,1.83,16.84,5.85,18.66,18.67a2.61,2.61,0,0,0,2.59,2.24,2.85,2.85,0,0,0,.52-.05,2.61,2.61,0,0,0,2.07-2.18c1.83-12.83,5.84-16.85,18.66-18.67a2.61,2.61,0,0,0,0-5.17c-12.83-1.83-16.84-5.85-18.66-18.67A2.64,2.64,0,0,0,121,21.55a2.85,2.85,0,0,0-.52-.05,2.62,2.62,0,0,0-2.59,2.25c-1.83,12.83-5.84,16.85-18.66,18.67A2.6,2.6,0,0,0,97,45Z"/>
          <path class="cls-8" d="M97,45a2.61,2.61,0,0,0,2.25,2.59c12.83,1.83,16.84,5.85,18.66,18.67a2.61,2.61,0,0,0,2.59,2.24,2.85,2.85,0,0,0,.52-.05V21.55a2.85,2.85,0,0,0-.52-.05,2.62,2.62,0,0,0-2.59,2.25c-1.83,12.83-5.84,16.85-18.66,18.67A2.6,2.6,0,0,0,97,45Z"/>
        </g>
        <g>
          <path class="cls-7" d="M132,61.35a2.11,2.11,0,0,0,1.81,2.09c10.37,1.49,13.62,4.73,15.1,15.1a2.11,2.11,0,0,0,4.18,0c1.48-10.37,4.73-13.61,15.1-15.1a2.11,2.11,0,0,0,0-4.18c-10.37-1.48-13.62-4.72-15.1-15.09a2.11,2.11,0,0,0-4.18,0c-1.48,10.37-4.73,13.61-15.1,15.09A2.12,2.12,0,0,0,132,61.35Z"/>
          <path class="cls-8" d="M132,61.35a2.11,2.11,0,0,0,1.81,2.09c10.37,1.49,13.62,4.73,15.1,15.1A2.11,2.11,0,0,0,151,80.35v-38a2.12,2.12,0,0,0-2.09,1.82c-1.48,10.37-4.73,13.61-15.1,15.09A2.12,2.12,0,0,0,132,61.35Z"/>
        </g>
        <g>
          <path class="cls-7" d="M129,25.5A1.55,1.55,0,0,0,130.34,27c7.64,1.09,10,3.49,11.12,11.13a1.56,1.56,0,0,0,3.08,0c1.09-7.64,3.48-10,11.12-11.13a1.55,1.55,0,0,0,0-3.08c-7.64-1.09-10-3.48-11.12-11.12a1.55,1.55,0,0,0-3.08,0c-1.09,7.64-3.48,10-11.12,11.12A1.56,1.56,0,0,0,129,25.5Z"/>
          <path class="cls-8" d="M129,25.5A1.55,1.55,0,0,0,130.34,27c7.64,1.09,10,3.49,11.12,11.13A1.56,1.56,0,0,0,143,39.5v-28a1.56,1.56,0,0,0-1.54,1.34c-1.09,7.64-3.48,10-11.12,11.12A1.56,1.56,0,0,0,129,25.5Z"/>
        </g>
      </g>
    </g>
  </g>
</svg>
