<svg xmlns="http://www.w3.org/2000/svg" viewBox="0 0 400 140">
  <defs>
    <style>
      .cls-1, .cls-4 {
        fill: #556a8a;
      }

      .cls-1 {
        isolation: isolate;
      }

      .cls-12, .cls-2, .cls-9 {
        fill: none;
      }

      .cls-2 {
        stroke: #939598;
        stroke-dasharray: 3 3;
      }

      .cls-10, .cls-12, .cls-13, .cls-2, .cls-5, .cls-9 {
        stroke-miterlimit: 10;
        stroke-width: 2px;
      }

      .cls-3, .cls-5, .cls-7 {
        fill: #fff;
      }

      .cls-3 {
        opacity: 0.2;
      }

      .cls-10, .cls-12, .cls-5, .cls-9 {
        stroke: #556a8a;
      }

      .cls-10, .cls-6 {
        fill: #2bc7f4;
      }

      .cls-8 {
        fill: #e5e5e5;
      }

      .cls-9 {
        stroke-linecap: round;
      }

      .cls-11 {
        fill: #55d2f6;
      }

      .cls-13 {
        fill: #ddec85;
        stroke: #bad80a;
      }
    </style>
  </defs>
  <title>xamarin-graphics-profiler</title>
  <g id="ICONS">
    <ellipse class="cls-1" cx="80.5" cy="30.46" rx="10" ry="12.46"/>
    <polyline class="cls-2" points="321.25 80 152 80 152 54"/>
    <path class="cls-1" d="M131.75,63.67l-16.42,3.45a4.49,4.49,0,0,1-1.48.38c-.65.06-10.35-5-10.35-5l.67,25.2L104.5,100h-6v41H88.1c-1.71-13.16-4.1-30.57-4.45-32.83-.42-2.76-4.69-2.76-5.12,0-.35,2.26-2.4,19.67-3.95,32.83H63.5V102.43a88.72,88.72,0,0,1-6.35-7.24c-2.27-2.92-2.26-9.5-2.07-11.48.52-5.72.51-19.95,1.12-26.31a11.73,11.73,0,0,1,1.11-4.09c0-.11.11-.22.17-.33A8.85,8.85,0,0,1,63,48.6l1.63-.44c4.12-1.09,9.89-2.39,9.89-2.39l6,12.48h.1l6-12.48,2.7.72c1.61.43,3.73,1,5.79,1.59l0,0c1,.29,2,.58,2.94.86L114,57l14-1.6a4.54,4.54,0,1,1,3.75,8.27Z"/>
    <path class="cls-3" d="M131.75,63.67l-16.42,3.45a4.49,4.49,0,0,1-1.48.38c-.65.06-10.35-5-10.35-5l.67,25.2L104.5,100H104L57.31,53.31c0-.11.11-.22.17-.33A8.85,8.85,0,0,1,63,48.6l1.63-.44c4.12-1.09,9.89-2.39,9.89-2.39l6,12.48h.1l6-12.48,2.7.72c1.61.43,3.73,1,5.79,1.59l0,0c1,.29,2,.58,2.94.86L114,57l14-1.6a4.54,4.54,0,1,1,3.75,8.27Z"/>
    <g>
      <path class="cls-4" d="M143,54.7l-8.4,8.4-5,5L115.09,82.61a4.74,4.74,0,1,1-6.7-6.7l14.32-14.32,5-5L136.3,48a4.74,4.74,0,1,1,6.7,6.7Z"/>
      <path class="cls-5" d="M152.22,13.41A24.79,24.79,0,1,0,177,38.21,24.82,24.82,0,0,0,152.22,13.41Z"/>
      <g>
        <path class="cls-6" d="M171.07,38.44c0,3.76-8.49,12.83-19,12.83s-19-9.07-19-12.83c0-4.12,8.49-12,19-12S171.07,34.68,171.07,38.44Z"/>
        <circle class="cls-7" cx="152.1" cy="39.5" r="8.3"/>
        <circle class="cls-6" cx="152.1" cy="39.5" r="5.93"/>
        <circle class="cls-7" cx="153.88" cy="35.35" r="2.96"/>
      </g>
      <polygon class="cls-8" points="134.61 63.09 129.58 68.12 122.71 61.59 127.74 56.56 134.61 63.09"/>
    </g>
    <g>
      <line class="cls-9" x1="335.41" y1="84" x2="340.75" y2="89.33"/>
      <line class="cls-9" x1="335.41" y1="74" x2="340.75" y2="68.67"/>
      <circle class="cls-10" cx="330.41" cy="79" r="8"/>
      <line class="cls-9" x1="305.41" y1="89" x2="305.41" y2="107"/>
      <line class="cls-9" x1="315.41" y1="87.27" x2="328.14" y2="100"/>
      <line class="cls-9" x1="315.41" y1="71" x2="328.14" y2="58.27"/>
      <line class="cls-9" x1="294.41" y1="87.27" x2="281.69" y2="100"/>
      <line class="cls-9" x1="294.41" y1="71" x2="281.69" y2="58.27"/>
      <line class="cls-9" x1="305.41" y1="52" x2="305.41" y2="70"/>
      <path class="cls-6" d="M309,97h-8.18a18.13,18.13,0,0,1-7.18-1.44,18.91,18.91,0,0,1-5.83-3.85,18.7,18.7,0,0,1-3.94-5.7h0a17.53,17.53,0,0,1,0-14c.15-.34.31-.66.48-1a18.43,18.43,0,0,1,3.46-4.7,18.76,18.76,0,0,1,5.83-3.86A18.13,18.13,0,0,1,300.82,61H309a18,18,0,0,1,7.13,1.45A19.22,19.22,0,0,1,322,66.32,18.52,18.52,0,0,1,325.43,71c.18.33.34.67.5,1a17.22,17.22,0,0,1,0,14s0,0,0,0a18.6,18.6,0,0,1-4,5.68,19.66,19.66,0,0,1-5.82,3.87A18.08,18.08,0,0,1,309,97Z"/>
      <path class="cls-11" d="M309,97h-8.18a18.13,18.13,0,0,1-7.18-1.44,18.91,18.91,0,0,1-5.83-3.85,18.7,18.7,0,0,1-3.94-5.7h0a17.08,17.08,0,0,1-1.46-7h45a17,17,0,0,1-1.48,7s0,0,0,0a18.6,18.6,0,0,1-4,5.68,19.66,19.66,0,0,1-5.82,3.87A18.08,18.08,0,0,1,309,97Z"/>
      <path class="cls-12" d="M282.41,79a17.16,17.16,0,0,1,1.46-7,18.5,18.5,0,0,1,3.94-5.7,18.86,18.86,0,0,1,5.83-3.86A18.21,18.21,0,0,1,300.82,61H309a17.88,17.88,0,0,1,7.13,1.45A19.31,19.31,0,0,1,322,66.32a18.81,18.81,0,0,1,4,5.69,17.25,17.25,0,0,1,0,14,18.58,18.58,0,0,1-4,5.7,19.39,19.39,0,0,1-5.82,3.87A18,18,0,0,1,309,97h-8.18a18.21,18.21,0,0,1-7.18-1.44,18.84,18.84,0,0,1-5.83-3.85,18.49,18.49,0,0,1-3.95-5.7A17.15,17.15,0,0,1,282.41,79Z"/>
    </g>
    <g>
      <polygon class="cls-13" points="211 49 238 95 184.31 95 211 49"/>
      <polygon class="cls-4" points="210 83 212 83 213 62 209 62 210 83"/>
      <circle class="cls-4" cx="211" cy="87" r="2"/>
    </g>
  </g>
</svg>
