<svg xmlns="http://www.w3.org/2000/svg" viewBox="0 0 400 140">
  <defs>
    <style>
      .cls-1 {
        fill: #c2c2c2;
      }

      .cls-2 {
        fill: #ace8f9;
      }

      .cls-11, .cls-3, .cls-8 {
        fill: #fff;
      }

      .cls-16, .cls-4, .cls-9 {
        fill: none;
      }

      .cls-5 {
        fill: #d1e55c;
      }

      .cls-15, .cls-6 {
        fill: #bad80a;
      }

      .cls-6, .cls-8 {
        fill-rule: evenodd;
      }

      .cls-7 {
        opacity: 0.6;
      }

      .cls-11, .cls-16, .cls-9 {
        stroke: #556a8a;
        stroke-miterlimit: 10;
        stroke-width: 2px;
      }

      .cls-9 {
        stroke-dasharray: 3 3;
      }

      .cls-10 {
        fill: #556a8a;
      }

      .cls-12 {
        fill: #ff9f2b;
      }

      .cls-13 {
        fill: #ff8c00;
      }

      .cls-14 {
        fill: #e5e5e5;
      }

      .cls-17 {
        fill: #e6e7e8;
      }
    </style>
  </defs>
  <title>xamarin-cross-platform-deployment</title>
  <g id="ICONS">
    <g>
      <g>
        <path class="cls-1" d="M89.31,69.85a28.34,28.34,0,0,1,56-.89,19.29,19.29,0,0,1,31,9.8,16.86,16.86,0,1,1,4,33.23H85.37A21.56,21.56,0,0,1,68.5,90.92,21.08,21.08,0,0,1,89.31,69.85Z"/>
        <path class="cls-2" d="M258.05,55.66h-.56c0-20.1-16.31-35.72-36.56-35.72a35.86,35.86,0,0,0-36,31.25,25.73,25.73,0,0,0-19.69-9.49,25.12,25.12,0,1,0,0,50.23h92.8a18.17,18.17,0,0,0,18-18.42,17.7,17.7,0,0,0-18-17.86"/>
        <path class="cls-3" d="M146.76,50.26a.71.71,0,0,1-.8-.8c0-.54.4-.94.81-.81a.71.71,0,0,1,.8.8c.13.4-.27.81-.81.81"/>
        <circle class="cls-4" cx="192.13" cy="101.33" r="20.67"/>
        <g>
          <circle class="cls-5" cx="144.5" cy="43.5" r="22.5"/>
          <path class="cls-6" d="M128.59,27.59a22.5,22.5,0,0,0,31.82,31.82Z"/>
        </g>
        <g class="cls-7">
          <path class="cls-8" d="M244.91,47.86l-3.79-.54c-.27-.81-.27-1.62-.54-2.43L243.82,43a1,1,0,0,0,.54-1.35l-1.08-2.16c0-.54-.54-.81-1.08-.81l-3.79,1.08a5.89,5.89,0,0,0-1.35-2.16l2.17-3.24a.82.82,0,0,0,0-1.08l-1.89-1.89a.82.82,0,0,0-1.08,0L233,33.53c-.54-.54-1.35-.81-1.89-1.35l.81-3.79c.27-.27,0-.81-.54-1.08l-2.17-.81a1.19,1.19,0,0,0-1.35.27L226,30c-.81-.27-1.62-.27-2.71-.54l-.54-3.79a.86.86,0,0,0-.81-.81h-2.71a.86.86,0,0,0-.81.81l-.54,3.79c-.81.27-1.62.27-2.44.54l-1.89-3.24c-.27-.54-.81-.54-1.35-.54l-2.44,1.08c-.27,0-.54.54-.54,1.08l1.08,3.79a5.89,5.89,0,0,0-2.17,1.35l-3.25-2.16a.82.82,0,0,0-1.08,0l-1.89,1.89a.82.82,0,0,0,0,1.08L204,37.58c-.54.54-.81,1.35-1.35,1.89l-3.79-.81c-.27-.27-.81,0-1.08.54l-1.08,2.16c0,.54,0,1.08.54,1.35l3.25,1.89c-.27.81-.27,1.89-.54,2.7l-3.79.54a.86.86,0,0,0-.81.81v2.7a.72.72,0,0,0,.81.81l3.79.54a7.89,7.89,0,0,0,.54,2.43l-3.25,1.89a1,1,0,0,0-.54,1.35l1.08,2.43c0,.27.54.54,1.08.54l3.79-1.08A5.89,5.89,0,0,0,204,62.46l-2.17,3.24a1.21,1.21,0,0,0,0,1.35l1.89,1.62c.27.27.81.54,1.08.27l3.25-2.43A4.86,4.86,0,0,0,210,67.87l-.81,3.79c-.27.27,0,.81.54,1.08l2.17,1.08c.54,0,1.08,0,1.35-.54L215.13,70a8,8,0,0,0,2.71.54l.54,3.79a.86.86,0,0,0,.81.81h2.71a.86.86,0,0,0,.81-.81l.54-3.79a7.91,7.91,0,0,0,2.44-.54l1.89,3.24a1,1,0,0,0,1.35.54l2.44-1.08c.27,0,.54-.54.54-1.08l-1.08-3.79A5.89,5.89,0,0,0,233,66.52l3.25,2.43c.27.27.81,0,1.08-.27l1.89-1.62a1.21,1.21,0,0,0,0-1.35l-2.17-3.24a11.45,11.45,0,0,0,1.35-1.89l3.79,1.08a1.45,1.45,0,0,0,1.08-.81l1.08-2.16c0-.54,0-1.08-.54-1.35l-3.25-1.89c.27-.81.27-1.62.54-2.7l3.79-.54a.72.72,0,0,0,.81-.81v-2.7a.86.86,0,0,0-.81-.81ZM236,54.08a1.25,1.25,0,0,1-1.89.81l-6.23-4.06c-.81-.27-.81-1.08,0-1.62l6.23-4.06A1.4,1.4,0,0,1,236,46a19.71,19.71,0,0,1,.54,4.06,16.56,16.56,0,0,1-.54,4.06Zm-1.62-12.17a1.24,1.24,0,0,1-.81,1.89l-7.31,1.62c-.81.27-1.35-.27-1.08-1.08l1.62-7.3c.27-1.08,1.08-1.35,1.89-.81a17.88,17.88,0,0,1,3.25,2.43,17.86,17.86,0,0,1,2.44,3.24Zm-17.87-7.57a15.51,15.51,0,0,1,8.12,0,1.24,1.24,0,0,1,.81,1.89l-4.06,6.49c-.54.81-1.35.81-1.62,0l-4.06-6.49a1.24,1.24,0,0,1,.81-1.89ZM224.61,50a4.06,4.06,0,0,1-8.12,0,4.07,4.07,0,0,1,8.12,0ZM212.42,36a1.25,1.25,0,0,1,1.89.81l1.62,7.3c.27.81-.27,1.35-1.35,1.35l-7-1.89c-1.08-.27-1.35-1.08-.81-1.89a9.76,9.76,0,0,1,2.44-3.24A17.88,17.88,0,0,1,212.42,36Zm-7.58,17.85a16.56,16.56,0,0,1-.54-4.06,19.71,19.71,0,0,1,.54-4.06,1.16,1.16,0,0,1,1.89-.54l6.5,3.79a1,1,0,0,1,0,1.89l-6.5,3.79c-.81.54-1.62.27-1.89-.81Zm1.62,4.33a1.19,1.19,0,0,1,.81-1.89l7.31-1.89c.81-.27,1.35.27,1.35,1.35L214,63a1.4,1.4,0,0,1-1.89.81,17.88,17.88,0,0,1-3.25-2.43c-1.35-1.62-2.44-3.24-2.44-3.24Zm17.87,7.3a16.61,16.61,0,0,1-4.06.54,19.77,19.77,0,0,1-4.06-.54,1.4,1.4,0,0,1-.81-1.89l4.06-6.22c.54-.81,1.35-.81,1.62,0l4.06,6.22c.54.81.27,1.62-.81,1.89Zm4.06-1.62c-.81.54-1.62.27-1.89-.81l-1.62-7.3c-.27-.81.27-1.35,1.35-1.08l7.31,1.62a1.4,1.4,0,0,1,.81,1.89,17.86,17.86,0,0,1-2.44,3.24,28.06,28.06,0,0,1-3.52,2.43Z"/>
        </g>
        <g>
          <path class="cls-9" d="M117.5,110V41a24.07,24.07,0,0,1,24-24h6a24.07,24.07,0,0,1,24,24V99a24.07,24.07,0,0,0,24,24h7a24.07,24.07,0,0,0,24-24V87a24.07,24.07,0,0,1,24-24h78.83"/>
          <polygon class="cls-10" points="322.7 71.18 321.34 69.72 328.56 63 321.34 56.29 322.7 54.82 331.5 63 322.7 71.18"/>
        </g>
        <rect class="cls-4" x="131" y="29" width="30" height="30"/>
        <path class="cls-11" d="M141.75,30.5V35l-2.5,1.49L136.75,35V30.5c-3,.68-3.75,3.21-3.75,5.25,0,2.33.75,4,3.75,4.7V56.14c0,1,1.54,2.14,2.5,2.14s2.5-1.13,2.5-2.23V40.45a5,5,0,0,0,3.75-4.7A6.2,6.2,0,0,0,141.75,30.5Z"/>
        <path class="cls-10" d="M154,46h-3V36l1-2-1.38-4.24h-1.24L148,34l1,2V46h-3v2h2c0,1-1.5,2-2,2v6a3.17,3.17,0,0,0,2.52,3h3A3.17,3.17,0,0,0,154,56V50c-.5,0-2-1-2-2h2Z"/>
        <rect class="cls-3" x="148" y="50" width="1" height="7"/>
        <rect class="cls-3" x="151" y="50" width="1" height="7"/>
        <g>
          <circle class="cls-5" cx="199.5" cy="96.5" r="22.5"/>
          <path class="cls-6" d="M183.59,80.59a22.5,22.5,0,0,0,31.82,31.82Z"/>
        </g>
        <g>
          <g>
            <g>
              <path class="cls-12" d="M251.41,106c-.76.25-1.57.48-2.41.71,5.06-21,15-17.21,15-17.21L265.66,91l.06.2C266.07,92.6,267.42,100.89,251.41,106Z"/>
              <path class="cls-13" d="M251.41,106c5-17.3,13.45-15,14.31-14.76C266.07,92.6,267.42,100.89,251.41,106Z"/>
              <polygon class="cls-10" points="266.51 95.18 259.44 88.11 265.09 86.69 267.75 89.36 266.51 95.18"/>
            </g>
            <polygon class="cls-10" points="267.92 79.51 248.83 78.81 246 75.98 262.26 68.2 269.06 70.75 267.92 79.51"/>
            <polygon class="cls-10" points="276 85.28 276.71 104.37 279.54 107.2 287.31 90.94 284.76 84.14 276 85.28"/>
            <g>
              <path class="cls-3" d="M272.19,93.7H272l-.17-.15L261.74,83l0-.25a41.74,41.74,0,0,1,11.45-20.28c9.15-9.1,30.47-12.92,31.38-13.08l.7-.12-.12.7s-.37,2.22-1.14,5.45c-2.08,8.74-5.8,20.4-11.73,26.36C283.08,91.11,273,93.7,272.19,93.7Z"/>
              <path class="cls-14" d="M303.5,56.69c-1.69,7.11-5.36,19.43-11.6,25.7-9.22,9.28-19.25,11.21-19.77,11.31l-5.62-5.62s1.79-10.32,11.32-19.8C284.09,62.05,296.38,58.38,303.5,56.69Z"/>
              <path class="cls-15" d="M305.5,49a92,92,0,0,0-18.3,5.45l13.4,13.4A123.08,123.08,0,0,0,305.5,49Z"/>
              <path class="cls-16" d="M272.19,93.7H272l-.17-.15L261.74,83l0-.25a41.74,41.74,0,0,1,11.45-20.28c9.15-9.1,30.47-12.92,31.38-13.08l.7-.12-.12.7s-.37,2.22-1.14,5.45c-2.08,8.74-5.8,20.4-11.73,26.36C283.08,91.11,273,93.7,272.19,93.7Z"/>
            </g>
          </g>
          <circle class="cls-11" cx="282" cy="72.2" r="5"/>
        </g>
      </g>
      <g>
        <path class="cls-3" d="M210,105.19c-1-1.77-7-11.14-7-11.14V86.39l1.11-1.22c.13-.17,0-.17-.18-.17h-7.86c-.21,0-.81,0-.68.17l.61,1.22v7.67s-5.51,9.37-6.51,11.14c-1.4,2.49,1,4.81,3.07,4.81h14.87A3.14,3.14,0,0,0,210,105.19Z"/>
        <path class="cls-17" d="M206,99.5H193.45c-1.59,2.31-3.27,4.77-3.75,5.58-1.4,2.34.55,4.29,2.59,4.29h14.87c2,0,4-1.95,2.59-4.29C209.27,104.27,207.6,101.81,206,99.5Z"/>
        <path class="cls-16" d="M210,105.19c-1-1.77-7-11.14-7-11.14V86.39l1.11-1.22c.13-.17,0-.17-.18-.17h-7.86c-.21,0-.81,0-.68.17l.61,1.22v7.67s-5.51,9.37-6.51,11.14c-1.4,2.49,1,4.81,3.07,4.81h14.87A3.14,3.14,0,0,0,210,105.19Z"/>
      </g>
    </g>
  </g>
</svg>
