<svg xmlns="http://www.w3.org/2000/svg" viewBox="0 0 400 140">
  <defs>
    <style>
      .cls-1 {
        fill: #556a8a;
      }

      .cls-2 {
        fill: #fff;
      }

      .cls-3 {
        fill: none;
        stroke: #556a8a;
      }

      .cls-3, .cls-5 {
        stroke-miterlimit: 10;
        stroke-width: 2px;
      }

      .cls-4 {
        fill: #c2c2c2;
      }

      .cls-5 {
        fill: #55d2f6;
        stroke: #fff;
      }

      .cls-6 {
        fill: #5c2d91;
      }
    </style>
  </defs>
  <title>xamarin-ios-tvos</title>
  <g id="ICONS">
    <g>
      <g>
        <polygon class="cls-1" points="236.41 113 164.09 113 155.75 119 244.75 119 236.41 113"/>
        <polygon class="cls-1" points="203.75 116 196.75 116 198.15 102 202.35 102 203.75 116"/>
        <rect class="cls-2" x="125" y="20" width="150" height="82" rx="4" ry="4"/>
      </g>
      <rect class="cls-3" x="125" y="21" width="150" height="82" rx="4" ry="4" transform="translate(400 124) rotate(180)"/>
      <rect class="cls-4" x="130" y="26" width="139" height="71"/>
      <rect class="cls-5" x="157" y="34" width="84" height="48" rx="3" ry="3"/>
      <rect class="cls-2" x="179" y="85" width="40" height="4" rx="2" ry="2"/>
      <rect class="cls-6" x="186" y="48" width="26" height="18" rx="3" ry="3"/>
      <polygon class="cls-2" points="204 57.57 196 52.95 196 62.18 204 57.57"/>
    </g>
  </g>
</svg>
