<svg xmlns="http://www.w3.org/2000/svg" xmlns:xlink="http://www.w3.org/1999/xlink" viewBox="0 0 400 140">
  <defs>
    <style>
      .cls-1 {
        isolation: isolate;
      }

      .cls-2 {
        fill: url(#linear-gradient);
      }

      .cls-3 {
        fill: url(#linear-gradient-2);
      }

      .cls-4 {
        fill: url(#linear-gradient-3);
      }

      .cls-5 {
        fill: url(#linear-gradient-4);
      }

      .cls-6 {
        fill: url(#linear-gradient-5);
      }

      .cls-7 {
        fill: #c0862b;
      }

      .cls-8 {
        fill: #dc9a33;
      }

      .cls-9 {
        fill: #fbb03b;
      }

      .cls-10 {
        mix-blend-mode: multiply;
        fill: url(#radial-gradient);
      }

      .cls-11 {
        fill: #754423;
      }

      .cls-12 {
        fill: #472408;
      }

      .cls-13 {
        fill: #b5a272;
      }

      .cls-14 {
        fill: #fff;
      }

      .cls-15 {
        fill: #b2a47e;
      }
    </style>
    <linearGradient id="linear-gradient" x1="170.28" y1="98.73" x2="170.28" y2="128.43" gradientUnits="userSpaceOnUse">
      <stop offset="0" stop-color="#fff"/>
      <stop offset="1"/>
    </linearGradient>
    <linearGradient id="linear-gradient-2" x1="179.95" y1="98.73" x2="179.95" y2="127.95" xlink:href="#linear-gradient"/>
    <linearGradient id="linear-gradient-3" x1="199.27" y1="98.73" x2="199.27" y2="127.95" xlink:href="#linear-gradient"/>
    <linearGradient id="linear-gradient-4" x1="189.6" y1="98.74" x2="189.6" y2="128.58" xlink:href="#linear-gradient"/>
    <linearGradient id="linear-gradient-5" x1="209" y1="98.74" x2="209" y2="128.58" xlink:href="#linear-gradient"/>
    <radialGradient id="radial-gradient" cx="-1897.17" cy="587.49" r="7.38" gradientTransform="translate(7770.37 -281.96) scale(3.99 0.63)" gradientUnits="userSpaceOnUse">
      <stop offset="0.2"/>
      <stop offset="1" stop-color="#fff"/>
    </radialGradient>
  </defs>
  <title>xamarin-graphics-cocos</title>
  <g class="cls-1">
    <g id="ICONS">
      <g>
        <g>
          <path d="M235.5,116.76a2.34,2.34,0,0,1-2.3,2.37H165.33a2.34,2.34,0,0,1-2.3-2.37V31.31a2.34,2.34,0,0,1,2.3-2.37H233.2a2.34,2.34,0,0,1,2.3,2.37Z"/>
          <g>
            <g>
              <path class="cls-2" d="M174.31,114.5c0,.28-.88-.21-1.15-.21h-4.82c-.57,0-1.06.11-1.47-.3s-.61-.61-.61-1.17V100.27a2.09,2.09,0,0,1,2.08-2.08h4.82c.28,0,1.15.14,1.15.42v1.25c0,.28-.88-.06-1.15-.06h-4.4a1.42,1.42,0,0,0-.89.89v11.72c0,.28.61.28.89.28h4.4c.28,0,1.15.28,1.15.55Z"/>
              <path class="cls-3" d="M184,112.91c0,.56.11.7-.3,1.13s-.59.26-1.16.26h-4.19c-.57,0-1.22.15-1.63-.26s-.77-.56-.77-1.13V100.36a2.28,2.28,0,0,1,.77-1.51,2.42,2.42,0,0,1,1.63-.66h4.19c.57,0,.75.25,1.16.66s.3.94.3,1.51Zm-1.61-12.69a.42.42,0,0,0-.42-.42h-4a.42.42,0,0,0-.42.42v12.05a.42.42,0,0,0,.42.42h4a.42.42,0,0,0,.42-.42Z"/>
              <path class="cls-4" d="M203.29,112.91c0,.56.11.7-.3,1.13s-.59.26-1.16.26h-4.19c-.57,0-1.22.15-1.63-.26s-.77-.56-.77-1.13V100.36a2.28,2.28,0,0,1,.77-1.51,2.42,2.42,0,0,1,1.63-.66h4.19c.57,0,.75.25,1.16.66s.3.94.3,1.51Zm-1.61-12.69a.42.42,0,0,0-.42-.42h-4a.42.42,0,0,0-.42.42v12.05a.42.42,0,0,0,.42.42h4a.42.42,0,0,0,.42-.42Z"/>
              <path class="cls-5" d="M193.63,114.59c0,.28-.81-.29-1.09-.29h-4.82c-.57,0-1.09.15-1.5-.26s-.65-.56-.65-1.13V100.36a2.23,2.23,0,0,1,2.15-2.17h4.82c.28,0,1.09.23,1.09.5v1.25c0,.28-.81-.14-1.09-.14h-4.4a1.66,1.66,0,0,0-1,1v11.72c0,.28.68.19,1,.19h4.4c.28,0,1.09.36,1.09.64Z"/>
              <path class="cls-6" d="M213,112.91a1.18,1.18,0,0,1-.4,1.13c-.41.41-.68.26-1.25.26h-5.86c-.28,0-.55.57-.55.29v-1.26c0-.28.27-.64.55-.64h5.44c.28,0,.45.09.45-.19v-5.44c0-.28-.18-.81-.45-.81h-3.77a2,2,0,0,1-1.54-.42,1.67,1.67,0,0,1-.68-1.27v-4.19a2.17,2.17,0,0,1,.68-1.51,2.2,2.2,0,0,1,1.54-.66H213c.28,0,0,.23,0,.5v1.25c0,.28.3-.14,0-.14h-5.44c-.28,0-1,.7-1,1v3.36c0,.28.74.5,1,.5h3.77a1.52,1.52,0,0,1,1.25.57,1.76,1.76,0,0,1,.4,1.43Z"/>
            </g>
            <g>
              <path class="cls-7" d="M222.62,114.59c0,.28.11-.29-.16-.29H216.6c-.57,0-1,.15-1.44-.26s-.59-.56-.59-1.13v-6.27a2,2,0,0,1,2-2h3.77c.28,0,.64-.22.64-.5v-3.36c0-.28-.36-1-.64-1h-5.44c-.28,0-.36.42-.36.14V98.7c0-.28.09-.5.36-.5h5.86a1.78,1.78,0,0,1,1.34.66,2,2,0,0,1,.49,1.51v4.19a1.49,1.49,0,0,1-.49,1.27,1.59,1.59,0,0,1-1.34.42H217a1.22,1.22,0,0,0-.84.81v5.44c0,.28.56.19.84.19h5.44c.28,0,.16.36.16.64Z"/>
              <path class="cls-8" d="M232.28,112.91c0,.56-.2.7-.61,1.13s-.9.26-1.47.26h-5.86c-.28,0-.11.57-.11.29V98.7c0-.28-.17-.5.11-.5h5.86a2,2,0,0,1,1.47.66,2.11,2.11,0,0,1,.61,1.51Zm-1.61-.42V100.78c0-.28-.61-1-.89-1h-3.94v12.88h3.94C230.06,112.69,230.67,112.77,230.67,112.49Z"/>
            </g>
          </g>
          <path class="cls-9" d="M232.28,92.72A2.29,2.29,0,0,1,230,95H168.58a2.29,2.29,0,0,1-2.33-2.25V34.41a2.29,2.29,0,0,1,2.33-2.25H230a2.29,2.29,0,0,1,2.32,2.25Z"/>
          <ellipse class="cls-10" cx="199.05" cy="90.83" rx="29.46" ry="4.68"/>
          <g>
            <g>
              <path class="cls-11" d="M199.38,90.44a22.52,22.52,0,0,1-12.49-3.84c-3.49-1.91-14.54-9.8-14.44-32.88l0-4.11L174.77,53l.93,1.38c1.59-7.73,6.08-18.4,18.05-28.25l2.08-1.71-.64-2.65-.73-3,2.64,1.68c.58.37,13.41,8.62,21.05,22.82l.1-.34,1.07-3.61,1.33,3.52c4.44,11.8,3.74,21.06,2.52,26.49l1.07-.3,2.82-.8-1.35,2.6c-7,13.53-15.61,17.37-19,18.39a22,22,0,0,1-6.76,1.24Zm-3.29-64.29.21.22-.13-.55-.08.32Z"/>
              <path d="M196.42,21.48s14.76,9.37,22,25.19l1-3.42c4.9,13,3.45,22.78,1.92,27.86l3.19-.91C217.76,83.33,209.59,87,206.3,88a20.71,20.71,0,0,1-6.4,1.18h-.52a21.2,21.2,0,0,1-11.83-3.66c-3-1.61-13.93-9.09-13.83-31.8l2.65,3.94q.12-.7.27-1.39c1.21-7.43,5.27-18.74,17.92-29.15l-1.82,7.5,3.56-6.39,2.36,2.52-2.24-9.26M192.49,16,194,22.08l.46,1.88-1.47,1.21c-10.85,8.93-15.7,18.54-17.8,26.14l-3.91-5.82,0,8.22c-.11,23.67,11.35,31.93,15,34a23.78,23.78,0,0,0,13.14,4H200a23.26,23.26,0,0,0,7.12-1.3,25.73,25.73,0,0,0,8.62-4.78,44.42,44.42,0,0,0,11.11-14.23l2.7-5.19-4.71,1.34a41.38,41.38,0,0,0,.55-7.39,52.4,52.4,0,0,0-3.53-17.76l-2.65-7-1.4,4.74a68,68,0,0,0-11.33-13.76,64.56,64.56,0,0,0-8.67-7L192.49,16Z"/>
            </g>
            <path class="cls-12" d="M183.49,53s1.05-6,4.84-9.37a34.86,34.86,0,0,0,.95,6.95,10.7,10.7,0,0,1-2-3.05S185.28,48.88,183.49,53Z"/>
            <path class="cls-12" d="M197,41.93s1.79-4.74,1.58-6.42a14.3,14.3,0,0,1,4.21,6.32,22.13,22.13,0,0,0-3.16-3.05A15.93,15.93,0,0,1,197,41.93Z"/>
            <path class="cls-12" d="M211.21,57.36a16.08,16.08,0,0,0-3.13-4.94s6.17,23.06-7.52,31.57l1.15-5.62-4.45,5.41L192,80.2l3.75,6.5a32.32,32.32,0,0,1-11.63-3.62,18.57,18.57,0,0,0,3.42,2.44,21.17,21.17,0,0,0,12.36,3.65A20.71,20.71,0,0,0,206.3,88c3.29-1,11.46-4.66,18.28-17.78l-3.19.91c1.52-5.08,3-14.84-1.92-27.86l-1,3.42c-7.27-15.82-22-25.19-22-25.19S211.9,39.15,211.21,57.36Z"/>
            <path class="cls-12" d="M197.87,58.49s-.56-6.07,2.22-10.31a34.83,34.83,0,0,0,2.74,6.46,10.7,10.7,0,0,1-2.73-2.42S198.52,54.06,197.87,58.49Z"/>
            <path d="M173.72,53.72s3.21,5.31,5.3,7a64.15,64.15,0,0,1-3.65-7.26Z"/>
          </g>
          <path d="M219.46,43.26a14.14,14.14,0,0,1-2.73,6.56s1.53-4.59,1.53-6.23Z"/>
          <polygon points="224.58 70.21 219.32 71.69 223.08 69.46 224.58 70.21"/>
        </g>
        <g>
          <path class="cls-13" d="M190.55,80.91c-4.16,0-8-3.4-9.14-8.1-1.32-5.48,1.42-10.87,6.12-12a7.64,7.64,0,0,1,1.79-.21,7.83,7.83,0,0,1,1.82.22,10.4,10.4,0,0,1,7.31,7.88c1.31,5.45-1.4,10.81-6,12h0l-.08,0A7.57,7.57,0,0,1,190.55,80.91Z"/>
          <path d="M189.32,61.1a7.34,7.34,0,0,1,1.71.2A9.9,9.9,0,0,1,198,68.81c1.26,5.21-1.31,10.31-5.73,11.39h0a7.11,7.11,0,0,1-1.67.2c-3.87,0-7.55-3.15-8.65-7.71-1.26-5.22,1.32-10.32,5.76-11.4a7.1,7.1,0,0,1,1.67-.2m0-1h0a8.12,8.12,0,0,0-1.9.23c-5,1.2-7.88,6.85-6.49,12.6,1.19,4.91,5.23,8.48,9.62,8.48a8.14,8.14,0,0,0,1.91-.23h0l.1,0h0c4.89-1.26,7.74-6.87,6.36-12.57a10.91,10.91,0,0,0-7.68-8.25,8.36,8.36,0,0,0-1.94-.23Z"/>
        </g>
        <path class="cls-14" d="M192.24,80.2a9.89,9.89,0,0,1-6.94-7.51C184,67.48,186.6,62.38,191,61.3A9.9,9.9,0,0,1,198,68.81C199.23,74,196.66,79.12,192.24,80.2Z"/>
        <path d="M190.41,69.2V65.84h-.16a2.58,2.58,0,0,0-2.3,2.89,3,3,0,0,0,2.94,2.77c1.39-.13,2.47-2.31,2.44-2.31Z"/>
        <g>
          <path class="cls-15" d="M208.55,79.85a7.6,7.6,0,0,1-1.76-.21l-.27-.07c-4.59-1.26-7.18-6.5-5.89-11.91a10.49,10.49,0,0,1,7.09-7.85,7.84,7.84,0,0,1,2-.27,7.6,7.6,0,0,1,1.76.21c4.7,1.12,7.47,6.5,6.16,12C216.57,76.43,212.73,79.85,208.55,79.85Z"/>
          <path d="M209.77,60a7.05,7.05,0,0,1,1.65.19c4.44,1.06,7,6.15,5.79,11.38-1.09,4.58-4.77,7.74-8.65,7.74a7.12,7.12,0,0,1-1.65-.19l-.24-.06c-4.29-1.18-6.77-6.18-5.55-11.32a9.94,9.94,0,0,1,6.74-7.48,7.3,7.3,0,0,1,1.91-.26m0-1h0a8.31,8.31,0,0,0-2.18.29,11,11,0,0,0-7.45,8.21c-1.35,5.68,1.4,11.17,6.25,12.51l.29.08a8.1,8.1,0,0,0,1.87.22c4.4,0,8.45-3.58,9.62-8.51,1.37-5.75-1.56-11.4-6.53-12.58a8.07,8.07,0,0,0-1.88-.22Z"/>
        </g>
        <path class="cls-14" d="M213.4,71.61a9.94,9.94,0,0,1-6.74,7.48c-4.29-1.18-6.77-6.18-5.55-11.32a9.94,9.94,0,0,1,6.74-7.48C212.15,61.47,214.62,66.48,213.4,71.61Z"/>
        <path d="M208.13,67.59V65.14s-.14,0,0,0A2.52,2.52,0,0,1,210.3,68a2.68,2.68,0,0,1-3,2.32,2.64,2.64,0,0,1-2.49-2.76Z"/>
      </g>
    </g>
  </g>
</svg>
