<svg xmlns="http://www.w3.org/2000/svg" viewBox="0 0 400 140">
  <defs>
    <style>
      .cls-1 {
        fill: #e73c00;
      }
    </style>
  </defs>
  <title>xamarin-graphics-monogame</title>
  <g id="ICONS">
    <path class="cls-1" d="M237.51,65V54.81A22.14,22.14,0,0,0,200,38.88a22.13,22.13,0,0,0-37.51,15.93V85.55a21.86,21.86,0,0,0,22.14,21.78h30.74a21.86,21.86,0,0,0,22.14-21.78V71H192.74V84.22H224v1.33a8.6,8.6,0,0,1-8.59,8.59H184.63a8.81,8.81,0,0,1-8.83-8.59V54.81A8.8,8.8,0,0,1,184.36,46c4.74-.15,9.44,3.58,9.59,8.32q0,.27,0,.54V65h12.1V54.81c-.15-4.74,4.31-8.71,9.05-8.86a8.81,8.81,0,0,1,9.09,8.32c0,.18,0,.36,0,.54V65Z"/>
  </g>
</svg>
