<svg xmlns="http://www.w3.org/2000/svg" viewBox="0 0 400 140">
  <defs>
    <style>
      .cls-1, .cls-10 {
        fill: #fff;
      }

      .cls-1, .cls-4 {
        stroke: #556a8a;
        stroke-miterlimit: 10;
      }

      .cls-1, .cls-4, .cls-6 {
        stroke-width: 2px;
      }

      .cls-2 {
        fill: #e5e5e5;
      }

      .cls-3 {
        fill: #b3b3b3;
      }

      .cls-4 {
        fill: #c2c2c2;
      }

      .cls-5 {
        fill: #ababab;
      }

      .cls-6 {
        fill: none;
        stroke: #868787;
        stroke-linecap: round;
        stroke-linejoin: round;
      }

      .cls-7 {
        fill: #3498db;
      }

      .cls-8 {
        fill: #2bc7f4;
      }

      .cls-9 {
        fill: #556a8a;
      }

      .cls-10 {
        opacity: 0.28;
      }
    </style>
  </defs>
  <title>xamarin-forms-platform-features</title>
  <g id="ICONS">
    <g>
      <g>
        <g>
          <g>
            <rect class="cls-1" x="178" y="41.85" width="102" height="75" rx="4" ry="4"/>
            <rect class="cls-2" x="182" y="46.85" width="94" height="62"/>
            <circle class="cls-3" cx="229.87" cy="112.94" r="1.46"/>
          </g>
          <rect class="cls-4" x="129" y="19.85" width="68" height="95" rx="6" ry="6"/>
          <rect class="cls-2" x="134.23" y="31.17" width="57.54" height="73.23"/>
          <rect class="cls-5" x="155.79" y="108.85" width="12.21" height="3" rx="1.5" ry="1.5"/>
          <line class="cls-6" x1="152.54" y1="25.85" x2="173.46" y2="25.85"/>
        </g>
        <path id="Logo" class="cls-7" d="M154,42.85a3.18,3.18,0,0,0-2.68,1.55L142.9,59a3.18,3.18,0,0,0,0,3.09l8.46,14.65A3.18,3.18,0,0,0,154,78.33H171a3.18,3.18,0,0,0,2.68-1.55l8.46-14.65a3.18,3.18,0,0,0,0-3.09L173.64,44.4A3.18,3.18,0,0,0,171,42.85Zm.15,8.57h3a.38.38,0,0,1,.32.19l4.95,8.79a.08.08,0,1,0,.09,0l4.94-8.79a.39.39,0,0,1,.33-.19h2.92a.4.4,0,0,1,.33.55l-4.83,8.62,4.83,8.61a.4.4,0,0,1-.33.57h-2.92a.39.39,0,0,1-.33-.2l-4.94-8.79a.08.08,0,1,0-.09,0l-4.95,8.79a.39.39,0,0,1-.32.2h-2.92a.4.4,0,0,1-.33-.57l4.83-8.61L153.94,52a.4.4,0,0,1,.26-.55Z"/>
      </g>
      <g>
        <rect class="cls-1" x="183" y="67.29" width="31" height="58.56" rx="4" ry="4"/>
        <rect class="cls-2" x="185.58" y="75.04" width="25.83" height="42.19"/>
        <path class="cls-8" d="M202.11,72.93h-7.21a.88.88,0,0,1,0-1.72h7.21a.88.88,0,0,1,0,1.72Z"/>
        <circle class="cls-8" cx="188.6" cy="121.89" r="1.29"/>
        <circle class="cls-8" cx="209.26" cy="121.89" r="1.29"/>
        <rect class="cls-8" x="194.19" y="121.16" width="8.61" height="1.72" rx="0.86" ry="0.86"/>
      </g>
      <g>
        <g>
          <path class="cls-9" d="M303,52.5a2.61,2.61,0,0,1-2.25,2.59c-12.83,1.83-16.84,5.85-18.66,18.67A2.61,2.61,0,0,1,279.5,76a2.85,2.85,0,0,1-.52-.05,2.61,2.61,0,0,1-2.07-2.18c-1.83-12.83-5.84-16.85-18.66-18.67a2.61,2.61,0,0,1,0-5.17c12.83-1.83,16.84-5.85,18.66-18.67A2.64,2.64,0,0,1,279,29.05a2.85,2.85,0,0,1,.52-.05,2.62,2.62,0,0,1,2.59,2.25c1.83,12.83,5.84,16.85,18.66,18.67A2.6,2.6,0,0,1,303,52.5Z"/>
          <path class="cls-10" d="M303,52.5a2.61,2.61,0,0,1-2.25,2.59c-12.83,1.83-16.84,5.85-18.66,18.67A2.61,2.61,0,0,1,279.5,76a2.85,2.85,0,0,1-.52-.05V29.05a2.85,2.85,0,0,1,.52-.05,2.62,2.62,0,0,1,2.59,2.25c1.83,12.83,5.84,16.85,18.66,18.67A2.6,2.6,0,0,1,303,52.5Z"/>
        </g>
        <g>
          <path class="cls-9" d="M268,68.85a2.11,2.11,0,0,1-1.81,2.09c-10.37,1.49-13.62,4.73-15.1,15.1a2.11,2.11,0,0,1-4.18,0c-1.48-10.37-4.73-13.61-15.1-15.1a2.11,2.11,0,0,1,0-4.18c10.37-1.48,13.62-4.72,15.1-15.09a2.11,2.11,0,0,1,4.18,0c1.48,10.37,4.73,13.61,15.1,15.09A2.12,2.12,0,0,1,268,68.85Z"/>
          <path class="cls-10" d="M268,68.85a2.11,2.11,0,0,1-1.81,2.09c-10.37,1.49-13.62,4.73-15.1,15.1A2.11,2.11,0,0,1,249,87.85v-38a2.12,2.12,0,0,1,2.09,1.82c1.48,10.37,4.73,13.61,15.1,15.09A2.12,2.12,0,0,1,268,68.85Z"/>
        </g>
        <g>
          <path class="cls-9" d="M271,33a1.55,1.55,0,0,1-1.34,1.54c-7.64,1.09-10,3.49-11.12,11.13a1.56,1.56,0,0,1-3.08,0c-1.09-7.64-3.48-10-11.12-11.13a1.55,1.55,0,0,1,0-3.08c7.64-1.09,10-3.48,11.12-11.12a1.55,1.55,0,0,1,3.08,0c1.09,7.64,3.48,10,11.12,11.12A1.56,1.56,0,0,1,271,33Z"/>
          <path class="cls-10" d="M271,33a1.55,1.55,0,0,1-1.34,1.54c-7.64,1.09-10,3.49-11.12,11.13A1.56,1.56,0,0,1,257,47V19a1.56,1.56,0,0,1,1.54,1.34c1.09,7.64,3.48,10,11.12,11.12A1.56,1.56,0,0,1,271,33Z"/>
        </g>
      </g>
    </g>
  </g>
</svg>
