<svg xmlns="http://www.w3.org/2000/svg" xmlns:xlink="http://www.w3.org/1999/xlink" viewBox="0 0 400 140">
  <defs>
    <style>
      .cls-1, .cls-15, .cls-3 {
        fill: none;
      }

      .cls-2 {
        fill: #80def9;
      }

      .cls-15, .cls-3 {
        stroke: #5558af;
      }

      .cls-15, .cls-3, .cls-4 {
        stroke-miterlimit: 10;
      }

      .cls-3, .cls-4 {
        stroke-width: 2px;
      }

      .cls-13, .cls-4 {
        fill: #fff;
      }

      .cls-4 {
        stroke: #556a8a;
      }

      .cls-5 {
        fill: #e5e5e5;
      }

      .cls-6 {
        fill: #2bc7f4;
      }

      .cls-7 {
        fill: #2e75b5;
      }

      .cls-8 {
        fill: #2e75b5;
      }

      .cls-9 {
        fill: #b455b6;
      }

      .cls-10 {
        fill: #b455b6;
      }

      .cls-11 {
        fill: #2c3e50;
      }

      .cls-12 {
        fill: #2c3e50;
      }

      .cls-13 {
        opacity: 0.5;
      }

      .cls-14 {
        clip-path: url(#clip-path);
      }

      .cls-15 {
        stroke-width: 3px;
      }

      .cls-16 {
        fill: #77d065;
      }

      .cls-17 {
        fill: #77d065;
      }

      .cls-91 {
        fill: none;
      }

      .cls-91, .cls-92 {
        stroke: #556a8a;
        stroke-miterlimit: 10;
        stroke-width: 2px;
      }

      .cls-92 {
        fill: #fff;
      }

      .cls-93 {
        fill: #55d2f6;
      }

      .cls-94 {
        fill: #2bc7f4;
      }
    </style>
    <!--
    Green: #77d065
    Black: #2c3e50
    Blue: #2e75b5
    Purple: #b455b6
    -->
    <clipPath id="clip-path">
      <rect class="cls-1" x="273" y="16.96" width="65" height="64.29"/>
    </clipPath>
  </defs>
  <title>xamarin-essentials</title>
  <g>
    <line class="cls-91" x1="203" y1="75" x2="130" y2="35"/>
    <line class="cls-91" x1="203" y1="75" x2="153" y2="120"/>
    <line class="cls-91" x1="203" y1="75" x2="265" y2="46"/>
    <line class="cls-91" x1="203" y1="75" x2="250" y2="112"/>
  </g>
  <g id="ICONS">
    <g>
      <g>
        <rect class="cls-4" x="183" y="40" width="36" height="68" rx="4" ry="4"/>
        <rect class="cls-5" x="186" y="49" width="30" height="49"/>
        <path class="cls-6" d="M205.19,46h-8.38a1,1,0,0,1,0-2h8.38a1,1,0,0,1,0,2Z"/>
        <circle class="cls-6" cx="189.5" cy="103.5" r="1.5"/>
        <circle class="cls-6" cx="213.5" cy="103.5" r="1.5"/>
        <rect class="cls-6" x="196" y="102" width="10" height="2" rx="1" ry="1"/>
      </g>
      <g>
        <circle class="cls-16" cx="130" cy="35" r="18"/>
      </g>
      <g>
        <circle class="cls-11" cx="153" cy="120" r="18"/>
      </g>
      <g>
        <circle class="cls-7" cx="265" cy="46" r="18"/>
      </g>
      <g>
        <circle class="cls-9" cx="250" cy="112" r="18"/>
      </g>
      <polygon class="cls-13" points="216 49 216 77 188 49 216 49"/>
    </g>
  </g>
</svg>
