<svg xmlns="http://www.w3.org/2000/svg" viewBox="0 0 400 140">
  <defs>
    <style>
      .cls-1 {
        fill: #c2c2c2;
      }

      .cls-1, .cls-10, .cls-11, .cls-5 {
        stroke: #556a8a;
      }

      .cls-1, .cls-10, .cls-11, .cls-12, .cls-5 {
        stroke-miterlimit: 10;
      }

      .cls-1, .cls-10, .cls-11, .cls-12, .cls-4, .cls-5 {
        stroke-width: 2px;
      }

      .cls-2 {
        fill: #e5e5e5;
      }

      .cls-3 {
        fill: #ababab;
      }

      .cls-10, .cls-4 {
        fill: none;
      }

      .cls-4 {
        stroke: #868787;
        stroke-linecap: round;
        stroke-linejoin: round;
      }

      .cls-5, .cls-9 {
        fill: #fff;
      }

      .cls-6 {
        fill: #2bc7f4;
      }

      .cls-11, .cls-7 {
        fill: #556a8a;
      }

      .cls-8 {
        fill: #adbdca;
      }

      .cls-12 {
        fill: #55d2f6;
        stroke: #2bc7f4;
      }
    </style>
  </defs>
  <title>xamarin-cross-platform-ui</title>
  <g id="ICONS">
    <g>
      <g>
        <g>
          <rect class="cls-1" x="127" y="21" width="58" height="82" rx="6" ry="6"/>
          <rect class="cls-2" x="133" y="33" width="46" height="63"/>
          <rect class="cls-3" x="150" y="98" width="11" height="2" rx="1" ry="1"/>
          <line class="cls-4" x1="146.06" y1="29" x2="164" y2="29"/>
        </g>
        <g>
          <rect class="cls-5" x="112" y="54" width="31" height="57" rx="4" ry="4"/>
          <rect class="cls-2" x="116" y="61" width="23" height="41"/>
          <path class="cls-6" d="M131.27,59h-7.54c-.4,0-.73-.45-.73-1s.33-1,.73-1h7.54c.4,0,.73.45.73,1S131.67,59,131.27,59Z"/>
          <path class="cls-6" d="M131.27,106h-7.54c-.4,0-.73-.45-.73-1s.33-1,.73-1h7.54c.4,0,.73.45.73,1S131.67,106,131.27,106Z"/>
          <circle class="cls-6" cx="137" cy="105" r="1"/>
          <circle class="cls-6" cx="118" cy="105" r="1"/>
        </g>
      </g>
      <polygon class="cls-7" points="275.56 118 188.32 118 193.78 111 270.46 111 275.56 118"/>
      <polygon class="cls-8" points="267.36 116 196.53 116 199.01 113 264.95 113 267.36 116"/>
      <polygon class="cls-7" points="251.24 105 212.54 105 208.07 109 255.71 109 251.24 105"/>
      <polygon class="cls-7" points="234.18 106.85 228.96 106.85 230 96.41 233.14 96.41 234.18 106.85"/>
      <rect class="cls-9" x="175.25" y="36" width="112" height="62" rx="4" ry="4" transform="translate(462.5 134) rotate(180)"/>
      <path class="cls-2" d="M287.25,40V53h-112V40a4,4,0,0,1,4-4h104A4,4,0,0,1,287.25,40Z"/>
      <rect class="cls-10" x="175" y="36" width="112" height="62" rx="4" ry="4" transform="translate(462 134) rotate(180)"/>
      <g>
        <g>
          <g>
            <path class="cls-5" d="M275.79,76H228.21A2.18,2.18,0,0,1,226,73.87V62.13A2.18,2.18,0,0,1,228.21,60h47.57A2.18,2.18,0,0,1,278,62.13V73.87A2.18,2.18,0,0,1,275.79,76Z"/>
            <line class="cls-11" x1="252.06" y1="76.56" x2="252.06" y2="59.56"/>
          </g>
          <rect class="cls-7" x="260" y="67" width="10" height="2"/>
          <rect class="cls-7" x="234" y="67" width="10" height="2"/>
          <rect class="cls-7" x="264" y="63" width="2" height="10"/>
        </g>
        <g>
          <rect class="cls-12" x="125" y="69" width="30" height="17" rx="8.5" ry="8.5"/>
          <circle class="cls-9" cx="146.84" cy="77.5" r="6.5"/>
        </g>
      </g>
    </g>
  </g>
</svg>
