<svg id="ICONS" xmlns="http://www.w3.org/2000/svg" viewBox="0 0 400 140">
  <defs>
    <style>
      .cls-1 {
        fill: #bad80a;
      }

      .cls-2 {
        fill: #aae9fb;
      }

      .cls-3 {
        fill: #556a8a;
      }

      .cls-4 {
        fill: #adbdca;
      }

      .cls-11, .cls-5 {
        fill: #fff;
      }

      .cls-6 {
        fill: #c8edfb;
      }

      .cls-7 {
        fill: none;
      }

      .cls-11, .cls-7 {
        stroke: #556a8a;
        stroke-miterlimit: 10;
        stroke-width: 2px;
      }

      .cls-8 {
        fill: #6a84aa;
      }

      .cls-9 {
        fill: #e5e5e5;
      }

      .cls-10 {
        fill: #2bc7f4;
      }

      .cls-99 {
        fill: #80def9;
      }

      .cls-98 {
        fill: #2bc7f4;
      }

      .cls-97  {
        fill: #9273b6;
      }
    </style>
  </defs>
  <title>system-center-virtual-machine</title>
  <path class="cls-1" d="M141.26,42.56l-5.21-1a20.86,20.86,0,0,0-.4-3.59l4.44-2.62a1.37,1.37,0,0,0,.84-1.84l-1.17-3.25a1.18,1.18,0,0,0-1.66-.64l-5.3.89-1.56-2.89,3.19-4a1.41,1.41,0,0,0,.08-1.87L132,19a1.69,1.69,0,0,0-1.88-.08l-4.27,2.81c-.91-.6-2-1.4-2.91-2l1.37-5.2a1.29,1.29,0,0,0-.68-1.54l-3.13-1.45a1.19,1.19,0,0,0-1.72.48l-3,4.57a10.81,10.81,0,0,0-3.34-.91l-.51-5.28A1.29,1.29,0,0,0,110.66,9l-3.57,0c-.56-.21-1.15.33-1.36.88l-1.19,5.4a11.12,11.12,0,0,0-3.41.59l-2.6-4.81a1.9,1.9,0,0,0-1.66-.64l-3.45,1.35a1.27,1.27,0,0,0-.82,1.46l1.08,5.13c-1,.52-1.94,1.41-2.91,1.94L86.6,17a1.22,1.22,0,0,0-1.69.11l-1.64,1.49-.91.84,0,0a1.21,1.21,0,0,0-.24,1.65l3,4.46a15.48,15.48,0,0,0-2.21,3.1L77.69,26.9a1.67,1.67,0,0,0-1.74.86l-1.46,3.13a1.63,1.63,0,0,0,.67,1.91l4.38,2.83c-.43,1.11-.48,2.24-.91,3.35l-5.28.51a1.65,1.65,0,0,0-1.2,1.45L72,44.31a1.64,1.64,0,0,0,1,1.56l5.42.81A21.72,21.72,0,0,0,79,50.46l-4.82,2.6a1.19,1.19,0,0,0-.64,1.67L74.75,58a1.76,1.76,0,0,0,1.65,1l5.32-1.26,1.56,2.89-3.39,4.17a1.77,1.77,0,0,0,.11,1.7l2.51,2.74a1.42,1.42,0,0,0,1.67.27l4.47-3c.91.61,2,1.41,2.91,2L90.2,73.72a1.26,1.26,0,0,0,.68,1.53l3.3,1.66a1.62,1.62,0,0,0,1.72-.49L98.73,72c1.13.05,2.24.48,3.36.53L102.4,78a1.64,1.64,0,0,0,1.45,1.19l3.56.35a2.26,2.26,0,0,0,1.37-1.25l1-5.22c1.32-.13,2.46-.46,3.78-.58L116,77.14a1.29,1.29,0,0,0,1.67.64l3.24-1.17a1.53,1.53,0,0,0,1-1.65l-1.08-5.12a13.15,13.15,0,0,0,2.91-1.94l4.17,3.39a1.26,1.26,0,0,0,1.88.08l2.34-2.14.21-.19a1.33,1.33,0,0,0,.46-1,1.29,1.29,0,0,0-.38-.92l-3-4.47a9.25,9.25,0,0,0,2.21-3.09l5.19,1.74a1.28,1.28,0,0,0,1.53-.68L140,57.36a1.9,1.9,0,0,0-.49-1.72l-4.56-3a9.44,9.44,0,0,0,.71-3.17l5.49-.69c.57-.16,1.16-.7,1.18-1.08l.17-3.75A1.28,1.28,0,0,0,141.26,42.56ZM107,52.57a9,9,0,1,1,9-9A9,9,0,0,1,107,52.57Z"/>
  
  <g>
    <polygon class="cls-3" points="215.8 112.1 122.2 112.1 128.05 106.1 210.32 106.1 215.8 112.1"/>
    <polygon class="cls-4" points="207 110 131 110 133.67 108 204.41 108 207 110"/>
    <polygon class="cls-3" points="189.4 98 147.8 98 143 103 194.2 103 189.4 98"/>
    <polygon class="cls-3" points="171.4 100.1 165.8 100.1 166.92 88.9 170.28 88.9 171.4 100.1"/>
    <rect class="cls-5" x="109" y="25" width="121" height="66" rx="4" ry="4" transform="translate(339 116) rotate(180)"/>
    <rect class="cls-6" x="110" y="26" width="120" height="12.8"/>
    <rect class="cls-7" x="109" y="25" width="121" height="66" rx="4" ry="4" transform="translate(339 116) rotate(180)"/>
  </g>
 
  <path class="cls-3" d="M263.6,67H244.4a2.39,2.39,0,0,0-2.4,2.36v8.27A2.39,2.39,0,0,0,244.4,80H244V69h20V80h-.4a2.39,2.39,0,0,0,2.4-2.36V69.36A2.39,2.39,0,0,0,263.6,67Z"/>
  <path class="cls-5" d="M279.36,76H228.64A5.75,5.75,0,0,0,223,81.84v29.43a1.71,1.71,0,0,0,1.7,1.73H283.3a1.63,1.63,0,0,0,.88-.22,1.82,1.82,0,0,0,.81-1.51V81.84A5.75,5.75,0,0,0,279.36,76Z"/>
  <rect class="cls-9" x="223" y="105" width="62" height="8"/>
  <path class="cls-7" d="M279.36,76H228.64A5.75,5.75,0,0,0,223,81.84v29.43a1.71,1.71,0,0,0,1.7,1.73H283.3a1.63,1.63,0,0,0,.88-.22,1.82,1.82,0,0,0,.81-1.51V81.84A5.75,5.75,0,0,0,279.36,76Z"/>
  <rect class="cls-10" x="224" y="92" width="60" height="5"/>
  <rect class="cls-11" x="235" y="88" width="8" height="13.91" rx="2" ry="2"/>
  <line class="cls-11" x1="239" y1="91" x2="239" y2="99"/>
  <rect class="cls-11" x="265" y="88" width="8" height="13.91" rx="2" ry="2"/>
  <line class="cls-11" x1="269" y1="91" x2="269" y2="99"/>

  <g>
    <path class="cls-99" d="M111.63,53.27a17.49,17.49,0,0,0-5.89-1.57,19.15,19.15,0,0,0-7.79,1,18.33,18.33,0,0,0-10.13,8.67,16,16,0,0,0-1.24,12.85,17.9,17.9,0,0,0,22.62,11,17.71,17.71,0,0,0,10.4-8.83,17.5,17.5,0,0,0,.67-13.57A16.36,16.36,0,0,0,111.63,53.27Zm-6.17,21.1a6,6,0,0,1-7.54-3.67,5.84,5.84,0,0,1,3.78-7.2,5.75,5.75,0,1,1,3.76,10.87Z"/>
    <path class="cls-98" d="M141.05,69.45A1.35,1.35,0,0,0,140,68l-5.73-1a9.8,9.8,0,0,0-.48-4l5.07-2.6a1.32,1.32,0,0,0,.88-1.78l-1.19-3.45a1.34,1.34,0,0,0-1.79-.87l-5.62,1a14.2,14.2,0,0,0-1.72-3.27L133,47.89a1.6,1.6,0,0,0-.11-2l-2.44-2.73a1.38,1.38,0,0,0-1.88-.25l-4.62,3c-1.17-.79-2.07-1.67-3.24-2.46l1.74-5.32a2.38,2.38,0,0,0-.64-1.86l-3.5-1.48a1.75,1.75,0,0,0-2,.37l-3.08,4.89c-1.08-.52-2.33-.69-3.41-1.22l-.41-5.49A1.71,1.71,0,0,0,108.11,32l-3.93-.15a1.35,1.35,0,0,0-1.42,1.07l-1.38,5.5c-1.16.1-2.59.28-3.75.38l-2.64-5c-.18-.53-1.17-.79-1.7-.61l-3.74,1.26a1.85,1.85,0,0,0-1,1.51l1,5.57-2.93,1.88-4.32-3.87a1.88,1.88,0,0,0-2.05.1l-2.75,2.41a1.24,1.24,0,0,0-.25,1.86l3.17,4.85A23.31,23.31,0,0,0,78,52l-5.47-2a1.74,1.74,0,0,0-1.78.9l-1.58,3.2A1.72,1.72,0,0,0,69.56,56l4.67,3.16c-.17,1.24-.69,2.31-.86,3.55l-5.54.39a1.72,1.72,0,0,0-1.59,1.43L66,68.17a1.73,1.73,0,0,0,1.18,1.67l5.72,1a16,16,0,0,0,.48,4l-5.07,2.6a1.27,1.27,0,0,0-.61,1.69l1.19,3.45a1.3,1.3,0,0,0,1.53,1l5.62-1c.63,1,1.09,2.29,1.73,3.27L74.14,90a1.34,1.34,0,0,0,0,1.77l2.53,3a2,2,0,0,0,1.88.25l4.89-3.13a11.76,11.76,0,0,0,2.88,2.28l-1.65,5.59c-.08.62.19,1.42.82,1.5l3.32,1.84a1.37,1.37,0,0,0,1.87-.63l3.18-4.63a11.75,11.75,0,0,0,3.58.86l.5,5.75a1.26,1.26,0,0,0,1.35,1.32L103,106a1.36,1.36,0,0,0,1.42-1.07l1.38-5.5c1.16-.1,2.59-.28,3.75-.38l2.54,4.77a1.79,1.79,0,0,0,1.79.87l3.74-1.26a1.49,1.49,0,0,0,.88-1.78l-.94-5.31,2.93-1.88L125,98a1.27,1.27,0,0,0,1.88.25l2.75-2.41a1.43,1.43,0,0,0,.16-2.12L126.93,89a21.52,21.52,0,0,0,2.21-3.12l5.37,1.74a1.37,1.37,0,0,0,1.87-.63l1.75-3.55a1.75,1.75,0,0,0-.55-1.59l-4.76-3.42a10,10,0,0,0,1-3.28l5.8-.48a2,2,0,0,0,1.33-1.34Zm-18,8.62a21.91,21.91,0,0,1-40.15-2.63A19.7,19.7,0,0,1,84.4,59.54a22.3,22.3,0,0,1,28.87-9.73,20.17,20.17,0,0,1,10.65,11.77A21.26,21.26,0,0,1,123.07,78.06Z"/>
  </g>
  <path class="cls-97" d="M142.45,28.28c-.64-.3-1.61-.69-2.12-1a1.35,1.35,0,0,1-.71-1.36c0-.57,0-.83.09-1.4a1.2,1.2,0,0,1,.7-1.12c.54-.33,1.56-.92,2.07-1.23a.76.76,0,0,0,.35-1.13c-.21-.49-.54-1.21-.72-1.57a.72.72,0,0,0-1-.39l-2.26.67a1.29,1.29,0,0,1-1.4-.2c-.44-.46-.89-.92-1.12-1.18a1.33,1.33,0,0,1-.21-1.36c.21-.68.51-1.88.62-2.31a.76.76,0,0,0-.58-1c-.56-.2-.92-.36-1.51-.52s-.84-.07-1.18.52-.74,1.27-1,1.72-.48.75-1,.79l-1.82.12c-.53,0-.85-.1-1.22-.8s-.76-1.67-.93-2a.86.86,0,0,0-1.27-.43c-.53.22-1.08.47-1.54.68a.82.82,0,0,0-.47,1.21c.26.69.56,1.48.76,2a1.09,1.09,0,0,1-.34,1.3c-.4.37-.84.81-1.2,1.16a1.2,1.2,0,0,1-1.4.34c-.7-.21-1.48-.45-2.14-.69a.7.7,0,0,0-1,.43c-.26.54-.54,1.29-.74,1.7a.71.71,0,0,0,.29,1c.46.32,2.18,1.14,2.46,1.32a1,1,0,0,1,.52,1.06c-.05.61-.09,1-.17,1.48a1.17,1.17,0,0,1-.75,1.1c-.65.35-1.78,1-2.16,1.22s-.47.58-.25,1.07.56,1.28.71,1.59a.82.82,0,0,0,1.12.48l2.32-.77a1.23,1.23,0,0,1,1.33.36c.36.39.66.73,1,1.05a1.22,1.22,0,0,1,.27,1.34c-.18.76-.36,1.63-.48,2.24a.83.83,0,0,0,.56,1.11c.49.19,1.16.51,1.49.64s.85.23,1.22-.57.81-1.77.94-2.07.44-.52,1.05-.57,1.27-.1,1.7-.12a1.11,1.11,0,0,1,1.08.61c.22.35.8,1.64,1,2a.89.89,0,0,0,1.26.6c.87-.26,1.38-.44,1.83-.6s.6-.59.37-1.2-.61-1.64-.82-2.17,0-.88.42-1.3a12.57,12.57,0,0,1,1.18-1.06A1.45,1.45,0,0,1,139,31c.64.16,1.25.36,1.73.46s1.12.38,1.46-.37.51-1.14.7-1.63S143.09,28.58,142.45,28.28Zm-12.22,1.84a4.79,4.79,0,1,1,5.13-4.47A4.81,4.81,0,0,1,130.22,30.12Z"/>
</svg>
