<svg xmlns="http://www.w3.org/2000/svg" viewBox="0 0 400 140">
  <defs>
    <style>
      .cls-1 {
        fill: #556a8a;
      }

      .cls-2 {
        fill: #adbdca;
      }

      .cls-3, .cls-8 {
        fill: #fff;
      }

      .cls-4 {
        fill: #e5e5e5;
      }

      .cls-5 {
        fill: none;
      }

      .cls-5, .cls-8 {
        stroke: #556a8a;
        stroke-miterlimit: 10;
        stroke-width: 2px;
      }

      .cls-6 {
        fill: #2bc7f4;
      }

      .cls-7 {
        fill: #55d2f6;
      }

      .cls-9 {
        fill: #a4c439;
      }
    </style>
  </defs>
  <title>xamarin-android-platform-features</title>
  <g id="ICONS">
    <g>
      <g>
        <polygon class="cls-1" points="248.07 123 156.54 123 162.26 116 242.72 116 248.07 123"/>
        <polygon class="cls-2" points="239.47 121 165.14 121 167.75 118 236.94 118 239.47 121"/>
        <polygon class="cls-1" points="222.56 109 181.94 109 177.26 114 227.24 114 222.56 109"/>
        <polygon class="cls-1" points="204.65 110.99 199.18 110.99 200.27 100.04 203.56 100.04 204.65 110.99"/>
        <rect class="cls-3" x="143.03" y="37.15" width="118.44" height="64.11" rx="4" ry="4" transform="translate(404.5 138.42) rotate(180)"/>
        <path class="cls-4" d="M262,52.92V42.05a4.35,4.35,0,0,0-4.35-4.35H147.92a4.35,4.35,0,0,0-4.35,4.35V52.92Z"/>
        <rect class="cls-5" x="144" y="37" width="119" height="65" rx="4" ry="4" transform="translate(407 139) rotate(180)"/>
      </g>
      <path class="cls-6" d="M120.25,47.65a2.61,2.61,0,0,0,2.25,2.59c12.83,1.83,16.84,5.85,18.66,18.67a2.61,2.61,0,0,0,2.59,2.24,2.85,2.85,0,0,0,.52-.05,2.61,2.61,0,0,0,2.07-2.18c1.83-12.83,5.84-16.85,18.66-18.67a2.61,2.61,0,0,0,0-5.17c-12.83-1.83-16.84-5.85-18.66-18.67a2.64,2.64,0,0,0-2.07-2.19,2.85,2.85,0,0,0-.52-.05,2.62,2.62,0,0,0-2.59,2.25c-1.83,12.83-5.84,16.85-18.66,18.67A2.6,2.6,0,0,0,120.25,47.65Z"/>
      <path class="cls-6" d="M155.25,64a2.11,2.11,0,0,0,1.81,2.09c10.37,1.49,13.62,4.73,15.1,15.1a2.11,2.11,0,0,0,4.18,0c1.48-10.37,4.73-13.61,15.1-15.1a2.11,2.11,0,0,0,0-4.18c-10.37-1.48-13.62-4.72-15.1-15.09a2.11,2.11,0,0,0-4.18,0c-1.48,10.37-4.73,13.61-15.1,15.09A2.12,2.12,0,0,0,155.25,64Z"/>
      <path class="cls-6" d="M152.25,28.15a1.55,1.55,0,0,0,1.34,1.54c7.64,1.09,10,3.49,11.12,11.13a1.56,1.56,0,0,0,3.08,0c1.09-7.64,3.48-10,11.12-11.13a1.55,1.55,0,0,0,0-3.08c-7.64-1.09-10-3.48-11.12-11.12a1.55,1.55,0,0,0-3.08,0c-1.09,7.64-3.48,10-11.12,11.12A1.56,1.56,0,0,0,152.25,28.15Z"/>
      <path class="cls-7" d="M120.25,47.65a2.61,2.61,0,0,0,2.25,2.59c12.83,1.83,16.84,5.85,18.66,18.67a2.61,2.61,0,0,0,2.59,2.24,2.85,2.85,0,0,0,.52-.05V24.2a2.85,2.85,0,0,0-.52-.05,2.62,2.62,0,0,0-2.59,2.25c-1.83,12.83-5.84,16.85-18.66,18.67A2.6,2.6,0,0,0,120.25,47.65Z"/>
      <path class="cls-7" d="M155.25,64a2.11,2.11,0,0,0,1.81,2.09c10.37,1.49,13.62,4.73,15.1,15.1A2.11,2.11,0,0,0,174.25,83V45a2.12,2.12,0,0,0-2.09,1.82c-1.48,10.37-4.73,13.61-15.1,15.09A2.12,2.12,0,0,0,155.25,64Z"/>
      <path class="cls-7" d="M152.25,28.15a1.55,1.55,0,0,0,1.34,1.54c7.64,1.09,10,3.49,11.12,11.13a1.56,1.56,0,0,0,1.54,1.33v-28a1.56,1.56,0,0,0-1.54,1.34c-1.09,7.64-3.48,10-11.12,11.12A1.56,1.56,0,0,0,152.25,28.15Z"/>
      <g>
        <rect class="cls-8" x="249" y="53" width="31" height="58" rx="4" ry="4"/>
        <rect class="cls-4" x="252" y="60" width="25" height="42"/>
        <path class="cls-6" d="M268.11,58h-7.21c-.39,0-.7-.45-.7-1s.31-1,.7-1h7.21c.39,0,.7.45.7,1S268.49,58,268.11,58Z"/>
        <circle class="cls-6" cx="254.29" cy="106.71" r="1.29"/>
        <circle class="cls-6" cx="274.71" cy="106.71" r="1.29"/>
        <rect class="cls-6" x="260.19" y="106" width="8.61" height="2" rx="0.86" ry="0.86"/>
      </g>
      <g>
        <path class="cls-9" d="M214.6,49.7h0a.38.38,0,0,1,.38.38v6a.38.38,0,0,1-.38.38h0a.37.37,0,0,1-.37-.37v-6a.37.37,0,0,1,.37-.37Z" transform="translate(8.37 132.68) rotate(-35)"/>
        <path class="cls-9" d="M228,49.7h0a.37.37,0,0,1,.37.37v6a.38.38,0,0,1-.38.38h0a.37.37,0,0,1-.37-.37v-6A.37.37,0,0,1,228,49.7Z" transform="translate(384.27 227.3) rotate(-145)"/>
        <g>
          <path class="cls-9" d="M204,66a3,3,0,0,0-3,2.91V81.09a3,3,0,0,0,6,0V68.91A3,3,0,0,0,204,66"/>
          <path class="cls-9" d="M215,79a3,3,0,0,0-3,2.91V94.09a3,3,0,0,0,6,0V81.91A3,3,0,0,0,215,79"/>
          <path class="cls-9" d="M226,79a3,3,0,0,0-3,2.91V94.09a3,3,0,0,0,6,0V81.91A3,3,0,0,0,226,79"/>
          <path class="cls-9" d="M237,66a3,3,0,0,0-3,2.91V81.09a3,3,0,0,0,6,0V68.91A3,3,0,0,0,237,66"/>
        </g>
        <path class="cls-9" d="M208,83.5a4.41,4.41,0,0,0,4.29,4.5h16.43A4.41,4.41,0,0,0,233,83.5V67H208Z"/>
        <path class="cls-9" d="M233,66a12.5,12.5,0,1,0-25,0Z"/>
        <path class="cls-3" d="M226.38,61.15A1.13,1.13,0,1,1,227.5,60a1.12,1.12,0,0,1-1.12,1.12"/>
        <path class="cls-3" d="M215.13,61.15A1.13,1.13,0,1,1,216.25,60a1.12,1.12,0,0,1-1.12,1.12"/>
      </g>
    </g>
  </g>
</svg>
