<svg xmlns="http://www.w3.org/2000/svg" viewBox="0 0 400 140">
  <defs>
    <style>
      .cls-1 {
        fill: #c2c2c2;
      }

      .cls-1, .cls-10, .cls-5 {
        stroke: #556a8a;
        stroke-miterlimit: 10;
      }

      .cls-1, .cls-10, .cls-4, .cls-5 {
        stroke-width: 2px;
      }

      .cls-2 {
        fill: #e5e5e5;
      }

      .cls-3 {
        fill: #ababab;
      }

      .cls-10, .cls-4 {
        fill: none;
      }

      .cls-4 {
        stroke: #868787;
        stroke-linecap: round;
        stroke-linejoin: round;
      }

      .cls-5, .cls-9 {
        fill: #fff;
      }

      .cls-6 {
        fill: #2bc7f4;
      }

      .cls-7 {
        fill: #556a8a;
      }

      .cls-8 {
        fill: #adbdca;
      }

      .cls-11 {
        fill: #55d2f6;
      }
    </style>
  </defs>
  <title>xamarin-cross-platform-platform-features</title>
  <g id="ICONS">
    <g>
      <g>
        <g>
          <g>
            <rect class="cls-1" x="112" y="20" width="58" height="82" rx="6" ry="6"/>
            <rect class="cls-2" x="117" y="32" width="47" height="63"/>
            <rect class="cls-3" x="135" y="97" width="11" height="2" rx="1" ry="1"/>
            <line class="cls-4" x1="131.06" y1="28" x2="149" y2="28"/>
          </g>
          <g>
            <rect class="cls-5" x="97" y="53" width="31" height="57" rx="4" ry="4"/>
            <rect class="cls-2" x="101" y="60" width="23" height="41"/>
            <path class="cls-6" d="M116.27,58h-7.54c-.4,0-.73-.45-.73-1s.33-1,.73-1h7.54c.4,0,.73.45.73,1S116.67,58,116.27,58Z"/>
            <path class="cls-6" d="M116.27,105h-7.54c-.4,0-.73-.45-.73-1s.33-1,.73-1h7.54c.4,0,.73.45.73,1S116.67,105,116.27,105Z"/>
            <circle class="cls-6" cx="122" cy="104" r="1"/>
            <circle class="cls-6" cx="103" cy="104" r="1"/>
          </g>
        </g>
        <g>
          <polygon class="cls-7" points="260.56 117 173.32 117 178.78 110 255.46 110 260.56 117"/>
          <polygon class="cls-8" points="252.36 115 181.53 115 184.01 112 249.95 112 252.36 115"/>
          <polygon class="cls-7" points="236.24 104 197.54 104 193.07 108 240.71 108 236.24 104"/>
          <polygon class="cls-7" points="219.18 105.85 213.96 105.85 215 95.41 218.14 95.41 219.18 105.85"/>
          <g>
            <path class="cls-9" d="M260.7,95.8l8.39-7.75A13.33,13.33,0,0,1,276.9,85h16.16a13.33,13.33,0,0,1,7.81,3.05l8.39,7.75"/>
            <rect class="cls-9" x="258" y="95.8" width="54" height="12.6" rx="4" ry="4"/>
            <path class="cls-2" d="M302.44,89.5l-1.57-1.45A13.33,13.33,0,0,0,293.06,85H276.9a13.33,13.33,0,0,0-7.81,3.05l-1.57,1.45Z"/>
            <path class="cls-10" d="M260.7,95.8l8.39-7.75A13.33,13.33,0,0,1,276.9,85h16.16a13.33,13.33,0,0,1,7.81,3.05l8.39,7.75"/>
            <path class="cls-2" d="M263.4,95.64V108.4h-2.7a2.78,2.78,0,0,1-2.7-2.84V98.48a2.78,2.78,0,0,1,2.7-2.84Z"/>
            <path class="cls-2" d="M306.6,95.64V108.4h2.7a2.78,2.78,0,0,0,2.7-2.84V98.48a2.78,2.78,0,0,0-2.7-2.84Z"/>
            <rect class="cls-10" x="258" y="95.8" width="54" height="12.6" rx="4" ry="4"/>
            <rect class="cls-7" x="267.9" y="99.4" width="34.2" height="1.8" rx="0.79" ry="0.79"/>
          </g>
          <rect class="cls-9" x="160.25" y="35" width="112" height="62" rx="4" ry="4" transform="translate(432.5 132) rotate(180)"/>
          <path class="cls-2" d="M273.88,49.5V39.14A4.14,4.14,0,0,0,269.74,35H165.14A4.14,4.14,0,0,0,161,39.14V49.5Z"/>
          <rect class="cls-10" x="160" y="35" width="112" height="62" rx="4" ry="4" transform="translate(432 132) rotate(180)"/>
        </g>
      </g>
      <g>
        <path class="cls-6" d="M294,43.15a2.35,2.35,0,0,1-2,2.33c-11.54,1.64-15.15,5.26-16.8,16.81a2.35,2.35,0,0,1-2.33,2,2.57,2.57,0,0,1-.47,0,2.35,2.35,0,0,1-1.86-2c-1.64-11.54-5.25-15.16-16.8-16.81a2.35,2.35,0,0,1,0-4.65c11.54-1.65,15.15-5.26,16.8-16.81a2.37,2.37,0,0,1,1.86-2,2.57,2.57,0,0,1,.47,0,2.36,2.36,0,0,1,2.33,2c1.64,11.54,5.25,15.16,16.8,16.81A2.34,2.34,0,0,1,294,43.15Z"/>
        <path class="cls-6" d="M262.5,57.87a1.9,1.9,0,0,1-1.63,1.88c-9.33,1.34-12.26,4.25-13.59,13.59a1.9,1.9,0,0,1-3.76,0c-1.33-9.33-4.25-12.25-13.59-13.59a1.9,1.9,0,0,1,0-3.76c9.33-1.33,12.26-4.24,13.59-13.58a1.9,1.9,0,0,1,3.76,0c1.33,9.33,4.25,12.25,13.59,13.58A1.9,1.9,0,0,1,262.5,57.87Z"/>
        <path class="cls-6" d="M265.2,25.6A1.4,1.4,0,0,1,264,27c-6.88,1-9,3.14-10,10a1.4,1.4,0,0,1-2.77,0c-1-6.88-3.13-9-10-10a1.4,1.4,0,0,1,0-2.77c6.88-1,9-3.13,10-10a1.4,1.4,0,0,1,2.77,0c1,6.88,3.13,9,10,10A1.4,1.4,0,0,1,265.2,25.6Z"/>
        <path class="cls-11" d="M294,43.15a2.35,2.35,0,0,1-2,2.33c-11.54,1.64-15.15,5.26-16.8,16.81a2.35,2.35,0,0,1-2.33,2,2.57,2.57,0,0,1-.47,0V22a2.57,2.57,0,0,1,.47,0,2.36,2.36,0,0,1,2.33,2c1.64,11.54,5.25,15.16,16.8,16.81A2.34,2.34,0,0,1,294,43.15Z"/>
        <path class="cls-11" d="M262.5,57.87a1.9,1.9,0,0,1-1.63,1.88c-9.33,1.34-12.26,4.25-13.59,13.59A1.9,1.9,0,0,1,245.4,75V40.77a1.91,1.91,0,0,1,1.88,1.64c1.33,9.33,4.25,12.25,13.59,13.58A1.9,1.9,0,0,1,262.5,57.87Z"/>
        <path class="cls-11" d="M265.2,25.6A1.4,1.4,0,0,1,264,27c-6.88,1-9,3.14-10,10a1.4,1.4,0,0,1-1.39,1.2V13A1.4,1.4,0,0,1,254,14.21c1,6.88,3.13,9,10,10A1.4,1.4,0,0,1,265.2,25.6Z"/>
      </g>
    </g>
  </g>
</svg>
