<svg xmlns="http://www.w3.org/2000/svg" viewBox="0 0 400 140">
  <defs>
    <style>
      .cls-1 {
        fill: #d1d3d4;
        opacity: 0.51;
      }

      .cls-2 {
        fill: #f1f2f2;
      }

      .cls-3, .cls-9 {
        fill: #fff;
      }

      .cls-4 {
        fill: #e5e5e5;
      }

      .cls-10, .cls-5 {
        fill: none;
      }

      .cls-5, .cls-9 {
        stroke: #556a8a;
      }

      .cls-10, .cls-5, .cls-9 {
        stroke-miterlimit: 10;
        stroke-width: 2px;
      }

      .cls-6 {
        fill: #2bc7f4;
      }

      .cls-7 {
        fill: #556a8a;
      }

      .cls-8 {
        fill: #bad80a;
      }

      .cls-10 {
        stroke: #00bcf2;
      }
    </style>
  </defs>
  <title>bcs-partner-advanced-management-settings-8</title>
  <g id="ICONS">
    <g>
      <path class="cls-3" d="M185.19,25H117.81A4.89,4.89,0,0,0,113,29.93v82.14a4.89,4.89,0,0,0,4.81,4.93h67.38a4.89,4.89,0,0,0,4.81-4.93V29.93A4.89,4.89,0,0,0,185.19,25Z"/>
      <path class="cls-4" d="M190,29.29V43H113V29.29A4.2,4.2,0,0,1,117.1,25H185.9A4.2,4.2,0,0,1,190,29.29Z"/>
      <path class="cls-5" d="M185.19,25H117.81A4.89,4.89,0,0,0,113,29.93v82.14a4.89,4.89,0,0,0,4.81,4.93h67.38a4.89,4.89,0,0,0,4.81-4.93V29.93A4.89,4.89,0,0,0,185.19,25Z"/>
      <rect class="cls-3" x="127" y="24" width="49" height="12"/>
      <path class="cls-6" d="M165.36,24a15.26,15.26,0,0,0-1.07-5.69,13.93,13.93,0,0,0-7.38-7.38,14,14,0,0,0-10.75,0,14.35,14.35,0,0,0-4.41,3,14.06,14.06,0,0,0-3,4.41A15.26,15.26,0,0,0,137.71,24h-8.64V34H174V24Zm-13.82-.13a4.5,4.5,0,1,1,4.32-4.5A4.41,4.41,0,0,1,151.54,23.87Z"/>
      <polyline class="cls-5" points="122.1 60.98 131.6 70.48 153.2 48.88"/>
      <polyline class="cls-5" points="122.1 88.62 131.6 98.13 153.2 76.53"/>
      <line class="cls-5" x1="154" y1="63" x2="182" y2="63"/>
      <line class="cls-5" x1="154" y1="92" x2="182" y2="92"/>
    </g>
    <path class="cls-7" d="M220.6,76H201.4a2.39,2.39,0,0,0-2.4,2.36v8.27A2.39,2.39,0,0,0,201.4,89H201V78h20V89h-.4a2.39,2.39,0,0,0,2.4-2.36V78.36A2.39,2.39,0,0,0,220.6,76Z"/>
    <path class="cls-3" d="M236.36,85H185.64A5.75,5.75,0,0,0,180,90.84v29.43a1.71,1.71,0,0,0,1.7,1.73H240.3a1.63,1.63,0,0,0,.88-.22,1.82,1.82,0,0,0,.81-1.51V90.84A5.75,5.75,0,0,0,236.36,85Z"/>
    <rect class="cls-4" x="180" y="114" width="62" height="8"/>
    <path class="cls-5" d="M236.36,85H185.64A5.75,5.75,0,0,0,180,90.84v29.43a1.71,1.71,0,0,0,1.7,1.73H240.3a1.63,1.63,0,0,0,.88-.22,1.82,1.82,0,0,0,.81-1.51V90.84A5.75,5.75,0,0,0,236.36,85Z"/>
    <rect class="cls-8" x="181" y="101" width="60" height="5"/>
    <rect class="cls-9" x="192" y="97" width="8" height="13.91" rx="2" ry="2"/>
    <line class="cls-9" x1="196" y1="100" x2="196" y2="108"/>
    <rect class="cls-9" x="222" y="97" width="8" height="13.91" rx="2" ry="2"/>
    <line class="cls-9" x1="226" y1="100" x2="226" y2="108"/>
    <g>
      <path class="cls-8" d="M228.75,66.93l.39-3.06c.22-1.15.56-1.57,1.31-1.66l1.61-.75a1.9,1.9,0,0,1,2.1.29l2.34,2.17a1.2,1.2,0,0,0,1.49-.17L239.66,62a1.45,1.45,0,0,0,.2-1.53l-2.15-2.39a1.68,1.68,0,0,1-.06-2,16.77,16.77,0,0,1,.73-1.78c.11-.6.45-1,1.56-1.13l3.18-.19a1.2,1.2,0,0,0,.82-1L244,49.3a1.2,1.2,0,0,0-.87-1l-3.07-.4c-1.32,0-1.63-.55-1.83-1.1-.42-1-1.43-2.36-.24-3.56l2-2.49a1.65,1.65,0,0,0,.19-1.54l-1.95-1.84a1.46,1.46,0,0,0-1.54-.19l-2.39,2.15a2,2,0,0,1-2.24.27c-.42-.31-2.42-1.21-2.54-2.32l-.56-3.14v0a.92.92,0,0,0-.83-1L225.46,33a1.2,1.2,0,0,0-1,.87l-.14,3.2c-.08.76-1.5,1.9-1.5,1.9-2,1.17-3,.74-3.57.22L216.91,37a1.2,1.2,0,0,0-1.49.17l-1.9,1.55a1.35,1.35,0,0,0,0,1.69l2,2.22a3,3,0,0,1,.33,2.23c-.31.41-1.68,2.74-2.5,2.73l-3,.35h-.07a.92.92,0,0,0-1,.88l-.06,2.65a1.49,1.49,0,0,0,1.08,1.19l2.85.23c1.29,0,2.37,2.93,2.37,2.93a1.52,1.52,0,0,1-.16,1.91l-1.93,2.48a1.25,1.25,0,0,0-.19,1.54l1.95,1.84a1.41,1.41,0,0,0,1.29.05l2.6-2a2.1,2.1,0,0,1,2-.42c2.45,1,2.72,1.7,2.69,2.5l.36,3a1.2,1.2,0,0,0,1.09,1.2l2.44-.1a1.2,1.2,0,0,0,1-.87m-8.59-16.51q0-.08,0-.16a6.37,6.37,0,0,1,6.64-6.09A6.29,6.29,0,0,1,233,50.4q0,.3,0,.6a6.12,6.12,0,0,1-6.4,5.82,6.59,6.59,0,0,1-6.42-6.4"/>
      <path class="cls-3" d="M243.09,77.59l5.51.24a3.06,3.06,0,0,1,3.06,1.66c.64,2.08,1.64,5.13.74,6.12l-2.76,4.2a2,2,0,0,0,.09,2.72L253,95.05c.69.45,1,.55,1.65.07L257,93.25l2.1-1.7c1.84-1.6,8.56,1.43,8.74,2.71l.65,5.33a2,2,0,0,0,2.1,1.4l4-.38a2.44,2.44,0,0,0,1.89-1.76l-.15-5.39a2.8,2.8,0,0,1,2.1-2.65c.93-.57,4.54-2.31,6.1-1.26l4.31,3.2a2,2,0,0,0,2.17-.44L294,89a2,2,0,0,0,0-2.29l-3.5-3.84c-1.68-1.43-1.49-2.46-1.16-3.39.65-3.84,1.82-4.48,3.55-4.83l5.24-1.05A2.76,2.76,0,0,0,300,71.81l-.51-4.46a2.45,2.45,0,0,0-1.75-1.92l-5.41.16a3.29,3.29,0,0,1-3.16-2.08c-.19-.86-2.36-3.59-.74-5.74l2.68-4.63a.07.07,0,0,1,0,0,1.56,1.56,0,0,0,0-2.19l-3-2.63-.37-.32a2,2,0,0,0-2.26,0l-3.67,4c-.92.89-4,.8-4,.8-4.11-.11-4.64-2.29-4.82-3.6l-.61-5.26a2,2,0,0,0-2.1-1.4l-4.11-.07a2.27,2.27,0,0,0-1.83,2.17l.11,5a5,5,0,0,1-2,3.23c-.83.18-1.61.77-2.5,1a3,3,0,0,1-3.67-.16l-4.21-2.8s0-.06-.08-.08a1.56,1.56,0,0,0-2.19.08l-3,3.34a2.46,2.46,0,0,0,.1,2.69l3.39,3.4c1.62,1.44-.13,6.34-.13,6.34a2.54,2.54,0,0,1-2.28,2.26l-5.15,1.11c-1.36.25-2,1.31-1.92,1.76C241,71.66,240.89,77.2,243.09,77.59Zm22.34,3.47a10.17,10.17,0,0,1-2-1.43,10.77,10.77,0,0,1-1.26-14.94l0,0,.19-.19a10.81,10.81,0,0,1,15.11-.65s.08.06.09.09a10.27,10.27,0,0,1,1.07,14.41c-.2.26-.42.51-.64.75A10.41,10.41,0,0,1,265.43,81.05Z"/>
      <path class="cls-4" d="M243.09,77.59l5.51.24a3.06,3.06,0,0,1,3.06,1.66c.64,2.08,1.64,5.13.74,6.12l-2.76,4.2a2,2,0,0,0,.09,2.72L253,95.05c.69.45,1,.55,1.65.07L257,93.25l8.47-12.2a10.17,10.17,0,0,1-2-1.43,10.77,10.77,0,0,1-1.26-14.94l0,0,.19-.19a10.81,10.81,0,0,1,15.11-.65s.08.06.09.09l10.68-15.63-.37-.32a2,2,0,0,0-2.26,0l-3.67,4c-.92.89-4,.8-4,.8-4.11-.11-4.64-2.29-4.82-3.6l-.61-5.26a2,2,0,0,0-2.1-1.4l-4.11-.07a2.27,2.27,0,0,0-1.83,2.17l.11,5a5,5,0,0,1-2,3.23c-.83.18-1.61.77-2.5,1a3,3,0,0,1-3.67-.16l-4.21-2.8s0-.06-.08-.08a1.56,1.56,0,0,0-2.19.08l-3,3.34a2.46,2.46,0,0,0,.1,2.69l3.39,3.4c1.62,1.44-.13,6.34-.13,6.34a2.54,2.54,0,0,1-2.28,2.26l-5.15,1.11c-1.36.25-2,1.31-1.92,1.76C241,71.66,240.89,77.2,243.09,77.59Z"/>
      <path class="cls-10" d="M254.61,95.12c-.68.47-1,.39-1.65-.08l-3.24-2.52a2,2,0,0,1-.1-2.72l2.76-4.2c.91-1-.09-4.05-.73-6.12a3,3,0,0,0-3.06-1.66l-5.51-.24c-2.2-.38-2.11-5.94-2.11-5.94-.1-.44.55-1.51,1.91-1.76l5.16-1.09c1.2-.13,4-7.17,2.41-8.62l-3.41-3.39a2.5,2.5,0,0,1-.1-2.7l3-3.33a1.55,1.55,0,0,1,2.19-.09l.08.08,4.21,2.79c1,.89,7.94-2.73,8.16-4l-.11-5a2.27,2.27,0,0,1,1.83-2.18l4.11.07a2,2,0,0,1,2.1,1.39l.61,5.29c.17,1.3.71,3.46,4.82,3.59,0,0,3.06.08,4-.81l3.66-4a2,2,0,0,1,2.27,0l3.33,3a1.55,1.55,0,0,1,0,2.19l0,0-2.69,4.63c-1.62,2.15.54,4.89.75,5.74a3.3,3.3,0,0,0,3.16,2.08l5.4-.16a2.46,2.46,0,0,1,1.76,1.91l.5,4.47a2.78,2.78,0,0,1-1.91,1.76l-5.24,1.06c-1.74.35-2.91,1-3.55,4.83-.34.93-.52,2,1.15,3.4l3.5,3.84A2,2,0,0,1,294,89l-3,3.33a2,2,0,0,1-2.18.44l-4.29-3.2c-1.57-1-8.18,2.66-8.21,3.91l.16,5.4a2.44,2.44,0,0,1-1.91,1.75l-4,.37a2,2,0,0,1-2.1-1.39l-.64-5.32c-.18-1.28-6.9-4.32-8.74-2.71Z"/>
      <circle class="cls-10" cx="270.42" cy="71.75" r="10.65" transform="translate(-7.56 40.12) rotate(-8.37)"/>
    </g>
  </g>
</svg>
