<svg xmlns="http://www.w3.org/2000/svg" viewBox="0 0 400 140">
  <defs>
    <style>
      .cls-1, .cls-11 {
        fill: none;
      }

      .cls-1, .cls-11, .cls-12 {
        stroke: #556a8a;
      }

      .cls-1, .cls-11, .cls-12, .cls-3, .cls-4 {
        stroke-miterlimit: 10;
        stroke-width: 2px;
      }

      .cls-1 {
        stroke-dasharray: 3 3;
      }

      .cls-2 {
        fill: #556a8a;
      }

      .cls-3 {
        fill: #ababab;
        stroke: #868787;
      }

      .cls-12, .cls-4, .cls-5 {
        fill: #fff;
      }

      .cls-4 {
        stroke: #2bc7f4;
      }

      .cls-6 {
        fill: #55d2f6;
        opacity: 0.8;
      }

      .cls-7 {
        fill: #ff9f2b;
      }

      .cls-8 {
        fill: #ff8c00;
      }

      .cls-9 {
        fill: #e5e5e5;
      }

      .cls-10 {
        fill: #bad80a;
      }
    </style>
  </defs>
  <title>xamarin-mac-get-started</title>
  <g id="ICONS">
    <g>
      <g>
        <path class="cls-1" d="M183.21,22.9h72.6c16.5,0,30,10.73,30,23.85s-13.5,23.85-30,23.85h-66.9c-16.5,0-30,8.71-30,19.35s13.5,19.35,30,19.35H305.24"/>
        <polygon class="cls-2" points="298.61 117.48 297.25 116.02 304.47 109.3 297.25 102.59 298.61 101.12 307.41 109.3 298.61 117.48"/>
      </g>
      <path class="cls-3" d="M258.91,66.13l.58-3.68a2.07,2.07,0,0,1,1.35-1.93c1.45-.27,3.57-.71,4.17,0l2.61,2.18a1.36,1.36,0,0,0,1.83.15l1.94-2c.36-.43.44-.6.17-1.1L270.5,58l-1-1.54c-.93-1.36,1.62-5.64,2.49-5.66l3.63,0a1.35,1.35,0,0,0,1.1-1.3l.06-2.73a1.65,1.65,0,0,0-1-1.41L272.14,45a1.89,1.89,0,0,1-1.62-1.61c-.31-.67-1.2-3.23-.38-4.19l2.48-2.65a1.35,1.35,0,0,0-.13-1.49l-2-2.25a1.39,1.39,0,0,0-1.54-.17l-2.85,2.05c-1.09,1-1.77.81-2.37.52-2.53-.73-2.87-1.57-3-2.76l-.3-3.6a1.86,1.86,0,0,0-1-1.42h-3a1.65,1.65,0,0,0-1.43,1l-.31,3.65a2.22,2.22,0,0,1-1.64,2c-.59.06-2.6,1.31-3.92.05L246.19,32a0,0,0,0,1,0,0,1.06,1.06,0,0,0-1.47-.18l-2,1.78-.24.22a1.33,1.33,0,0,0-.18,1.52l2.38,2.77c.53.69.23,2.74.23,2.74-.39,2.75-1.9,2.94-2.79,3h-3.58a1.35,1.35,0,0,0-1.1,1.3L237,47.84a1.53,1.53,0,0,0,1.31,1.4l3.35.31a3.4,3.4,0,0,1,2,1.59c.05.57.4,1.14.45,1.75a2,2,0,0,1-.39,2.45l-2.2,2.61s0,0-.06,0a1.06,1.06,0,0,0-.11,1.48l2,2.24a1.66,1.66,0,0,0,1.81.14l2.55-2c1.09-1,4.25.58,4.25.58a1.72,1.72,0,0,1,1.34,1.7l.35,3.55c.07.93.72,1.45,1,1.43C254.76,67.09,258.48,67.58,258.91,66.13Zm4-14.74a6.88,6.88,0,0,1-1.11,1.23,7.28,7.28,0,0,1-10.13-.31l0,0-.11-.14A7.31,7.31,0,0,1,252.3,42s0,0,.07-.06a7,7,0,0,1,9.76.39c.16.16.31.32.46.49A7,7,0,0,1,263,51.39Z"/>
      <circle class="cls-4" cx="180.81" cy="70" r="48.15"/>
      <path class="cls-5" d="M189.11,64.94c-.92-11.45-9.86-20.44-20.76-20.44a20.72,20.72,0,0,0-18.53,12.16,20.18,20.18,0,0,0-11.07-3.31c-9.83,0-18.1,7.13-20.6,16.84a18.85,18.85,0,0,0-6-1c-10.81,0-19.58,9.13-19.58,20.38a20.45,20.45,0,0,0,11.3,18.47,18,18,0,0,0,6.09,1.78l.49,0a113.25,113.25,0,0,0,12.52.8h63.32a17.46,17.46,0,0,0,4.1-1c9.73-2,17.09-11.21,17.09-22.26C207.51,75.89,199.48,66.37,189.11,64.94Z"/>
      <path class="cls-6" d="M189.11,64.94c-.92-11.45-9.86-20.44-20.76-20.44a20.72,20.72,0,0,0-18.53,12.16,20.18,20.18,0,0,0-11.07-3.31c-9.83,0-18.1,7.13-20.6,16.84a18.85,18.85,0,0,0-6-1c-10.81,0-19.58,9.13-19.58,20.38a20.45,20.45,0,0,0,11.3,18.47,18,18,0,0,0,6.09,1.78l.49,0a113.25,113.25,0,0,0,12.52.8h63.32a17.46,17.46,0,0,0,4.1-1c9.73-2,17.09-11.21,17.09-22.26C207.51,75.89,199.48,66.37,189.11,64.94Z"/>
      <g>
        <g>
          <g>
            <path class="cls-7" d="M143.32,102.66c-.83.27-1.71.52-2.62.77,5.51-22.88,16.37-18.74,16.37-18.74l1.78,1.68.07.22C159.28,88.1,160.75,97.13,143.32,102.66Z"/>
            <path class="cls-8" d="M143.32,102.66C148.71,83.82,158,86.28,158.9,86.59,159.28,88.1,160.75,97.13,143.32,102.66Z"/>
            <polygon class="cls-2" points="159.76 90.91 152.06 83.21 158.22 81.67 161.1 84.57 159.76 90.91"/>
          </g>
          <polygon class="cls-2" points="161.29 73.85 140.5 73.08 137.42 70 155.13 61.53 162.54 64.31 161.29 73.85"/>
          <polygon class="cls-2" points="170.09 80.13 170.86 100.92 173.94 104 182.41 86.29 179.63 78.89 170.09 80.13"/>
          <g>
            <path class="cls-5" d="M165.94,89.3h-.23l-.18-.17-11-11.44,0-.27a45.46,45.46,0,0,1,12.47-22.09c10-9.91,33.18-14.07,34.17-14.24L202,41l-.13.76s-.4,2.42-1.24,5.94c-2.26,9.51-6.31,22.21-12.78,28.71C177.8,86.48,166.87,89.3,165.94,89.3Z"/>
            <path class="cls-9" d="M200,49c-1.84,7.74-5.84,21.16-12.63,28-10,10.11-21,12.21-21.53,12.32l-6.12-6.12s1.95-11.24,12.33-21.56C178.9,54.83,192.29,50.84,200,49Z"/>
            <path class="cls-10" d="M201,42.36a112,112,0,0,0-18.2,4.91l13.29,13.29A112,112,0,0,0,201,42.36Z"/>
            <path class="cls-11" d="M165.94,89.3h-.23l-.18-.17-11-11.44,0-.27a45.46,45.46,0,0,1,12.47-22.09c10-9.91,33.18-14.07,34.17-14.24L202,41l-.13.76s-.4,2.42-1.24,5.94c-2.26,9.51-6.31,22.21-12.78,28.71C177.8,86.48,166.87,89.3,165.94,89.3Z"/>
          </g>
        </g>
        <circle class="cls-12" cx="174.04" cy="68.53" r="5.45"/>
      </g>
    </g>
  </g>
</svg>
