<svg xmlns="http://www.w3.org/2000/svg" viewBox="0 0 400 140">
  <defs>
    <style>
      .cls-1, .cls-10, .cls-4 {
        fill: #c2c2c2;
      }

      .cls-1, .cls-12, .cls-5 {
        stroke: #556a8a;
      }

      .cls-1, .cls-11, .cls-12, .cls-4, .cls-5 {
        stroke-miterlimit: 10;
        stroke-width: 2px;
      }

      .cls-2 {
        fill: #e5e5e5;
      }

      .cls-3 {
        fill: #556a8a;
      }

      .cls-11, .cls-4 {
        stroke: #ababab;
      }

      .cls-5 {
        fill: #fff;
      }

      .cls-6 {
        fill: #2bc7f4;
      }

      .cls-7 {
        fill: #7750a3;
      }

      .cls-8 {
        fill: #9273b6;
      }

      .cls-9 {
        fill: #ae96c8;
      }

      .cls-11, .cls-12 {
        fill: none;
      }
    </style>
  </defs>
  <title>xamarin-ios-fundamentals</title>
  <g id="ICONS">
    <g>
      <g>
        <g>
          <rect class="cls-1" x="143.5" y="15.5" width="82" height="113" rx="6" ry="6" transform="translate(112.5 256.5) rotate(-90)"/>
          <rect class="cls-2" x="140.5" y="39" width="82" height="66"/>
        </g>
        <circle class="cls-3" cx="134.5" cy="71.5" r="2"/>
        <circle class="cls-4" cx="230.5" cy="71.5" r="5"/>
      </g>
      <g>
        <rect class="cls-5" x="112" y="55" width="36" height="68" rx="4" ry="4"/>
        <rect class="cls-2" x="115" y="63.5" width="30" height="49"/>
        <path class="cls-6" d="M133.69,61h-8.38a1,1,0,0,1,0-2h8.38a1,1,0,0,1,0,2Z"/>
      </g>
      <g>
        <path class="cls-7" d="M217.5,51a2.61,2.61,0,0,0,2.25,2.59c12.83,1.83,16.84,5.85,18.66,18.67A2.61,2.61,0,0,0,241,74.5a2.85,2.85,0,0,0,.52-.05,2.61,2.61,0,0,0,2.07-2.18c1.83-12.83,5.84-16.85,18.66-18.67a2.61,2.61,0,0,0,0-5.17c-12.83-1.83-16.84-5.85-18.66-18.67a2.64,2.64,0,0,0-2.07-2.19,2.85,2.85,0,0,0-.52-.05,2.62,2.62,0,0,0-2.59,2.25c-1.83,12.83-5.84,16.85-18.66,18.67A2.6,2.6,0,0,0,217.5,51Z"/>
        <path class="cls-8" d="M217.5,51a2.61,2.61,0,0,0,2.25,2.59c12.83,1.83,16.84,5.85,18.66,18.67A2.61,2.61,0,0,0,241,74.5a2.85,2.85,0,0,0,.52-.05V27.55a2.85,2.85,0,0,0-.52-.05,2.62,2.62,0,0,0-2.59,2.25c-1.83,12.83-5.84,16.85-18.66,18.67A2.6,2.6,0,0,0,217.5,51Z"/>
      </g>
      <g>
        <path class="cls-7" d="M250.5,68.5a2.11,2.11,0,0,0,1.81,2.09c10.37,1.49,13.62,4.73,15.1,15.1a2.11,2.11,0,0,0,4.18,0c1.48-10.37,4.73-13.61,15.1-15.1a2.11,2.11,0,0,0,0-4.18c-10.37-1.48-13.62-4.72-15.1-15.09a2.11,2.11,0,0,0-4.18,0c-1.48,10.37-4.73,13.61-15.1,15.09A2.12,2.12,0,0,0,250.5,68.5Z"/>
        <path class="cls-8" d="M250.5,68.5a2.11,2.11,0,0,0,1.81,2.09c10.37,1.49,13.62,4.73,15.1,15.1a2.11,2.11,0,0,0,2.09,1.81v-38a2.12,2.12,0,0,0-2.09,1.82c-1.48,10.37-4.73,13.61-15.1,15.09A2.12,2.12,0,0,0,250.5,68.5Z"/>
      </g>
      <g>
        <path class="cls-7" d="M246.5,30.5A1.55,1.55,0,0,0,247.84,32c7.64,1.09,10,3.49,11.12,11.13a1.56,1.56,0,0,0,3.08,0c1.09-7.64,3.48-10,11.12-11.13a1.55,1.55,0,0,0,0-3.08c-7.64-1.09-10-3.48-11.12-11.12a1.55,1.55,0,0,0-3.08,0c-1.09,7.64-3.48,10-11.12,11.12A1.56,1.56,0,0,0,246.5,30.5Z"/>
        <path class="cls-9" d="M246.5,30.5A1.55,1.55,0,0,0,247.84,32c7.64,1.09,10,3.49,11.12,11.13a1.56,1.56,0,0,0,1.54,1.33v-28A1.56,1.56,0,0,0,259,17.84c-1.09,7.64-3.48,10-11.12,11.12A1.56,1.56,0,0,0,246.5,30.5Z"/>
      </g>
      <circle class="cls-10" cx="129.5" cy="118" r="2.5"/>
      <g>
        <polygon class="cls-11" points="160.5 61.62 181.5 49.5 202.5 61.62 202.5 85.87 181.5 98 160.5 85.87 160.5 61.62"/>
        <line class="cls-11" x1="181.5" y1="49.5" x2="181.5" y2="97.5"/>
        <line class="cls-11" x1="160.5" y1="85.87" x2="202.5" y2="61.62"/>
        <line class="cls-11" x1="202.5" y1="85.87" x2="160.5" y2="61.62"/>
      </g>
      <g>
        <polyline class="cls-12" points="174.5 53.54 181.5 49.5 188.5 53.54"/>
        <line class="cls-12" x1="181.5" y1="49.5" x2="181.5" y2="58.5"/>
      </g>
      <polyline class="cls-12" points="174.5 69.46 181.5 73.5 188.5 69.46"/>
      <g>
        <polyline class="cls-12" points="174.5 94.46 181.5 98.5 188.5 94.46"/>
        <line class="cls-12" x1="181.5" y1="98.5" x2="181.5" y2="89.5"/>
      </g>
      <g>
        <polyline class="cls-12" points="167.5 89.92 160.5 85.87 160.5 77.79"/>
        <line class="cls-12" x1="160.5" y1="85.87" x2="168.29" y2="81.37"/>
      </g>
      <g>
        <polyline class="cls-12" points="195.5 89.92 202.5 85.87 202.5 77.79"/>
        <line class="cls-12" x1="202.5" y1="85.87" x2="194.71" y2="81.37"/>
      </g>
      <g>
        <polyline class="cls-12" points="167.5 57.38 160.5 61.42 160.5 69.5"/>
        <line class="cls-12" x1="160.5" y1="61.42" x2="168.29" y2="65.92"/>
      </g>
      <g>
        <polyline class="cls-12" points="195.5 57.38 202.5 61.42 202.5 69.5"/>
        <line class="cls-12" x1="202.5" y1="61.42" x2="194.71" y2="65.92"/>
      </g>
      <line class="cls-12" x1="181.5" y1="73.5" x2="181.5" y2="80.5"/>
    </g>
  </g>
</svg>
