<svg xmlns="http://www.w3.org/2000/svg" viewBox="0 0 400 140">
  <defs>
    <style>
      .cls-1, .cls-6 {
        fill: #55d2f6;
      }

      .cls-2, .cls-3, .cls-7 {
        fill: #fff;
      }

      .cls-2 {
        stroke: #c2c2c2;
      }

      .cls-2, .cls-5, .cls-7 {
        stroke-miterlimit: 10;
        stroke-width: 2px;
      }

      .cls-4 {
        fill: #556a8a;
      }

      .cls-5 {
        fill: #ababab;
        stroke: #868787;
      }

      .cls-6 {
        fill-rule: evenodd;
      }

      .cls-7 {
        stroke: #556a8a;
      }

      .cls-8 {
        fill: #e5e5e5;
      }

      .cls-9 {
        fill: #2bc7f4;
      }

      .cls-10 {
        fill: none;
      }
    </style>
  </defs>
  <title>xamarin-mac-get-started_1</title>
  <g id="ICONS">
    <g>
      <path class="cls-1" d="M236.88,67.43a34.68,34.68,0,0,0-8.32,1.39c-.7-13.16-12.49-24.25-25.66-24.25a26.27,26.27,0,0,0-19.42,8.31c.6-.68-.15-.88-1.85-.73a25.39,25.39,0,0,0-21.71-11.74c-13.84,0-25.05,10.49-25.05,23.44a22.12,22.12,0,0,0,.29,3.59h-2.32a25.59,25.59,0,0,0-25.66,25.63c0,13.86,11.79,24.94,25.66,24.94h104c14.57,0,25.67-11.09,25.67-24.94A25.16,25.16,0,0,0,236.88,67.43Z"/>
      <path class="cls-2" d="M255.85,56v-.52a20.79,20.79,0,0,0-.67-5.16A18.69,18.69,0,0,0,224.46,37c-4.55-5.72-10.34-8.57-18.1-8.57-13.68,0-24,11.94-24.23,25.38,0,.93.23,1.62.23,2.55C175.17,59.87,171,65.9,171,73.55c0,10.94,8.6,19.7,20,20.34,1,7.59,7.85,14.64,19.51,14.64,9.84,0,15.7.79,22.88-7.28a24.17,24.17,0,0,0,11.44,3.12c13.78,0,25-12.21,25-26A25,25,0,0,0,255.85,56Z"/>
      <circle class="cls-3" cx="245.96" cy="37.81" r="7.67"/>
      <path class="cls-4" d="M252.12,54.11a1.2,1.2,0,0,0,1.34.21l2.15-1.18a1.2,1.2,0,0,0,.31-1.6l-1.24-2.74c-.45-.68-.59-1.43,1-3.55a2.11,2.11,0,0,1,2-.69l3.28.37a1.42,1.42,0,0,0,1.09-.72l.72-2.6c.1-.25-.19-.95-1-1.22l-2.95-1.13a1.53,1.53,0,0,1-1.13-1.56s-.58-3.05.51-3.76l2.33-1.69a1.49,1.49,0,0,0,.31-1.58l-1.44-2.25a.93.93,0,0,0-1.29-.26l-.06,0-2.75,1.25c-.7.43-3.09-.87-3.57-1.05a3,3,0,0,1-.88-2.09l.53-2.93a1.36,1.36,0,0,0-.88-1.46l-2.44-.34a1.2,1.2,0,0,0-1.37.63l-.86,3.07c-.22.75-.87,1.65-3.18,1.67,0,0-1.82-.24-2.28-.85l-1.79-2.68a1.2,1.2,0,0,0-1.34-.21L235,24.66a.93.93,0,0,0-.19,1.3l0,0L236,29c.47,1-.78,2.84-1,3.32a2,2,0,0,1-2.06.93l-3.17-.6a1.47,1.47,0,0,0-1.22,1l-.72,2.6a1.66,1.66,0,0,0,1,1.22l3,1.12c1.65.41,1.48,2.09,1.65,3.19.11.58.13,1.2-1,1.9L230,45.55a1.2,1.2,0,0,0-.21,1.34l1.44,2.25a1.2,1.2,0,0,0,1.25.47l2.84-1.49c1-.47,1.52-.3,1.93.16a16.86,16.86,0,0,1,1.55,1.16,1.69,1.69,0,0,1,1,1.77l-.6,3.17a1.46,1.46,0,0,0,1,1.21l2.34.6a1.2,1.2,0,0,0,1.37-.63l.88-3.08a1.91,1.91,0,0,1,1.65-1.34l1.78-.19c.69-.31,1.2-.13,2,.75l1.93,2.43M250.9,35.45a6.62,6.62,0,0,1-2.19,8.85,6.15,6.15,0,0,1-8.54-1.68q-.17-.25-.31-.51a6.32,6.32,0,0,1,2.09-8.6,6.41,6.41,0,0,1,8.88,1.79l.09.13"/>
      <path class="cls-5" d="M227.7,89.66a1.46,1.46,0,0,0,1.63.26l2.6-1.43a1.46,1.46,0,0,0,.38-1.93l-1.5-3.31c-.54-.82-.71-1.73,1.22-4.29a2.55,2.55,0,0,1,2.37-.84l4,.45a1.72,1.72,0,0,0,1.31-.87l.87-3.14c.12-.31-.22-1.14-1.17-1.48l-3.56-1.36a1.85,1.85,0,0,1-1.37-1.88s-.7-3.69.62-4.55l2.82-2a1.81,1.81,0,0,0,.38-1.92l-1.74-2.72a1.12,1.12,0,0,0-1.56-.31l-.07,0-3.33,1.52c-.85.51-3.74-1-4.32-1.27a3.64,3.64,0,0,1-1.06-2.52l.64-3.54a1.65,1.65,0,0,0-1.06-1.77l-2.95-.42a1.46,1.46,0,0,0-1.66.76l-1,3.71c-.27.91-1.06,2-3.85,2,0,0-2.2-.29-2.76-1l-2.17-3.24a1.46,1.46,0,0,0-1.63-.26L207,54a1.12,1.12,0,0,0-.23,1.57l0,0,1.39,3.62c.57,1.24-.94,3.44-1.18,4a2.39,2.39,0,0,1-2.5,1.13l-3.84-.73a1.78,1.78,0,0,0-1.48,1.17L198.34,68a2,2,0,0,0,1.17,1.48l3.62,1.35c2,.5,1.79,2.53,2,3.86.14.7.15,1.46-1.21,2.3L201,79.3a1.46,1.46,0,0,0-.26,1.63l1.74,2.72a1.46,1.46,0,0,0,1.51.57l3.43-1.8c1.24-.57,1.84-.36,2.34.19A20.4,20.4,0,0,1,211.6,84a2,2,0,0,1,1.21,2.14L212.08,90a1.76,1.76,0,0,0,1.16,1.46l2.83.72a1.46,1.46,0,0,0,1.66-.76l1.06-3.73a2.32,2.32,0,0,1,2-1.63l2.15-.23c.83-.37,1.46-.15,2.41.91l2.33,2.94m-1.47-22.6a8,8,0,0,1-2.65,10.71,7.45,7.45,0,0,1-10.33-2q-.2-.3-.37-.62a7.65,7.65,0,0,1,2.53-10.4,7.75,7.75,0,0,1,10.75,2.16l.1.16"/>
      <circle class="cls-3" cx="269.35" cy="75.03" r="19"/>
      <path class="cls-6" d="M294.18,72.71l-3.84-.55c-.27-.82-.27-1.64-.55-2.47l3.29-1.92a1,1,0,0,0,.55-1.37l-1.1-2.19c0-.55-.55-.82-1.1-.82l-3.84,1.1a6,6,0,0,0-1.37-2.19L288.42,59a.83.83,0,0,0,0-1.1L286.5,56a.83.83,0,0,0-1.1,0l-3.29,2.19c-.55-.55-1.37-.82-1.92-1.37L281,53c.27-.27,0-.82-.55-1.1l-2.19-.82a1.21,1.21,0,0,0-1.37.27L275,54.63c-.82-.27-1.65-.27-2.74-.55l-.55-3.83a.88.88,0,0,0-.82-.82h-2.74a.88.88,0,0,0-.82.82l-.55,3.83c-.82.27-1.65.27-2.47.55l-1.92-3.29c-.27-.55-.82-.55-1.37-.55l-2.47,1.1c-.27,0-.55.55-.55,1.1l1.1,3.83a6,6,0,0,0-2.19,1.37L253.6,56a.83.83,0,0,0-1.1,0l-1.92,1.92a.83.83,0,0,0,0,1.1l2.19,3.29c-.55.55-.82,1.37-1.37,1.92l-3.84-.82c-.27-.27-.82,0-1.1.55l-1.1,2.19c0,.55,0,1.1.55,1.37l3.29,1.92c-.27.82-.27,1.92-.55,2.74l-3.84.55a.87.87,0,0,0-.82.82v2.74a.73.73,0,0,0,.82.82l3.84.55a8,8,0,0,0,.55,2.47L245.92,82a1,1,0,0,0-.55,1.37l1.1,2.47c0,.27.55.55,1.1.55l3.84-1.1a6,6,0,0,0,1.37,2.19l-2.19,3.29a1.22,1.22,0,0,0,0,1.37l1.92,1.64c.27.27.82.55,1.1.27l3.29-2.47A4.92,4.92,0,0,0,258.81,93L258,96.81c-.27.27,0,.82.55,1.1l2.19,1.1c.55,0,1.1,0,1.37-.55L264,95.17a8.12,8.12,0,0,0,2.74.55l.55,3.83a.88.88,0,0,0,.82.82h2.74a.88.88,0,0,0,.82-.82l.55-3.83a8,8,0,0,0,2.47-.55l1.92,3.29A1,1,0,0,0,278,99l2.47-1.1c.27,0,.55-.55.55-1.1L279.92,93a6,6,0,0,0,2.19-1.37l3.29,2.47c.27.27.82,0,1.1-.27l1.92-1.64a1.22,1.22,0,0,0,0-1.37l-2.19-3.29a11.6,11.6,0,0,0,1.37-1.92l3.84,1.1a1.47,1.47,0,0,0,1.1-.82l1.1-2.19c0-.55,0-1.1-.55-1.37l-3.29-1.92c.27-.82.27-1.64.55-2.74l3.84-.55a.73.73,0,0,0,.82-.82V73.53a.87.87,0,0,0-.82-.82Zm-9,6.3a1.26,1.26,0,0,1-1.92.82l-6.31-4.11c-.82-.27-.82-1.1,0-1.64L283.21,70a1.42,1.42,0,0,1,1.92.82,20,20,0,0,1,.55,4.11,16.78,16.78,0,0,1-.55,4.11Zm-1.65-12.33a1.26,1.26,0,0,1-.82,1.92l-7.4,1.64c-.82.27-1.37-.27-1.1-1.1l1.65-7.4c.27-1.1,1.1-1.37,1.92-.82a14.53,14.53,0,0,1,5.76,5.75ZM265.39,59a15.71,15.71,0,0,1,8.23,0,1.26,1.26,0,0,1,.82,1.92l-4.11,6.57c-.55.82-1.37.82-1.65,0l-4.11-6.57a1.26,1.26,0,0,1,.82-1.92Zm8.23,15.89a4.11,4.11,0,0,1-8.23,0,4.12,4.12,0,0,1,8.23,0ZM261.27,60.66a1.26,1.26,0,0,1,1.92.82l1.65,7.4c.27.82-.27,1.37-1.37,1.37l-7.13-1.92c-1.1-.27-1.37-1.1-.82-1.92A9.89,9.89,0,0,1,258,63.12a18.11,18.11,0,0,1,3.29-2.47ZM253.6,78.73a16.78,16.78,0,0,1-.55-4.11,20,20,0,0,1,.55-4.11,1.18,1.18,0,0,1,1.92-.55l6.58,3.83a1.05,1.05,0,0,1,0,1.92l-6.58,3.83c-.82.55-1.65.27-1.92-.82Zm1.65,4.38a1.21,1.21,0,0,1,.82-1.92l7.4-1.92c.82-.27,1.37.27,1.37,1.37L262.92,88a1.42,1.42,0,0,1-1.92.82,18.11,18.11,0,0,1-3.29-2.47c-1.37-1.64-2.47-3.29-2.47-3.29Zm18.1,7.4a16.83,16.83,0,0,1-4.11.55,20,20,0,0,1-4.11-.55,1.41,1.41,0,0,1-.82-1.92l4.11-6.3c.55-.82,1.37-.82,1.65,0l4.11,6.3c.55.82.27,1.64-.82,1.92Zm4.11-1.64c-.82.55-1.65.27-1.92-.82l-1.65-7.4c-.27-.82.27-1.37,1.37-1.1l7.4,1.64a1.41,1.41,0,0,1,.82,1.92A18.09,18.09,0,0,1,281,86.4a28.42,28.42,0,0,1-3.56,2.47Z"/>
    </g>
    <g>
      <rect class="cls-7" x="107" y="31" width="51" height="88"/>
      <g>
        <rect class="cls-8" x="132" y="32" width="24.94" height="86"/>
        <rect class="cls-9" x="109" y="54" width="23.02" height="2.88"/>
        <polygon class="cls-10" points="143.53 40.1 109 40.1 109 42.98 143.53 42.98 143.53 40.1 143.53 40.1"/>
        <polyline class="cls-10" points="143.53 40.1 109 40.1 109 42.98 143.53 42.98 143.53 40.1"/>
        <rect class="cls-9" x="109" y="46" width="23.02" height="3"/>
        <rect class="cls-9" x="109" y="39" width="23.02" height="3"/>
        <rect class="cls-4" x="132.02" y="54" width="24.94" height="2.88"/>
        <rect class="cls-4" x="132.02" y="46" width="24.94" height="3"/>
        <rect class="cls-4" x="132.02" y="39" width="24.94" height="3"/>
      </g>
      <rect class="cls-4" x="108" y="39" width="3" height="3"/>
      <rect class="cls-4" x="108" y="46" width="3" height="3"/>
      <rect class="cls-4" x="108" y="54" width="3" height="3"/>
    </g>
  </g>
</svg>
