<svg xmlns="http://www.w3.org/2000/svg" viewBox="0 0 400 140">
  <defs>
    <style>
      .cls-1 {
        fill: #c2c2c2;
      }

      .cls-1, .cls-10, .cls-5 {
        stroke: #556a8a;
      }

      .cls-1, .cls-10, .cls-4, .cls-5 {
        stroke-miterlimit: 10;
        stroke-width: 2px;
      }

      .cls-2 {
        fill: #e5e5e5;
      }

      .cls-3 {
        fill: #ababab;
      }

      .cls-10, .cls-4 {
        fill: none;
      }

      .cls-4 {
        stroke: #868787;
      }

      .cls-5, .cls-8 {
        fill: #fff;
      }

      .cls-6 {
        fill: #2bc7f4;
      }

      .cls-7 {
        fill: #556a8a;
      }

      .cls-9 {
        fill: #bad80a;
      }

      .cls-11 {
        fill: #a4c439;
      }
    </style>
  </defs>
  <title>xamarin-android-ui</title>
  <g id="ICONS">
    <g>
      <g>
        <g>
          <rect class="cls-1" x="168" y="25" width="70" height="98" rx="6" ry="6"/>
          <rect class="cls-2" x="174" y="36" width="59" height="75"/>
          <rect class="cls-3" x="197.3" y="114.6" width="12.6" height="3.6" rx="1.8" ry="1.8"/>
          <line class="cls-4" x1="192.8" y1="30" x2="214.4" y2="30"/>
        </g>
        <g>
          <rect class="cls-5" x="229.7" y="43.5" width="32.4" height="61.2" rx="4" ry="4"/>
          <rect class="cls-2" x="232.4" y="51.6" width="27" height="44.1"/>
          <path class="cls-6" d="M249.67,49.8h-7.54a.92.92,0,0,1,0-1.8h7.54a.92.92,0,0,1,0,1.8Z"/>
          <circle class="cls-6" cx="235.55" cy="100.09" r="1.35"/>
          <circle class="cls-6" cx="257.15" cy="100.09" r="1.35"/>
          <rect class="cls-6" x="241.4" y="99.3" width="9" height="1.8" rx="0.9" ry="0.9"/>
          <polygon class="cls-6" points="245.76 63.3 248.06 70.39 255.52 70.39 249.49 74.78 251.79 81.87 245.76 77.48 239.73 81.87 242.03 74.78 236 70.39 243.46 70.39 245.76 63.3"/>
        </g>
        <g>
          <rect class="cls-7" x="141.2" y="29.1" width="1.8" height="27" rx="0.5" ry="0.5"/>
          <polygon class="cls-2" points="137.9 30 169.22 18.2 199.46 30 169.22 42.96 137.9 30"/>
          <path class="cls-8" d="M200.54,30,169.22,18.2,137.9,30l9.72,4.32v17c0,6,9.89,11.09,21.6,11.09s21.6-5.08,21.6-11.09v-17Z"/>
          <polygon class="cls-9" points="190.92 34.07 169.22 43.43 147.62 34.48 147.62 39.88 169.22 48.88 190.82 39.88 190.92 34.07"/>
          <path class="cls-10" d="M200.63,30,169.27,18.2,138,30l9.79,4.32v17c0,6,9.89,11.09,21.6,11.09S191,57.33,191,51.32v-17Z"/>
          <path class="cls-7" d="M140.4,56.64V52.32c0-2.38.65-4.32,1.44-4.32h.72c.79,0,1.44,1.94,1.44,4.32v4.32Z"/>
          <polyline class="cls-10" points="146.31 33.68 169.22 42.96 191 34.32"/>
        </g>
      </g>
      <g>
        <rect class="cls-11" x="198.17" y="57.49" width="0.67" height="6.07" rx="0.34" ry="0.34" transform="translate(1.18 124.81) rotate(-35)"/>
        <rect class="cls-11" x="210.21" y="57.49" width="0.68" height="6.07" rx="0.34" ry="0.34" transform="translate(348.3 230.88) rotate(-145)"/>
        <g>
          <path class="cls-11" d="M188.5,73a2.56,2.56,0,0,0-2.5,2.62v11a2.5,2.5,0,1,0,5,0v-11A2.56,2.56,0,0,0,188.5,73"/>
          <path class="cls-11" d="M198.5,84.8a2.56,2.56,0,0,0-2.5,2.62v11a2.5,2.5,0,1,0,5,0v-11a2.56,2.56,0,0,0-2.5-2.62"/>
          <path class="cls-11" d="M208.5,84.8a2.56,2.56,0,0,0-2.5,2.62v11a2.5,2.5,0,1,0,5,0v-11a2.56,2.56,0,0,0-2.5-2.62"/>
          <path class="cls-11" d="M218.5,72.8a2.56,2.56,0,0,0-2.5,2.62v11a2.5,2.5,0,1,0,5,0v-11a2.56,2.56,0,0,0-2.5-2.62"/>
        </g>
        <path class="cls-11" d="M192.05,88A4,4,0,0,0,196,92h15.08A4,4,0,0,0,215,88V73.1H192.05Z"/>
        <path class="cls-11" d="M215,72a11.47,11.47,0,0,0-22.95,0Z"/>
        <path class="cls-8" d="M209,68a1,1,0,1,1,1-1,1,1,0,0,1-1,1"/>
        <path class="cls-8" d="M199,68a1,1,0,1,1,1-1,1,1,0,0,1-1,1"/>
      </g>
    </g>
  </g>
</svg>
