<svg xmlns="http://www.w3.org/2000/svg" viewBox="0 0 400 140">
  <defs>
    <style>
      .cls-1 {
        fill: #c2c2c2;
      }

      .cls-1, .cls-5, .cls-9 {
        stroke: #556a8a;
        stroke-miterlimit: 10;
      }

      .cls-1, .cls-4, .cls-5, .cls-9 {
        stroke-width: 2px;
      }

      .cls-2 {
        fill: #e5e5e5;
      }

      .cls-3 {
        fill: #ababab;
      }

      .cls-4 {
        fill: none;
        stroke: #868787;
        stroke-linecap: round;
        stroke-linejoin: round;
      }

      .cls-10, .cls-5 {
        fill: #fff;
      }

      .cls-6, .cls-9 {
        fill: #2bc7f4;
      }

      .cls-7 {
        fill: #556a8a;
      }

      .cls-8 {
        fill: #d7f4fd;
      }
    </style>
  </defs>
  <title>xamarin-forms-enterprise</title>
  <g id="ICONS">
    <g>
      <g>
        <g>
          <rect class="cls-1" x="130" y="22" width="63" height="88.99" rx="6" ry="6"/>
          <rect class="cls-2" x="136" y="33" width="51" height="70"/>
          <rect class="cls-3" x="153.76" y="105" width="12" height="3" rx="1.35" ry="1.35"/>
          <line class="cls-4" x1="151.5" y1="28" x2="171.5" y2="28"/>
        </g>
        <g>
          <rect class="cls-5" x="111" y="54" width="34" height="64" rx="4" ry="4"/>
          <rect class="cls-2" x="114" y="62" width="27" height="45"/>
          <circle class="cls-6" cx="138.5" cy="112" r="1"/>
          <circle class="cls-6" cx="116.5" cy="112" r="1"/>
          <rect class="cls-6" x="122.5" y="111" width="10" height="2" rx="0.9" ry="0.9"/>
          <rect class="cls-6" x="122.5" y="58" width="10" height="2" rx="0.9" ry="0.9"/>
        </g>
      </g>
      <g>
        <g>
          <polygon class="cls-7" points="282 116.21 247 116.21 247 61.55 282 61.55 282 116.21 282 116.21"/>
          <g>
            <g>
              <path class="cls-8" d="M256.58,74h-4.17a.4.4,0,0,1-.42-.39V67.39a.4.4,0,0,1,.42-.39h4.17a.4.4,0,0,1,.42.39v6.22A.4.4,0,0,1,256.58,74Z"/>
              <path class="cls-8" d="M266.58,74h-4.17a.4.4,0,0,1-.42-.39V67.39a.4.4,0,0,1,.42-.39h4.17a.4.4,0,0,1,.42.39v6.22A.4.4,0,0,1,266.58,74Z"/>
              <path class="cls-8" d="M276.58,74h-4.17a.4.4,0,0,1-.42-.39V67.39a.4.4,0,0,1,.42-.39h4.17a.4.4,0,0,1,.42.39v6.22A.4.4,0,0,1,276.58,74Z"/>
            </g>
            <g>
              <path class="cls-8" d="M256.58,86h-4.17a.4.4,0,0,1-.42-.39V79.39a.4.4,0,0,1,.42-.39h4.17a.4.4,0,0,1,.42.39v6.22A.4.4,0,0,1,256.58,86Z"/>
              <path class="cls-8" d="M266.58,86h-4.17a.4.4,0,0,1-.42-.39V79.39a.4.4,0,0,1,.42-.39h4.17a.4.4,0,0,1,.42.39v6.22A.4.4,0,0,1,266.58,86Z"/>
              <path class="cls-8" d="M276.58,86h-4.17a.4.4,0,0,1-.42-.39V79.39a.4.4,0,0,1,.42-.39h4.17a.4.4,0,0,1,.42.39v6.22A.4.4,0,0,1,276.58,86Z"/>
            </g>
            <g>
              <path class="cls-8" d="M256.58,98h-4.17a.4.4,0,0,1-.42-.39V91.39a.4.4,0,0,1,.42-.39h4.17a.4.4,0,0,1,.42.39v6.22A.4.4,0,0,1,256.58,98Z"/>
              <path class="cls-8" d="M266.58,98h-4.17a.4.4,0,0,1-.42-.39V91.39a.4.4,0,0,1,.42-.39h4.17a.4.4,0,0,1,.42.39v6.22A.4.4,0,0,1,266.58,98Z"/>
              <path class="cls-8" d="M276.58,98h-4.17a.4.4,0,0,1-.42-.39V91.39a.4.4,0,0,1,.42-.39h4.17a.4.4,0,0,1,.42.39v6.22A.4.4,0,0,1,276.58,98Z"/>
            </g>
          </g>
          <polygon class="cls-3" points="282 62 249 62 249 59 282 59 282 62 282 62"/>
        </g>
        <g>
          <polygon class="cls-7" points="213 116.21 176 116.21 176 61.55 213 61.55 213 116.21 213 116.21"/>
          <polygon class="cls-3" points="210 62 176 62 176 59 210 59 210 62 210 62"/>
          <polygon class="cls-9" points="248 116.21 211 116.21 211 33.85 248 33.85 248 116.21 248 116.21"/>
          <polygon class="cls-7" points="249 35 210 35 210 32 249 32 249 35 249 35"/>
          <rect class="cls-10" x="218" y="94" width="24" height="22"/>
          <rect class="cls-6" x="228" y="90.31" width="3" height="27.69"/>
          <polygon class="cls-6" points="169 115 290 115 290 118 169 118 169 115 169 115"/>
          <rect class="cls-6" x="219" y="103" width="2" height="7"/>
          <rect class="cls-6" x="238" y="103" width="2" height="7"/>
        </g>
      </g>
      <g>
        <g>
          <path class="cls-8" d="M186.58,74h-4.17a.4.4,0,0,1-.42-.39V67.39a.4.4,0,0,1,.42-.39h4.17a.4.4,0,0,1,.42.39v6.22A.4.4,0,0,1,186.58,74Z"/>
          <path class="cls-8" d="M196.58,74h-4.17a.4.4,0,0,1-.42-.39V67.39a.4.4,0,0,1,.42-.39h4.17a.4.4,0,0,1,.42.39v6.22A.4.4,0,0,1,196.58,74Z"/>
          <path class="cls-8" d="M206.58,74h-4.17a.4.4,0,0,1-.42-.39V67.39a.4.4,0,0,1,.42-.39h4.17a.4.4,0,0,1,.42.39v6.22A.4.4,0,0,1,206.58,74Z"/>
        </g>
        <g>
          <path class="cls-8" d="M186.58,86h-4.17a.4.4,0,0,1-.42-.39V79.39a.4.4,0,0,1,.42-.39h4.17a.4.4,0,0,1,.42.39v6.22A.4.4,0,0,1,186.58,86Z"/>
          <path class="cls-8" d="M196.58,86h-4.17a.4.4,0,0,1-.42-.39V79.39a.4.4,0,0,1,.42-.39h4.17a.4.4,0,0,1,.42.39v6.22A.4.4,0,0,1,196.58,86Z"/>
          <path class="cls-8" d="M206.58,86h-4.17a.4.4,0,0,1-.42-.39V79.39a.4.4,0,0,1,.42-.39h4.17a.4.4,0,0,1,.42.39v6.22A.4.4,0,0,1,206.58,86Z"/>
        </g>
        <g>
          <path class="cls-8" d="M186.58,98h-4.17a.4.4,0,0,1-.42-.39V91.39a.4.4,0,0,1,.42-.39h4.17a.4.4,0,0,1,.42.39v6.22A.4.4,0,0,1,186.58,98Z"/>
          <path class="cls-8" d="M196.58,98h-4.17a.4.4,0,0,1-.42-.39V91.39a.4.4,0,0,1,.42-.39h4.17a.4.4,0,0,1,.42.39v6.22A.4.4,0,0,1,196.58,98Z"/>
          <path class="cls-8" d="M206.58,98h-4.17a.4.4,0,0,1-.42-.39V91.39a.4.4,0,0,1,.42-.39h4.17a.4.4,0,0,1,.42.39v6.22A.4.4,0,0,1,206.58,98Z"/>
        </g>
      </g>
      <g>
        <g>
          <path class="cls-8" d="M221.58,48h-4.17a.4.4,0,0,1-.42-.39V41.39a.4.4,0,0,1,.42-.39h4.17a.4.4,0,0,1,.42.39v6.22A.4.4,0,0,1,221.58,48Z"/>
          <path class="cls-8" d="M231.58,48h-4.17a.4.4,0,0,1-.42-.39V41.39a.4.4,0,0,1,.42-.39h4.17a.4.4,0,0,1,.42.39v6.22A.4.4,0,0,1,231.58,48Z"/>
          <path class="cls-8" d="M241.58,48h-4.17a.4.4,0,0,1-.42-.39V41.39a.4.4,0,0,1,.42-.39h4.17a.4.4,0,0,1,.42.39v6.22A.4.4,0,0,1,241.58,48Z"/>
        </g>
        <g>
          <path class="cls-8" d="M221.58,60h-4.17a.4.4,0,0,1-.42-.39V53.39a.4.4,0,0,1,.42-.39h4.17a.4.4,0,0,1,.42.39v6.22A.4.4,0,0,1,221.58,60Z"/>
          <path class="cls-8" d="M231.58,60h-4.17a.4.4,0,0,1-.42-.39V53.39a.4.4,0,0,1,.42-.39h4.17a.4.4,0,0,1,.42.39v6.22A.4.4,0,0,1,231.58,60Z"/>
          <path class="cls-8" d="M241.58,60h-4.17a.4.4,0,0,1-.42-.39V53.39a.4.4,0,0,1,.42-.39h4.17a.4.4,0,0,1,.42.39v6.22A.4.4,0,0,1,241.58,60Z"/>
        </g>
        <g>
          <path class="cls-8" d="M221.58,72h-4.17a.4.4,0,0,1-.42-.39V65.39a.4.4,0,0,1,.42-.39h4.17a.4.4,0,0,1,.42.39v6.22A.4.4,0,0,1,221.58,72Z"/>
          <path class="cls-8" d="M231.58,72h-4.17a.4.4,0,0,1-.42-.39V65.39a.4.4,0,0,1,.42-.39h4.17a.4.4,0,0,1,.42.39v6.22A.4.4,0,0,1,231.58,72Z"/>
          <path class="cls-8" d="M241.58,72h-4.17a.4.4,0,0,1-.42-.39V65.39a.4.4,0,0,1,.42-.39h4.17a.4.4,0,0,1,.42.39v6.22A.4.4,0,0,1,241.58,72Z"/>
        </g>
        <g>
          <path class="cls-8" d="M221.58,84h-4.17a.4.4,0,0,1-.42-.39V77.39a.4.4,0,0,1,.42-.39h4.17a.4.4,0,0,1,.42.39v6.22A.4.4,0,0,1,221.58,84Z"/>
          <path class="cls-8" d="M231.58,84h-4.17a.4.4,0,0,1-.42-.39V77.39a.4.4,0,0,1,.42-.39h4.17a.4.4,0,0,1,.42.39v6.22A.4.4,0,0,1,231.58,84Z"/>
          <path class="cls-8" d="M241.58,84h-4.17a.4.4,0,0,1-.42-.39V77.39a.4.4,0,0,1,.42-.39h4.17a.4.4,0,0,1,.42.39v6.22A.4.4,0,0,1,241.58,84Z"/>
        </g>
      </g>
    </g>
  </g>
</svg>
