<svg xmlns="http://www.w3.org/2000/svg" viewBox="0 0 400 140">
  <defs>
    <style>
      .cls-1 {
        fill: #c2c2c2;
      }

      .cls-1, .cls-5, .cls-8 {
        stroke: #556a8a;
        stroke-miterlimit: 10;
      }

      .cls-1, .cls-4, .cls-5, .cls-8 {
        stroke-width: 2px;
      }

      .cls-2 {
        fill: #e5e5e5;
      }

      .cls-3 {
        fill: #ababab;
      }

      .cls-4 {
        fill: none;
        stroke: #868787;
        stroke-linecap: round;
        stroke-linejoin: round;
      }

      .cls-5 {
        fill: #fff;
      }

      .cls-6 {
        fill: #2bc7f4;
      }

      .cls-7 {
        fill: #b3b3b3;
      }

      .cls-8 {
        fill: #9aa3b7;
        stroke-dasharray: 3 3;
      }

      .cls-9 {
        fill: #ffb900;
      }

      .cls-10 {
        fill: #bad80a;
      }

      .cls-11 {
        fill: #868787;
      }

      .cls-12 {
        fill: #9273b6;
      }
    </style>
  </defs>
  <title>xamarin-forms-ui</title>
  <g id="ICONS">
    <g>
      <g>
        <g>
          <rect class="cls-1" x="133" y="18.02" width="64" height="91" rx="6" ry="6"/>
          <rect class="cls-2" x="138" y="31.02" width="54" height="70"/>
          <rect class="cls-3" x="158.73" y="103.02" width="11.63" height="2" rx="1" ry="1"/>
          <line class="cls-4" x1="156" y1="26.02" x2="175.94" y2="26.02"/>
        </g>
        <g>
          <rect class="cls-5" x="117" y="50.02" width="35" height="65" rx="4" ry="4"/>
          <rect class="cls-2" x="121" y="59.02" width="27" height="46"/>
          <path class="cls-6" d="M138.34,56H130a1,1,0,0,1,0-2h8.38a1,1,0,0,1,0,2Z"/>
          <path class="cls-6" d="M138.34,110H130a1,1,0,0,1,0-2h8.38a1,1,0,0,1,0,2Z"/>
          <circle class="cls-6" cx="124" cy="109.02" r="1"/>
          <circle class="cls-6" cx="145" cy="109.02" r="1"/>
        </g>
        <g>
          <rect class="cls-5" x="181" y="46.98" width="102" height="75" rx="4" ry="4"/>
          <rect class="cls-2" x="185" y="51.02" width="94" height="62"/>
          <circle class="cls-7" cx="232.87" cy="117.59" r="1.46"/>
        </g>
      </g>
      <rect class="cls-8" x="191" y="56.02" width="82" height="40"/>
      <rect class="cls-9" x="197" y="102" width="8" height="8"/>
      <rect class="cls-10" x="212" y="102" width="8" height="8"/>
      <rect class="cls-6" x="227" y="102" width="8" height="8"/>
      <rect class="cls-11" x="242" y="102" width="8" height="8"/>
      <rect class="cls-12" x="257" y="102" width="8" height="8"/>
    </g>
  </g>
</svg>
