<svg xmlns="http://www.w3.org/2000/svg" viewBox="0 0 400 140">
  <defs>
    <style>
      .cls-1 {
        fill: #ace8f9;
      }

      .cls-2, .cls-7 {
        fill: #c2c2c2;
      }

      .cls-12, .cls-2, .cls-8 {
        stroke: #556a8a;
      }

      .cls-10, .cls-12, .cls-2, .cls-5, .cls-8 {
        stroke-miterlimit: 10;
        stroke-width: 2px;
      }

      .cls-3 {
        fill: #e5e5e5;
      }

      .cls-4 {
        fill: #ababab;
      }

      .cls-12, .cls-5 {
        fill: none;
      }

      .cls-5 {
        stroke: #868787;
      }

      .cls-6 {
        fill: #556a8a;
      }

      .cls-7 {
        fill-rule: evenodd;
      }

      .cls-10, .cls-8 {
        fill: #fff;
      }

      .cls-9 {
        fill: #2bc7f4;
      }

      .cls-10 {
        stroke: #2bc7f4;
      }

      .cls-11 {
        fill: #3498db;
      }
    </style>
  </defs>
  <title>xamarin-forms-internals</title>
  <g id="ICONS">
    <g>
      <path class="cls-1" d="M252,120.33h-78c-7.47,0-12.19-.06-15.67-.36l-.67-.07a24.7,24.7,0,0,1-7.94-2.17l-.41-.17A26.83,26.83,0,0,1,166.16,67a29.16,29.16,0,0,1,27.18-19.36,28.36,28.36,0,0,1,12.6,3,28.08,28.08,0,0,1,23.88-13.41c13.91,0,25.84,10.63,28,24.57,13.21,2.78,22.93,14.85,22.93,28.93S271,117,257.6,119.66A24.3,24.3,0,0,1,252,120.33Z"/>
      <g>
        <rect class="cls-2" x="192.5" y="45.5" width="55" height="76" rx="6" ry="6" transform="translate(136.5 303.5) rotate(-90)"/>
        <rect class="cls-3" x="197" y="54" width="45" height="59" transform="translate(136 303) rotate(-90)"/>
        <rect class="cls-4" x="248.45" y="81.57" width="9.93" height="2.84" rx="1.42" ry="1.42" transform="translate(170.43 336.41) rotate(-90)"/>
        <line class="cls-5" x1="186.39" y1="91.5" x2="186.39" y2="74.48"/>
      </g>
      <g>
        <path class="cls-6" d="M231.78,46.07a.9.9,0,0,0,.84.62l1.89-.06a1,1,0,0,0,.77-1l.11-2.32a1.34,1.34,0,0,1,.94-1.41c.3-.28.74-.4,1-.68a1.62,1.62,0,0,1,1.59.22l2.11,1.4a1.1,1.1,0,0,0,1-.1l1.38-1.53a1,1,0,0,0-.24-1.17l-1.66-1.82a1.18,1.18,0,0,1-.22-1.46l-.14-.15a1.57,1.57,0,0,0,.48-1c0-.58.34-1.15,1.36-1.24l2.19-.34a1.15,1.15,0,0,0,.77-1l-.2-2a.71.71,0,0,0-.84-.62l-2.32-.11a1.38,1.38,0,0,1-1.41-.93c-.28-.3-.4-.74-.68-1a2.32,2.32,0,0,1,.08-1.74l1.39-1.82a1,1,0,0,0-.08-1.31l-1.55-1.09a.88.88,0,0,0-1.16-.05l-1.68,1.81a1.48,1.48,0,0,1-1.61.36,4.49,4.49,0,0,0-1.15-.34l-.14-.15a1.53,1.53,0,0,1-1.11-1.21l-.32-2.48a.9.9,0,0,0-.84-.62l-2,.2a.71.71,0,0,0-.62.84l-.26,2.46c0,.87-.34,1.15-.78,1.27-.3.28-.74.4-1,.68a1.53,1.53,0,0,1-1.74-.08l-2-1.54a1.13,1.13,0,0,0-1.17.24l-1.38,1.54a1.28,1.28,0,0,0,.24,1.17l1.66,1.82c.55.61.68,1,.22,1.46,0,.29-.18.72-.21,1.3-.17.43-.33.86-1.35,1l-2.35.47a.9.9,0,0,0-.62.84l.2,2a.92.92,0,0,0,.69.76l2.47,0c.87,0,1.14.34,1.27.78a13,13,0,0,1,.66,1.34,1.3,1.3,0,0,1,.07,1.6l-1.54,2a1.13,1.13,0,0,0,.24,1.17l1.4,1.23a.88.88,0,0,0,1.16.05l1.68-1.81a1.48,1.48,0,0,1,1.61-.36l1.29.49c.58,0,.86.33,1.11,1.21l.47,2.34m5.69-13.25a5.1,5.1,0,0,1-4.6,5.31,4.74,4.74,0,0,1-5.31-4.6A4.87,4.87,0,0,1,232,28.37a4.93,4.93,0,0,1,5.46,4.46"/>
        <path class="cls-6" d="M290.36,38.45a1.1,1.1,0,0,0,.07-1.45l-1.94-2.12a1.29,1.29,0,0,0-1.45-.07L283.75,37c-.7-.47-1.55-1.09-2.25-1.55l1.06-4a1,1,0,0,0-.53-1.19l-2.42-1.13a.92.92,0,0,0-1.33.38L275.95,33a8.46,8.46,0,0,0-2.58-.7L273,28.22a1,1,0,0,0-1-1.06l-2.76,0c-.43-.16-.88.25-1,.68L267.28,32a8.53,8.53,0,0,0-2.64.46l-2-3.72a1.46,1.46,0,0,0-1.28-.49l-2.66,1a1,1,0,0,0-.63,1.13l.83,4c-.75.4-1.5,1.09-2.25,1.5l-3.22-2.61a.94.94,0,0,0-1.31.09l-2,1.8a.94.94,0,0,0-.2,1.3l2.31,3.44a11.85,11.85,0,0,0-1.71,2.39l-4-1.34a1.27,1.27,0,0,0-1.34.66l-1.13,2.42a1.25,1.25,0,0,0,.51,1.47L248,47.72c-.33.86-.37,1.73-.7,2.58l-4.08.4a1.27,1.27,0,0,0-.92,1.12l-.12,2.61a1.26,1.26,0,0,0,.82,1.2l4.18.62a17.11,17.11,0,0,0,.45,2.93l-3.72,2a.92.92,0,0,0-.5,1.29l.9,2.51a1.36,1.36,0,0,0,1.27.78l4.11-1,1.2,2.23-2.62,3.22a1.36,1.36,0,0,0,.08,1.31l1.94,2.12a1.1,1.1,0,0,0,1.3.2L255,71.56c.7.47,1.55,1.09,2.25,1.55l-1.06,4a1,1,0,0,0,.53,1.19l2.55,1.28a1.24,1.24,0,0,0,1.32-.38l2.19-3.39c.87,0,1.73.37,2.6.41l.24,4.22a1.26,1.26,0,0,0,1.12.92l2.75.27a1.75,1.75,0,0,0,1.06-1l.77-4c1-.1,1.9-.35,2.92-.45l1.87,3.57a1,1,0,0,0,1.28.49l2.51-.9a1.18,1.18,0,0,0,.79-1.27l-.83-4a10.42,10.42,0,0,0,2.25-1.5l3.22,2.62a1,1,0,0,0,1.45.07l2-1.8a1,1,0,0,0,.07-1.45l-2.31-3.45a7.24,7.24,0,0,0,1.71-2.39l4,1.34a1,1,0,0,0,1.19-.53l1.28-2.56a1.46,1.46,0,0,0-.37-1.32l-3.52-2.34a7.4,7.4,0,0,0,.55-2.44l4.24-.54c.44-.12.9-.54.91-.83l.13-2.9a1,1,0,0,0-1-1.06l-4-.76a15.81,15.81,0,0,0-.31-2.77l3.43-2a1.06,1.06,0,0,0,.65-1.42l-.9-2.51a.91.91,0,0,0-1.28-.49l-4.1.69-1.2-2.23,2.47-3.08m-17.88,13a4.21,4.21,0,0,1-.28,6.09,4.16,4.16,0,0,1-5.94-.41,4.21,4.21,0,1,1,6.22-5.67"/>
      </g>
      <g>
        <circle class="cls-3" cx="269.73" cy="54.01" r="14.84"/>
        <path class="cls-7" d="M259.24,43.52a14.84,14.84,0,0,0,21,21Z"/>
      </g>
      <g>
        <rect class="cls-8" x="172" y="26" width="36" height="68" rx="4" ry="4"/>
        <rect class="cls-3" x="175" y="35" width="30" height="49"/>
        <path class="cls-9" d="M194.19,33h-8.38a1,1,0,0,1,0-2h8.38a1,1,0,0,1,0,2Z"/>
        <path class="cls-9" d="M194.19,89h-8.38a1,1,0,0,1,0-2h8.38a1,1,0,0,1,0,2Z"/>
        <circle class="cls-9" cx="200.5" cy="87.5" r="1.5"/>
        <circle class="cls-9" cx="179.5" cy="87.5" r="1.5"/>
      </g>
      <circle class="cls-10" cx="133.34" cy="62.38" r="29.95"/>
      <path id="Logo" class="cls-11" d="M124.93,44.33a3.18,3.18,0,0,0-2.68,1.55l-8.46,14.65a3.18,3.18,0,0,0,0,3.09l8.46,14.65a3.18,3.18,0,0,0,2.68,1.55h16.92a3.18,3.18,0,0,0,2.68-1.55L153,63.62a3.18,3.18,0,0,0,0-3.09l-8.46-14.65a3.18,3.18,0,0,0-2.68-1.55Zm.15,8.57h3a.38.38,0,0,1,.32.19l4.95,8.79a.08.08,0,1,0,.09,0l4.94-8.79a.39.39,0,0,1,.33-.19h2.92a.4.4,0,0,1,.33.55l-4.83,8.62L142,70.68a.4.4,0,0,1-.33.57H138.7a.39.39,0,0,1-.33-.2l-4.94-8.79a.08.08,0,1,0-.09,0L128.39,71a.39.39,0,0,1-.32.2h-2.92a.4.4,0,0,1-.33-.57l4.83-8.61-4.83-8.62a.4.4,0,0,1,.26-.55Z"/>
      <path class="cls-6" d="M181.29,39v9.31h-1.47v-7.5a4.69,4.69,0,0,1-.86.49,7.07,7.07,0,0,1-1.05.35V40.41l.71-.25c.23-.09.45-.19.68-.3s.45-.23.67-.37.46-.29.7-.46Z"/>
      <path class="cls-6" d="M183.72,64.33H178v-.7a2.66,2.66,0,0,1,.12-.81,3.37,3.37,0,0,1,.32-.71,4.07,4.07,0,0,1,.48-.63c.18-.2.38-.39.58-.57s.42-.36.63-.53l.63-.52q.29-.25.53-.49a3.21,3.21,0,0,0,.41-.49,2.24,2.24,0,0,0,.27-.54,1.93,1.93,0,0,0,.09-.61,1.65,1.65,0,0,0-.11-.63,1.21,1.21,0,0,0-.31-.45,1.32,1.32,0,0,0-.47-.27,1.88,1.88,0,0,0-.6-.09,2.75,2.75,0,0,0-1.14.26,3.89,3.89,0,0,0-1.11.78V55.91a4.8,4.8,0,0,1,.56-.37,4,4,0,0,1,.59-.26,3.7,3.7,0,0,1,.64-.16,4.89,4.89,0,0,1,.72-.05,3.61,3.61,0,0,1,1.12.16,2.38,2.38,0,0,1,.86.48,2.11,2.11,0,0,1,.55.78,2.82,2.82,0,0,1,.19,1.08,3.33,3.33,0,0,1-.14,1,3.14,3.14,0,0,1-.39.82,4.24,4.24,0,0,1-.61.72c-.24.23-.5.46-.79.71l-.73.58c-.24.19-.46.37-.66.55a3,3,0,0,0-.47.54,1,1,0,0,0-.18.54v0h4.11Z"/>
      <path class="cls-6" d="M178.17,80V78.61a3.14,3.14,0,0,0,2,.7,2.35,2.35,0,0,0,1.45-.41,1.33,1.33,0,0,0,.54-1.12q0-1.55-2.37-1.55h-.71V75.06h.67q2.1,0,2.1-1.46t-1.64-1.35a2.69,2.69,0,0,0-1.72.65V71.6a4.41,4.41,0,0,1,2.19-.52,2.93,2.93,0,0,1,1.94.61,1.94,1.94,0,0,1,.73,1.56,2.22,2.22,0,0,1-1.83,2.31v0a2.39,2.39,0,0,1,1.55.69,2.06,2.06,0,0,1,.57,1.48,2.43,2.43,0,0,1-.92,2,3.71,3.71,0,0,1-2.42.75A4.14,4.14,0,0,1,178.17,80Z"/>
      <line class="cls-12" x1="186" y1="44" x2="201" y2="44"/>
      <line class="cls-12" x1="186" y1="60" x2="201" y2="60"/>
      <line class="cls-12" x1="186" y1="77" x2="201" y2="77"/>
      <path class="cls-6" d="M267.43,47.86l-1.5,1-1.5-1V44.33a3.41,3.41,0,0,0-2,3.28,3.54,3.54,0,0,0,2,3.14V62.07a1.25,1.25,0,0,0,1.34,1.26H266a1.38,1.38,0,0,0,1.37-1.38V50.75a3.23,3.23,0,0,0,2-3.15,3.7,3.7,0,0,0-2-3.27Z"/>
      <path class="cls-6" d="M275.43,54.33h-1l0-5.09,1-1.91-1.71-3h-.57l-1.71,3,1,2v5h-1v2h1a2.68,2.68,0,0,1-1,2.1v3.4a1.45,1.45,0,0,0,1.27,1.5h1.64c.56,0,1.09-.74,1.09-1.64V58.41c-.27,0-1-1.08-1-2.08h1Z"/>
    </g>
  </g>
</svg>
