<svg xmlns="http://www.w3.org/2000/svg" viewBox="0 0 400 140">
  <defs>
    <style>
      .cls-1, .cls-10, .cls-2 {
        fill: #fff;
      }

      .cls-1 {
        stroke: #2bc7f4;
      }

      .cls-1, .cls-10, .cls-9 {
        stroke-miterlimit: 10;
        stroke-width: 2px;
      }

      .cls-3 {
        fill: #55d2f6;
        opacity: 0.8;
      }

      .cls-4 {
        fill: #ff9f2b;
      }

      .cls-5 {
        fill: #ff8c00;
      }

      .cls-6 {
        fill: #556a8a;
      }

      .cls-7 {
        fill: #e5e5e5;
      }

      .cls-8 {
        fill: #bad80a;
      }

      .cls-9 {
        fill: none;
      }

      .cls-10, .cls-9 {
        stroke: #556a8a;
      }

      .cls-11 {
        fill: #df1889;
      }

      .cls-12 {
        fill: #f4fffd;
      }
    </style>
  </defs>
  <title>xamarin-tools-live-player</title>
  <g id="ICONS">
    <g>
      <circle class="cls-1" cx="221.3" cy="70" r="48.15"/>
      <path class="cls-2" d="M229.6,64.94c-.92-11.45-9.86-20.44-20.76-20.44a20.72,20.72,0,0,0-18.53,12.16,20.18,20.18,0,0,0-11.07-3.31c-9.83,0-18.1,7.13-20.6,16.84a18.85,18.85,0,0,0-6-1c-10.81,0-19.58,9.13-19.58,20.38a20.45,20.45,0,0,0,11.3,18.47,18,18,0,0,0,6.09,1.78l.49,0a113.25,113.25,0,0,0,12.52.8h63.32a17.46,17.46,0,0,0,4.1-1c9.73-2,17.09-11.21,17.09-22.26C248,75.89,240,66.37,229.6,64.94Z"/>
      <path class="cls-3" d="M229.6,64.94c-.92-11.45-9.86-20.44-20.76-20.44a20.72,20.72,0,0,0-18.53,12.16,20.18,20.18,0,0,0-11.07-3.31c-9.83,0-18.1,7.13-20.6,16.84a18.85,18.85,0,0,0-6-1c-10.81,0-19.58,9.13-19.58,20.38a20.45,20.45,0,0,0,11.3,18.47,18,18,0,0,0,6.09,1.78l.49,0a113.25,113.25,0,0,0,12.52.8h63.32a17.46,17.46,0,0,0,4.1-1c9.73-2,17.09-11.21,17.09-22.26C248,75.89,240,66.37,229.6,64.94Z"/>
      <g>
        <g>
          <g>
            <path class="cls-4" d="M191.57,101.66c-.83.27-1.71.52-2.62.77,5.51-22.88,16.37-18.74,16.37-18.74l1.78,1.68.07.22C207.53,87.1,209,96.13,191.57,101.66Z"/>
            <path class="cls-5" d="M191.57,101.66c5.39-18.84,14.65-16.38,15.58-16.07C207.53,87.1,209,96.13,191.57,101.66Z"/>
            <polygon class="cls-6" points="208.01 89.91 200.31 82.21 206.47 80.67 209.35 83.57 208.01 89.91"/>
          </g>
          <polygon class="cls-6" points="209.54 72.85 188.75 72.08 185.67 69 203.38 60.53 210.79 63.31 209.54 72.85"/>
          <polygon class="cls-6" points="218.34 79.13 219.11 99.92 222.19 103 230.66 85.29 227.88 77.89 218.34 79.13"/>
          <g>
            <path class="cls-2" d="M214.19,88.3H214l-.18-.17-11-11.44,0-.27a45.46,45.46,0,0,1,12.47-22.09c10-9.91,33.18-14.07,34.17-14.24l.76-.13-.13.76s-.4,2.42-1.24,5.94c-2.26,9.51-6.31,22.21-12.78,28.71C226.05,85.48,215.12,88.3,214.19,88.3Z"/>
            <path class="cls-7" d="M248.29,48c-1.84,7.74-5.84,21.16-12.63,28-10,10.11-21,12.21-21.53,12.32L208,82.18S210,70.94,220.34,60.62C227.15,53.83,240.54,49.84,248.29,48Z"/>
            <path class="cls-8" d="M249.27,41.36a112,112,0,0,0-18.2,4.91l13.29,13.29A112,112,0,0,0,249.27,41.36Z"/>
            <path class="cls-9" d="M214.19,88.3H214l-.18-.17-11-11.44,0-.27a45.46,45.46,0,0,1,12.47-22.09c10-9.91,33.18-14.07,34.17-14.24l.76-.13-.13.76s-.4,2.42-1.24,5.94c-2.26,9.51-6.31,22.21-12.78,28.71C226.05,85.48,215.12,88.3,214.19,88.3Z"/>
          </g>
        </g>
        <circle class="cls-10" cx="224.88" cy="64.89" r="5.44"/>
      </g>
      <polygon class="cls-11" points="164.3 43.33 175.55 62.81 164.3 82.3 141.8 82.3 130.55 62.81 141.8 43.33 164.3 43.33"/>
      <polygon class="cls-12" points="163.05 62.26 148.88 53.97 148.88 70.55 163.05 62.26"/>
    </g>
  </g>
</svg>
