<svg xmlns="http://www.w3.org/2000/svg" viewBox="0 0 400 140">
  <defs>
    <style>
      .cls-1 {
        fill: #c2c2c2;
      }

      .cls-1, .cls-5, .cls-6 {
        stroke: #556a8a;
      }

      .cls-1, .cls-4, .cls-5, .cls-6, .cls-9 {
        stroke-miterlimit: 10;
        stroke-width: 2px;
      }

      .cls-2 {
        fill: #e5e5e5;
      }

      .cls-3 {
        fill: #ababab;
      }

      .cls-4 {
        fill: none;
        stroke: #868787;
      }

      .cls-10, .cls-5 {
        fill: #fff;
      }

      .cls-6, .cls-7 {
        fill: #556a8a;
      }

      .cls-8 {
        fill: #2bc7f4;
      }

      .cls-9 {
        fill: #7750a3;
        stroke: #5c2d91;
      }
    </style>
  </defs>
  <title>xamarin-ios-ui</title>
  <g id="ICONS">
    <g>
      <g>
        <rect class="cls-1" x="151" y="19" width="74" height="103" rx="6" ry="6"/>
        <rect class="cls-2" x="158" y="30" width="60" height="79"/>
        <rect class="cls-3" x="182.36" y="113.79" width="13.28" height="3.79" rx="1.9" ry="1.9"/>
        <line class="cls-4" x1="177.62" y1="24.61" x2="200.38" y2="24.61"/>
      </g>
      <g>
        <g>
          <path class="cls-5" d="M191.32,59.11H133.68A2.69,2.69,0,0,1,131,56.43V41.68A2.69,2.69,0,0,1,133.68,39h57.64A2.69,2.69,0,0,1,194,41.68V56.43A2.69,2.69,0,0,1,191.32,59.11Z"/>
          <line class="cls-6" x1="162" y1="59.5" x2="162" y2="39.39"/>
        </g>
        <g>
          <rect class="cls-7" x="179" y="43" width="2" height="12"/>
          <rect class="cls-7" x="179" y="43" width="2" height="12" transform="translate(131 229) rotate(-90)"/>
          <rect class="cls-7" x="145" y="43" width="2" height="12" transform="translate(97 195) rotate(-90)"/>
        </g>
      </g>
      <g>
        <rect class="cls-5" x="216" y="50" width="36" height="68" rx="4" ry="4" transform="translate(318 -150) rotate(90)"/>
        <rect class="cls-2" x="208" y="69" width="49" height="30"/>
        <path class="cls-8" d="M207,88.69V80.31a1,1,0,0,0-2,0v8.38a1,1,0,0,0,2,0Z"/>
      </g>
      <g>
        <rect class="cls-9" x="216" y="75" width="34" height="19" rx="9.5" ry="9.5"/>
        <circle class="cls-10" cx="240.5" cy="84.5" r="7.5"/>
      </g>
    </g>
  </g>
</svg>
