<svg xmlns="http://www.w3.org/2000/svg" viewBox="0 0 400 140">
  <defs>
    <style>
      .cls-1 {
        fill: #c2c2c2;
      }

      .cls-1, .cls-7 {
        stroke: #556a8a;
      }

      .cls-1, .cls-3, .cls-7 {
        stroke-miterlimit: 10;
        stroke-width: 2px;
      }

      .cls-2 {
        fill: #e5e5e5;
      }

      .cls-3, .cls-7 {
        fill: none;
      }

      .cls-3 {
        stroke: #ababab;
      }

      .cls-4 {
        fill: #ababab;
      }

      .cls-5 {
        fill: #80def9;
      }

      .cls-6 {
        fill: #fff;
      }

      .cls-8, .cls-9 {
        fill: #556a8a;
      }

      .cls-8 {
        opacity: 0.5;
      }
    </style>
  </defs>
  <title>xamarin-forms-ebook</title>
  <g id="ICONS">
    <g>
      <g>
        <g>
          <rect class="cls-1" x="162" y="20" width="68" height="95" rx="6" ry="6"/>
          <rect class="cls-2" x="168.1" y="27" width="56" height="74"/>
        </g>
        <g>
          <line class="cls-3" x1="183.1" y1="35" x2="209.1" y2="35"/>
          <line class="cls-3" x1="176.1" y1="43" x2="216.1" y2="43"/>
          <line class="cls-3" x1="176.1" y1="51" x2="216.1" y2="51"/>
          <line class="cls-3" x1="176.1" y1="59" x2="216.1" y2="59"/>
          <line class="cls-3" x1="176.1" y1="67" x2="216.1" y2="67"/>
          <line class="cls-3" x1="176.1" y1="75" x2="216.1" y2="75"/>
          <line class="cls-3" x1="176.1" y1="83" x2="216.1" y2="83"/>
          <line class="cls-3" x1="176.1" y1="91" x2="216.1" y2="91"/>
        </g>
        <rect class="cls-4" x="193.1" y="105" width="6" height="6" rx="2" ry="2"/>
        <line class="cls-3" x1="183" y1="108" x2="190" y2="108"/>
        <line class="cls-3" x1="202" y1="108" x2="209" y2="108"/>
      </g>
      <g>
        <polygon class="cls-5" points="286 64.16 258.05 64.16 258.05 37.54 286 64.16"/>
        <path class="cls-6" d="M258.12,38.46h-33a1.27,1.27,0,0,0-1.27,1.28v79.43a1.27,1.27,0,0,0,1.27,1.28h58.45a1.27,1.27,0,0,0,1.27-1.28V64.08Z"/>
        <path class="cls-7" d="M258.12,38.46h-33a1.27,1.27,0,0,0-1.27,1.28v79.43a1.27,1.27,0,0,0,1.27,1.28h58.45a1.27,1.27,0,0,0,1.27-1.28V64.08Z"/>
        <rect class="cls-8" x="224.8" y="39.6" width="21" height="79.86"/>
        <path class="cls-9" d="M237.6,68V79.46h-1.81V70.25a5.83,5.83,0,0,1-1.06.6,8.79,8.79,0,0,1-1.29.43V69.73l.87-.31q.42-.16.83-.37t.83-.45q.42-.25.86-.57Z"/>
        <path class="cls-9" d="M239.88,95.44h-7v-.87a3.22,3.22,0,0,1,.15-1,3.91,3.91,0,0,1,.4-.87,4.89,4.89,0,0,1,.58-.77,10,10,0,0,1,.72-.7q.38-.34.78-.66l.78-.64q.36-.3.65-.6a3.88,3.88,0,0,0,.51-.6,2.73,2.73,0,0,0,.33-.66,2.33,2.33,0,0,0,.12-.75,2.05,2.05,0,0,0-.14-.78,1.52,1.52,0,0,0-.38-.55,1.63,1.63,0,0,0-.58-.33,2.3,2.3,0,0,0-.73-.11,3.39,3.39,0,0,0-1.4.32,4.77,4.77,0,0,0-1.36,1V85.09a5.56,5.56,0,0,1,.69-.45,4.77,4.77,0,0,1,.72-.32,4.43,4.43,0,0,1,.79-.19,5.84,5.84,0,0,1,.88-.06,4.49,4.49,0,0,1,1.37.2,2.94,2.94,0,0,1,1.05.58,2.57,2.57,0,0,1,.67,1,3.46,3.46,0,0,1,.24,1.33,4.14,4.14,0,0,1-.17,1.22,3.88,3.88,0,0,1-.48,1,5.23,5.23,0,0,1-.74.89q-.44.42-1,.87l-.9.71q-.45.35-.81.68a3.8,3.8,0,0,0-.58.66,1.19,1.19,0,0,0-.22.67v0h5Z"/>
        <path class="cls-9" d="M233.05,111v-1.7a3.86,3.86,0,0,0,2.46.87,2.87,2.87,0,0,0,1.78-.51,1.63,1.63,0,0,0,.67-1.37q0-1.9-2.91-1.9h-.87v-1.45H235q2.58,0,2.58-1.79t-2-1.65a3.29,3.29,0,0,0-2.11.8v-1.61a5.39,5.39,0,0,1,2.69-.64,3.6,3.6,0,0,1,2.39.75,2.39,2.39,0,0,1,.9,1.92,2.73,2.73,0,0,1-2.25,2.84v0a2.94,2.94,0,0,1,1.91.85,2.52,2.52,0,0,1,.7,1.82,3,3,0,0,1-1.13,2.43,4.57,4.57,0,0,1-3,.92A5.09,5.09,0,0,1,233.05,111Z"/>
        <polyline class="cls-7" points="257.8 37.84 257.8 64.46 285.75 64.46"/>
        <line class="cls-7" x1="248.8" y1="73.46" x2="275.8" y2="73.46"/>
        <line class="cls-7" x1="248.8" y1="89.46" x2="275.8" y2="89.46"/>
        <line class="cls-7" x1="248.8" y1="105.46" x2="275.8" y2="105.46"/>
      </g>
      <g>
        <rect class="cls-9" x="118" y="36.65" width="2" height="30" rx="0.5" ry="0.5"/>
        <polygon class="cls-2" points="114 37.65 148.8 24.54 182.4 37.65 148.8 52.05 114 37.65"/>
        <path class="cls-6" d="M183.6,37.65,148.8,24.54,114,37.65l10.8,4.8V61.34c0,6.68,11,12.32,24,12.32s24-5.64,24-12.32V42.45Z"/>
        <polygon class="cls-9" points="172.91 42.17 148.8 52.58 124.8 42.63 124.8 48.63 148.8 58.63 172.8 48.63 172.91 42.17"/>
        <path class="cls-7" d="M183.7,37.65,148.85,24.54,114.13,37.65,125,42.45V61.34c0,6.68,11,12.32,24,12.32S173,68,173,61.34V42.45Z"/>
        <path class="cls-9" d="M117,66.65v-4.8c0-2.64.72-4.8,1.6-4.8h.8c.88,0,1.6,2.16,1.6,4.8v4.8Z"/>
        <polyline class="cls-7" points="123.35 41.74 148.8 52.05 173 42.45"/>
      </g>
    </g>
  </g>
</svg>
