<svg xmlns="http://www.w3.org/2000/svg" viewBox="0 0 400 140">
  <defs>
    <style>
      .cls-1 {
        fill: #556a8a;
      }

      .cls-2 {
        fill: #adbdca;
      }

      .cls-3, .cls-6 {
        fill: #fff;
      }

      .cls-4 {
        fill: #e5e5e5;
      }

      .cls-5 {
        fill: none;
      }

      .cls-5, .cls-6 {
        stroke: #556a8a;
        stroke-miterlimit: 10;
        stroke-width: 2px;
      }

      .cls-7 {
        fill: #2bc7f4;
      }
    </style>
  </defs>
  <title>xamarin-graphics-windows-simulator</title>
  <g id="ICONS">
    <g>
      <g>
        <g>
          <polygon class="cls-1" points="223.08 120 116.95 120 123.59 112 216.87 112 223.08 120"/>
          <polygon class="cls-2" points="213.1 118 126.93 118 129.96 114 210.17 114 213.1 118"/>
          <polygon class="cls-1" points="193.15 102 145.98 102 140.54 108 198.59 108 193.15 102"/>
          <polygon class="cls-1" points="172.74 105.88 166.39 105.88 167.66 93.18 171.47 93.18 172.74 105.88"/>
          <g>
            <path class="cls-3" d="M293.89,95.26C296,97,295.45,98.5,292.7,98.5h-66c-2.75,0-3.29-1.46-1.19-3.24l5.38-4.57,7.31-6.21a15.21,15.21,0,0,1,8.5-3h26a15.84,15.84,0,0,1,8.81,3.24l.62.53,7.62,6.48Z"/>
            <polygon class="cls-4" points="285.94 88.5 234.7 88.5 234.7 87.45 241.7 81.5 277.7 81.5 285.94 88.5"/>
            <path class="cls-5" d="M297.7,98.5,281.51,84.74a15.83,15.83,0,0,0-8.81-3.24h-26a15.83,15.83,0,0,0-8.81,3.24L221.7,98.5"/>
            <rect class="cls-3" x="220.7" y="97.5" width="78" height="18" rx="4" ry="4"/>
            <path class="cls-4" d="M228.7,97.5v18h-4a4,4,0,0,1-4-4v-10a4,4,0,0,1,4-4Z"/>
            <path class="cls-4" d="M290.7,97.5v18h4a4,4,0,0,0,4-4v-10a4,4,0,0,0-4-4Z"/>
            <rect class="cls-5" x="220.7" y="97.5" width="78" height="18" rx="4" ry="4"/>
            <rect class="cls-1" x="232.7" y="100.5" width="54" height="2" rx="1" ry="1"/>
          </g>
          <rect class="cls-3" x="101.3" y="20.16" width="136.07" height="74.38" rx="4" ry="4" transform="translate(338.67 114.69) rotate(180)"/>
          <path class="cls-4" d="M237.7,23.61V34.5H101.63V23.61a3.62,3.62,0,0,1,3.6-3.63H234.09A3.62,3.62,0,0,1,237.7,23.61Z"/>
          <rect class="cls-5" x="101.93" y="19" width="136.07" height="75" rx="4" ry="4" transform="translate(339.93 113) rotate(180)"/>
        </g>
        <g>
          <path d="M178.26,51.09a1,1,0,0,1-.72-.29,1,1,0,0,1-.3-.74,1,1,0,0,1,.3-.72,1,1,0,0,1,.72-.29,1.12,1.12,0,0,1,.4.07,1,1,0,0,1,.33.21,1,1,0,0,1,.22.32,1,1,0,0,1,.08.41,1.05,1.05,0,0,1-.08.4,1,1,0,0,1-.22.33,1.09,1.09,0,0,1-.33.22A1,1,0,0,1,178.26,51.09Zm-.71,14.41V54H179V65.5Z"/>
          <path d="M189.37,65.78a7.47,7.47,0,0,1-3.13-.63,7,7,0,0,1-2.36-1.74,7.74,7.74,0,0,1-1.49-2.59,9.59,9.59,0,0,1-.52-3.2,10.88,10.88,0,0,1,.52-3.45,7.55,7.55,0,0,1,1.52-2.68,6.89,6.89,0,0,1,2.45-1.74,8.29,8.29,0,0,1,3.3-.62,7.38,7.38,0,0,1,3.07.61,6.71,6.71,0,0,1,2.31,1.7A7.56,7.56,0,0,1,196.5,54a9.82,9.82,0,0,1,.51,3.22,11.1,11.1,0,0,1-.5,3.4A7.8,7.8,0,0,1,195,63.33a6.8,6.8,0,0,1-2.39,1.8A7.77,7.77,0,0,1,189.37,65.78Zm.12-15.3a5.78,5.78,0,0,0-2.59.56,5.63,5.63,0,0,0-1.9,1.5,6.58,6.58,0,0,0-1.17,2.22,9.3,9.3,0,0,0-.41,2.71,9.08,9.08,0,0,0,.35,2.62,6.69,6.69,0,0,0,1.1,2.21,5.41,5.41,0,0,0,1.86,1.53,5.72,5.72,0,0,0,2.63.57A6.28,6.28,0,0,0,192,63.9a5.27,5.27,0,0,0,1.9-1.45,6.29,6.29,0,0,0,1.15-2.21,9.63,9.63,0,0,0,.39-2.8,10.25,10.25,0,0,0-.34-2.68A6.33,6.33,0,0,0,194,52.55a5.16,5.16,0,0,0-1.85-1.5A6,6,0,0,0,189.5,50.48Z"/>
          <path d="M199.49,63.14a5.7,5.7,0,0,0,.89.54,7.14,7.14,0,0,0,1,.4,7.27,7.27,0,0,0,1,.25,6.2,6.2,0,0,0,1,.08,4.43,4.43,0,0,0,2.74-.71,2.42,2.42,0,0,0,.91-2,2.71,2.71,0,0,0-.21-1.12,2.76,2.76,0,0,0-.66-.89,6.85,6.85,0,0,0-1.13-.83q-.69-.41-1.62-.93t-1.77-1.06a6.47,6.47,0,0,1-1.2-1,3.44,3.44,0,0,1-.68-1.13,4,4,0,0,1-.22-1.38,3.64,3.64,0,0,1,.42-1.75,4.09,4.09,0,0,1,1.12-1.32,5.17,5.17,0,0,1,1.66-.84,6.87,6.87,0,0,1,2-.29,8.35,8.35,0,0,1,3.18.53V51.3a6.59,6.59,0,0,0-3.35-.82,5.09,5.09,0,0,0-1.35.17,3.54,3.54,0,0,0-1.11.51,2.48,2.48,0,0,0-.75.84,2.37,2.37,0,0,0-.28,1.16,2.86,2.86,0,0,0,.19,1.08,2.57,2.57,0,0,0,.59.86,5.68,5.68,0,0,0,1.08.8q.67.4,1.63.92a19.43,19.43,0,0,1,1.76,1,6.81,6.81,0,0,1,1.25,1.07,3.94,3.94,0,0,1,.75,1.18,3.73,3.73,0,0,1,.25,1.39,4.17,4.17,0,0,1-.39,1.86,3.63,3.63,0,0,1-1.1,1.33,5,5,0,0,1-1.69.8,8,8,0,0,1-3.05.21q-.53-.06-1.07-.18a10.15,10.15,0,0,1-1-.28,3.7,3.7,0,0,1-.79-.35Z"/>
        </g>
      </g>
      <g>
        <rect class="cls-6" x="124" y="28" width="29" height="54" rx="4" ry="4"/>
        <rect class="cls-4" x="127" y="35" width="23" height="39"/>
        <path class="cls-7" d="M142.27,33h-7.54c-.4,0-.73-.45-.73-1s.33-1,.73-1h7.54c.4,0,.73.45.73,1S142.67,33,142.27,33Z"/>
        <path class="cls-7" d="M142.27,78h-7.54c-.4,0-.73-.45-.73-1s.33-1,.73-1h7.54c.4,0,.73.45.73,1S142.67,78,142.27,78Z"/>
        <circle class="cls-7" cx="146" cy="77" r="1"/>
        <circle class="cls-7" cx="131" cy="77" r="1"/>
      </g>
    </g>
  </g>
</svg>
