<svg xmlns="http://www.w3.org/2000/svg" viewBox="0 0 400 140">
  <defs>
    <style>
      .cls-1 {
        fill: #666;
      }

      .cls-2 {
        fill: #55d2f6;
      }

      .cls-3 {
        fill: #ace8f9;
      }

      .cls-4 {
        fill: #fff;
      }

      .cls-5 {
        fill: #11161a;
      }

      .cls-10, .cls-13, .cls-14, .cls-16, .cls-17, .cls-6, .cls-7, .cls-8 {
        fill: none;
        stroke-miterlimit: 10;
      }

      .cls-6 {
        stroke: #000;
        stroke-width: 3.19px;
      }

      .cls-7 {
        stroke: #55d2f6;
      }

      .cls-10, .cls-13, .cls-14, .cls-17, .cls-7, .cls-8 {
        stroke-width: 2px;
      }

      .cls-8 {
        stroke: #ace8f9;
      }

      .cls-9 {
        fill: #2bc7f4;
      }

      .cls-10 {
        stroke: #556a8a;
      }

      .cls-11 {
        fill: #bad80a;
      }

      .cls-12 {
        fill: #556a8a;
      }

      .cls-13 {
        stroke: #aad2f2;
      }

      .cls-14, .cls-16 {
        stroke: #757575;
      }

      .cls-15 {
        fill: #757575;
      }

      .cls-17 {
        stroke: #2bc7f4;
      }

      .cls-18 {
        fill: #58595b;
      }
    </style>
  </defs>
  <title>xamarin-android-wear</title>
  <g id="ICONS">
    <g>
      <g>
        <g>
          <path class="cls-1" d="M255.38,93.38l1.68,26.27a3.36,3.36,0,0,0,3.35,3.35h21.8a3.36,3.36,0,0,0,3.35-3.35l1.68-26.27A3.36,3.36,0,0,0,283.88,90H258.73A3.36,3.36,0,0,0,255.38,93.38Z"/>
          <path class="cls-1" d="M255.38,53.62l1.68-26.27A3.36,3.36,0,0,1,260.41,24h21.8a3.36,3.36,0,0,1,3.35,3.35l1.68,26.27A3.36,3.36,0,0,1,283.88,57H258.73A3.36,3.36,0,0,1,255.38,53.62Z"/>
          <path class="cls-2" d="M271,44.6a29.5,29.5,0,0,0-21,8.78c-.59.59-1.14,1.2-1.68,1.84a29.62,29.62,0,1,0,45.44,0c-.53-.64-1.09-1.25-1.67-1.84A29.54,29.54,0,0,0,271,44.6Z"/>
          <circle class="cls-3" cx="271.03" cy="73.66" r="15.09"/>
          <circle class="cls-4" cx="271.03" cy="73.66" r="7.82"/>
          <rect x="299.09" y="71.66" width="6.71" height="5.11" rx="2.55" ry="2.55" transform="translate(228.23 376.66) rotate(-90)"/>
          <path class="cls-5" d="M271,103.78A29.5,29.5,0,0,1,250,95h42.09A29.54,29.54,0,0,1,271,103.78Z"/>
          <circle class="cls-6" cx="271.03" cy="74.22" r="29.38"/>
        </g>
        <line class="cls-7" x1="274.34" y1="77.65" x2="267" y2="70.31"/>
        <line class="cls-7" x1="274.34" y1="70.31" x2="267" y2="77.65"/>
        <line class="cls-8" x1="284.15" y1="55" x2="258.15" y2="55"/>
      </g>
      <g>
        <rect class="cls-9" x="193" y="65" width="18.9" height="18.9"/>
        <line class="cls-10" x1="225" y1="29.69" x2="225" y2="65.69"/>
        <rect class="cls-11" x="211" y="65" width="41" height="19"/>
        <polygon class="cls-12" points="215 67 215 68 216 69 216 84 217 84 217 67 215 67"/>
        <polygon class="cls-12" points="224 67 224 68 225 69 225 84 226 84 226 67 224 67"/>
        <polygon class="cls-12" points="235 67 235 68 236 69 236 84 237 84 237 67 235 67"/>
        <polygon class="cls-12" points="246 67 246 68 247 69 247 84 248 84 248 67 246 67"/>
      </g>
      <g>
        <line class="cls-13" x1="195" y1="70" x2="208" y2="70"/>
        <line class="cls-13" x1="195" y1="75" x2="208" y2="75"/>
        <line class="cls-13" x1="195" y1="80" x2="208" y2="80"/>
      </g>
      <g>
        <g>
          <polyline class="cls-14" points="160.51 27 167.42 20.09 210.36 20.09 216.95 26.68"/>
          <line class="cls-14" x1="176" y1="25.98" x2="176" y2="20.48"/>
          <line class="cls-14" x1="184" y1="25.98" x2="184" y2="20.48"/>
          <line class="cls-14" x1="198" y1="25.98" x2="198" y2="20.48"/>
          <line class="cls-14" x1="168" y1="25.98" x2="168" y2="20.48"/>
          <polygon class="cls-15" points="150.34 12.76 151.41 12.46 156.14 26.05 154.77 26.05 150.34 12.76"/>
          <line class="cls-14" x1="150" y1="13.19" x2="150" y2="27.69"/>
          <path class="cls-15" d="M151.56,12.76a.85.85,0,0,1-.92.76.76.76,0,1,1,0-1.53.85.85,0,0,1,.92.76"/>
          <polygon class="cls-15" points="158.5 36.69 157.59 36.69 153.4 40.52 149.23 36.69 148.4 36.69 148.4 37.29 152.66 41.19 148.4 45.1 148.4 45.69 149.23 45.69 153.4 41.87 157.59 45.69 158.5 45.69 158.5 45.16 154.14 41.19 158.5 37.23 158.5 36.69"/>
          <rect class="cls-15" x="148" y="35.69" width="2" height="95"/>
          <rect class="cls-15" x="157" y="36.69" width="2" height="93"/>
          <g>
            <line class="cls-16" x1="148.5" y1="46.69" x2="158.5" y2="55.69"/>
            <line class="cls-16" x1="158.5" y1="46.69" x2="148.5" y2="55.69"/>
          </g>
          <g>
            <line class="cls-16" x1="158.5" y1="65.69" x2="148.5" y2="56.69"/>
            <line class="cls-16" x1="158.5" y1="56.69" x2="148.5" y2="65.69"/>
          </g>
          <g>
            <line class="cls-16" x1="148.5" y1="66.69" x2="158.5" y2="75.69"/>
            <line class="cls-16" x1="158.5" y1="66.69" x2="148.5" y2="75.69"/>
          </g>
          <g>
            <line class="cls-16" x1="148.5" y1="76.69" x2="158.5" y2="85.69"/>
            <line class="cls-16" x1="158.5" y1="76.69" x2="148.5" y2="85.69"/>
          </g>
          <g>
            <line class="cls-16" x1="148.5" y1="86.69" x2="158.5" y2="95.69"/>
            <line class="cls-16" x1="158.5" y1="86.69" x2="148.5" y2="95.69"/>
          </g>
          <g>
            <line class="cls-16" x1="148.5" y1="96.69" x2="158.5" y2="105.69"/>
            <line class="cls-16" x1="158.5" y1="96.69" x2="148.5" y2="105.69"/>
          </g>
          <g>
            <line class="cls-16" x1="148.5" y1="106.69" x2="158.5" y2="115.69"/>
            <line class="cls-16" x1="158.5" y1="106.69" x2="148.5" y2="115.69"/>
          </g>
          <polyline class="cls-16" points="170.5 20.69 177 25.69 184 20.69 191 25.69 198 20.69 205 25.69 210.5 20.69"/>
          <rect class="cls-12" x="131" y="26" width="101" height="1.96"/>
          <path class="cls-12" d="M228.3,26.11a.71.71,0,0,0-.7.61V27H222.4v-.28a.7.7,0,0,0-1.4,0V31h8V26.72A.71.71,0,0,0,228.3,26.11Z"/>
          <polyline class="cls-14" points="134.05 24.8 150.64 13.07 197.11 20.25"/>
          <rect class="cls-12" x="130" y="24" width="6" height="11"/>
          <line class="cls-14" x1="148.5" y1="57" x2="158.5" y2="57"/>
          <line class="cls-14" x1="148.5" y1="47" x2="158.5" y2="47"/>
          <line class="cls-14" x1="149" y1="37" x2="159" y2="37"/>
          <polygon class="cls-12" points="161.34 26 147 26 147 36 161.34 36 163.91 31 161.34 26"/>
          <line class="cls-17" x1="153" y1="29" x2="153" y2="35"/>
          <line class="cls-17" x1="157" y1="29" x2="157" y2="35"/>
          <line class="cls-14" x1="148.5" y1="67" x2="158.5" y2="67"/>
          <line class="cls-14" x1="148.5" y1="77" x2="158.5" y2="77"/>
          <line class="cls-14" x1="148.5" y1="88" x2="158.5" y2="88"/>
          <line class="cls-14" x1="148.5" y1="97" x2="158.5" y2="97"/>
          <line class="cls-14" x1="148.5" y1="107" x2="158.5" y2="107"/>
          <g>
            <line class="cls-16" x1="148.5" y1="115.19" x2="158.5" y2="124.19"/>
            <line class="cls-16" x1="158.5" y1="115.19" x2="148.5" y2="124.19"/>
          </g>
          <line class="cls-14" x1="148.5" y1="116" x2="158.5" y2="116"/>
          <line class="cls-16" x1="148.5" y1="125.19" x2="158.5" y2="125.19"/>
        </g>
        <polygon class="cls-12" points="177.5 131 129.5 131 132.08 125 134.65 119 172.35 119 174.93 125 177.5 131"/>
        <polygon class="cls-18" points="177 131 129 131 131.58 125 174.43 125 177 131"/>
      </g>
    </g>
  </g>
</svg>
