<?xml version="1.0" encoding="utf-8" ?>
<svg xmlns="http://www.w3.org/2000/svg" xmlns:xlink="http://www.w3.org/1999/xlink" width="510" height="210">
	<path fill="none" stroke="rgb(0,0,0)" stroke-width="1" stroke-linecap="round" stroke-linejoin="round" transform="translate(255 105)" d="M0 0L83 75Q84.7922 76.5805 86.6578 78.0737Q88.5234 79.5668 90.4582 80.9691Q92.393 82.3714 94.3925 83.6797Q96.3921 84.9881 98.4519 86.1994Q100.512 87.4107 102.627 88.5222Q104.742 89.6338 106.908 90.643Q109.074 91.6523 111.286 92.5569Q113.498 93.4615 115.75 94.2595Q118.002 95.0574 120.29 95.7469Q122.578 96.4364 124.896 97.0158Q127.215 97.5952 129.558 98.0632Q131.901 98.5312 134.264 98.8868Q136.627 99.2423 139.004 99.4846Q141.382 99.7269 143.768 99.8554Q146.154 99.9838 148.543 99.9982Q150.933 100.013 153.32 99.9128Q155.708 99.813 158.088 99.5992Q160.468 99.3855 162.835 99.0584Q165.202 98.7312 167.55 98.2914Q169.899 97.8515 172.224 97.3Q174.549 96.7485 176.845 96.0866Q179.141 95.4246 181.403 94.6538Q183.665 93.8829 185.887 93.0049Q188.11 92.1269 190.288 91.1438Q192.465 90.1606 194.594 89.0746Q196.722 87.9885 198.797 86.802Q200.871 85.6156 202.886 84.3314Q204.901 83.0472 206.853 81.6682Q208.804 80.2892 210.688 78.8186Q212.571 77.348 214.382 75.7891Q216.193 74.2302 217.927 72.5866Q219.662 70.943 221.316 69.2184Q222.97 67.4938 224.54 65.6922Q226.109 63.8905 227.591 62.016Q229.073 60.1414 230.464 58.1983Q231.855 56.2551 233.151 54.2477Q234.447 52.2403 235.646 50.1733Q236.845 48.1063 237.944 45.9843Q239.043 43.8624 240.039 41.6904Q241.035 39.5185 241.926 37.3014Q242.818 35.0843 243.602 32.8272Q244.387 30.57 245.062 28.278Q245.738 25.986 246.303 23.6643Q246.869 21.3426 247.323 18.9966Q247.777 16.6506 248.118 14.2855Q248.46 11.9205 248.688 9.54184Q248.916 7.1632 249.03 4.77638Q249.144 2.38955 249.144 4.43126e-06Q249.144 -2.38954 249.03 -4.77637Q248.916 -7.16319 248.688 -9.54183Q248.46 -11.9205 248.118 -14.2855Q247.777 -16.6506 247.323 -18.9966Q246.869 -21.3426 246.303 -23.6643Q245.738 -25.986 245.062 -28.278Q244.387 -30.57 243.602 -32.8272Q242.818 -35.0843 241.926 -37.3014Q241.035 -39.5185 240.039 -41.6904Q239.043 -43.8624 237.944 -45.9843Q236.845 -48.1063 235.646 -50.1733Q234.447 -52.2403 233.151 -54.2477Q231.855 -56.2551 230.464 -58.1983Q229.073 -60.1414 227.591 -62.016Q226.109 -63.8905 224.54 -65.6921Q222.97 -67.4938 221.316 -69.2184Q219.662 -70.9429 217.927 -72.5866Q216.193 -74.2302 214.382 -75.7891Q212.571 -77.348 210.688 -78.8186Q208.804 -80.2892 206.853 -81.6682Q204.901 -83.0472 202.886 -84.3314Q200.871 -85.6156 198.797 -86.802Q196.722 -87.9885 194.594 -89.0746Q192.466 -90.1606 190.288 -91.1438Q188.11 -92.1269 185.887 -93.0049Q183.665 -93.8829 181.403 -94.6538Q179.141 -95.4246 176.845 -96.0866Q174.549 -96.7485 172.224 -97.3Q169.899 -97.8515 167.55 -98.2914Q165.202 -98.7312 162.835 -99.0584Q160.468 -99.3855 158.088 -99.5992Q155.708 -99.813 153.32 -99.9128Q150.933 -100.013 148.543 -99.9982Q146.154 -99.9839 143.768 -99.8554Q141.382 -99.7269 139.004 -99.4846Q136.627 -99.2423 134.264 -98.8868Q131.901 -98.5312 129.558 -98.0632Q127.215 -97.5952 124.896 -97.0158Q122.578 -96.4364 120.29 -95.7469Q118.002 -95.0574 115.75 -94.2595Q113.498 -93.4615 111.286 -92.5569Q109.074 -91.6523 106.908 -90.643Q104.742 -89.6338 102.627 -88.5222Q100.512 -87.4107 98.4519 -86.1994Q96.3921 -84.9881 94.3926 -83.6798Q92.393 -82.3715 90.4582 -80.9691Q88.5234 -79.5668 86.6578 -78.0737Q84.7922 -76.5805 83 -75L-83 75Q-84.7922 76.5805 -86.6578 78.0737Q-88.5234 79.5668 -90.4582 80.9691Q-92.393 82.3714 -94.3925 83.6797Q-96.3921 84.9881 -98.4519 86.1994Q-100.512 87.4107 -102.627 88.5222Q-104.742 89.6338 -106.908 90.643Q-109.074 91.6523 -111.286 92.5569Q-113.498 93.4615 -115.75 94.2595Q-118.002 95.0574 -120.29 95.7469Q-122.578 96.4364 -124.896 97.0158Q-127.215 97.5952 -129.558 98.0632Q-131.901 98.5312 -134.264 98.8868Q-136.627 99.2423 -139.004 99.4846Q-141.382 99.7269 -143.768 99.8554Q-146.154 99.9839 -148.543 99.9982Q-150.933 100.013 -153.32 99.9128Q-155.708 99.813 -158.088 99.5993Q-160.468 99.3855 -162.835 99.0584Q-165.202 98.7312 -167.55 98.2914Q-169.899 97.8516 -172.224 97.3Q-174.549 96.7485 -176.845 96.0866Q-179.141 95.4247 -181.403 94.6538Q-183.665 93.883 -185.887 93.005Q-188.11 92.127 -190.288 91.1438Q-192.465 90.1607 -194.594 89.0746Q-196.722 87.9885 -198.797 86.8021Q-200.871 85.6156 -202.886 84.3314Q-204.901 83.0472 -206.853 81.6682Q-208.804 80.2892 -210.688 78.8186Q-212.571 77.348 -214.382 75.7891Q-216.193 74.2302 -217.927 72.5866Q-219.662 70.943 -221.316 69.2184Q-222.97 67.4938 -224.54 65.6922Q-226.109 63.8905 -227.591 62.016Q-229.073 60.1415 -230.464 58.1983Q-231.855 56.2551 -233.151 54.2477Q-234.447 52.2403 -235.646 50.1733Q-236.845 48.1063 -237.944 45.9844Q-239.043 43.8624 -240.039 41.6905Q-241.035 39.5185 -241.926 37.3014Q-242.818 35.0843 -243.602 32.8272Q-244.387 30.57 -245.062 28.278Q-245.738 25.986 -246.303 23.6643Q-246.869 21.3427 -247.323 18.9966Q-247.777 16.6506 -248.118 14.2855Q-248.46 11.9205 -248.688 9.54186Q-248.916 7.16321 -249.03 4.77639Q-249.144 2.38957 -249.144 1.7725e-05Q-249.144 -2.38953 -249.03 -4.77635Q-248.916 -7.16317 -248.688 -9.54182Q-248.46 -11.9205 -248.118 -14.2855Q-247.777 -16.6505 -247.323 -18.9966Q-246.869 -21.3426 -246.303 -23.6643Q-245.738 -25.986 -245.062 -28.278Q-244.387 -30.57 -243.602 -32.8271Q-242.818 -35.0843 -241.926 -37.3014Q-241.035 -39.5184 -240.039 -41.6904Q-239.043 -43.8624 -237.944 -45.9843Q-236.845 -48.1063 -235.646 -50.1733Q-234.447 -52.2403 -233.151 -54.2477Q-231.855 -56.2551 -230.464 -58.1982Q-229.073 -60.1414 -227.591 -62.016Q-226.109 -63.8905 -224.54 -65.6921Q-222.97 -67.4938 -221.316 -69.2183Q-219.662 -70.9429 -217.927 -72.5866Q-216.193 -74.2302 -214.382 -75.7891Q-212.571 -77.348 -210.688 -78.8186Q-208.804 -80.2892 -206.853 -81.6682Q-204.901 -83.0472 -202.886 -84.3314Q-200.871 -85.6156 -198.797 -86.802Q-196.722 -87.9885 -194.594 -89.0746Q-192.466 -90.1606 -190.288 -91.1438Q-188.11 -92.1269 -185.887 -93.0049Q-183.665 -93.8829 -181.403 -94.6538Q-179.141 -95.4246 -176.845 -96.0866Q-174.549 -96.7485 -172.224 -97.3Q-169.899 -97.8515 -167.55 -98.2914Q-165.202 -98.7312 -162.835 -99.0584Q-160.468 -99.3855 -158.088 -99.5992Q-155.708 -99.813 -153.32 -99.9128Q-150.933 -100.013 -148.543 -99.9982Q-146.154 -99.9839 -143.768 -99.8554Q-141.382 -99.7269 -139.004 -99.4846Q-136.627 -99.2423 -134.264 -98.8868Q-131.901 -98.5312 -129.558 -98.0632Q-127.215 -97.5952 -124.896 -97.0158Q-122.578 -96.4364 -120.29 -95.7469Q-118.002 -95.0574 -115.75 -94.2595Q-113.498 -93.4615 -111.286 -92.5569Q-109.074 -91.6523 -106.908 -90.643Q-104.742 -89.6338 -102.627 -88.5222Q-100.512 -87.4107 -98.4519 -86.1994Q-96.3921 -84.9881 -94.3926 -83.6798Q-92.393 -82.3715 -90.4582 -80.9691Q-88.5234 -79.5668 -86.6578 -78.0737Q-84.7922 -76.5806 -83 -75L0 0Z"/>
	<ellipse fill="rgb(0,0,0)" stroke="none" transform="translate(255 105)" cx="83" cy="75" rx="3" ry="3"/>
	<ellipse fill="rgb(0,0,0)" stroke="none" transform="translate(255 105)" cx="-83" cy="75" rx="3" ry="3"/>
	<ellipse fill="rgb(0,0,0)" stroke="none" transform="translate(255 105)" cx="83" cy="-75" rx="3" ry="3"/>
	<ellipse fill="rgb(0,0,0)" stroke="none" transform="translate(255 105)" cx="-83" cy="-75" rx="3" ry="3"/>
	<text fill="rgb(0,0,0)" stroke="none" transform="translate(255 105)" font-size="12" font-family="Segoe UI" x="32.615234" y="-76.5">
			(83, –75)
	</text>
	<text fill="rgb(0,0,0)" stroke="none" transform="translate(255 105)" font-size="12" font-family="Segoe UI" x="38.615234" y="83.5">
			(83, 75)
	</text>
	<text fill="rgb(0,0,0)" stroke="none" transform="translate(255 105)" font-size="12" font-family="Segoe UI" x="-78" y="-76.5">
			(–83, –75)
	</text>
	<text fill="rgb(0,0,0)" stroke="none" transform="translate(255 105)" font-size="12" font-family="Segoe UI" x="-78" y="83.5">
			(–83, 75)
	</text>
</svg>
