<svg xmlns="http://www.w3.org/2000/svg" xmlns:xlink="http://www.w3.org/1999/xlink" viewBox="0 0 400 140">
  <defs>
    <style>
      .cls-1 {
        fill: #70bf4f;
      }

      .cls-2 {
        fill: #e94037;
      }

      .cls-3 {
        fill: #465ba6;
      }

      .cls-4 {
        fill: #292929;
      }

      .cls-5 {
        fill: url(#linear-gradient);
      }
    </style>
    <linearGradient id="linear-gradient" x1="195.79" y1="414.53" x2="240.84" y2="414.53" gradientTransform="matrix(1, 0, 0, -1, -25, 519)" gradientUnits="userSpaceOnUse">
      <stop offset="0" stop-color="#565656" stop-opacity="0.19"/>
      <stop offset="1" stop-color="#565656"/>
    </linearGradient>
  </defs>
  <title>xamarin-graphics-skia</title>
  <g id="ICONS">
    <g>
      <rect class="cls-1" x="212.19" y="51.84" width="4.06" height="42.61"/>
      <rect class="cls-2" x="208.13" y="51.84" width="4.06" height="42.61"/>
      <rect class="cls-3" x="216.25" y="51.84" width="4.06" height="42.61"/>
      <circle class="cls-4" cx="214.22" cy="41.63" r="8.13"/>
      <path class="cls-4" d="M138.58,57c2.43-3,6.28-4.42,10-4.84A31.59,31.59,0,0,1,165,54.92l-3.42,8.65c-3.38-1.49-7-2.8-10.74-2.63-1.27,0-2.76.49-3.3,1.77a2.62,2.62,0,0,0,1.21,3.13c4,2.59,8.73,3.76,12.41,6.8a10,10,0,0,1,3.46,5.45,13.13,13.13,0,0,1-1.55,10.12,13.63,13.63,0,0,1-7.56,5.41,29.16,29.16,0,0,1-11.42.72A25.46,25.46,0,0,1,136,92l0-10a32.16,32.16,0,0,0,11.13,3.4,11,11,0,0,0,4.81-.37,2.84,2.84,0,0,0,1.88-2.82c-.05-1.28-1.18-2.13-2.2-2.72-3.75-2.07-8-3.32-11.33-6.08a10.78,10.78,0,0,1-3.83-6.83c-.5-3.29,0-6.93,2.12-9.58"/>
      <path class="cls-4" d="M170,52.55h11.26v18l12.14-18h12.24L192.56,71.07,205.4,94H192.75l-8.24-15.84-3.22,1.92,0,13.93H170V52.55"/>
      <path class="cls-4" d="M236.1,86.23h13.5L251.75,94H264L250.32,52.38h-15L221.84,94h12.29l8.77-34.75L247.38,77H237.11"/>
      <path class="cls-4" d="M220.32,96.48l-6.1,8.13-6.1-8.13Z"/>
      <path class="cls-5" d="M165.32,104.47h0a.74.74,0,0,1,0-.1.78.78,0,0,1,0-.1l0-.1,0-.1.06-.1.07-.1.09-.09.1-.09.11-.09.12-.09.14-.09.15-.08.16-.08.17-.08.18-.08L167,103l.2-.07.21-.07.22-.06.22-.06.23-.05.24,0,.25,0,.25,0,.26,0,.26,0,.26,0,.27,0,.27,0h41l.27,0,.27,0,.26,0,.26,0,.26,0,.25,0,.25,0,.24,0,.23.05.22.06.22.06.21.07.2.07.19.07.18.08.17.08.16.08.15.08.14.09.12.09.11.09.1.09.09.09.07.1.06.1,0,.1,0,.1a.78.78,0,0,1,0,.1.74.74,0,0,1,0,.1h0a.75.75,0,0,1,0,.1.78.78,0,0,1,0,.1l0,.1,0,.1-.06.1-.07.1-.09.09-.1.09-.11.09-.12.09-.14.09-.15.08-.16.08-.17.08-.18.08-.19.07-.2.07-.21.07-.22.06-.22.06-.23.05-.24,0-.25,0-.25,0-.26,0-.26,0-.26,0-.27,0-.27,0h-41l-.27,0-.27,0-.26,0-.26,0-.26,0-.25,0-.25,0-.24,0-.23-.05-.22-.06-.22-.06-.21-.07-.2-.07-.19-.07-.18-.08-.17-.08-.16-.08-.15-.08-.14-.09-.12-.09-.11-.09-.1-.09-.09-.09-.07-.1-.06-.1,0-.1,0-.1a.78.78,0,0,1,0-.1A.75.75,0,0,1,165.32,104.47Z"/>
    </g>
  </g>
</svg>
