<svg xmlns="http://www.w3.org/2000/svg" viewBox="0 0 400 140">
  <defs>
    <style>
      .cls-1, .cls-10 {
        fill: none;
      }

      .cls-1, .cls-10, .cls-11 {
        stroke: #556a8a;
      }

      .cls-1, .cls-10, .cls-11, .cls-12, .cls-3 {
        stroke-miterlimit: 10;
        stroke-width: 2px;
      }

      .cls-1 {
        stroke-dasharray: 3 3;
      }

      .cls-2 {
        fill: #556a8a;
      }

      .cls-11, .cls-3, .cls-4 {
        fill: #fff;
      }

      .cls-3 {
        stroke: #2bc7f4;
      }

      .cls-5 {
        fill: #55d2f6;
        opacity: 0.8;
      }

      .cls-6 {
        fill: #ff9f2b;
      }

      .cls-7 {
        fill: #ff8c00;
      }

      .cls-8 {
        fill: #e5e5e5;
      }

      .cls-9 {
        fill: #bad80a;
      }

      .cls-12 {
        fill: #9273b6;
        stroke: #7750a3;
      }
    </style>
  </defs>
  <title>xamarin-ios-get-started</title>
  <g id="ICONS">
    <g>
      <g>
        <path class="cls-1" d="M183.21,22.9h72.6c16.5,0,30,10.73,30,23.85s-13.5,23.85-30,23.85h-66.9c-16.5,0-30,8.71-30,19.35s13.5,19.35,30,19.35H305.24"/>
        <polygon class="cls-2" points="298.61 117.48 297.25 116.02 304.47 109.3 297.25 102.59 298.61 101.12 307.41 109.3 298.61 117.48"/>
      </g>
      <circle class="cls-3" cx="180.81" cy="70" r="48.15"/>
      <path class="cls-4" d="M189.11,64.94c-.92-11.45-9.86-20.44-20.76-20.44a20.72,20.72,0,0,0-18.53,12.16,20.18,20.18,0,0,0-11.07-3.31c-9.83,0-18.1,7.13-20.6,16.84a18.85,18.85,0,0,0-6-1c-10.81,0-19.58,9.13-19.58,20.38a20.45,20.45,0,0,0,11.3,18.47,18,18,0,0,0,6.09,1.78l.49,0a113.25,113.25,0,0,0,12.52.8h63.32a17.46,17.46,0,0,0,4.1-1c9.73-2,17.09-11.21,17.09-22.26C207.51,75.89,199.48,66.37,189.11,64.94Z"/>
      <path class="cls-5" d="M189.11,64.94c-.92-11.45-9.86-20.44-20.76-20.44a20.72,20.72,0,0,0-18.53,12.16,20.18,20.18,0,0,0-11.07-3.31c-9.83,0-18.1,7.13-20.6,16.84a18.85,18.85,0,0,0-6-1c-10.81,0-19.58,9.13-19.58,20.38a20.45,20.45,0,0,0,11.3,18.47,18,18,0,0,0,6.09,1.78l.49,0a113.25,113.25,0,0,0,12.52.8h63.32a17.46,17.46,0,0,0,4.1-1c9.73-2,17.09-11.21,17.09-22.26C207.51,75.89,199.48,66.37,189.11,64.94Z"/>
      <g>
        <g>
          <g>
            <path class="cls-6" d="M140.72,105.31c-.83.27-1.71.52-2.62.77,5.51-22.88,16.37-18.74,16.37-18.74L156.24,89l.07.22C156.69,90.75,158.16,99.78,140.72,105.31Z"/>
            <path class="cls-7" d="M140.72,105.31c5.39-18.84,14.65-16.38,15.58-16.07C156.69,90.75,158.16,99.78,140.72,105.31Z"/>
            <polygon class="cls-2" points="157.16 93.56 149.46 85.86 155.63 84.32 158.51 87.22 157.16 93.56"/>
          </g>
          <polygon class="cls-2" points="158.7 76.5 137.91 75.73 134.83 72.65 152.54 64.18 159.94 66.96 158.7 76.5"/>
          <polygon class="cls-2" points="167.5 82.78 168.27 103.57 171.35 106.65 179.82 88.94 177.04 81.53 167.5 82.78"/>
          <g>
            <path class="cls-4" d="M163.35,91.95h-.23l-.18-.17L152,80.34l0-.27A45.46,45.46,0,0,1,164.48,58c10-9.91,33.18-14.07,34.17-14.24l.76-.13-.13.76s-.4,2.42-1.24,5.94c-2.26,9.51-6.31,22.21-12.78,28.71C175.21,89.13,164.28,91.95,163.35,91.95Z"/>
            <path class="cls-8" d="M197.45,51.64c-1.84,7.74-5.84,21.16-12.63,28-10,10.11-21,12.21-21.53,12.32l-6.12-6.12s1.95-11.24,12.33-21.56C176.31,57.48,189.7,53.48,197.45,51.64Z"/>
            <path class="cls-9" d="M198.43,45a112,112,0,0,0-18.2,4.91l13.29,13.29A112,112,0,0,0,198.43,45Z"/>
            <path class="cls-10" d="M163.35,91.95h-.23l-.18-.17L152,80.34l0-.27A45.46,45.46,0,0,1,164.48,58c10-9.91,33.18-14.07,34.17-14.24l.76-.13-.13.76s-.4,2.42-1.24,5.94c-2.26,9.51-6.31,22.21-12.78,28.71C175.21,89.13,164.28,91.95,163.35,91.95Z"/>
          </g>
        </g>
        <circle class="cls-11" cx="174.04" cy="68.53" r="5.45"/>
      </g>
    </g>
    <path class="cls-12" d="M255.56,63.83a1.3,1.3,0,0,0,1.24.77l2.62-.28a1.3,1.3,0,0,0,1-1.45l-.09-3.23c-.16-.86,0-1.66,2.48-3.1a2.27,2.27,0,0,1,2.24.13l3.09,1.74a1.53,1.53,0,0,0,1.38-.26l1.79-2.28a1.35,1.35,0,0,0-.45-1.61l-2.45-2.35a1.65,1.65,0,0,1-.47-2s.7-3.27,2.08-3.51l3-.7a1.61,1.61,0,0,0,1-1.44l-.49-2.83a1,1,0,0,0-1.17-.79l-.07,0-3.25.1c-.87.13-2.71-2.15-3.1-2.53a3.24,3.24,0,0,1,0-2.43l1.75-2.68a1.46,1.46,0,0,0-.26-1.81l-2.27-1.36a1.3,1.3,0,0,0-1.62,0l-2.13,2.68c-.53.65-1.55,1.27-3.85.33,0,0-1.7-1-1.9-1.8L255,27.77a1.3,1.3,0,0,0-1.24-.77l-2.83.49a1,1,0,0,0-.73,1.21v0l-.1,3.45c0,1.21-2,2.49-2.36,2.89a2.13,2.13,0,0,1-2.44.07l-2.9-1.92a1.58,1.58,0,0,0-1.61.45L239,35.93a1.79,1.79,0,0,0,.45,1.61l2.5,2.36c1.47,1.1.6,2.69.3,3.85-.13.62-.38,1.25-1.79,1.47l-3.22.91a1.3,1.3,0,0,0-.77,1.24l.49,2.83a1.3,1.3,0,0,0,1,1l3.44-.29c1.21,0,1.64.34,1.85,1a18.14,18.14,0,0,1,1.06,1.79,1.81,1.81,0,0,1,.25,2.17l-1.92,2.9a1.57,1.57,0,0,0,.45,1.6l2.07,1.57a1.3,1.3,0,0,0,1.62,0l2.16-2.69a2.06,2.06,0,0,1,2.2-.64l1.84.55c.81,0,1.25.38,1.66,1.57l.9,3.22m6.59-19a7.13,7.13,0,0,1-5.86,7.87,6.62,6.62,0,0,1-7.77-5.23q-.06-.32-.09-.64a6.8,6.8,0,0,1,5.66-7.66,6.89,6.89,0,0,1,8.07,5.48l0,.17"/>
  </g>
</svg>
