<svg xmlns="http://www.w3.org/2000/svg" viewBox="0 0 400 140">
  <defs>
    <style>
      .cls-1, .cls-2 {
        fill: #fff;
      }

      .cls-1 {
        stroke: #00bcf2;
      }

      .cls-1, .cls-4, .cls-6 {
        stroke-miterlimit: 10;
        stroke-width: 2px;
      }

      .cls-3 {
        fill: #e5e5e5;
      }

      .cls-4, .cls-6 {
        fill: none;
        stroke: #556a8a;
      }

      .cls-5 {
        fill: #556a8a;
      }

      .cls-6 {
        stroke-dasharray: 12.68 3.17;
      }

      .cls-7 {
        fill: #bad80a;
      }
    </style>
  </defs>
  <title>xamarin-cross-platform-advanced-topics</title>
  <g id="ICONS">
    <g>
      <path class="cls-1" d="M195.33,50.1v-.52a21.11,21.11,0,0,0-.68-5.24,19,19,0,0,0-31.2-13.48c-4.62-5.81-10.5-8.7-18.39-8.7-13.89,0-24.37,12.12-24.61,25.78,0,.94.24,1.65.24,2.59-7.3,3.53-11.54,9.65-11.54,17.43,0,11.11,8.74,20,20.31,20.66,1.06,7.71,8,14.87,19.82,14.87,10,0,15.95.81,23.24-7.39a24.55,24.55,0,0,0,11.62,3.17c14,0,25.35-12.41,25.35-26.41A25.35,25.35,0,0,0,195.33,50.1Z"/>
      <path class="cls-2" d="M284.17,42.6v73a1.93,1.93,0,0,1-1.92,1.92H168.95a1.92,1.92,0,0,1-1.92-1.92v-73a1.93,1.93,0,0,1,1.92-1.92h113.3A1.93,1.93,0,0,1,284.17,42.6Z"/>
      <path class="cls-3" d="M181,42v75.85H169a1.84,1.84,0,0,1-1-.28V42Z"/>
      <path class="cls-3" d="M272,42v75.85h12a1.84,1.84,0,0,0,1-.28V42Z"/>
      <rect class="cls-4" x="168" y="41.19" width="117" height="76.81" rx="2" ry="2"/>
      <rect class="cls-5" x="161.23" y="39" width="129.63" height="4.8"/>
      <g>
        <path class="cls-4" d="M220.14,54.67A25.84,25.84,0,0,0,214.31,56"/>
        <path class="cls-6" d="M211.4,57.3a26,26,0,1,0,32.52,38.84"/>
        <path class="cls-4" d="M244.84,94.84a25.91,25.91,0,0,0,2.71-5.34"/>
      </g>
      <polygon class="cls-5" points="230.35 75.24 228.93 73.82 223.67 79.08 223.67 50.5 221.67 50.5 221.67 79.08 216.41 73.82 215 75.24 222.67 82.91 230.35 75.24"/>
      <polygon class="cls-5" points="247.47 70.83 246.06 72.24 251.32 77.5 232.15 77.5 230.15 79.5 251.32 79.5 246.06 84.76 247.47 86.17 255.15 78.5 247.47 70.83"/>
      <g>
        <rect class="cls-5" x="131.19" y="55.36" width="1.52" height="22.81" rx="0.5" ry="0.5"/>
        <polygon class="cls-3" points="128.15 56.12 154.61 46.15 180.16 56.12 154.61 67.07 128.15 56.12"/>
        <path class="cls-2" d="M181.07,56.12l-26.46-10-26.46,10,8.21,3.65V74.13c0,5.08,8.36,9.37,18.25,9.37s18.25-4.29,18.25-9.37V59.77Z"/>
        <polygon class="cls-7" points="172.94 59.56 154.61 67.47 136.36 59.91 136.36 64.47 154.61 72.07 172.86 64.47 172.94 59.56"/>
        <path class="cls-4" d="M181.15,56.12l-26.5-10-26.4,10,8.27,3.65V74.13c0,5.08,8.36,9.37,18.25,9.37S173,79.21,173,74.13V59.77Z"/>
        <path class="cls-5" d="M130.43,78.18V74.53c0-2,.55-3.65,1.22-3.65h.61c.67,0,1.22,1.64,1.22,3.65v3.65Z"/>
        <polyline class="cls-4" points="135.25 59.23 154.61 67.07 173.01 59.77"/>
      </g>
    </g>
  </g>
</svg>
