<svg xmlns="http://www.w3.org/2000/svg" viewBox="0 0 400 140">
  <defs>
    <style>
      .cls-1 {
        fill: #606060;
      }

      .cls-2 {
        fill: #484949;
      }

      .cls-3 {
        fill: #4c4944;
      }

      .cls-4 {
        fill: #c2c2c2;
      }

      .cls-12, .cls-13, .cls-15, .cls-16, .cls-5, .cls-6, .cls-9 {
        fill: none;
        stroke-miterlimit: 10;
      }

      .cls-5 {
        stroke: #556a8a;
      }

      .cls-12, .cls-13, .cls-16, .cls-5, .cls-9 {
        stroke-width: 2px;
      }

      .cls-6 {
        stroke: #c2c2c2;
        stroke-width: 1px;
      }

      .cls-7 {
        fill: #e5e5e5;
      }

      .cls-8 {
        fill: #556a8a;
      }

      .cls-9 {
        stroke: #e5e5e5;
      }

      .cls-10 {
        fill: #2bc7f4;
      }

      .cls-11 {
        fill: #bad80a;
      }

      .cls-12 {
        stroke: #aad2f2;
      }

      .cls-13, .cls-15 {
        stroke: #757575;
      }

      .cls-14 {
        fill: #757575;
      }

      .cls-16 {
        stroke: #2bc7f4;
      }

      .cls-17 {
        fill: #58595b;
      }
    </style>
  </defs>
  <title>xamarin-ios-watchos</title>
  <g id="ICONS">
    <g>
      <path class="cls-1" d="M283,120.5c6-1,7,0,7.5-10S296,100,296,100H251.5s5,.5,5.5,10.5,1.5,9,7.5,10Z"/>
      <rect class="cls-2" x="247" y="39.5" width="53" height="62" rx="12" ry="12"/>
      <g>
        <rect class="cls-3" x="299.5" y="53.5" width="5.5" height="11.5" rx="2.75" ry="2.75"/>
        <path class="cls-1" d="M283,21c6,1,7,0,7.5,10S296,41.5,296,41.5H251.5s5-.5,5.5-10.5,1.5-9,7.5-10Z"/>
        <rect class="cls-4" x="251" y="40" width="45" height="3" rx="1.5" ry="1.5"/>
        <rect class="cls-5" x="247" y="39" width="53" height="62" rx="12" ry="12"/>
        <circle class="cls-6" cx="274" cy="71.5" r="18.5"/>
        <circle class="cls-7" cx="273.5" cy="71.5" r="2.5"/>
      </g>
      <polygon class="cls-8" points="246 65.5 246 66.5 247 67.5 247 82.5 248 82.5 248 65.5 246 65.5"/>
    </g>
    <line class="cls-9" x1="254" y1="71.5" x2="259" y2="71.5"/>
    <line class="cls-9" x1="259.09" y1="58.17" x2="262.82" y2="61.5"/>
    <line class="cls-9" x1="289" y1="58.17" x2="285.27" y2="61.5"/>
    <line class="cls-9" x1="259.09" y1="84.5" x2="262.82" y2="81.17"/>
    <line class="cls-9" x1="289" y1="84.5" x2="285.27" y2="81.17"/>
    <line class="cls-9" x1="274" y1="56.5" x2="274" y2="51.5"/>
    <line class="cls-9" x1="274" y1="91.5" x2="274" y2="86.5"/>
    <line class="cls-9" x1="289" y1="71.5" x2="294" y2="71.5"/>
    <g>
      <g>
        <rect class="cls-10" x="191" y="66" width="18.9" height="18.9"/>
        <line class="cls-5" x1="223" y1="30.69" x2="223" y2="66.69"/>
        <rect class="cls-11" x="209" y="66" width="41" height="19"/>
        <polygon class="cls-8" points="213 68 213 69 214 70 214 85 215 85 215 68 213 68"/>
        <polygon class="cls-8" points="222 68 222 69 223 70 223 85 224 85 224 68 222 68"/>
        <polygon class="cls-8" points="233 68 233 69 234 70 234 85 235 85 235 68 233 68"/>
        <polygon class="cls-8" points="244 68 244 69 245 70 245 85 246 85 246 68 244 68"/>
      </g>
      <g>
        <line class="cls-12" x1="193" y1="71" x2="206" y2="71"/>
        <line class="cls-12" x1="193" y1="76" x2="206" y2="76"/>
        <line class="cls-12" x1="193" y1="81" x2="206" y2="81"/>
      </g>
      <g>
        <g>
          <polyline class="cls-13" points="158.51 28 165.42 21.09 208.36 21.09 214.95 27.68"/>
          <line class="cls-13" x1="174" y1="26.98" x2="174" y2="21.48"/>
          <line class="cls-13" x1="182" y1="26.98" x2="182" y2="21.48"/>
          <line class="cls-13" x1="196" y1="26.98" x2="196" y2="21.48"/>
          <line class="cls-13" x1="166" y1="26.98" x2="166" y2="21.48"/>
          <polygon class="cls-14" points="148.34 13.76 149.41 13.46 154.14 27.05 152.77 27.05 148.34 13.76"/>
          <line class="cls-13" x1="148" y1="14.19" x2="148" y2="28.69"/>
          <path class="cls-14" d="M149.56,13.76a.85.85,0,0,1-.92.76.76.76,0,1,1,0-1.53.85.85,0,0,1,.92.76"/>
          <polygon class="cls-14" points="156.5 37.69 155.59 37.69 151.4 41.52 147.23 37.69 146.4 37.69 146.4 38.29 150.66 42.19 146.4 46.1 146.4 46.69 147.23 46.69 151.4 42.87 155.59 46.69 156.5 46.69 156.5 46.16 152.14 42.19 156.5 38.23 156.5 37.69"/>
          <rect class="cls-14" x="146" y="36.69" width="2" height="95"/>
          <rect class="cls-14" x="155" y="37.69" width="2" height="93"/>
          <g>
            <line class="cls-15" x1="146.5" y1="47.69" x2="156.5" y2="56.69"/>
            <line class="cls-15" x1="156.5" y1="47.69" x2="146.5" y2="56.69"/>
          </g>
          <g>
            <line class="cls-15" x1="156.5" y1="66.69" x2="146.5" y2="57.69"/>
            <line class="cls-15" x1="156.5" y1="57.69" x2="146.5" y2="66.69"/>
          </g>
          <g>
            <line class="cls-15" x1="146.5" y1="67.69" x2="156.5" y2="76.69"/>
            <line class="cls-15" x1="156.5" y1="67.69" x2="146.5" y2="76.69"/>
          </g>
          <g>
            <line class="cls-15" x1="146.5" y1="77.69" x2="156.5" y2="86.69"/>
            <line class="cls-15" x1="156.5" y1="77.69" x2="146.5" y2="86.69"/>
          </g>
          <g>
            <line class="cls-15" x1="146.5" y1="87.69" x2="156.5" y2="96.69"/>
            <line class="cls-15" x1="156.5" y1="87.69" x2="146.5" y2="96.69"/>
          </g>
          <g>
            <line class="cls-15" x1="146.5" y1="97.69" x2="156.5" y2="106.69"/>
            <line class="cls-15" x1="156.5" y1="97.69" x2="146.5" y2="106.69"/>
          </g>
          <g>
            <line class="cls-15" x1="146.5" y1="107.69" x2="156.5" y2="116.69"/>
            <line class="cls-15" x1="156.5" y1="107.69" x2="146.5" y2="116.69"/>
          </g>
          <polyline class="cls-15" points="168.5 21.69 175 26.69 182 21.69 189 26.69 196 21.69 203 26.69 208.5 21.69"/>
          <rect class="cls-8" x="129" y="27" width="101" height="1.96"/>
          <path class="cls-8" d="M226.3,27.11a.71.71,0,0,0-.7.61V28H220.4v-.28a.7.7,0,0,0-1.4,0V32h8V27.72A.71.71,0,0,0,226.3,27.11Z"/>
          <polyline class="cls-13" points="132.05 25.8 148.64 14.07 195.11 21.25"/>
          <rect class="cls-8" x="128" y="25" width="6" height="11"/>
          <line class="cls-13" x1="146.5" y1="58" x2="156.5" y2="58"/>
          <line class="cls-13" x1="146.5" y1="48" x2="156.5" y2="48"/>
          <line class="cls-13" x1="147" y1="38" x2="157" y2="38"/>
          <polygon class="cls-8" points="159.34 27 145 27 145 37 159.34 37 161.91 32 159.34 27"/>
          <line class="cls-16" x1="151" y1="30" x2="151" y2="36"/>
          <line class="cls-16" x1="155" y1="30" x2="155" y2="36"/>
          <line class="cls-13" x1="146.5" y1="68" x2="156.5" y2="68"/>
          <line class="cls-13" x1="146.5" y1="78" x2="156.5" y2="78"/>
          <line class="cls-13" x1="146.5" y1="89" x2="156.5" y2="89"/>
          <line class="cls-13" x1="146.5" y1="98" x2="156.5" y2="98"/>
          <line class="cls-13" x1="146.5" y1="108" x2="156.5" y2="108"/>
          <g>
            <line class="cls-15" x1="146.5" y1="116.19" x2="156.5" y2="125.19"/>
            <line class="cls-15" x1="156.5" y1="116.19" x2="146.5" y2="125.19"/>
          </g>
          <line class="cls-13" x1="146.5" y1="117" x2="156.5" y2="117"/>
          <line class="cls-15" x1="146.5" y1="126.19" x2="156.5" y2="126.19"/>
        </g>
        <polygon class="cls-8" points="175.5 132 127.5 132 130.08 126 132.65 120 170.35 120 172.93 126 175.5 132"/>
        <polygon class="cls-17" points="175 132 127 132 129.58 126 172.43 126 175 132"/>
      </g>
    </g>
  </g>
</svg>
