<svg xmlns="http://www.w3.org/2000/svg" viewBox="0 0 400 140">
  <defs>
    <style>
      .cls-1, .cls-10 {
        fill: none;
      }

      .cls-1, .cls-10, .cls-11 {
        stroke: #556a8a;
      }

      .cls-1, .cls-10, .cls-11, .cls-3 {
        stroke-miterlimit: 10;
        stroke-width: 2px;
      }

      .cls-1 {
        stroke-dasharray: 3 3;
      }

      .cls-2 {
        fill: #556a8a;
      }

      .cls-11, .cls-3, .cls-4 {
        fill: #fff;
      }

      .cls-3 {
        stroke: #2bc7f4;
      }

      .cls-5 {
        fill: #55d2f6;
        opacity: 0.8;
      }

      .cls-6 {
        fill: #ff9f2b;
      }

      .cls-7 {
        fill: #ff8c00;
      }

      .cls-8 {
        fill: #e5e5e5;
      }

      .cls-9 {
        fill: #bad80a;
      }

      .cls-12 {
        fill: #a4c439;
      }
    </style>
  </defs>
  <title>xamarin-android-get-started</title>
  <g id="ICONS">
    <g>
      <g>
        <path class="cls-1" d="M183.21,22.9h72.6c16.5,0,30,10.73,30,23.85s-13.5,23.85-30,23.85h-66.9c-16.5,0-30,8.71-30,19.35s13.5,19.35,30,19.35H305.24"/>
        <polygon class="cls-2" points="298.61 117.48 297.25 116.02 304.47 109.3 297.25 102.59 298.61 101.12 307.41 109.3 298.61 117.48"/>
      </g>
      <circle class="cls-3" cx="180.81" cy="70" r="48.15"/>
      <path class="cls-4" d="M189.11,64.94c-.92-11.45-9.86-20.44-20.76-20.44a20.72,20.72,0,0,0-18.53,12.16,20.18,20.18,0,0,0-11.07-3.31c-9.83,0-18.1,7.13-20.6,16.84a18.85,18.85,0,0,0-6-1c-10.81,0-19.58,9.13-19.58,20.38a20.45,20.45,0,0,0,11.3,18.47,18,18,0,0,0,6.09,1.78l.49,0a113.25,113.25,0,0,0,12.52.8h63.32a17.46,17.46,0,0,0,4.1-1c9.73-2,17.09-11.21,17.09-22.26C207.51,75.89,199.48,66.37,189.11,64.94Z"/>
      <path class="cls-5" d="M189.11,64.94c-.92-11.45-9.86-20.44-20.76-20.44a20.72,20.72,0,0,0-18.53,12.16,20.18,20.18,0,0,0-11.07-3.31c-9.83,0-18.1,7.13-20.6,16.84a18.85,18.85,0,0,0-6-1c-10.81,0-19.58,9.13-19.58,20.38a20.45,20.45,0,0,0,11.3,18.47,18,18,0,0,0,6.09,1.78l.49,0a113.25,113.25,0,0,0,12.52.8h63.32a17.46,17.46,0,0,0,4.1-1c9.73-2,17.09-11.21,17.09-22.26C207.51,75.89,199.48,66.37,189.11,64.94Z"/>
      <g>
        <g>
          <g>
            <path class="cls-6" d="M141.89,102.66c-.83.27-1.71.52-2.62.77,5.51-22.88,16.37-18.74,16.37-18.74l1.78,1.68.07.22C157.86,88.1,159.33,97.13,141.89,102.66Z"/>
            <path class="cls-7" d="M141.89,102.66c5.39-18.84,14.65-16.38,15.58-16.07C157.86,88.1,159.33,97.13,141.89,102.66Z"/>
            <polygon class="cls-2" points="158.33 90.91 150.63 83.21 156.79 81.67 159.68 84.57 158.33 90.91"/>
          </g>
          <polygon class="cls-2" points="159.87 73.85 139.08 73.08 136 70 153.71 61.53 161.11 64.31 159.87 73.85"/>
          <polygon class="cls-2" points="168.67 80.13 169.44 100.92 172.52 104 180.99 86.29 178.21 78.89 168.67 80.13"/>
          <g>
            <path class="cls-4" d="M164.52,89.3h-.23l-.18-.17-11-11.44,0-.27a45.46,45.46,0,0,1,12.47-22.09c10-9.91,33.18-14.07,34.17-14.24l.76-.13-.13.76s-.4,2.42-1.24,5.94c-2.26,9.51-6.31,22.21-12.78,28.71C176.38,86.48,165.44,89.3,164.52,89.3Z"/>
            <path class="cls-8" d="M198.62,49c-1.84,7.74-5.84,21.16-12.63,28-10,10.11-21,12.21-21.53,12.32l-6.12-6.12s1.95-11.24,12.33-21.56C177.48,54.83,190.86,50.84,198.62,49Z"/>
            <path class="cls-9" d="M199.6,42.36a112,112,0,0,0-18.2,4.91l13.29,13.29A112,112,0,0,0,199.6,42.36Z"/>
            <path class="cls-10" d="M164.52,89.3h-.23l-.18-.17-11-11.44,0-.27a45.46,45.46,0,0,1,12.47-22.09c10-9.91,33.18-14.07,34.17-14.24l.76-.13-.13.76s-.4,2.42-1.24,5.94c-2.26,9.51-6.31,22.21-12.78,28.71C176.38,86.48,165.44,89.3,164.52,89.3Z"/>
          </g>
        </g>
        <circle class="cls-11" cx="175.2" cy="65.89" r="5.45"/>
      </g>
      <g>
        <rect class="cls-12" x="246.18" y="26.09" width="0.67" height="6.07" rx="0.34" ry="0.34" transform="translate(27.88 146.66) rotate(-35)"/>
        <rect class="cls-12" x="258.22" y="26.09" width="0.67" height="6.07" rx="0.34" ry="0.34" transform="matrix(-0.82, -0.57, 0.57, -0.82, 453.65, 201.29)"/>
        <g>
          <path class="cls-12" d="M237.21,41.13a2.66,2.66,0,0,0-2.7,2.62v11a2.7,2.7,0,0,0,5.4,0v-11a2.66,2.66,0,0,0-2.7-2.62"/>
          <path class="cls-12" d="M247.33,52.6a2.66,2.66,0,0,0-2.7,2.62v11a2.7,2.7,0,0,0,5.4,0v-11a2.66,2.66,0,0,0-2.7-2.62"/>
          <path class="cls-12" d="M256.78,52.6a2.66,2.66,0,0,0-2.7,2.62v11a2.7,2.7,0,0,0,5.4,0v-11a2.66,2.66,0,0,0-2.7-2.62"/>
          <path class="cls-12" d="M266.91,41.13a2.66,2.66,0,0,0-2.7,2.62v11a2.7,2.7,0,0,0,5.4,0v-11a2.66,2.66,0,0,0-2.7-2.62"/>
        </g>
        <path class="cls-12" d="M240.58,56.65a4,4,0,0,0,3.93,4H259.6a4,4,0,0,0,3.93-4V41.8H240.58Z"/>
        <path class="cls-12" d="M263.53,41.08a11.47,11.47,0,0,0-22.95,0Z"/>
        <path class="cls-4" d="M257.12,36.4a1,1,0,1,1,1-1,1,1,0,0,1-1,1"/>
        <path class="cls-4" d="M247,36.4a1,1,0,1,1,1-1,1,1,0,0,1-1,1"/>
      </g>
    </g>
  </g>
</svg>
