<svg xmlns="http://www.w3.org/2000/svg" viewBox="0 0 400 140">
  <defs>
    <style>
      .cls-1, .cls-12, .cls-5, .cls-7 {
        fill: none;
      }

      .cls-1 {
        stroke: #808285;
        stroke-dasharray: 3 3;
      }

      .cls-1, .cls-5 {
        stroke-linecap: round;
        stroke-linejoin: round;
      }

      .cls-1, .cls-12, .cls-2, .cls-5, .cls-7, .cls-9 {
        stroke-width: 2px;
      }

      .cls-2 {
        fill: #c2c2c2;
      }

      .cls-12, .cls-2, .cls-9 {
        stroke: #556a8a;
      }

      .cls-12, .cls-2, .cls-7, .cls-9 {
        stroke-miterlimit: 10;
      }

      .cls-3 {
        fill: #e5e5e5;
      }

      .cls-4 {
        fill: #ababab;
      }

      .cls-5 {
        stroke: #868787;
      }

      .cls-6 {
        isolation: isolate;
      }

      .cls-7 {
        stroke: #ababab;
      }

      .cls-8 {
        fill: #556a8a;
      }

      .cls-9 {
        fill: #2bc7f4;
      }

      .cls-10 {
        fill: #fff;
      }

      .cls-11 {
        opacity: 0.61;
      }

      .cls-13 {
        opacity: 0.45;
      }
    </style>
  </defs>
  <title>xamarin-graphics-inspector</title>
  <g id="ICONS">
    <g>
      <line class="cls-1" x1="179.76" y1="69.15" x2="246.5" y2="29.15"/>
      <line class="cls-1" x1="173.5" y1="70.3" x2="247.5" y2="70.3"/>
      <line class="cls-1" x1="178.5" y1="71.15" x2="270.5" y2="117.15"/>
      <g>
        <rect class="cls-2" x="134.5" y="24.15" width="64" height="91" rx="6" ry="6"/>
        <rect class="cls-3" x="139.5" y="36.15" width="54" height="70"/>
        <rect class="cls-4" x="162.5" y="108.18" width="8" height="1.97" rx="0.98" ry="0.98"/>
        <line class="cls-5" x1="157.56" y1="31.15" x2="177.5" y2="31.15"/>
      </g>
      <g class="cls-6">
        <polygon class="cls-7" points="311.5 35.15 311.37 103.42 263.5 110.15 263.63 41.88 311.5 35.15"/>
      </g>
      <g class="cls-6">
        <polygon class="cls-7" points="303.5 28.15 303.37 96.42 255.5 103.15 255.63 34.88 303.5 28.15"/>
      </g>
      <g class="cls-6">
        <polygon class="cls-7" points="295.5 21.15 295.37 89.42 247.5 96.15 247.63 27.88 295.5 21.15"/>
      </g>
      <g>
        <path class="cls-8" d="M118.11,89.18l-4.88,4.88-6,6L90.09,117.21a5.62,5.62,0,0,1-7.94-8l22.94-22.94,4.94-5a29.66,29.66,0,0,0,3.3,4A28.65,28.65,0,0,0,118.11,89.18Z"/>
        <g>
          <path class="cls-9" d="M163.5,59.15H173a8.52,8.52,0,0,1,8.5,8.5h0a8.52,8.52,0,0,1-8.5,8.5H161.5"/>
          <circle class="cls-10" cx="173" cy="67.65" r="5.5"/>
        </g>
        <path class="cls-9" d="M158.5,80.35l-6-.2a12,12,0,0,1-12-12v-2a12,12,0,0,1,12-12l9,.05a65.16,65.16,0,0,1,1.7,7.85c.35,3.05-.75,12.25-2.5,15s-1.65,3.1-1.65,3.1Z"/>
        <g class="cls-11">
          <path class="cls-10" d="M161.49,53.89A29.38,29.38,0,1,0,110,81.37l8.08,7.81a29.37,29.37,0,0,0,43.38-35.29Z"/>
        </g>
        <path class="cls-12" d="M134.12,35.15A29.39,29.39,0,1,0,163.5,64.56,29.43,29.43,0,0,0,134.12,35.15Z"/>
        <g class="cls-13">
          <polygon class="cls-10" points="113.23 94.06 107.27 100.03 99.13 92.28 105.09 86.32 113.23 94.06"/>
        </g>
      </g>
      <g class="cls-6">
        <polygon class="cls-12" points="319.5 42.15 319.37 110.42 271.5 117.15 271.63 48.88 319.5 42.15"/>
      </g>
    </g>
  </g>
</svg>
