<svg xmlns="http://www.w3.org/2000/svg" viewBox="0 0 400 140">
  <defs>
    <style>
      .cls-1 {
        fill: #c2c2c2;
      }

      .cls-1, .cls-10, .cls-5 {
        stroke: #556a8a;
        stroke-miterlimit: 10;
      }

      .cls-1, .cls-10, .cls-4, .cls-5 {
        stroke-width: 2px;
      }

      .cls-2 {
        fill: #e5e5e5;
      }

      .cls-3 {
        fill: #ababab;
      }

      .cls-10, .cls-4 {
        fill: none;
      }

      .cls-4 {
        stroke: #868787;
        stroke-linecap: round;
        stroke-linejoin: round;
      }

      .cls-5, .cls-8 {
        fill: #fff;
      }

      .cls-6 {
        fill: #2bc7f4;
      }

      .cls-7 {
        fill: #b3b3b3;
      }

      .cls-11, .cls-9 {
        fill: #556a8a;
      }

      .cls-9 {
        opacity: 0.6;
      }
    </style>
  </defs>
  <title>xamarin-forms-xaml</title>
  <g id="ICONS">
    <g>
      <g>
        <g>
          <g>
            <rect class="cls-1" x="119" y="18" width="64" height="91" rx="6" ry="6"/>
            <rect class="cls-2" x="124" y="31" width="54" height="70"/>
            <rect class="cls-3" x="144.73" y="103" width="11.63" height="2.86" rx="1.43" ry="1.43"/>
            <line class="cls-4" x1="142" y1="24.77" x2="161.94" y2="24.77"/>
          </g>
          <g>
            <rect class="cls-5" x="103" y="51.01" width="34.31" height="64.8" rx="4" ry="4"/>
            <rect class="cls-2" x="105.86" y="59.59" width="28.59" height="46.69"/>
            <path class="cls-6" d="M124.14,56.73h-8a1,1,0,0,1,0-1.91h8a1,1,0,0,1,0,1.91Z"/>
            <circle class="cls-6" cx="109.19" cy="111.43" r="1.43"/>
            <circle class="cls-6" cx="132.06" cy="111.43" r="1.43"/>
            <rect class="cls-6" x="115.39" y="110.1" width="9.53" height="1.91" rx="0.95" ry="0.95"/>
          </g>
          <g>
            <rect class="cls-5" x="167" y="47" width="102" height="75" rx="4" ry="4"/>
            <rect class="cls-2" x="171" y="51.23" width="94" height="62"/>
            <circle class="cls-7" cx="218.87" cy="117.84" r="1.46"/>
          </g>
        </g>
        <g>
          <path class="cls-3" d="M205.41,90.84l-12.65-6.08v-1.5l12.65-6.6v2.69l-9.25,4.59V84l9.25,4.16Z"/>
          <path class="cls-3" d="M221.41,71.92,211.6,95.6h-3l9.77-23.68Z"/>
          <path class="cls-3" d="M237.54,84.68,224.9,90.75V88.08L234.16,84v-.08l-9.26-4.59V76.59l12.65,6.58Z"/>
        </g>
        <path class="cls-8" d="M270.32,21h-33A1.27,1.27,0,0,0,236,22.28v79.43a1.27,1.27,0,0,0,1.27,1.28h58.45a1.27,1.27,0,0,0,1.27-1.28V46.62Z"/>
        <g>
          <polygon class="cls-9" points="297 47.85 270.05 47.85 270 21.85 297 47.85"/>
          <path class="cls-10" d="M270.32,21h-33A1.27,1.27,0,0,0,236,22.28v79.43a1.27,1.27,0,0,0,1.27,1.28h58.45a1.27,1.27,0,0,0,1.27-1.28V46.62Z"/>
          <polyline class="cls-10" points="270 21.07 270 47 296.26 47"/>
        </g>
      </g>
      <g>
        <path class="cls-11" d="M255,77.23h-2.5l-2.58-4.62a4.64,4.64,0,0,1-.25-.6h0l-.26.6-2.66,4.62h-2.52l4.13-6.34-3.8-6.27H247l2.28,4.25q.22.42.4.84h0q.25-.55.44-.88l2.36-4.22h2.36L251,70.87Z"/>
        <path class="cls-11" d="M267.05,77.23h-2.29L263.63,74h-5l-1.09,3.21h-2.29L260,64.62h2.36Zm-4-4.91-1.75-5a6,6,0,0,1-.17-.79h0a5.14,5.14,0,0,1-.18.79l-1.73,5Z"/>
        <path class="cls-11" d="M282.32,77.23h-2.07V69.07q0-1,.12-2.45h0A8.47,8.47,0,0,1,280,67.8l-3.76,9.42h-1.44L271,67.87a8.81,8.81,0,0,1-.33-1.26h0q.07.76.07,2.47v8.14h-1.93V64.62h2.94L275,73a12.41,12.41,0,0,1,.49,1.44h0q.33-1,.53-1.48l3.38-8.36h2.84Z"/>
        <path class="cls-11" d="M292.4,77.23h-7V64.62h2.09V75.46h4.89Z"/>
      </g>
    </g>
  </g>
</svg>
