<svg xmlns="http://www.w3.org/2000/svg" viewBox="0 0 400 140">
  <defs>
    <style>
      .cls-1, .cls-6 {
        fill: #55d2f6;
      }

      .cls-1, .cls-4 {
        stroke: #2bc7f4;
      }

      .cls-1, .cls-11, .cls-12, .cls-2, .cls-4 {
        stroke-miterlimit: 10;
        stroke-width: 2px;
      }

      .cls-11, .cls-2 {
        fill: none;
      }

      .cls-11, .cls-12, .cls-2 {
        stroke: #556a8a;
      }

      .cls-2 {
        stroke-dasharray: 3 3;
      }

      .cls-3 {
        fill: #556a8a;
      }

      .cls-12, .cls-4, .cls-5 {
        fill: #fff;
      }

      .cls-6 {
        opacity: 0.8;
      }

      .cls-7 {
        fill: #ff9f2b;
      }

      .cls-8 {
        fill: #ff8c00;
      }

      .cls-9 {
        fill: #e5e5e5;
      }

      .cls-10 {
        fill: #bad80a;
      }
    </style>
  </defs>
  <title>xamarin-cross-platform-get-started</title>
  <g id="ICONS">
    <path class="cls-1" d="M260.36,61.53a1.2,1.2,0,0,0,1.34.21l2.15-1.18a1.2,1.2,0,0,0,.31-1.6l-1.24-2.74c-.45-.68-.59-1.43,1-3.55a2.11,2.11,0,0,1,2-.69l3.28.37a1.42,1.42,0,0,0,1.09-.72l.72-2.6c.1-.25-.19-.95-1-1.22l-2.95-1.13a1.53,1.53,0,0,1-1.13-1.56s-.58-3.05.51-3.76l2.33-1.69a1.49,1.49,0,0,0,.31-1.58l-1.44-2.25a.93.93,0,0,0-1.29-.26l-.06,0-2.75,1.25c-.7.43-3.09-.87-3.57-1.05a3,3,0,0,1-.88-2.09l.53-2.93a1.36,1.36,0,0,0-.88-1.46L256.34,29a1.2,1.2,0,0,0-1.37.63l-.86,3.07c-.22.75-.87,1.65-3.18,1.67,0,0-1.82-.24-2.28-.85l-1.79-2.68a1.2,1.2,0,0,0-1.34-.21l-2.25,1.44a.93.93,0,0,0-.19,1.3l0,0,1.15,3c.47,1-.78,2.84-1,3.32a2,2,0,0,1-2.06.93L238,40a1.47,1.47,0,0,0-1.22,1l-.72,2.6a1.66,1.66,0,0,0,1,1.22l3,1.12c1.65.41,1.48,2.09,1.65,3.19.11.58.13,1.2-1,1.9L238.27,53a1.2,1.2,0,0,0-.21,1.34l1.44,2.25a1.2,1.2,0,0,0,1.25.47l2.84-1.49c1-.47,1.52-.3,1.93.16a16.86,16.86,0,0,1,1.55,1.16,1.69,1.69,0,0,1,1,1.77l-.6,3.17a1.46,1.46,0,0,0,1,1.21l2.34.6a1.2,1.2,0,0,0,1.37-.63L253,59.9a1.91,1.91,0,0,1,1.65-1.34l1.78-.19c.69-.31,1.2-.13,2,.75l1.93,2.43m-1.22-18.67A6.62,6.62,0,0,1,257,51.72,6.15,6.15,0,0,1,248.41,50q-.17-.25-.31-.51a6.32,6.32,0,0,1,2.09-8.6,6.41,6.41,0,0,1,8.88,1.79l.09.13"/>
    <g>
      <g>
        <path class="cls-2" d="M183.21,22.9h72.6c16.5,0,30,10.73,30,23.85s-13.5,23.85-30,23.85h-66.9c-16.5,0-30,8.71-30,19.35s13.5,19.35,30,19.35H305.24"/>
        <polygon class="cls-3" points="298.61 117.48 297.25 116.02 304.47 109.3 297.25 102.59 298.61 101.12 307.41 109.3 298.61 117.48"/>
      </g>
      <circle class="cls-4" cx="180.81" cy="70" r="48.15"/>
      <path class="cls-5" d="M189.11,64.94c-.92-11.45-9.86-20.44-20.76-20.44a20.72,20.72,0,0,0-18.53,12.16,20.18,20.18,0,0,0-11.07-3.31c-9.83,0-18.1,7.13-20.6,16.84a18.85,18.85,0,0,0-6-1c-10.81,0-19.58,9.13-19.58,20.38a20.45,20.45,0,0,0,11.3,18.47,18,18,0,0,0,6.09,1.78l.49,0a113.25,113.25,0,0,0,12.52.8h63.32a17.46,17.46,0,0,0,4.1-1c9.73-2,17.09-11.21,17.09-22.26C207.51,75.89,199.48,66.37,189.11,64.94Z"/>
      <path class="cls-6" d="M189.11,64.94c-.92-11.45-9.86-20.44-20.76-20.44a20.72,20.72,0,0,0-18.53,12.16,20.18,20.18,0,0,0-11.07-3.31c-9.83,0-18.1,7.13-20.6,16.84a18.85,18.85,0,0,0-6-1c-10.81,0-19.58,9.13-19.58,20.38a20.45,20.45,0,0,0,11.3,18.47,18,18,0,0,0,6.09,1.78l.49,0a113.25,113.25,0,0,0,12.52.8h63.32a17.46,17.46,0,0,0,4.1-1c9.73-2,17.09-11.21,17.09-22.26C207.51,75.89,199.48,66.37,189.11,64.94Z"/>
      <g>
        <g>
          <g>
            <path class="cls-7" d="M143.32,103.71c-.83.27-1.71.52-2.62.77,5.51-22.88,16.37-18.74,16.37-18.74l1.78,1.68.07.22C159.28,89.15,160.75,98.18,143.32,103.71Z"/>
            <path class="cls-8" d="M143.32,103.71C148.71,84.87,158,87.33,158.9,87.63,159.28,89.15,160.75,98.18,143.32,103.71Z"/>
            <polygon class="cls-3" points="159.76 91.96 152.06 84.26 158.22 82.72 161.1 85.62 159.76 91.96"/>
          </g>
          <polygon class="cls-3" points="161.29 74.9 140.5 74.13 137.42 71.05 155.13 62.58 162.54 65.36 161.29 74.9"/>
          <polygon class="cls-3" points="170.09 81.18 170.86 101.97 173.94 105.05 182.41 87.34 179.63 79.94 170.09 81.18"/>
          <g>
            <path class="cls-5" d="M165.94,90.35h-.23l-.18-.17-11-11.44,0-.27a45.46,45.46,0,0,1,12.47-22.09c10-9.91,33.18-14.07,34.17-14.24L202,42l-.13.76s-.4,2.42-1.24,5.94c-2.26,9.51-6.31,22.21-12.78,28.71C177.8,87.53,166.87,90.35,165.94,90.35Z"/>
            <path class="cls-9" d="M200,50c-1.84,7.74-5.84,21.16-12.63,28-10,10.11-21,12.21-21.53,12.32l-6.12-6.12S161.71,73,172.09,62.66C178.9,55.88,192.29,51.88,200,50Z"/>
            <path class="cls-10" d="M201,43.41a112,112,0,0,0-18.2,4.91L196.11,61.6A112,112,0,0,0,201,43.41Z"/>
            <path class="cls-11" d="M165.94,90.35h-.23l-.18-.17-11-11.44,0-.27a45.46,45.46,0,0,1,12.47-22.09c10-9.91,33.18-14.07,34.17-14.24L202,42l-.13.76s-.4,2.42-1.24,5.94c-2.26,9.51-6.31,22.21-12.78,28.71C177.8,87.53,166.87,90.35,165.94,90.35Z"/>
          </g>
        </g>
        <circle class="cls-12" cx="176.63" cy="66.93" r="5.45"/>
      </g>
    </g>
  </g>
</svg>
