<svg xmlns="http://www.w3.org/2000/svg" viewBox="0 0 400 140">
  <defs>
    <style>
      .cls-1 {
        fill: #ace8f9;
      }

      .cls-2, .cls-8 {
        fill: #c2c2c2;
      }

      .cls-11, .cls-2, .cls-9 {
        stroke: #556a8a;
      }

      .cls-11, .cls-2, .cls-5, .cls-9 {
        stroke-miterlimit: 10;
        stroke-width: 2px;
      }

      .cls-3 {
        fill: #e5e5e5;
      }

      .cls-4 {
        fill: #ababab;
      }

      .cls-11, .cls-5 {
        fill: none;
      }

      .cls-5 {
        stroke: #868787;
      }

      .cls-6 {
        fill: #7750a3;
      }

      .cls-7 {
        fill: #556a8a;
      }

      .cls-8 {
        fill-rule: evenodd;
      }

      .cls-12, .cls-9 {
        fill: #fff;
      }

      .cls-10 {
        fill: #2bc7f4;
      }
    </style>
  </defs>
  <title>xamarin-ios-internals</title>
  <g id="ICONS">
    <g>
      <path class="cls-1" d="M252,121h-78c-7.47,0-12.19-.06-15.67-.36l-.67-.07a24.7,24.7,0,0,1-7.94-2.17l-.41-.17a26.83,26.83,0,0,1,16.92-50.55,29.16,29.16,0,0,1,27.18-19.36,28.36,28.36,0,0,1,12.6,3,28.08,28.08,0,0,1,23.88-13.41c13.91,0,25.84,10.63,28,24.57,13.21,2.78,22.93,14.85,22.93,28.93s-9.74,26.28-23.18,29A24.3,24.3,0,0,1,252,121Z"/>
      <g>
        <rect class="cls-2" x="192.5" y="46.5" width="55" height="76" rx="6" ry="6" transform="translate(135.5 304.5) rotate(-90)"/>
        <rect class="cls-3" x="196.5" y="54.5" width="46" height="59" transform="translate(135.5 303.5) rotate(-90)"/>
        <rect class="cls-4" x="248.08" y="82.24" width="9.93" height="2.84" rx="1.42" ry="1.42" transform="translate(169.38 336.7) rotate(-90)"/>
        <line class="cls-5" x1="186.39" y1="92.17" x2="186.39" y2="75.15"/>
      </g>
      <g>
        <path class="cls-6" d="M231.16,45.4A.9.9,0,0,0,232,46l1.89-.06a1,1,0,0,0,.77-1l.11-2.32a1.34,1.34,0,0,1,.94-1.41c.3-.28.74-.4,1-.68a1.62,1.62,0,0,1,1.59.22l2.11,1.4a1.1,1.1,0,0,0,1-.1l1.38-1.53a1,1,0,0,0-.24-1.17L241,37.57a1.18,1.18,0,0,1-.22-1.46L240.6,36a1.57,1.57,0,0,0,.48-1c0-.58.34-1.15,1.36-1.24l2.19-.34a1.15,1.15,0,0,0,.77-1l-.2-2a.71.71,0,0,0-.84-.62l-2.32-.11a1.38,1.38,0,0,1-1.41-.93c-.28-.3-.4-.74-.68-1a2.32,2.32,0,0,1,.08-1.74l1.39-1.82a1,1,0,0,0-.08-1.31l-1.55-1.09a.88.88,0,0,0-1.16-.05L237,23.44a1.48,1.48,0,0,1-1.61.36,4.49,4.49,0,0,0-1.15-.34l-.14-.15A1.53,1.53,0,0,1,233,22.1l-.32-2.48a.9.9,0,0,0-.84-.62l-2,.2a.71.71,0,0,0-.62.84l-.26,2.46c0,.87-.34,1.15-.78,1.27-.3.28-.74.4-1,.68a1.53,1.53,0,0,1-1.74-.08l-2-1.54a1.13,1.13,0,0,0-1.17.24l-1.38,1.54a1.28,1.28,0,0,0,.24,1.17l1.66,1.82c.55.61.68,1,.22,1.46,0,.29-.18.72-.21,1.3-.17.43-.33.86-1.35,1l-2.35.47a.9.9,0,0,0-.62.84l.2,2a.92.92,0,0,0,.69.76l2.47,0c.87,0,1.14.34,1.27.78a13,13,0,0,1,.66,1.34,1.3,1.3,0,0,1,.07,1.6l-1.54,2a1.13,1.13,0,0,0,.24,1.17l1.4,1.23a.88.88,0,0,0,1.16.05l1.68-1.81a1.48,1.48,0,0,1,1.61-.36l1.29.49c.58,0,.86.33,1.11,1.21l.47,2.34m5.69-13.25a5.1,5.1,0,0,1-4.6,5.31,4.74,4.74,0,0,1-5.31-4.6,4.87,4.87,0,0,1,4.45-5.17,4.93,4.93,0,0,1,5.46,4.46"/>
        <path class="cls-7" d="M290.36,39.12a1.1,1.1,0,0,0,.07-1.45l-1.94-2.12a1.29,1.29,0,0,0-1.45-.07l-3.3,2.17c-.7-.47-1.55-1.09-2.25-1.55l1.06-4A1,1,0,0,0,282,30.9l-2.42-1.13a.92.92,0,0,0-1.33.38l-2.34,3.52a8.46,8.46,0,0,0-2.58-.7L273,28.89a1,1,0,0,0-1-1.06l-2.76,0c-.43-.16-.88.25-1,.68l-.92,4.17a8.53,8.53,0,0,0-2.64.46l-2-3.72a1.46,1.46,0,0,0-1.28-.49l-2.66,1a1,1,0,0,0-.63,1.13l.83,4c-.75.4-1.5,1.09-2.25,1.5L253.42,34a.94.94,0,0,0-1.31.09l-2,1.8a.94.94,0,0,0-.2,1.3l2.31,3.44A11.85,11.85,0,0,0,250.54,43l-4-1.34a1.27,1.27,0,0,0-1.34.66l-1.13,2.42a1.25,1.25,0,0,0,.51,1.47L248,48.39c-.33.86-.37,1.73-.7,2.58l-4.08.4a1.27,1.27,0,0,0-.92,1.12l-.12,2.61a1.26,1.26,0,0,0,.82,1.2l4.18.62a17.11,17.11,0,0,0,.45,2.93l-3.72,2a.92.92,0,0,0-.5,1.29l.9,2.51a1.36,1.36,0,0,0,1.27.78l4.11-1,1.2,2.23-2.62,3.22a1.36,1.36,0,0,0,.08,1.31l1.94,2.12a1.1,1.1,0,0,0,1.3.2L255,72.23c.7.47,1.55,1.09,2.25,1.55l-1.06,4a1,1,0,0,0,.53,1.19l2.55,1.28a1.24,1.24,0,0,0,1.32-.38l2.19-3.39c.87,0,1.73.37,2.6.41l.24,4.22a1.26,1.26,0,0,0,1.12.92l2.75.27a1.75,1.75,0,0,0,1.06-1l.77-4c1-.1,1.9-.35,2.92-.45l1.87,3.57a1,1,0,0,0,1.28.49l2.51-.9a1.18,1.18,0,0,0,.79-1.27l-.83-4a10.42,10.42,0,0,0,2.25-1.5l3.22,2.62a1,1,0,0,0,1.45.07l2-1.8a1,1,0,0,0,.07-1.45L286.5,69.3a7.24,7.24,0,0,0,1.71-2.39l4,1.34a1,1,0,0,0,1.19-.53l1.28-2.56a1.46,1.46,0,0,0-.37-1.32l-3.52-2.34a7.4,7.4,0,0,0,.55-2.44l4.24-.54c.44-.12.9-.54.91-.83l.13-2.9a1,1,0,0,0-1-1.06l-4-.76a15.81,15.81,0,0,0-.31-2.77l3.43-2a1.06,1.06,0,0,0,.65-1.42l-.9-2.51a.91.91,0,0,0-1.28-.49l-4.1.69-1.2-2.23,2.47-3.08m-17.88,13a4.21,4.21,0,0,1-.28,6.09,4.16,4.16,0,0,1-5.94-.41,4.21,4.21,0,1,1,6.22-5.67"/>
      </g>
      <g>
        <circle class="cls-3" cx="269.73" cy="54.68" r="14.84"/>
        <path class="cls-8" d="M259.24,44.19a14.84,14.84,0,0,0,21,21Z"/>
      </g>
      <g>
        <rect class="cls-9" x="172" y="27" width="36" height="68" rx="4" ry="4"/>
        <rect class="cls-3" x="175" y="36" width="29" height="49"/>
        <path class="cls-10" d="M193.58,34H185.2a1,1,0,0,1,0-2h8.38a1,1,0,0,1,0,2Z"/>
        <circle class="cls-10" cx="177.89" cy="89.87" r="1.5"/>
        <circle class="cls-10" cx="201.89" cy="89.87" r="1.5"/>
        <rect class="cls-10" x="184.39" y="89" width="10" height="2" rx="1" ry="1"/>
      </g>
      <circle class="cls-6" cx="133.34" cy="63.05" r="29.95"/>
      <path class="cls-7" d="M181.29,39.69V49h-1.47V41.5A4.69,4.69,0,0,1,179,42a7.07,7.07,0,0,1-1.05.35V41.08l.71-.25c.23-.09.45-.19.68-.3s.45-.23.67-.37.46-.29.7-.46Z"/>
      <path class="cls-7" d="M183.72,65H178v-.71a2.65,2.65,0,0,1,.12-.81,3.37,3.37,0,0,1,.32-.71,4.07,4.07,0,0,1,.48-.63c.18-.2.38-.39.58-.57s.42-.36.63-.53l.63-.52c.2-.17.37-.33.53-.49a3.17,3.17,0,0,0,.41-.49A2.22,2.22,0,0,0,182,59a1.93,1.93,0,0,0,.09-.61,1.65,1.65,0,0,0-.11-.63,1.21,1.21,0,0,0-.31-.45,1.32,1.32,0,0,0-.47-.27,1.88,1.88,0,0,0-.6-.09,2.76,2.76,0,0,0-1.14.26,3.89,3.89,0,0,0-1.11.78V56.58a4.92,4.92,0,0,1,.56-.36,3.88,3.88,0,0,1,.59-.26,3.7,3.7,0,0,1,.64-.16,4.76,4.76,0,0,1,.72-.05,3.61,3.61,0,0,1,1.12.16,2.38,2.38,0,0,1,.86.48,2.1,2.1,0,0,1,.55.78,2.82,2.82,0,0,1,.19,1.08,3.33,3.33,0,0,1-.14,1,3.15,3.15,0,0,1-.39.82,4.24,4.24,0,0,1-.61.72c-.24.23-.5.46-.79.71l-.73.58c-.24.19-.46.37-.66.55a3,3,0,0,0-.47.54,1,1,0,0,0-.18.54v0h4.11Z"/>
      <path class="cls-7" d="M178.17,80.66V79.28a3.14,3.14,0,0,0,2,.71,2.35,2.35,0,0,0,1.45-.41,1.33,1.33,0,0,0,.54-1.12q0-1.55-2.37-1.55h-.71V75.72h.67q2.1,0,2.1-1.46t-1.64-1.35a2.69,2.69,0,0,0-1.72.65V72.27a4.4,4.4,0,0,1,2.19-.52,2.93,2.93,0,0,1,1.94.61,1.94,1.94,0,0,1,.73,1.56,2.23,2.23,0,0,1-1.83,2.31v0a2.39,2.39,0,0,1,1.55.69,2.05,2.05,0,0,1,.57,1.48,2.43,2.43,0,0,1-.92,2,3.71,3.71,0,0,1-2.42.75A4.14,4.14,0,0,1,178.17,80.66Z"/>
      <line class="cls-11" x1="185.39" y1="44" x2="200.39" y2="44"/>
      <line class="cls-11" x1="185.39" y1="61" x2="200.39" y2="61"/>
      <line class="cls-11" x1="185.39" y1="78" x2="200.39" y2="78"/>
      <path class="cls-7" d="M267.43,48.53l-1.5,1-1.5-1V45a3.41,3.41,0,0,0-2,3.28,3.54,3.54,0,0,0,2,3.14V62.74A1.25,1.25,0,0,0,265.77,64H266a1.38,1.38,0,0,0,1.37-1.38V51.42a3.23,3.23,0,0,0,2-3.15,3.7,3.7,0,0,0-2-3.27Z"/>
      <path class="cls-7" d="M275.43,55h-1l0-5.09,1-1.91-1.71-3h-.57l-1.71,3,1,2v5h-1v2h1a2.68,2.68,0,0,1-1,2.1v3.4A1.45,1.45,0,0,0,272.7,64h1.64c.56,0,1.09-.74,1.09-1.64V59.08c-.27,0-1-1.08-1-2.08h1Z"/>
      <g>
        <path class="cls-12" d="M115.5,56.46a1.22,1.22,0,0,1-.87-.36,1.2,1.2,0,0,1-.37-.9,1.16,1.16,0,0,1,.37-.88,1.23,1.23,0,0,1,.88-.35,1.35,1.35,0,0,1,.49.09,1.21,1.21,0,0,1,.4.25,1.26,1.26,0,0,1,.27.39,1.19,1.19,0,0,1,.1.5,1.27,1.27,0,0,1-.1.49,1.16,1.16,0,0,1-.27.4,1.3,1.3,0,0,1-.4.27A1.27,1.27,0,0,1,115.5,56.46ZM114.64,74V60h1.75V74Z"/>
        <path class="cls-12" d="M129,74.34a9.1,9.1,0,0,1-3.81-.77,8.46,8.46,0,0,1-2.88-2.11,9.4,9.4,0,0,1-1.82-3.15,11.66,11.66,0,0,1-.64-3.89,13.23,13.23,0,0,1,.64-4.2,9.19,9.19,0,0,1,1.85-3.27,8.38,8.38,0,0,1,3-2.12,10.08,10.08,0,0,1,4-.76,9,9,0,0,1,3.73.75,8.17,8.17,0,0,1,2.82,2.06A9.22,9.22,0,0,1,137.71,60a12,12,0,0,1,.62,3.92,13.58,13.58,0,0,1-.61,4.14,9.54,9.54,0,0,1-1.79,3.3A8.3,8.3,0,0,1,133,73.55,9.48,9.48,0,0,1,129,74.34Zm.15-18.62a7,7,0,0,0-3.15.68,6.87,6.87,0,0,0-2.32,1.83,8,8,0,0,0-1.43,2.71,11.26,11.26,0,0,0-.5,3.3,11,11,0,0,0,.43,3.19,8.09,8.09,0,0,0,1.34,2.69A6.56,6.56,0,0,0,125.82,72a7,7,0,0,0,3.2.7,7.66,7.66,0,0,0,3.22-.64,6.43,6.43,0,0,0,2.32-1.76A7.65,7.65,0,0,0,136,67.6a11.71,11.71,0,0,0,.47-3.4,12.52,12.52,0,0,0-.42-3.27,7.73,7.73,0,0,0-1.3-2.7,6.29,6.29,0,0,0-2.25-1.83A7.33,7.33,0,0,0,129.19,55.72Z"/>
        <path class="cls-12" d="M141.35,71.13a6.92,6.92,0,0,0,1.09.66,8.67,8.67,0,0,0,1.22.49,8.83,8.83,0,0,0,1.25.3,7.47,7.47,0,0,0,1.2.1,5.39,5.39,0,0,0,3.34-.86,3,3,0,0,0,1.11-2.47,3.33,3.33,0,0,0-.26-1.36,3.38,3.38,0,0,0-.81-1.09,8.47,8.47,0,0,0-1.38-1q-.83-.5-2-1.13T144,63.48a8,8,0,0,1-1.46-1.24,4.22,4.22,0,0,1-.83-1.37,4.93,4.93,0,0,1-.27-1.68,4.43,4.43,0,0,1,.51-2.13,5,5,0,0,1,1.37-1.61,6.32,6.32,0,0,1,2-1,8.35,8.35,0,0,1,2.47-.36,10.19,10.19,0,0,1,3.87.64v2a8,8,0,0,0-4.07-1,6.2,6.2,0,0,0-1.65.21,4.33,4.33,0,0,0-1.35.62,3,3,0,0,0-.92,1,2.89,2.89,0,0,0-.33,1.42,3.49,3.49,0,0,0,.22,1.32,3.15,3.15,0,0,0,.72,1,7,7,0,0,0,1.31,1q.81.48,2,1.11a23.68,23.68,0,0,1,2.15,1.28,8.33,8.33,0,0,1,1.52,1.3,4.79,4.79,0,0,1,.91,1.44,4.57,4.57,0,0,1,.3,1.69,5.09,5.09,0,0,1-.48,2.26A4.43,4.43,0,0,1,150.63,73a6.1,6.1,0,0,1-2.05,1,9.73,9.73,0,0,1-3.72.25,13.16,13.16,0,0,1-1.3-.22,12.3,12.3,0,0,1-1.25-.34,4.46,4.46,0,0,1-1-.43Z"/>
      </g>
    </g>
  </g>
</svg>
