<svg xmlns="http://www.w3.org/2000/svg" viewBox="0 0 400 140">
  <defs>
    <style>
      .cls-1 {
        fill: #c2c2c2;
      }

      .cls-1, .cls-6 {
        stroke: #556a8a;
      }

      .cls-1, .cls-4, .cls-6, .cls-9 {
        stroke-miterlimit: 10;
        stroke-width: 2px;
      }

      .cls-2 {
        fill: #e5e5e5;
      }

      .cls-3 {
        fill: #ababab;
      }

      .cls-4 {
        fill: none;
        stroke: #868787;
      }

      .cls-5 {
        fill: #556a8a;
      }

      .cls-6, .cls-8 {
        fill: #fff;
      }

      .cls-7 {
        fill: #2bc7f4;
      }

      .cls-9 {
        fill: #c6df33;
        stroke: #bad80a;
      }
    </style>
  </defs>
  <title>xamarin-android-fundamentals</title>
  <g id="ICONS">
    <g>
      <g>
        <rect class="cls-1" x="144" y="20" width="71" height="99" rx="6" ry="6"/>
        <rect class="cls-2" x="149" y="33" width="61" height="76"/>
        <rect class="cls-3" x="173.38" y="111.23" width="12.74" height="3.64" rx="1.77" ry="1.77"/>
        <line class="cls-4" x1="168.46" y1="28" x2="190.31" y2="28"/>
      </g>
      <path class="cls-5" d="M163.7,55.5h-1.76V54.25h0a2.65,2.65,0,0,1-2.43,1.44,2.56,2.56,0,0,1-1.85-.64,2.24,2.24,0,0,1-.67-1.7q0-2.27,2.61-2.64l2.38-.34q0-1.71-1.62-1.71a3.86,3.86,0,0,0-2.58,1V48.06a5.62,5.62,0,0,1,2.92-.75q3,0,3,3ZM162,51.57l-1.68.23a2.66,2.66,0,0,0-1.18.38,1.11,1.11,0,0,0-.39,1,1.06,1.06,0,0,0,.36.83,1.41,1.41,0,0,0,1,.32,1.8,1.8,0,0,0,1.37-.58,2.06,2.06,0,0,0,.54-1.46Z"/>
      <path class="cls-5" d="M159.41,74.34h0V75.5h-1.81V63.66h1.81v5.25h0a3,3,0,0,1,2.72-1.59,2.86,2.86,0,0,1,2.37,1.07,4.49,4.49,0,0,1,.86,2.88,5,5,0,0,1-1,3.21,3.17,3.17,0,0,1-2.62,1.21A2.58,2.58,0,0,1,159.41,74.34Zm0-3.18v1a2.12,2.12,0,0,0,.56,1.48,2,2,0,0,0,3-.18,3.65,3.65,0,0,0,.57-2.19,2.88,2.88,0,0,0-.54-1.85,1.76,1.76,0,0,0-1.45-.67,2,2,0,0,0-1.56.69A2.54,2.54,0,0,0,159.36,71.16Z"/>
      <path class="cls-5" d="M163.29,95.13a4.47,4.47,0,0,1-2.27.55,3.85,3.85,0,0,1-2.87-1.11A3.94,3.94,0,0,1,157,91.69a4.34,4.34,0,0,1,1.18-3.18,4.2,4.2,0,0,1,3.14-1.2,4.6,4.6,0,0,1,1.93.38v1.69a2.92,2.92,0,0,0-1.78-.62,2.47,2.47,0,0,0-1.88.78,2.84,2.84,0,0,0-.73,2,2.71,2.71,0,0,0,.69,2,2.45,2.45,0,0,0,1.86.72,2.9,2.9,0,0,0,1.84-.7Z"/>
      <line class="cls-4" x1="168" y1="53" x2="203" y2="53"/>
      <line class="cls-4" x1="168" y1="72" x2="203" y2="72"/>
      <line class="cls-4" x1="168" y1="92" x2="203" y2="92"/>
      <g>
        <rect class="cls-6" x="201" y="37" width="36" height="68" rx="4" ry="4"/>
        <rect class="cls-2" x="205" y="46" width="28" height="48"/>
        <path class="cls-7" d="M223.19,44h-8.38a1,1,0,0,1,0-2h8.38a1,1,0,0,1,0,2Z"/>
        <circle class="cls-7" cx="207.5" cy="99.5" r="1.5"/>
        <circle class="cls-7" cx="230.5" cy="99.5" r="1.5"/>
        <rect class="cls-7" x="214" y="99" width="10" height="2" rx="1" ry="1"/>
      </g>
      <circle class="cls-8" cx="237.38" cy="72.5" r="8"/>
      <path class="cls-9" d="M238.18,90.08a1.3,1.3,0,0,0,1.24.77l2.62-.28a1.3,1.3,0,0,0,1-1.45l-.09-3.23c-.16-.86,0-1.66,2.48-3.1a2.27,2.27,0,0,1,2.24.13l3.09,1.74a1.53,1.53,0,0,0,1.38-.26l1.79-2.28a1.35,1.35,0,0,0-.45-1.61L251,78.17a1.65,1.65,0,0,1-.47-2s.7-3.27,2.08-3.51l3-.7a1.61,1.61,0,0,0,1-1.44l-.49-2.83a1,1,0,0,0-1.17-.79l-.07,0-3.25.1c-.87.13-2.71-2.15-3.1-2.53a3.24,3.24,0,0,1,0-2.43l1.75-2.68a1.46,1.46,0,0,0-.26-1.81l-2.27-1.36a1.3,1.3,0,0,0-1.62,0L244,58.9c-.53.65-1.55,1.27-3.85.33,0,0-1.7-1-1.9-1.8L237.58,54a1.3,1.3,0,0,0-1.24-.77l-2.83.49a1,1,0,0,0-.73,1.21v0l-.1,3.45c0,1.21-2,2.49-2.36,2.89a2.13,2.13,0,0,1-2.44.07L225,59.46a1.58,1.58,0,0,0-1.61.45l-1.79,2.28a1.79,1.79,0,0,0,.45,1.61l2.5,2.36c1.47,1.1.6,2.69.3,3.85-.13.62-.38,1.25-1.79,1.47l-3.22.91a1.3,1.3,0,0,0-.77,1.24l.49,2.83a1.3,1.3,0,0,0,1,1l3.44-.29c1.21,0,1.64.34,1.85,1a18.14,18.14,0,0,1,1.06,1.79,1.81,1.81,0,0,1,.25,2.17L225.26,85a1.57,1.57,0,0,0,.45,1.6l2.07,1.57a1.3,1.3,0,0,0,1.62,0l2.16-2.69a2.06,2.06,0,0,1,2.2-.64l1.84.55c.81,0,1.25.38,1.66,1.57l.9,3.22m6.59-19a7.13,7.13,0,0,1-5.86,7.87,6.62,6.62,0,0,1-7.77-5.23q-.06-.32-.09-.64a6.8,6.8,0,0,1,5.66-7.66,6.89,6.89,0,0,1,8.07,5.48l0,.17"/>
    </g>
  </g>
</svg>
