<svg xmlns="http://www.w3.org/2000/svg" viewBox="0 0 400 140">
  <defs>
    <style>
      .cls-1 {
        fill: #ace8f9;
      }

      .cls-2 {
        fill: #fff;
      }

      .cls-3 {
        fill: #e5e5e5;
      }

      .cls-4, .cls-6 {
        fill: none;
      }

      .cls-4 {
        stroke: #556a8a;
        stroke-miterlimit: 10;
        stroke-width: 2px;
      }

      .cls-5 {
        fill: #556a8a;
      }

      .cls-7 {
        fill: #c2c2c2;
        fill-rule: evenodd;
      }

      .cls-8 {
        fill: #868787;
      }
    </style>
  </defs>
  <title>xamarin-mac-internals</title>
  <g id="ICONS">
    <g>
      <path class="cls-1" d="M252.6,121.33h-78c-7.47,0-12.19-.06-15.67-.36l-.67-.07a24.7,24.7,0,0,1-7.94-2.17l-.41-.17A26.83,26.83,0,0,1,166.81,68,29.16,29.16,0,0,1,194,48.64a28.36,28.36,0,0,1,12.6,3,28.08,28.08,0,0,1,23.88-13.41c13.91,0,25.84,10.63,28,24.57,13.21,2.78,22.93,14.85,22.93,28.93s-9.74,26.28-23.18,29A24.3,24.3,0,0,1,252.6,121.33Z"/>
      <g>
        <g>
          <path class="cls-2" d="M237.64,100,247,91.39A14.81,14.81,0,0,1,255.64,88h18a14.81,14.81,0,0,1,8.67,3.39L291.6,100"/>
          <rect class="cls-2" x="234.64" y="100" width="60" height="14" rx="4" ry="4"/>
          <path class="cls-3" d="M284,93l-1.74-1.61A14.81,14.81,0,0,0,273.6,88h-18A14.81,14.81,0,0,0,247,91.39L245.23,93Z"/>
          <path class="cls-4" d="M237.64,100,247,91.39A14.81,14.81,0,0,1,255.64,88h18a14.81,14.81,0,0,1,8.67,3.39L291.6,100"/>
          <path class="cls-3" d="M240.64,99.82V114h-3a3.09,3.09,0,0,1-3-3.15V103a3.09,3.09,0,0,1,3-3.15Z"/>
          <path class="cls-3" d="M288.64,99.82V114h3a3.09,3.09,0,0,0,3-3.15V103a3.09,3.09,0,0,0-3-3.15Z"/>
          <rect class="cls-4" x="234.64" y="100" width="60" height="14" rx="4" ry="4"/>
          <rect class="cls-5" x="245.64" y="104" width="38" height="2" rx="0.79" ry="0.79"/>
        </g>
        <polygon class="cls-5" points="221.98 107 189.99 107 186.3 110.94 225.67 110.94 221.98 107"/>
        <polygon class="cls-5" points="207.88 108.63 203.56 108.63 204.43 100 207.01 100 207.88 108.63"/>
        <rect class="cls-2" x="159.52" y="48.57" width="93.72" height="51.19" rx="4" ry="4" transform="translate(412.76 148.34) rotate(180)"/>
        <path class="cls-3" d="M252.64,61V52.42A3.42,3.42,0,0,0,249.23,49H163.06a3.42,3.42,0,0,0-3.41,3.42V61Z"/>
        <rect class="cls-4" x="159.64" y="49" width="93" height="52" rx="4" ry="4" transform="translate(412.29 150) rotate(180)"/>
        <rect class="cls-6" x="151.64" y="45.12" width="108.68" height="77.88"/>
        <path class="cls-5" d="M289,39.45a1.1,1.1,0,0,0,.07-1.45l-1.94-2.12a1.29,1.29,0,0,0-1.45-.07L282.39,38c-.7-.47-1.55-1.09-2.25-1.55l1.06-4a1,1,0,0,0-.53-1.19l-2.42-1.13a.92.92,0,0,0-1.33.38L274.59,34a8.46,8.46,0,0,0-2.58-.7l-.39-4.08a1,1,0,0,0-1-1.06l-2.76,0c-.43-.16-.88.25-1,.68L265.92,33a8.53,8.53,0,0,0-2.64.46l-2-3.72a1.46,1.46,0,0,0-1.28-.49l-2.66,1a1,1,0,0,0-.63,1.13l.83,4c-.75.4-1.5,1.09-2.25,1.5l-3.22-2.61a.94.94,0,0,0-1.31.09l-2,1.8a.94.94,0,0,0-.2,1.3l2.31,3.44a11.85,11.85,0,0,0-1.71,2.39l-4-1.34a1.27,1.27,0,0,0-1.34.66l-1.13,2.42a1.25,1.25,0,0,0,.51,1.47l3.39,2.19c-.33.86-.37,1.73-.7,2.58l-4.08.4a1.27,1.27,0,0,0-.92,1.12l-.12,2.61a1.26,1.26,0,0,0,.82,1.2l4.18.62a17.11,17.11,0,0,0,.45,2.93l-3.72,2a.92.92,0,0,0-.5,1.29l.9,2.51a1.36,1.36,0,0,0,1.27.78l4.11-1L249.5,68l-2.62,3.22a1.36,1.36,0,0,0,.08,1.31l1.94,2.12a1.1,1.1,0,0,0,1.3.2l3.45-2.31c.7.47,1.55,1.09,2.25,1.55l-1.06,4a1,1,0,0,0,.53,1.19l2.55,1.28a1.24,1.24,0,0,0,1.32-.38l2.19-3.39c.87,0,1.73.37,2.6.41l.24,4.22a1.26,1.26,0,0,0,1.12.92l2.75.27a1.75,1.75,0,0,0,1.06-1l.77-4c1-.1,1.9-.35,2.92-.45l1.87,3.57a1,1,0,0,0,1.28.49l2.51-.9a1.18,1.18,0,0,0,.79-1.27l-.83-4a10.42,10.42,0,0,0,2.25-1.5L284,76.26a1,1,0,0,0,1.45.07l2-1.8a1,1,0,0,0,.07-1.45l-2.31-3.45a7.24,7.24,0,0,0,1.71-2.39l4,1.34a1,1,0,0,0,1.19-.53l1.28-2.56a1.46,1.46,0,0,0-.37-1.32l-3.52-2.34a7.4,7.4,0,0,0,.55-2.44l4.24-.54c.44-.12.9-.54.91-.83l.13-2.9a1,1,0,0,0-1-1.06l-4-.76a15.81,15.81,0,0,0-.31-2.77l3.43-2a1.06,1.06,0,0,0,.65-1.42l-.9-2.51a.91.91,0,0,0-1.28-.49l-4.1.69-1.2-2.23L289,39.45"/>
        <g>
          <circle class="cls-3" cx="268.38" cy="55.01" r="14.84"/>
          <path class="cls-7" d="M257.88,44.52a14.84,14.84,0,0,0,21,21Z"/>
        </g>
        <path class="cls-5" d="M266.07,48.86l-1.5,1-1.5-1V45.33a3.41,3.41,0,0,0-2,3.28,3.54,3.54,0,0,0,2,3.14V63.07a1.25,1.25,0,0,0,1.34,1.26h.25A1.38,1.38,0,0,0,266,62.94V51.75a3.23,3.23,0,0,0,2-3.15,3.7,3.7,0,0,0-2-3.27Z"/>
        <path class="cls-5" d="M274.07,55.33h-1l0-5.09,1-1.91-1.71-3h-.57l-1.71,3,1,2v5h-1v2h1a2.68,2.68,0,0,1-1,2.1v3.4a1.45,1.45,0,0,0,1.27,1.5H273c.56,0,1.09-.74,1.09-1.64V59.41c-.27,0-1-1.08-1-2.08h1Z"/>
      </g>
      <circle class="cls-8" cx="138.95" cy="51.05" r="29.95"/>
      <g>
        <path class="cls-2" d="M135.21,56.84h-1.7V50.76a4.6,4.6,0,0,0-.54-2.54,2.06,2.06,0,0,0-1.83-.79,2.26,2.26,0,0,0-1.85,1,3.8,3.8,0,0,0-.76,2.38v6h-1.7V50.55q0-3.12-2.41-3.12a2.23,2.23,0,0,0-1.84.94,3.87,3.87,0,0,0-.72,2.44v6h-1.7V46.25h1.7v1.68h0A3.6,3.6,0,0,1,125.21,46a3.06,3.06,0,0,1,3,2.19A3.78,3.78,0,0,1,131.72,46q3.49,0,3.5,4.31Z"/>
        <path class="cls-2" d="M146,56.84h-1.7V55.18h0a3.55,3.55,0,0,1-3.26,1.9,3.48,3.48,0,0,1-2.48-.84,2.9,2.9,0,0,1-.89-2.22q0-3,3.5-3.45l3.17-.44q0-2.7-2.18-2.7a5.21,5.21,0,0,0-3.45,1.3V47a6.56,6.56,0,0,1,3.6-1Q146,46,146,50Zm-1.7-5.36-2.55.35a4.16,4.16,0,0,0-1.78.58,1.69,1.69,0,0,0-.6,1.48,1.61,1.61,0,0,0,.55,1.27,2.14,2.14,0,0,0,1.47.49,2.72,2.72,0,0,0,2.08-.88,3.16,3.16,0,0,0,.82-2.24Z"/>
        <path class="cls-2" d="M156.41,56.35a5.51,5.51,0,0,1-2.9.73,4.8,4.8,0,0,1-3.66-1.47,5.34,5.34,0,0,1-1.39-3.82,5.87,5.87,0,0,1,1.5-4.2A5.24,5.24,0,0,1,154,46a5.57,5.57,0,0,1,2.46.52v1.74a4.31,4.31,0,0,0-2.52-.83,3.41,3.41,0,0,0-2.66,1.16,4.42,4.42,0,0,0-1,3.06,4.21,4.21,0,0,0,1,2.94,3.37,3.37,0,0,0,2.62,1.08,4.25,4.25,0,0,0,2.61-.92Z"/>
      </g>
      <path class="cls-5" d="M182.55,55.69V65h-1.47V57.5a4.7,4.7,0,0,1-.86.49,7,7,0,0,1-1.05.35V57.08l.71-.25q.34-.13.68-.3c.22-.11.45-.23.67-.37s.46-.29.7-.46Z"/>
      <line class="cls-4" x1="189.64" y1="62" x2="230.64" y2="62"/>
      <line class="cls-4" x1="189.64" y1="74" x2="230.64" y2="74"/>
      <line class="cls-4" x1="189.64" y1="86" x2="230.64" y2="86"/>
      <path class="cls-5" d="M185,78h-5.71v-.7a2.66,2.66,0,0,1,.12-.81,3.28,3.28,0,0,1,.32-.71,4,4,0,0,1,.48-.63q.27-.29.58-.57c.21-.18.42-.36.63-.53l.63-.52q.29-.25.53-.49a3.26,3.26,0,0,0,.41-.49,2.24,2.24,0,0,0,.27-.54,1.9,1.9,0,0,0,.09-.61,1.65,1.65,0,0,0-.11-.63,1.22,1.22,0,0,0-.31-.45,1.32,1.32,0,0,0-.47-.27,1.88,1.88,0,0,0-.6-.09,2.75,2.75,0,0,0-1.14.26,3.87,3.87,0,0,0-1.11.78V69.58a4.72,4.72,0,0,1,.56-.37,4,4,0,0,1,.59-.26,3.71,3.71,0,0,1,.64-.16,4.88,4.88,0,0,1,.72-.05,3.61,3.61,0,0,1,1.12.16,2.39,2.39,0,0,1,.86.48,2.11,2.11,0,0,1,.55.78,2.82,2.82,0,0,1,.19,1.08,3.36,3.36,0,0,1-.14,1,3.2,3.2,0,0,1-.39.82,4.24,4.24,0,0,1-.61.72c-.24.23-.5.46-.79.71l-.73.58q-.36.28-.66.55a3.07,3.07,0,0,0-.47.54,1,1,0,0,0-.18.54v0H185Z"/>
      <path class="cls-5" d="M179.43,91.66V90.28a3.14,3.14,0,0,0,2,.7,2.34,2.34,0,0,0,1.45-.41,1.33,1.33,0,0,0,.54-1.12q0-1.55-2.37-1.55h-.71V86.73H181q2.1,0,2.1-1.46t-1.64-1.35a2.69,2.69,0,0,0-1.72.65V83.27a4.41,4.41,0,0,1,2.19-.52,2.93,2.93,0,0,1,1.94.61,1.94,1.94,0,0,1,.73,1.56,2.22,2.22,0,0,1-1.83,2.31v0a2.4,2.4,0,0,1,1.55.69,2.06,2.06,0,0,1,.57,1.48,2.43,2.43,0,0,1-.92,2,3.71,3.71,0,0,1-2.42.75A4.14,4.14,0,0,1,179.43,91.66Z"/>
    </g>
    <path class="cls-8" d="M228.77,43.4a.9.9,0,0,0,.84.62l1.89-.06a1,1,0,0,0,.77-1l.11-2.32a1.34,1.34,0,0,1,.94-1.41c.3-.28.74-.4,1-.68a1.62,1.62,0,0,1,1.59.22l2.11,1.4a1.1,1.1,0,0,0,1-.1l1.38-1.53a1,1,0,0,0-.24-1.17l-1.66-1.82a1.18,1.18,0,0,1-.22-1.46l-.14-.15a1.57,1.57,0,0,0,.48-1c0-.58.34-1.15,1.36-1.24l2.19-.34a1.15,1.15,0,0,0,.77-1l-.2-2a.71.71,0,0,0-.84-.62l-2.32-.11a1.38,1.38,0,0,1-1.41-.93c-.28-.3-.4-.74-.68-1a2.32,2.32,0,0,1,.08-1.74L239,22.08a1,1,0,0,0-.08-1.31l-1.55-1.09a.88.88,0,0,0-1.16-.05l-1.68,1.81a1.48,1.48,0,0,1-1.61.36,4.49,4.49,0,0,0-1.15-.34l-.14-.15a1.53,1.53,0,0,1-1.11-1.21l-.32-2.48a.9.9,0,0,0-.84-.62l-2,.2a.71.71,0,0,0-.62.84l-.26,2.46c0,.87-.34,1.15-.78,1.27-.3.28-.74.4-1,.68a1.53,1.53,0,0,1-1.74-.08l-2-1.54a1.13,1.13,0,0,0-1.17.24L218.4,22.6a1.28,1.28,0,0,0,.24,1.17l1.66,1.82c.55.61.68,1,.22,1.46,0,.29-.18.72-.21,1.3-.17.43-.33.86-1.35,1l-2.35.47a.9.9,0,0,0-.62.84l.2,2a.92.92,0,0,0,.69.76l2.47,0c.87,0,1.14.34,1.27.78a13,13,0,0,1,.66,1.34,1.3,1.3,0,0,1,.07,1.6l-1.54,2a1.13,1.13,0,0,0,.24,1.17l1.4,1.23a.88.88,0,0,0,1.16.05l1.68-1.81a1.48,1.48,0,0,1,1.61-.36l1.29.49c.58,0,.86.33,1.11,1.21l.47,2.34m5.69-13.25a5.1,5.1,0,0,1-4.6,5.31,4.74,4.74,0,0,1-5.31-4.6A4.87,4.87,0,0,1,229,25.7a4.93,4.93,0,0,1,5.46,4.46"/>
  </g>
</svg>
