<svg xmlns="http://www.w3.org/2000/svg" viewBox="0 0 64 64">
  <defs>
    <style>
      .cls-1, .cls-2, .cls-4 {
        fill: #fff;
        stroke-miterlimit: 10;
        stroke-width: 2px;
      }

      .cls-1 {
        stroke: #556a8a;
      }

      .cls-2 {
        stroke: #2bc7f4;
      }

      .cls-3 {
        fill: #556a8a;
      }

      .cls-4 {
        stroke: #868787;
      }
    </style>
  </defs>
  <title>i_application-fundamentals</title>
  <g id="ICONS-64x">
    <rect class="cls-1" x="9" y="36" width="27" height="27"/>
    <rect class="cls-2" x="6" y="1" width="27" height="27"/>
    <path class="cls-3" d="M24.41,21H22.33V19h-.05a4.36,4.36,0,0,1-4,2.34,4.28,4.28,0,0,1-3-1,3.56,3.56,0,0,1-1.1-2.73q0-3.64,4.29-4.24l3.9-.55q0-3.31-2.68-3.31A6.4,6.4,0,0,0,15.41,11V8.91A8.05,8.05,0,0,1,19.83,7.7q4.58,0,4.58,4.85Zm-2.08-6.58-3.14.43a5.09,5.09,0,0,0-2.18.72,2.07,2.07,0,0,0-.74,1.82A2,2,0,0,0,17,18.95a2.62,2.62,0,0,0,1.81.6,3.34,3.34,0,0,0,2.56-1.09,3.88,3.88,0,0,0,1-2.75Z"/>
    <path class="cls-3" d="M27,55.4a6.77,6.77,0,0,1-3.55.9,5.89,5.89,0,0,1-4.49-1.81,6.56,6.56,0,0,1-1.71-4.69,7.21,7.21,0,0,1,1.84-5.16A6.44,6.44,0,0,1,24,42.7a6.83,6.83,0,0,1,3,.63v2.13a5.29,5.29,0,0,0-3.1-1,4.19,4.19,0,0,0-3.27,1.43,5.43,5.43,0,0,0-1.28,3.75,5.17,5.17,0,0,0,1.2,3.61,4.14,4.14,0,0,0,3.22,1.32A5.22,5.22,0,0,0,27,53.42Z"/>
    <rect class="cls-4" x="31" y="17" width="27" height="27"/>
    <path class="cls-3" d="M41.24,38.12h-.05V40H39.11V20.75h2.08v8.53h.05a4.92,4.92,0,0,1,4.49-2.59,4.76,4.76,0,0,1,3.92,1.75,7.2,7.2,0,0,1,1.42,4.68,8.06,8.06,0,0,1-1.59,5.22,5.29,5.29,0,0,1-4.34,2A4.28,4.28,0,0,1,41.24,38.12Zm-.05-5.24v1.82a3.87,3.87,0,0,0,1,2.74,3.74,3.74,0,0,0,5.63-.32,6.64,6.64,0,0,0,1.07-4,5.24,5.24,0,0,0-1-3.4,3.32,3.32,0,0,0-2.72-1.23,3.69,3.69,0,0,0-2.92,1.26A4.64,4.64,0,0,0,41.19,32.88Z"/>
  </g>
</svg>
