<svg xmlns="http://www.w3.org/2000/svg" viewBox="0 0 64 64">
  <defs>
    <style>
      .cls-1 {
        fill: #2bc7f4;
      }

      .cls-2 {
        fill: #55d2f6;
      }
    </style>
  </defs>
  <title>i_platform-features</title>
  <g id="ICONS-64x">
    <g>
      <g>
        <path class="cls-1" d="M64,29.91a2.25,2.25,0,0,1-1.94,2.24C51,33.72,47.53,37.19,46,48.26a2.25,2.25,0,0,1-2.24,1.93,2.46,2.46,0,0,1-.45,0,2.25,2.25,0,0,1-1.78-1.88c-1.58-11.07-5-14.54-16.11-16.12a2.25,2.25,0,0,1,0-4.46c11.07-1.58,14.53-5,16.11-16.12a2.27,2.27,0,0,1,1.78-1.89,2.46,2.46,0,0,1,.45,0A2.26,2.26,0,0,1,46,11.57c1.58,11.07,5,14.54,16.11,16.12A2.24,2.24,0,0,1,64,29.91Z"/>
        <path class="cls-2" d="M64,29.91a2.25,2.25,0,0,1-1.94,2.24C51,33.72,47.53,37.19,46,48.26a2.25,2.25,0,0,1-2.24,1.93,2.46,2.46,0,0,1-.45,0V9.68a2.46,2.46,0,0,1,.45,0A2.26,2.26,0,0,1,46,11.57c1.58,11.07,5,14.54,16.11,16.12A2.24,2.24,0,0,1,64,29.91Z"/>
      </g>
      <g>
        <path class="cls-1" d="M33.79,44a1.82,1.82,0,0,1-1.56,1.8c-9,1.28-11.76,4.08-13,13a1.82,1.82,0,0,1-3.61,0c-1.27-9-4.08-11.75-13-13a1.82,1.82,0,0,1,0-3.61c9-1.27,11.76-4.07,13-13a1.82,1.82,0,0,1,3.61,0c1.27,9,4.08,11.75,13,13A1.83,1.83,0,0,1,33.79,44Z"/>
        <path class="cls-2" d="M33.79,44a1.82,1.82,0,0,1-1.56,1.8c-9,1.28-11.76,4.08-13,13a1.82,1.82,0,0,1-1.8,1.56V27.62a1.83,1.83,0,0,1,1.8,1.57c1.27,9,4.08,11.75,13,13A1.83,1.83,0,0,1,33.79,44Z"/>
      </g>
      <g>
        <path class="cls-1" d="M37,13.08a1.34,1.34,0,0,1-1.16,1.33c-6.59.94-8.66,3-9.6,9.61a1.34,1.34,0,0,1-2.66,0c-.94-6.59-3-8.66-9.6-9.61a1.34,1.34,0,0,1,0-2.66c6.59-.94,8.66-3,9.6-9.6a1.34,1.34,0,0,1,2.66,0c.94,6.59,3,8.66,9.6,9.6A1.35,1.35,0,0,1,37,13.08Z"/>
        <path class="cls-2" d="M37,13.08a1.34,1.34,0,0,1-1.16,1.33c-6.59.94-8.66,3-9.6,9.61a1.35,1.35,0,0,1-1.33,1.15V1a1.35,1.35,0,0,1,1.33,1.16c.94,6.59,3,8.66,9.6,9.6A1.35,1.35,0,0,1,37,13.08Z"/>
      </g>
    </g>
  </g>
</svg>
