<svg xmlns="http://www.w3.org/2000/svg" viewBox="0 0 64 64">
  <defs>
    <style>
      .cls-1 {
        fill: #fff;
      }

      .cls-1, .cls-2 {
        stroke: #556a8a;
        stroke-miterlimit: 10;
        stroke-width: 2px;
      }

      .cls-2 {
        fill: #e5e5e5;
      }

      .cls-3 {
        fill: #55d2f6;
      }

      .cls-4 {
        fill: #556a8a;
      }
    </style>
  </defs>
  <title>i_xaml-forms</title>
  <g id="ICONS-64x">
    <rect class="cls-1" x="9" y="1" width="45" height="62"/>
    <rect class="cls-2" x="23" y="17" width="26" height="8"/>
    <line class="cls-1" x1="13" y1="21" x2="20" y2="21"/>
    <line class="cls-1" x1="13" y1="47" x2="50" y2="47"/>
    <line class="cls-1" x1="13" y1="54" x2="50" y2="54"/>
    <rect class="cls-3" x="10" y="2" width="43" height="7"/>
    <line class="cls-1" x1="9" y1="10" x2="54" y2="10"/>
    <g>
      <path class="cls-4" d="M23.35,41H21.55l-1.87-3.34a3.47,3.47,0,0,1-.18-.43h0l-.19.43L17.36,41H15.53l3-4.58L15.78,31.9h1.85L19.27,35c.11.2.2.41.29.61h0c.12-.27.23-.48.32-.63l1.71-3h1.7l-2.81,4.51Z"/>
      <path class="cls-4" d="M32.08,41H30.42l-.82-2.32H26L25.23,41H23.58L27,31.9h1.7ZM29.2,37.45l-1.26-3.63a4.07,4.07,0,0,1-.12-.57h0a3.66,3.66,0,0,1-.13.57l-1.25,3.63Z"/>
      <path class="cls-4" d="M43.1,41H41.6V35.11q0-.72.09-1.77h0a6.14,6.14,0,0,1-.25.86L38.7,41h-1l-2.72-6.75a6.4,6.4,0,0,1-.24-.91h0q.05.55.05,1.78V41h-1.4V31.9h2.13L37.85,38a8.8,8.8,0,0,1,.36,1h0q.23-.72.38-1.07l2.44-6h2Z"/>
      <path class="cls-4" d="M50.38,41h-5V31.9h1.51v7.83h3.53Z"/>
    </g>
  </g>
</svg>
