<?xml version="1.0" encoding="utf-8" ?>
<svg xmlns="http://www.w3.org/2000/svg" xmlns:xlink="http://www.w3.org/1999/xlink" width="400" height="145">
	<rect fill="none" stroke="rgb(0,0,0)" stroke-width="1" stroke-linecap="round" stroke-linejoin="round" transform="matrix(1 0 1.5 1 40.5 5.5)" width="200" height="100"/>
	<path fill="none" stroke="rgb(0,0,0)" stroke-width="1" stroke-linecap="round" stroke-linejoin="round" transform="translate(40.5 5.5)" d="M0 120L150 120"/>
	<path fill="none" stroke="rgb(0,0,0)" stroke-width="1" stroke-linecap="round" stroke-linejoin="round" transform="translate(40.5 5.5)" d="M150 120L140.761 116.173"/>
	<path fill="none" stroke="rgb(0,0,0)" stroke-width="1" stroke-linecap="round" stroke-linejoin="round" transform="translate(40.5 5.5)" d="M150 120L140.761 123.827"/>
	<path fill="none" stroke="rgb(0,0,0)" stroke-width="1" stroke-linecap="round" stroke-linejoin="round" transform="translate(40.5 5.5)" d="M0 115L0 125"/>
	<text fill="rgb(0,0,0)" stroke="none" transform="translate(40.5 5.5)" font-size="12" font-family="Segoe UI" x="65.53125" y="132.5">
			150
	</text>
	<path fill="none" stroke="rgb(0,0,0)" stroke-width="1" stroke-linecap="round" stroke-linejoin="round" transform="translate(40.5 5.5)" d="M-20 0L-20 100"/>
	<path fill="none" stroke="rgb(0,0,0)" stroke-width="1" stroke-linecap="round" stroke-linejoin="round" transform="translate(40.5 5.5)" d="M-20 100L-16.1732 90.7612"/>
	<path fill="none" stroke="rgb(0,0,0)" stroke-width="1" stroke-linecap="round" stroke-linejoin="round" transform="translate(40.5 5.5)" d="M-20 100L-23.8268 90.7612"/>
	<path fill="none" stroke="rgb(0,0,0)" stroke-width="1" stroke-linecap="round" stroke-linejoin="round" transform="translate(40.5 5.5)" d="M-20 0L-23.8268 9.23879"/>
	<path fill="none" stroke="rgb(0,0,0)" stroke-width="1" stroke-linecap="round" stroke-linejoin="round" transform="translate(40.5 5.5)" d="M-20 0L-16.1732 9.2388"/>
	<text fill="rgb(0,0,0)" stroke="none" transform="matrix(0 -1 1 0 -37.5 27.5)" font-size="12" font-family="Segoe UI" x="-37.46875" y="54.5">
			100
	</text>
	<path fill="none" stroke="rgb(0,0,0)" stroke-width="1" stroke-miterlimit="4" transform="translate(40.5 5.5)" d="M0 0L0 100L150 100"/>
	<path fill="none" stroke="rgb(128,128,128)" stroke-width="1" stroke-miterlimit="4" transform="translate(40.5 5.5)" d="M15.7602 12.3132Q15.4579 12.7001 15.137 13.0717Q14.8162 13.4433 14.4774 13.7987Q14.1387 14.1541 13.7829 14.4925Q13.4271 14.8308 13.0552 15.1513Q12.6833 15.4718 12.296 15.7736Q11.9088 16.0755 11.5072 16.358Q11.1057 16.6405 10.6907 16.9029Q10.2758 17.1653 9.84847 17.4071Q9.42115 17.6489 8.98248 17.8694Q8.54381 18.0899 8.09485 18.2886Q7.64589 18.4873 7.18772 18.6638Q6.72955 18.8402 6.26328 18.994Q5.797 19.1477 5.32374 19.2784Q4.85048 19.4091 4.37138 19.5164Q3.89228 19.6237 3.40849 19.7074Q2.9247 19.7911 2.43739 19.8509"/>
	<text fill="rgb(0,0,0)" stroke="none" transform="translate(40.5 5.5)" font-size="12" font-family="Segoe UI" x="8" y="24">
			α
	</text>
</svg>
