<?xml version="1.0" encoding="UTF-8" standalone="no"?>
<!-- Created with Inkscape (http://www.inkscape.org/) -->

<svg
   xmlns:sketch="http://www.bohemiancoding.com/sketch/ns"
   xmlns:dc="http://purl.org/dc/elements/1.1/"
   xmlns:cc="http://creativecommons.org/ns#"
   xmlns:rdf="http://www.w3.org/1999/02/22-rdf-syntax-ns#"
   xmlns:svg="http://www.w3.org/2000/svg"
   xmlns="http://www.w3.org/2000/svg"
   xmlns:xlink="http://www.w3.org/1999/xlink"
   xmlns:sodipodi="http://sodipodi.sourceforge.net/DTD/sodipodi-0.dtd"
   xmlns:inkscape="http://www.inkscape.org/namespaces/inkscape"
   width="300"
   height="300"
   viewBox="0 0 300 300"
   id="svg2"
   version="1.1"
   inkscape:version="0.91 r13725"
   sodipodi:docname="logos.svg">
  <defs
     id="defs4">
    <linearGradient
       id="linearGradient4268"
       inkscape:collect="always">
      <stop
         id="stop4270"
         offset="0"
         style="stop-color:#0a0a15;stop-opacity:1" />
      <stop
         id="stop4272"
         offset="1"
         style="stop-color:#a0a1a5;stop-opacity:1" />
    </linearGradient>
    <linearGradient
       gradientTransform="translate(-1.2029526,0)"
       gradientUnits="userSpaceOnUse"
       y2="447.10251"
       x2="357.15652"
       y1="447.10251"
       x1="406.50748"
       id="linearGradient4274"
       xlink:href="#linearGradient4268"
       inkscape:collect="always" />
  </defs>
  <sodipodi:namedview
     id="base"
     pagecolor="#ffffff"
     bordercolor="#666666"
     borderopacity="1.0"
     inkscape:pageopacity="0.0"
     inkscape:pageshadow="2"
     inkscape:zoom="2.0507522"
     inkscape:cx="160.30019"
     inkscape:cy="146.36997"
     inkscape:document-units="px"
     inkscape:current-layer="svg2"
     showgrid="false"
     units="px"
     inkscape:window-width="1500"
     inkscape:window-height="937"
     inkscape:window-x="-8"
     inkscape:window-y="-8"
     inkscape:window-maximized="1" />
  <metadata
     id="metadata7">
    <rdf:RDF>
      <cc:Work
         rdf:about="">
        <dc:format>image/svg+xml</dc:format>
        <dc:type
           rdf:resource="http://purl.org/dc/dcmitype/StillImage" />
        <dc:title></dc:title>
      </cc:Work>
    </rdf:RDF>
  </metadata>
  <rect
     y="0"
     x="0"
     height="300"
     width="300"
     id="background"
     style="fill:#f8f8f8;fill-opacity:1;stroke:none;stroke-width:1;stroke-miterlimit:4;stroke-dasharray:none" />
  <g
     sketch:type="MSArtboardGroup"
     id="xamarin-logo"
     style="fill:#3498db;fill-rule:evenodd;stroke:none;stroke-width:1"
     transform="matrix(0.62679942,0,0,0.62679942,-1.3255766,-12.68059)">
    <path
       sketch:type="MSShapeGroup"
       id="xamarin-logo-path"
       d="m 201.83034,127.22472 -10.31613,-19.79433 -10.55162,19.79433 -11.34626,0 16.08736,-25.54678 -14.47767,-25.389497 11.50329,0 9.39336,19.289618 10.17875,-19.289618 10.52184,0 -14.8703,25.232217 15.10578,25.70406 -11.2284,0 z m 36.78545,0 0,-5.54373 -0.15715,0 c -2.80059,4.35111 -6.76582,6.52666 -11.89592,6.52666 -3.95221,0 -7.06686,-1.07466 -9.34394,-3.224 -2.27709,-2.17556 -3.41569,-5.08505 -3.41569,-8.72843 0,-7.81104 4.38413,-12.25387 13.15226,-13.32858 l 11.73889,-1.612 c 0,-5.478181 -2.53884,-8.217258 -7.61651,-8.217308 -4.84208,5e-5 -9.29165,1.49409 -13.34858,4.482181 l 0,-8.020732 c 1.51809,-0.917365 3.69045,-1.743029 6.5172,-2.477004 2.85301,-0.733875 5.44415,-1.100831 7.77366,-1.100881 10.36469,5e-5 15.54697,5.242358 15.54709,15.726924 l 0,25.5169 -8.95143,0 1.2e-4,0 z m -8.59809,-18.4398 c -2.69587,0.34077 -4.59346,1.00917 -5.69278,2.00518 -1.07316,0.96983 -1.60968,2.477 -1.60968,4.5215 0,1.67753 0.61509,3.05366 1.84529,4.12832 1.23006,1.04844 2.83975,1.57268 4.82893,1.57268 2.69587,0 4.92065,-0.93052 6.67435,-2.79153 1.75358,-1.86102 2.63043,-4.18072 2.63043,-6.95916 l 0,-3.61719 -8.67654,1.1402 0,0 z m 75.43458,18.4398 0,-22.72539 c -1.3e-4,-3.74821 -0.58895,-6.526634 -1.76672,-8.335237 -1.15174,-1.834781 -3.2195,-2.752197 -6.20314,-2.752235 -2.38194,3.8e-5 -4.38413,1.100919 -6.00683,3.302656 -1.62283,2.175598 -2.43424,4.809856 -2.43424,7.902776 l 0,22.60743 -9.06905,0 0,-23.51172 c -1.2e-4,-6.867399 -2.63055,-10.301104 -7.89141,-10.301142 -2.46026,3.8e-5 -4.48873,1.035395 -6.0854,3.106083 -1.5704,2.070739 -2.35554,4.770509 -2.35554,8.099349 l 0,22.60743 -9.06918,0 0,-40.260872 9.06918,0 0,6.212128 0.15703,0 c 2.90532,-4.79667 7.14543,-7.19503 12.72047,-7.19508 2.66959,5e-5 5.02525,0.70776 7.06686,2.123155 2.06763,1.389231 3.52029,3.315776 4.35785,5.779623 3.06235,-5.268473 7.56422,-7.902728 13.50561,-7.902778 8.74185,5e-5 13.11285,5.452051 13.11297,16.356014 l 0,24.88781 -9.10846,0 0,0 z m 39.25884,0 0,-5.54373 -0.15715,0 c -2.80059,4.35111 -6.76594,6.52666 -11.89592,6.52666 -3.95221,0 -7.06685,-1.07466 -9.34394,-3.224 -2.27708,-2.17556 -3.41569,-5.08505 -3.41569,-8.72843 0,-7.81104 4.38413,-12.25387 13.15227,-13.32858 l 11.73889,-1.612 c 0,-5.478181 -2.53884,-8.217258 -7.61652,-8.217308 -4.8422,5e-5 -9.29164,1.49409 -13.34858,4.482181 l 0,-8.020732 c 1.5181,-0.917365 3.69046,-1.743029 6.5172,-2.477004 2.85289,-0.733875 5.44416,-1.100831 7.77355,-1.100881 10.3648,5e-5 15.54709,5.242358 15.54721,15.726924 l 0,25.5169 -8.95144,0 1.2e-4,0 z m -8.59809,-18.4398 c -2.69599,0.34077 -4.59346,1.00917 -5.69277,2.00518 -1.07317,0.96983 -1.60969,2.477 -1.60969,4.5215 0,1.67753 0.6151,3.05366 1.84529,4.12832 1.23007,1.04844 2.83976,1.57268 4.82894,1.57268 2.69587,0 4.92065,-0.93052 6.67435,-2.79153 1.75358,-1.86102 2.63043,-4.18072 2.63043,-6.95916 l 0,-3.61719 -8.67655,1.1402 0,0 z m 47.92839,-12.974701 c -1.49182,-0.917378 -3.24552,-1.376061 -5.26086,-1.376086 -2.61741,2.5e-5 -4.75048,1.127121 -6.39946,3.381275 -1.6227,2.254222 -2.43412,5.189912 -2.43412,8.807072 l 0,20.60224 -9.06916,0 0,-40.260872 9.06916,0 0,7.824121 0.15717,0 c 1.93674,-5.687845 5.36558,-8.531793 10.28622,-8.531844 1.59655,5.1e-5 2.81361,0.183491 3.65118,0.55046 l 0,9.003634 -1.3e-4,0 z m 9.02839,-17.850017 c -1.54426,2.5e-5 -2.8529,-0.49798 -3.92607,-1.494077 -1.07304,-1.022174 -1.60956,-2.267249 -1.60956,-3.735137 0,-1.520216 0.53652,-2.79148 1.60956,-3.813755 1.07317,-1.022224 2.38181,-1.533336 3.92607,-1.533399 1.5704,6.3e-5 2.89218,0.524308 3.96534,1.572709 1.07305,1.022287 1.60969,2.280444 1.60969,3.774445 0,1.467888 -0.53664,2.712963 -1.60969,3.735137 -1.07316,0.996097 -2.39494,1.494102 -3.96534,1.494077 z m -4.63274,49.264518 0,-40.260872 9.06916,0 0,40.260872 -9.06916,0 z m 43.3453,0 0,-22.60743 c 0,-7.470245 -2.68285,-11.205394 -8.04831,-11.205432 -2.69598,3.8e-5 -4.95994,1.035395 -6.79209,3.106083 -1.806,2.044524 -2.709,4.652579 -2.709,7.824119 l 0,22.88266 -9.06918,0 0,-40.260872 9.06918,0 0,6.44801 0.15715,0 c 2.93148,-4.953933 7.27619,-7.430912 13.0344,-7.430962 8.95143,5e-5 13.42703,5.504443 13.42716,16.513274 l 0,24.73055 -9.06918,0 -1.3e-4,0 z M 71.431112,56 c -2.754801,0.0059 -5.451442,1.573792 -6.838227,3.965729 L 43.023892,97.534256 c -1.365189,2.398342 -1.365189,5.533144 0,7.931484 l 21.568993,37.56853 c 1.386931,2.39196 4.083426,3.96031 6.838227,3.96573 l 43.137838,0 c 2.7548,-0.006 5.45129,-1.57377 6.83822,-3.96573 l 21.56899,-37.56853 c 1.36519,-2.39834 1.36505,-5.533142 0,-7.931484 L 121.40717,59.965729 C 120.02024,57.573792 117.32375,56.005418 114.56895,56 l -43.137838,0 z m 0.391478,21.978043 c 0.05926,-0.0059 0.121413,-0.0059 0.180856,0 l 7.440628,0 c 0.329363,0.0068 0.648846,0.197691 0.813324,0.484356 l 12.62213,22.553241 c 0.06353,0.11151 0.104471,0.23574 0.120004,0.36326 0.01554,-0.12755 0.05644,-0.25179 0.120004,-0.36326 L 105.71146,78.462399 c 0.16969,-0.295354 0.50414,-0.487265 0.84339,-0.484356 l 7.44063,0 c 0.65888,0.0059 1.15229,0.837964 0.84354,1.422825 l -12.32072,22.099142 12.32072,22.06886 c 0.33798,0.58822 -0.16758,1.45891 -0.84354,1.45309 l -7.44063,0 c -0.34518,-0.003 -0.6816,-0.20812 -0.84339,-0.51463 L 93.119536,101.95409 c -0.06353,-0.11151 -0.10447,-0.23576 -0.120004,-0.36327 -0.01554,0.12754 -0.05644,0.25181 -0.120004,0.36327 l -12.62213,22.55324 c -0.156988,0.29784 -0.478171,0.50107 -0.813324,0.51463 l -7.440628,0 c -0.675959,0.006 -1.18138,-0.86487 -0.8434,-1.45309 L 83.480762,101.50001 71.160046,79.400868 c -0.295342,-0.533618 0.06499,-1.308926 0.662544,-1.422825 l 0,0 z"
       inkscape:connector-curvature="0" />
  </g>
  <g
     transform="matrix(0.07256145,0,0,0.07256145,198.05046,200.97034)"
     id="microsoft-logo">
    <path
       inkscape:connector-curvature="0"
       id="microsoft-text"
       d="m -618.36306,-744.9124 c -35.8206,-4.4149 -65.8108,-17.8631 -88.7939,-39.817 -11.9596,-11.424 -20.5824,-22.9483 -28.0589,-37.5004 -13.0001,-25.303 -18.0935,-47.4296 -18.1289,-78.75562 -0.09,-79.7241 38.0373,-138.45128 105.0247,-161.76808 30.137,-10.49 68.213,-12.8928 101.806,-6.4245 12.2106,2.3511 30.1263,7.9277 34.901,10.8636 l 3.25,1.9984 0,33.5147 c 0,20.9573 -0.363,33.51466 -0.9688,33.51466 -0.5329,0 -4.1718,-2.07197 -8.0865,-4.60439 -33.4181,-21.61807 -74.3209,-25.83307 -106.4834,-10.97307 -20.2531,9.35749 -37.7692,28.13484 -46.3968,49.73755 -10.7737,26.97606 -11.5167,64.00217 -1.8432,91.83995 12.5099,35.9997 42.1671,57.4969 82.3389,59.6835 6.7875,0.3695 14.3205,0.1284 19.5,-0.6241 16.5179,-2.3998 40.8396,-11.8779 55.0679,-21.4598 2.9399,-1.9798 5.6887,-3.5996 6.1086,-3.5996 0.4198,0 0.7633,14.3896 0.7633,31.9769 l 0,31.977 -2.4908,1.632 c -4.3126,2.8257 -19.9083,9.1906 -29.1371,11.8913 -17.0739,4.9965 -30.09,6.7114 -53.3721,7.0322 -11.825,0.1629 -23.075,0.1021 -25,-0.1352 z m 491,-0.4195 c -61.5391,-7.4814 -106.5738,-42.7157 -124.8825,-97.7057 -12.2809,-36.88594 -12.2649,-87.52821 0.04,-126.12865 11.8798,-37.26685 36.7365,-67.36875 69.7443,-84.46155 25.7897,-13.355 52.0371,-19.0326 87.5983,-18.9486 20.6296,0.049 34.3626,1.6403 50.3221,5.8322 52.3539,13.751 88.2486,52.1458 100.5339,107.53619 3.4554,15.57931 4.6455,27.80731 4.6358,47.63196 -0.017,35.09952 -5.7935,61.48695 -19.1206,87.34625 -21.1474,41.0335 -58.4757,67.9005 -106.9942,77.0088 -12.9169,2.4249 -48.5271,3.512 -61.877,1.8891 z m 52,-60.4085 c 11.5116,-2.6322 24.7545,-9.4496 32.5847,-16.7744 19.7383,-18.4642 28.85,-45.9557 28.7594,-86.77184 -0.083,-37.44198 -7.8728,-61.97043 -25.6108,-80.64389 -12.8996,-13.57997 -29.4649,-21.35387 -49.5246,-23.24137 -18.8437,-1.773 -34.5742,0.867 -49.7087,8.3425 -23.3294,11.52328 -37.9694,32.16737 -44.7077,63.04276 -2.8984,13.28112 -3.5981,44.10914 -1.3503,59.5 6.2408,42.73184 30.3695,70.51264 67.2918,77.47734 10.0724,1.8999 31.9974,1.4169 42.2662,-0.9311 z m 232,59.8238 c -18.4566,-2.5035 -41.4615,-8.3555 -54.25,-13.8003 l -3.75,-1.5965 0,-34.4867 c 0,-18.9676 0.2111,-34.4865 0.4691,-34.4865 0.258,0 3.7999,2.1743 7.8708,4.8319 33.4265,21.821 79.5029,30.4301 107.2672,20.0421 12.0521,-4.5093 19.3929,-15.1952 19.3929,-28.2301 0,-20.1892 -9.9133,-28.8002 -56,-48.64354 -46.7657,-20.13571 -64.917,-35.49473 -73.863,-62.5004 -7.9174,-23.9007 -6.3341,-50.49018 4.2874,-71.99996 21.3116,-43.1589 78.9762,-64.3632 144.0756,-52.9792 12.0133,2.1008 28.0056,6.187 33.25,8.4957 l 4.25,1.871 0,32.5562 c 0,17.906 -0.179,32.55626 -0.3978,32.55626 -0.2188,0 -3.2563,-1.72304 -6.75,-3.82898 -23.2542,-14.01718 -58.3976,-21.30408 -80.3348,-16.65728 -9.7294,2.061 -16.3871,5.5979 -22.2945,11.8441 -7.7765,8.22254 -9.915,17.72541 -6.7357,29.93162 1.8249,7.00634 5.162,12.44611 10.1931,16.61561 4.8939,4.05575 23.6876,13.66022 38.3782,19.61308 33.9468,13.75577 55.1904,27.238 67.553,42.87254 11.817,14.94448 16.7793,30.73685 16.688,53.10935 -0.06,14.5822 -1.3233,21.586 -6.2628,34.7072 -2.6032,6.9155 -10.0164,18.4112 -16.4732,25.5457 -13.0447,14.4135 -36.6733,27.1141 -60.0635,32.2848 -18.0662,3.9937 -46.8175,5.0021 -66.5,2.3323 z m 315,0 c -64.6749,-8.7507 -110.3779,-49.3782 -125.1339,-111.2373 -5.0024,-20.97081 -6.3893,-54.17279 -3.2703,-78.2946 8.2397,-63.7261 43.5815,-109.1448 99.4042,-127.7471 22.6829,-7.5588 53.4245,-11.0975 79.5547,-9.1577 42.6412,3.1655 73.016,15.7361 98.0143,40.5631 29.0216,28.8226 43.431,68.82428 43.431,120.56768 0,40.03132 -9.3037,73.74032 -28.1696,102.06422 -7.953,11.9401 -26.3117,30.3913 -37.8304,38.0211 -21.6606,14.3476 -45.5653,22.6536 -74.2106,25.7854 -13.2086,1.444 -39.0231,1.1625 -51.7894,-0.5648 z m 57.5,-60.2693 c 39.7844,-10.3282 59.5147,-44.4498 59.4941,-102.88872 -0.01,-24.84972 -2.6825,-40.18597 -10.0031,-57.37651 -14.0487,-32.9897 -45.7394,-50.43727 -84.9158,-46.75107 -41.032,3.8608 -67.4335,30.88588 -75.6256,77.41196 -2.4127,13.70286 -2.4585,42.36769 -0.088,55.5 7.8022,43.23404 30.4681,68.43574 67.9805,75.58604 10.3578,1.9743 32.8158,1.2033 43.1584,-1.4817 z m 453,60.3477 c -41.6028,-7.7392 -63.4111,-32.8783 -68.4912,-78.952 -0.5779,-5.2411 -0.9958,-44.731 -1.0006,-94.55004 -0.01,-65.19631 -0.2937,-85.83546 -1.2082,-86.74996 -1.8615,-1.8615 -110.1251,-1.7182 -111.6737,0.1478 -0.8088,0.9745 -1.1889,36.35621 -1.3724,127.74997 l -0.2539,126.40583 -36,0 -36,0 -0.2539,-126.40223 c -0.1835,-91.39376 -0.5636,-126.77547 -1.3724,-127.74997 -0.8833,-1.0643 -6.3512,-1.3478 -25.9961,-1.3478 l -24.8776,0 0,-28.9832 0,-28.9831 25.75,-0.2669 25.75,-0.2668 0.6357,-31 c 0.7073,-34.4904 1.6149,-41.0164 8.1004,-58.242 10.2035,-27.1004 31.8411,-48.8153 59.1268,-59.3377 15.903,-6.1329 23.8112,-7.36 47.6371,-7.3917 20.6028,-0.027 24.2,0.3244 36.25,3.5459 l 3.75,1.0025 0,30.5685 c 0,28.7072 -0.1066,30.5267 -1.75,29.8831 -11.1104,-4.3512 -17.5428,-5.7638 -28.5358,-6.2668 -14.1739,-0.6486 -21.7296,1.0095 -30.5355,6.7011 -6.8508,4.4278 -11.1321,9.5675 -15.152,18.1899 -4.8343,10.3691 -6.1029,20.9633 -5.7953,48.3964 l 0.2686,23.9508 56.5,0 56.5,0 0.2626,-35.75 c 0.1445,-19.6625 0.4136,-35.75 0.5981,-35.75 0.1845,0 15.7722,-4.725 34.6393,-10.5 18.8671,-5.775 34.9105,-10.5 35.6519,-10.5 1.111,0 1.3481,7.9814 1.3481,45.3775 0,36.6607 0.2569,45.5908 1.3372,46.4874 0.9124,0.7571 12.9069,1.1932 37.74996,1.3724 l 36.4128,0.2627 0,28.5 0,28.5 -36.4128,0.2626 c -24.84306,0.1792 -36.83756,0.6153 -37.74996,1.3725 -1.095,0.9087 -1.3372,14.99376 -1.3372,77.76354 0,87.79286 0.4132,94.19016 6.9061,106.91726 9.42686,18.4782 39.48706,23.8705 62.77006,11.2599 3.7275,-2.0189 5.5814,-2.5681 5.8966,-1.7468 0.2528,0.6589 0.3399,13.7896 0.1934,29.1794 l -0.2662,27.9815 -6,2.39 c -3.3,1.3145 -11.175,3.4966 -17.5,4.8491 -14.814,3.1678 -42.09676,4.0304 -54.49996,1.723 z m -2410.03264,-6.6887 c -0.2641,-0.6948 -0.3648,-99.3633 -0.2238,-219.26334 l 0.2564,-217.99996 53.1203,-0.2587 c 41.7621,-0.2034 53.3255,0.01 54.0799,1 0.5277,0.6922 7.0818,16.7837 14.5646,35.7587 7.4828,18.975 28.2797,71.625 46.2153,117 17.9356,45.37496 39.6161,100.27496 48.1788,121.99996 19.0868,48.42614 19.8322,50.13254 21.6009,49.45384 0.7581,-0.2909 31.122,-73.52455 67.4753,-162.7414 l 66.0971,-162.2088 51.5861,-0.259 51.58624,-0.259 -0.2523,219.25896 -0.2522,219.25904 -36.25,0.2625 -36.25004,0.2624 -0.015,-168.26247 c -0.01,-92.54433 -0.3999,-168.86923 -0.8698,-169.61083 -2.4631,-3.8866 -4.4303,-0.4664 -14.8681,25.8484 -5.7811,14.575 -21.048,53.05 -33.9264,85.49996 -12.8783,32.45 -34.0297,85.775 -47.003,118.50004 -12.9733,32.725 -27.9145,70.3 -33.2026,83.5 l -9.6148,24 -25.6138,0.2666 c -19.7464,0.2055 -25.8369,-0.024 -26.5878,-1 -0.5358,-0.6966 -7.0958,-16.5666 -14.5778,-35.2666 -7.482,-18.7 -25.1314,-62.575 -39.2208,-97.50004 -14.0893,-34.925 -35.3111,-87.575 -47.1595,-116.99996 -37.793,-93.8576 -35.3375,-88.1427 -37.7259,-87.8018 l -2.1147,0.3018 -0.5,168.99996 -0.5,169.00004 -33.7763,0.2633 c -26.485,0.2065 -33.8799,-0.01 -34.2563,-1 z m 548.99934,-5e-4 c -0.2642,-0.6945 -0.3648,-71.2378 -0.2235,-156.76284 l 0.2568,-155.49996 35.7531,-0.2627 35.7531,-0.2626 -0.2531,156.76263 -0.2531,156.76267 -35.2765,0.2628 c -27.6855,0.2063 -35.3798,-0.01 -35.7568,-1 z m 429,0 c -0.2642,-0.6945 -0.3648,-71.2378 -0.2235,-156.76284 l 0.2568,-155.49996 35.7334,-0.2627 35.7333,-0.2626 0.2667,26.2494 c 0.236,23.2333 0.4521,26.285 1.8813,26.5599 1.1354,0.2183 2.2708,-1.3062 3.8255,-5.1367 7.3175,-18.0291 21.4333,-34.6652 36.6889,-43.2395 12.5417,-7.0489 19.1012,-8.6695 36.8709,-9.1097 13.0854,-0.3241 17.2751,-0.069 23,1.4028 l 7,1.7991 0.2628,35.8618 c 0.2094,28.586 0.01,35.74925 -1,35.30656 -34.1817,-15.03326 -59.867,-13.42796 -79.7547,4.98457 -10.4761,9.69902 -17.3739,20.71776 -22.4123,35.80196 -6.0207,18.02519 -5.9646,17.04884 -6.5545,114.04511 l -0.5413,89 -35.2765,0.2628 c -27.6855,0.2063 -35.3798,-0.01 -35.7568,-1 z m -402.3584,-364.8408 c -12.8297,-2.5197 -24.1091,-11.0945 -29.836,-22.6819 -3.6128,-7.3101 -3.7716,-8.0578 -3.7548,-17.6847 0.016,-9.1542 0.2961,-10.6433 3.1382,-16.6752 8.6925,-18.4488 27.3653,-28.1482 47.8803,-24.8709 21.1111,3.3725 36.4151,20.8111 36.4151,41.4943 0,26.7898 -25.5555,45.9736 -53.8428,40.4184 z"
       style="fill:#727272"
       sodipodi:nodetypes="csssssscssssssssssscsssccssscsssssccsssssssssssccsscssssssccsssssssssccssssssssssssssccssscscccscscscccscscccccssscscssscsscccssssscscccscssscscsscccscscssssscccccccccsssscscsssccccscccscccccsccscccscsssccscssscscccssssc" />
    <rect
       style="fill:#f04f21;fill-opacity:1;stroke:none;stroke-opacity:1"
       id="red-block"
       width="348"
       height="348"
       x="-2384.863"
       y="-1337.9497" />
    <rect
       y="-951.78662"
       x="-2384.8816"
       height="348"
       width="348"
       id="blue-block"
       style="fill:#02a3ed;fill-opacity:1;stroke:none;stroke-opacity:1" />
    <rect
       y="-1338.0554"
       x="-1998.9432"
       height="348"
       width="348"
       id="green-block"
       style="fill:#7db800;fill-opacity:1;stroke:none;stroke-opacity:1" />
    <rect
       style="fill:#fbb803;fill-opacity:1;stroke:none;stroke-opacity:1"
       id="yellow-block"
       width="348"
       height="348"
       x="-1998.8816"
       y="-951.78662" />
  </g>
  <g
     inkscape:export-ydpi="38.400002"
     inkscape:export-xdpi="38.400002"
     transform="matrix(0.78379448,0,0,0.78379448,-150.02532,-86.00695)"
     id="g4166">
    <path
       inkscape:connector-curvature="0"
       id="path4384"
       style="font-style:normal;font-variant:normal;font-weight:bold;font-stretch:normal;font-size:medium;line-height:125%;font-family:sans-serif;-inkscape-font-specification:'sans-serif Bold';letter-spacing:0px;word-spacing:0px;fill:#292929;fill-opacity:1;stroke:none;stroke-width:1px;stroke-linecap:butt;stroke-linejoin:miter;stroke-opacity:1"
       d="m 329.70121,408.65024 q 0,9.11912 -6.25838,14.8393 -6.22491,5.67873 -16.93445,5.67873 -6.19144,0 -10.80993,-1.32642 -4.58502,-1.36787 -8.60109,-3.4404 l 0,-14.79785 1.40562,0 q 3.98261,3.9378 8.90231,6.05178 4.95315,2.11398 9.5047,2.11398 1.17136,0 3.07899,-0.24871 1.90764,-0.2487 3.11246,-0.82901 1.47256,-0.7461 2.40964,-1.86527 0.97055,-1.11917 0.97055,-3.31605 0,-2.03107 -1.40563,-3.48184 -1.37215,-1.49222 -4.04954,-2.27979 -2.81124,-0.829 -5.95717,-1.53367 -3.11246,-0.74611 -5.85678,-1.86527 -6.29184,-2.52849 -9.06963,-6.83934 -2.74431,-4.35232 -2.74431,-10.77715 0,-8.62172 6.22491,-14.05174 6.25838,-5.47148 16.0643,-5.47148 4.91969,0 9.7055,1.20207 4.8193,1.16061 8.33336,2.94299 l 0,14.21754 -1.37216,0 q -3.01205,-2.98443 -7.39627,-4.97407 -4.35074,-2.03107 -8.90229,-2.03107 -1.60643,0 -3.21286,0.29015 -1.57297,0.2487 -3.04553,0.99481 -1.30522,0.62176 -2.2423,1.90673 -0.93709,1.24351 -0.93709,2.86009 0,2.44558 1.50603,3.772 1.50603,1.28497 5.68944,2.36269 2.74431,0.70465 5.25436,1.36786 2.54352,0.66321 5.45517,1.82382 5.7229,2.32124 8.43375,6.34194 2.74432,3.97926 2.74432,10.36265 z" />
    <path
       inkscape:connector-curvature="0"
       id="path4387"
       style="font-style:normal;font-variant:normal;font-weight:bold;font-stretch:normal;font-size:medium;line-height:125%;font-family:sans-serif;-inkscape-font-specification:'sans-serif Bold';letter-spacing:0px;word-spacing:0px;fill:#292929;fill-opacity:1;stroke:none;stroke-width:1px;stroke-linecap:butt;stroke-linejoin:miter;stroke-opacity:1"
       d="m 392.34976,428.454 -18.03859,0 -17.04283,-24.79413 -3.44686,4.53449 0,20.25964 -14.70662,0 0,-61.94373 14.70662,0 0,28.039 20.3748,-28.039 17.04283,0 -22.28973,28.66301 23.40038,33.28072 z" />
    <path
       inkscape:connector-curvature="0"
       id="path4381"
       style="font-style:normal;font-variant:normal;font-weight:bold;font-stretch:normal;font-size:medium;line-height:125%;font-family:sans-serif;-inkscape-font-specification:'sans-serif Bold';letter-spacing:0px;word-spacing:0px;fill:#292929;fill-opacity:1;stroke:none;stroke-width:1px;stroke-linecap:butt;stroke-linejoin:miter;stroke-opacity:1"
       d="m 478.47406,427.89435 -15.66555,0 -4.06436,-12.52187 -21.78182,0 -4.06436,12.52187 -15.27096,0 21.7029,-61.94372 17.44125,0 21.7029,61.94372 z m -23.39968,-23.87891 -7.22115,-22.21488 -7.22114,22.21488 14.44229,0 z" />
    <circle
       style="fill:#292929;fill-opacity:1;stroke:none;stroke-width:1;stroke-miterlimit:4;stroke-dasharray:none"
       id="path4211"
       cx="403.59976"
       cy="352.14795"
       r="10.75" />
    <rect
       y="365.86929"
       x="406.69977"
       height="61.944"
       width="6.1999998"
       id="rect4237"
       style="fill:#2f459d;fill-opacity:1;stroke:none;stroke-width:1;stroke-miterlimit:4;stroke-dasharray:none" />
    <rect
       style="fill:#8dba57;fill-opacity:1;stroke:none;stroke-width:1;stroke-miterlimit:4;stroke-dasharray:none"
       id="rect4215"
       width="6.1999998"
       height="61.944"
       x="400.49976"
       y="365.86929" />
    <rect
       style="fill:#ca513a;fill-opacity:1;stroke:none;stroke-width:1;stroke-miterlimit:4;stroke-dasharray:none"
       id="rect4239"
       width="6.1999998"
       height="61.944"
       x="394.29974"
       y="365.86929" />
    <path
       style="fill:#292929;fill-opacity:1;stroke:none;stroke-width:1;stroke-miterlimit:4;stroke-dasharray:none"
       d="m 394.1001,432.14557 18.6,0 -9.3,12.41783 z"
       id="rect4252"
       inkscape:connector-curvature="0"
       sodipodi:nodetypes="cccc" />
    <ellipse
       style="fill:url(#linearGradient4274);fill-opacity:1;stroke:none;stroke-width:1;stroke-miterlimit:4;stroke-dasharray:none"
       id="path4258"
       cx="380.53616"
       cy="446.63116"
       rx="24.890007"
       ry="1.9389671" />
  </g>
  <text
     xml:space="preserve"
     style="font-style:normal;font-weight:normal;font-size:10.17074776px;line-height:125%;font-family:sans-serif;text-align:center;letter-spacing:0px;word-spacing:0px;text-anchor:middle;fill:#000000;fill-opacity:1;stroke:none;stroke-width:1px;stroke-linecap:butt;stroke-linejoin:miter;stroke-opacity:1"
     x="150"
     y="287.89929"
     id="text4392"
     sodipodi:linespacing="125%">all logos are copyright of their respective owners</text>
</svg>
