<svg xmlns="http://www.w3.org/2000/svg" viewBox="0 0 64 64">
  <defs>
    <style>
      .cls-1 {
        fill: #666;
      }

      .cls-2 {
        fill: #2bc7f4;
      }

      .cls-3 {
        fill: #11161a;
      }

      .cls-4, .cls-7, .cls-8 {
        fill: none;
        stroke-miterlimit: 10;
      }

      .cls-4 {
        stroke: #000;
      }

      .cls-4, .cls-8 {
        stroke-width: 2px;
      }

      .cls-5 {
        fill: #ace8f9;
      }

      .cls-6 {
        fill: #fff;
      }

      .cls-7 {
        stroke: #55d2f6;
      }

      .cls-8 {
        stroke: #ace8f9;
      }
    </style>
  </defs>
  <title>i_android-wear</title>
  <g id="ICONS-64x">
    <g>
      <g>
        <path class="cls-1" d="M21.24,45.14l1.07,16.73A2.15,2.15,0,0,0,24.46,64H38.41a2.15,2.15,0,0,0,2.15-2.14l1.07-16.73A2.15,2.15,0,0,0,39.48,43H23.39A2.15,2.15,0,0,0,21.24,45.14Z"/>
        <path class="cls-1" d="M21.24,19.76,22.32,2.24A2.2,2.2,0,0,1,24.46,0H38.41a2.2,2.2,0,0,1,2.15,2.24l1.07,17.53A2.2,2.2,0,0,1,39.48,22H23.39A2.2,2.2,0,0,1,21.24,19.76Z"/>
        <path class="cls-2" d="M31.17,12.61a20.26,20.26,0,0,0-14.45,6c-.4.4-.79.82-1.15,1.26a20.34,20.34,0,1,0,31.21,0c-.36-.44-.75-.86-1.15-1.26A20.29,20.29,0,0,0,31.17,12.61Z"/>
        <rect x="50.02" y="31.63" width="4.61" height="3.51" rx="1.64" ry="1.64" transform="translate(18.94 85.7) rotate(-90)"/>
        <path class="cls-3" d="M31.17,53.39A21.58,21.58,0,0,1,16.72,48H45.63A21.61,21.61,0,0,1,31.17,53.39Z"/>
        <circle class="cls-4" cx="30.89" cy="33" r="20"/>
        <path class="cls-5" d="M30.89,43a10,10,0,1,1,10-10A10,10,0,0,1,30.89,43Z"/>
        <circle class="cls-6" cx="30.89" cy="33" r="6"/>
      </g>
      <line class="cls-7" x1="34.11" y1="36.22" x2="27.67" y2="29.78"/>
      <line class="cls-7" x1="27.67" y1="36.22" x2="34.11" y2="29.78"/>
      <line class="cls-8" x1="39" y1="20" x2="23" y2="20"/>
    </g>
  </g>
</svg>
