<svg xmlns="http://www.w3.org/2000/svg" viewBox="0 0 64 64">
  <defs>
    <style>
      .cls-1, .cls-4 {
        fill: #fff;
      }

      .cls-2 {
        fill: #e5e5e5;
      }

      .cls-3 {
        fill: none;
      }

      .cls-3, .cls-4 {
        stroke: #556a8a;
        stroke-miterlimit: 10;
        stroke-width: 2px;
      }

      .cls-5 {
        fill: #556a8a;
      }

      .cls-6 {
        fill: #2bc7f4;
      }
    </style>
  </defs>
  <title>i_data-cloud-services</title>
  <g id="ICONS-64x">
    <path class="cls-1" d="M63,42.41c0,8-4.37,11.29-8,12.62a15.79,15.79,0,0,1-4.62.91c-.1,0-32,0-32,0C5.84,56.9,1,46.71,1,40.09s4.16-12.26,9.82-13.57a13.81,13.81,0,0,1,6.1-9.76A11,11,0,0,1,22.83,15a11.6,11.6,0,0,1,9.31,4.9,10.62,10.62,0,0,1,16,11.37A11.61,11.61,0,0,1,63,42.41Z"/>
    <path class="cls-2" d="M63,42.41C63,50.45,58,56,49,56L13.08,20.92l3.84-4.16A11,11,0,0,1,22.83,15a11.6,11.6,0,0,1,9.31,4.9,10.62,10.62,0,0,1,16,11.37A11.61,11.61,0,0,1,63,42.41Z"/>
    <path class="cls-3" d="M63,42.41A11.6,11.6,0,0,0,48.19,31.27a10.64,10.64,0,0,0-16-11.37A11.61,11.61,0,0,0,22.83,15c-6,0-11.07,5-12,11.52C5.16,27.83,1,33.49,1,40.09S5.84,56.9,18.44,55.94c0,0,31.87,0,32,0S63,55.94,63,42.41Z"/>
    <g>
      <g>
        <rect class="cls-4" x="33" y="6" width="21" height="37"/>
        <g>
          <polygon class="cls-2" points="53 42 43 42 43.08 7 53 7 53 42"/>
          <rect class="cls-5" x="33.65" y="9" width="20" height="2"/>
        </g>
      </g>
      <rect class="cls-6" x="36" y="9" width="7" height="2"/>
      <rect class="cls-5" x="33.65" y="13" width="20" height="2"/>
      <rect class="cls-6" x="36" y="13" width="7" height="2"/>
      <rect class="cls-5" x="33.65" y="17" width="20" height="2"/>
      <rect class="cls-6" x="36" y="17" width="7" height="2"/>
    </g>
  </g>
</svg>
