<svg xmlns="http://www.w3.org/2000/svg" viewBox="0 0 64 64">
  <defs>
    <style>
      .cls-1 {
        fill: #606060;
      }

      .cls-2 {
        fill: #484949;
      }

      .cls-3 {
        fill: #4c4944;
      }

      .cls-4 {
        fill: #c2c2c2;
      }

      .cls-5, .cls-6, .cls-7 {
        fill: none;
        stroke-miterlimit: 10;
      }

      .cls-5 {
        stroke: #556a8a;
      }

      .cls-5, .cls-7 {
        stroke-width: 2px;
      }

      .cls-6 {
        stroke: #c2c2c2;
        stroke-width: 1px;
      }

      .cls-7 {
        stroke: #e5e5e5;
      }

      .cls-8 {
        fill: #fff;
      }
    </style>
  </defs>
  <title>i_watch-os</title>
  <g id="ICONS-64x">
    <g>
      <path class="cls-1" d="M38.76,64c3.86-.64,4.51,0,4.83-6.37A35.83,35.83,0,0,1,47.13,45H18.47A35.83,35.83,0,0,1,22,57.63c.32,6.37,1,5.74,4.83,6.37Z"/>
      <path class="cls-1" d="M38.76,0c3.86.64,4.51,0,4.83,6.37A35.83,35.83,0,0,0,47.13,19H18.47A35.83,35.83,0,0,0,22,6.37C22.34,0,23,.64,26.84,0Z"/>
      <rect class="cls-2" x="15.57" y="12.03" width="34.14" height="39.93" rx="12" ry="12"/>
      <g>
        <rect class="cls-3" x="49.39" y="21.05" width="3.54" height="7.41" rx="1.76" ry="1.76"/>
        <path class="cls-4" d="M46,15H20c-.53,0,1.14-.43,1.14-1h0c0-.53,1.33-2,1.86-2H42c.53,0,2.14,1.5,2.14,2H45C45,14.57,46.53,15,46,15Z"/>
        <rect class="cls-5" x="15.98" y="12" width="34" height="40" rx="12" ry="12"/>
        <circle class="cls-6" cx="32.98" cy="32.64" r="12"/>
      </g>
    </g>
    <line class="cls-7" x1="19" y1="32" x2="23" y2="32"/>
    <line class="cls-7" x1="42" y1="32" x2="46" y2="32"/>
    <line class="cls-7" x1="22" y1="24" x2="25" y2="26"/>
    <line class="cls-7" x1="44" y1="24" x2="41" y2="26"/>
    <line class="cls-7" x1="22" y1="42" x2="25" y2="40"/>
    <line class="cls-7" x1="44" y1="42" x2="41" y2="40"/>
    <line class="cls-7" x1="32.96" y1="46" x2="32.96" y2="42"/>
    <line class="cls-7" x1="32.96" y1="23" x2="32.96" y2="19"/>
    <circle class="cls-8" cx="33" cy="32" r="2"/>
  </g>
</svg>
