<?xml version="1.0" encoding="utf-8" ?>
<svg xmlns="http://www.w3.org/2000/svg" xmlns:xlink="http://www.w3.org/1999/xlink" width="150" height="90">
	<path fill="none" stroke="rgb(0,0,0)" stroke-width="1" stroke-linecap="round" stroke-linejoin="round" transform="matrix(1.5 0 0 1.5 82.5 45)" d="M20 21.6506Q19.1496 21.9575 18.2762 22.2379Q17.4027 22.5183 16.5083 22.7716Q15.6139 23.0249 14.7006 23.2504Q13.7874 23.476 12.8576 23.6733Q11.9277 23.8705 10.9835 24.039Q10.0393 24.2076 9.08305 24.3469Q8.12675 24.4863 7.16067 24.5961Q6.19459 24.706 5.22105 24.7861Q4.2475 24.8662 3.26884 24.9164Q2.29018 24.9665 1.30876 24.9866Q0.327342 25.0067 -0.654472 24.9967Q-1.63629 24.9866 -2.61613 24.9465Q-3.59597 24.9063 -4.57148 24.8362Q-5.54699 24.7661 -6.51582 24.6661Q-7.48465 24.5661 -8.44446 24.4366Q-9.40428 24.307 -10.3528 24.1481Q-11.3012 23.9893 -12.2361 23.8016Q-13.171 23.6138 -14.09 23.3977Q-15.009 23.1815 -15.9099 22.9374Q-16.8109 22.6933 -17.6915 22.4218Q-18.5722 22.1504 -19.4305 21.8523Q-20.2888 21.5541 -21.1227 21.2301Q-21.9566 20.906 -22.764 20.5567Q-23.5714 20.2074 -24.3505 19.8338Q-25.1295 19.4602 -25.8782 19.0632Q-26.627 18.6661 -27.3437 18.2466Q-28.0604 17.8271 -28.7433 17.3861Q-29.4261 16.9451 -30.0736 16.4836Q-30.721 16.0222 -31.3315 15.5415Q-31.9419 15.0608 -32.5139 14.5619Q-33.0858 14.0631 -33.6179 13.5473Q-34.15 13.0315 -34.641 12.5Q-36.3908 10.6058 -37.5877 8.55051"/>
</svg>
