<?xml version="1.0" encoding="utf-8" ?>
<svg xmlns="http://www.w3.org/2000/svg" xmlns:xlink="http://www.w3.org/1999/xlink" width="215" height="195">
	<path fill="none" stroke="rgb(255,0,0)" stroke-width="2" stroke-linecap="round" stroke-linejoin="round" transform="translate(15 175)" d="M0 -150C82.8427 -150 150 -82.8427 150 0"/>
	<path fill="none" stroke="rgb(0,0,0)" stroke-width="2" stroke-linecap="round" stroke-linejoin="round" transform="translate(15 175)" d="M0 0L0 -150"/>
	<path fill="none" stroke="rgb(0,0,0)" stroke-width="2" stroke-linecap="round" stroke-linejoin="round" transform="translate(15 175)" d="M0 0L150 0"/>
	<path fill="none" stroke="rgb(128,128,128)" stroke-width="1" stroke-miterlimit="4" transform="translate(15 175)" d="M0 -150L82.8427 -150"/>
	<path fill="none" stroke="rgb(128,128,128)" stroke-width="1" stroke-miterlimit="4" transform="translate(15 175)" d="M150 -82.8427L150 0"/>
	<ellipse fill="rgb(0,0,0)" stroke="none" transform="translate(15 175)" cx="0" cy="-150" rx="3" ry="3"/>
	<ellipse fill="rgb(0,0,0)" stroke="none" transform="translate(15 175)" cx="82.84272" cy="-150" rx="3" ry="3"/>
	<ellipse fill="rgb(0,0,0)" stroke="none" transform="translate(15 175)" cx="150" cy="-82.84272" rx="3" ry="3"/>
	<ellipse fill="rgb(0,0,0)" stroke="none" transform="translate(15 175)" cx="150" cy="0" rx="3" ry="3"/>
	<text fill="rgb(0,0,0)" stroke="none" transform="translate(15 175)" font-size="12" font-family="Segoe UI" x="-9.0605469" y="-159">
			pt0
	</text>
	<text fill="rgb(0,0,0)" stroke="none" transform="translate(15 175)" font-size="12" font-family="Segoe UI" x="74.782173" y="-159">
			pt1
	</text>
	<text fill="rgb(0,0,0)" stroke="none" transform="translate(15 175)" font-size="12" font-family="Segoe UI" x="155" y="-84.84272">
			pt2
	</text>
	<text fill="rgb(0,0,0)" stroke="none" transform="translate(15 175)" font-size="12" font-family="Segoe UI" x="155" y="8">
			pt3
	</text>
	<text fill="rgb(0,0,0)" stroke="none" transform="translate(15 175)" font-size="12" font-family="Segoe UI" x="19.936008" y="-153.5">
			L = 0.55
	</text>
	<text fill="rgb(0,0,0)" stroke="none" transform="translate(15 175)" font-size="12" font-family="Segoe UI" x="153" y="-36.92136">
			L = 0.55
	</text>
	<text fill="rgb(0,0,0)" stroke="none" transform="translate(15 175)" font-size="12" font-family="Segoe UI" x="4" y="-4.5">
			α = 90°
	</text>
</svg>
