<?xml version="1.0" encoding="utf-8" ?>
<svg xmlns="http://www.w3.org/2000/svg" xmlns:xlink="http://www.w3.org/1999/xlink" width="488" height="120">
	<path fill="none" stroke="rgb(0,0,0)" stroke-width="1" stroke-linecap="round" stroke-linejoin="round" transform="matrix(1.5 0 0 1.5 240 75)" d="M-40 0Q-40.5762 -0.667869 -41.1263 -1.3426Q-41.6763 -2.01732 -42.1994 -2.69791Q-42.7224 -3.37849 -43.2177 -4.06393Q-43.713 -4.74936 -44.1797 -5.43862Q-44.6465 -6.12788 -45.084 -6.81995Q-45.5215 -7.51202 -45.9292 -8.20587Q-46.3369 -8.89972 -46.7141 -9.59432Q-47.0913 -10.2889 -47.4375 -10.9832Q-47.7837 -11.6776 -48.0983 -12.3706Q-48.413 -13.0636 -48.6956 -13.7542Q-48.9783 -14.4449 -49.2285 -15.1322Q-49.4787 -15.8195 -49.6961 -16.5024Q-49.9136 -17.1853 -50.0979 -17.8629Q-50.2822 -18.5404 -50.4331 -19.2115Q-50.584 -19.8826 -50.7013 -20.5463Q-50.8186 -21.2101 -50.9021 -21.8654Q-50.9856 -22.5207 -51.0352 -23.1667Q-51.0848 -23.8127 -51.1004 -24.4483Q-51.116 -25.084 -51.0976 -25.7084Q-51.0792 -26.3328 -51.0268 -26.945Q-50.9744 -27.5572 -50.8881 -28.1563Q-50.8018 -28.7555 -50.6817 -29.3406Q-50.5617 -29.9257 -50.408 -30.496Q-50.2543 -31.0663 -50.0673 -31.6209Q-49.8802 -32.1755 -49.6601 -32.7135Q-49.44 -33.2516 -49.1871 -33.7724Q-48.9342 -34.2931 -48.6489 -34.7958Q-48.3636 -35.2984 -48.0463 -35.7822Q-47.729 -36.266 -47.3803 -36.7303Q-47.0315 -37.1945 -46.6518 -37.6386Q-46.272 -38.0826 -45.8619 -38.5057Q-45.4517 -38.9288 -45.0118 -39.3304Q-44.5718 -39.7319 -44.1027 -40.1114Q-43.6336 -40.4908 -43.136 -40.8476Q-42.6384 -41.2043 -42.1131 -41.5379Q-41.5878 -41.8714 -41.0355 -42.1812Q-40.4833 -42.491 -39.9049 -42.7767Q-39.3266 -43.0623 -38.723 -43.3234Q-38.1193 -43.5844 -37.4914 -43.8205Q-36.8634 -44.0565 -36.2119 -44.2672Q-35.5605 -44.4779 -34.8866 -44.663Q-34.2127 -44.8481 -33.5174 -45.0072Q-32.822 -45.1664 -32.1062 -45.2993Q-31.3904 -45.4323 -30.6552 -45.5389Q-29.9201 -45.6456 -29.1666 -45.7257Q-28.4132 -45.8058 -27.6425 -45.8592Q-26.8719 -45.9127 -26.0853 -45.9395Q-25.2987 -45.9662 -24.4972 -45.9662Q-23.6957 -45.9662 -22.8805 -45.9395Q-22.0654 -45.9127 -21.2378 -45.8592Q-20.4101 -45.8058 -19.5713 -45.7257Q-18.7325 -45.6455 -17.8837 -45.5389Q-17.0348 -45.4323 -16.1773 -45.2993Q-15.3198 -45.1663 -14.4548 -45.0072Q-13.5898 -44.8481 -12.7186 -44.663Q-11.8475 -44.4779 -10.9715 -44.2672Q-10.0954 -44.0565 -9.21585 -43.8204Q-8.33626 -43.5844 -7.4544 -43.3233Q-6.57254 -43.0623 -5.68972 -42.7767Q-4.8069 -42.491 -3.92443 -42.1812Q-3.04196 -41.8714 -2.16116 -41.5379Q-1.28036 -41.2043 -0.40252 -40.8476Q0.475315 -40.4908 1.34888 -40.1114Q2.22244 -39.7319 3.09044 -39.3304Q3.95843 -38.9288 4.81957 -38.5057Q5.68071 -38.0826 6.53371 -37.6385Q7.38671 -37.1945 8.23032 -36.7303Q9.07392 -36.266 9.90687 -35.7822Q10.7398 -35.2984 11.5609 -34.7957Q12.3819 -34.2931 13.1899 -33.7723Q13.9979 -33.2516 14.7915 -32.7135Q15.5852 -32.1755 16.3633 -31.6209Q17.1415 -31.0663 17.903 -30.496Q18.6645 -29.9257 19.4083 -29.3406Q20.152 -28.7554 20.8769 -28.1563Q21.6018 -27.5572 22.3067 -26.945Q23.0117 -26.3328 23.6956 -25.7084Q24.3796 -25.084 25.0415 -24.4483Q25.7034 -23.8126 26.3424 -23.1667Q26.9813 -22.5207 27.5963 -21.8654Q28.2113 -21.21 28.8014 -20.5463Q29.3916 -19.8826 29.956 -19.2115Q30.5204 -18.5404 31.0583 -17.8628Q31.5961 -17.1853 32.1066 -16.5024Q32.6171 -15.8195 33.0994 -15.1322Q33.5818 -14.4449 34.0353 -13.7542Q34.4888 -13.0635 34.9128 -12.3705Q35.3369 -11.6775 35.7307 -10.9832Q36.1246 -10.2889 36.4877 -9.59429Q36.8509 -8.89969 37.1828 -8.20584Q37.5147 -7.51199 37.8148 -6.81992Q38.1149 -6.12786 38.3828 -5.43859Q38.6507 -4.74933 38.8861 -4.0639Q39.1214 -3.37847 39.3238 -2.69788Q39.5261 -2.0173 39.6953 -1.34257Q39.8644 -0.667844 40 2.47955e-05"/>
	<path fill="none" stroke="rgb(0,0,0)" stroke-width="1" stroke-linecap="round" stroke-linejoin="round" transform="matrix(1.5 0 0 1.5 240 75)" d="M-40 0Q-39.3959 0.700112 -38.7641 1.39157Q-38.1322 2.08303 -37.4735 2.76471Q-36.8148 3.44639 -36.1305 4.11718Q-35.4461 4.78797 -34.7371 5.44677Q-34.0282 6.10558 -33.2958 6.75132Q-32.5633 7.39707 -31.8087 8.0287Q-31.054 8.66033 -30.2784 9.27682Q-29.5027 9.89331 -28.7073 10.4937Q-27.9119 11.094 -27.098 11.6772Q-26.2841 12.2604 -25.4531 12.8256Q-24.6221 13.3907 -23.7754 13.9368Q-22.9286 14.483 -22.0674 15.0092Q-21.2063 15.5355 -20.3322 16.041Q-19.458 16.5465 -18.5723 17.0304Q-17.6866 17.5143 -16.7908 17.9759Q-15.895 18.4374 -14.9905 18.8759Q-14.0861 19.3143 -13.1744 19.729Q-12.2628 20.1436 -11.3454 20.5337Q-10.4281 20.9238 -9.50656 21.2888Q-8.58503 21.6537 -7.6608 21.993Q-6.73657 22.3322 -5.81116 22.6451Q-4.88575 22.9581 -3.96066 23.2442Q-3.03557 23.5304 -2.11231 23.7892Q-1.18905 24.0481 -0.269126 24.2793Q0.650796 24.5105 1.56588 24.7136Q2.48096 24.9167 3.38972 25.0915Q4.29847 25.2662 5.19942 25.4122Q6.10036 25.5583 6.99202 25.6754Q7.88369 25.7925 8.76461 25.8805Q9.64554 25.9685 10.5143 26.0273Q11.3831 26.086 12.2382 26.1154Q13.0934 26.1448 13.9336 26.1448Q14.7738 26.1448 15.5976 26.1154Q16.4214 26.086 17.2276 26.0273Q18.0337 25.9685 18.8208 25.8805Q19.6079 25.7925 20.3748 25.6754Q21.1416 25.5583 21.8869 25.4122Q22.6322 25.2662 23.3547 25.0915Q24.0772 24.9167 24.7758 24.7136Q25.4744 24.5105 26.1479 24.2793Q26.8214 24.0481 27.4687 23.7892Q28.1161 23.5304 28.7362 23.2442Q29.3562 22.9581 29.9481 22.6451Q30.54 22.3322 31.1026 21.993Q31.6652 21.6537 32.1978 21.2888Q32.7303 20.9238 33.2318 20.5337Q33.7333 20.1436 34.203 19.729Q34.6728 19.3143 35.1099 18.8759Q35.547 18.4374 35.9509 17.9759Q36.3547 17.5143 36.7246 17.0304Q37.0945 16.5465 37.4298 16.041Q37.7652 15.5355 38.0654 15.0092Q38.3657 14.483 38.6303 13.9368Q38.895 13.3907 39.1236 12.8256Q39.3522 12.2604 39.5445 11.6772Q39.7367 11.094 39.8922 10.4937Q40.0478 9.89331 40.1663 9.27682Q40.2849 8.66033 40.3663 8.0287Q40.4477 7.39707 40.4918 6.75132Q40.536 6.10558 40.5427 5.44677Q40.5495 4.78797 40.5189 4.11718Q40.4883 3.44639 40.4204 2.76471Q40.3524 2.08303 40.2473 1.39157Q40.1422 0.700113 40 1.90735e-06"/>
	<ellipse fill="rgb(0,0,0)" stroke="none" transform="matrix(1.5 0 0 1.5 240 75)" cx="-40" cy="0" rx="3" ry="3"/>
	<ellipse fill="rgb(0,0,0)" stroke="none" transform="matrix(1.5 0 0 1.5 240 75)" cx="40" cy="0" rx="3" ry="3"/>
	<path fill="none" stroke="rgb(0,0,0)" stroke-width="1" stroke-linecap="round" stroke-linejoin="round" transform="matrix(1.5 0 0 1.5 240 75)" d="M-70 0L-50 0"/>
	<path fill="none" stroke="rgb(0,0,0)" stroke-width="1" stroke-linecap="round" stroke-linejoin="round" transform="matrix(1.5 0 0 1.5 240 75)" d="M-50 0L-59.2388 -3.82684"/>
	<path fill="none" stroke="rgb(0,0,0)" stroke-width="1" stroke-linecap="round" stroke-linejoin="round" transform="matrix(1.5 0 0 1.5 240 75)" d="M-50 0L-59.2388 3.82684"/>
	<text fill="rgb(0,0,0)" stroke="none" transform="matrix(1.5 0 0 1.5 240 75)" font-size="12" font-family="Segoe UI" x="-149.88086" y="3">
			current point
	</text>
	<path fill="none" stroke="rgb(0,0,0)" stroke-width="1" stroke-linecap="round" stroke-linejoin="round" transform="matrix(1.5 0 0 1.5 240 75)" d="M70 0L50 0"/>
	<path fill="none" stroke="rgb(0,0,0)" stroke-width="1" stroke-linecap="round" stroke-linejoin="round" transform="matrix(1.5 0 0 1.5 240 75)" d="M50 0L59.2388 3.82684"/>
	<path fill="none" stroke="rgb(0,0,0)" stroke-width="1" stroke-linecap="round" stroke-linejoin="round" transform="matrix(1.5 0 0 1.5 240 75)" d="M50 0L59.2388 -3.82684"/>
	<text fill="rgb(0,0,0)" stroke="none" transform="matrix(1.5 0 0 1.5 240 75)" font-size="12" font-family="Segoe UI" x="80" y="3">
			specified point
	</text>
</svg>
