<?xml version="1.0" encoding="utf-8" ?>
<svg xmlns="http://www.w3.org/2000/svg" xmlns:xlink="http://www.w3.org/1999/xlink" width="473" height="120">
	<ellipse fill="rgb(0,0,0)" stroke="none" transform="matrix(1.5 0 0 1.5 165 15)" cx="0" cy="0" rx="3" ry="3"/>
	<ellipse fill="rgb(0,0,0)" stroke="none" transform="matrix(1.5 0 0 1.5 165 15)" cx="100" cy="30" rx="3" ry="3"/>
	<ellipse fill="rgb(0,0,0)" stroke="none" transform="matrix(1.5 0 0 1.5 165 15)" cx="20" cy="60" rx="3" ry="3"/>
	<path fill="none" stroke="rgb(0,0,0)" stroke-width="1" stroke-linecap="round" stroke-linejoin="round" transform="matrix(1.5 0 0 1.5 165 15)" d="M-30 0L-10 0"/>
	<path fill="none" stroke="rgb(0,0,0)" stroke-width="1" stroke-linecap="round" stroke-linejoin="round" transform="matrix(1.5 0 0 1.5 165 15)" d="M-10 0L-19.2388 -3.82683"/>
	<path fill="none" stroke="rgb(0,0,0)" stroke-width="1" stroke-linecap="round" stroke-linejoin="round" transform="matrix(1.5 0 0 1.5 165 15)" d="M-10 0L-19.2388 3.82683"/>
	<text fill="rgb(0,0,0)" stroke="none" transform="matrix(1.5 0 0 1.5 165 15)" font-size="12" font-family="Segoe UI" x="-104.88086" y="3">
			current point
	</text>
	<path fill="none" stroke="rgb(0,0,0)" stroke-width="1" stroke-linecap="round" stroke-linejoin="round" transform="matrix(1.5 0 0 1.5 165 15)" d="M130 30L110 30"/>
	<path fill="none" stroke="rgb(0,0,0)" stroke-width="1" stroke-linecap="round" stroke-linejoin="round" transform="matrix(1.5 0 0 1.5 165 15)" d="M110 30L119.239 33.8268"/>
	<path fill="none" stroke="rgb(0,0,0)" stroke-width="1" stroke-linecap="round" stroke-linejoin="round" transform="matrix(1.5 0 0 1.5 165 15)" d="M110 30L119.239 26.1732"/>
	<text fill="rgb(0,0,0)" stroke="none" transform="matrix(1.5 0 0 1.5 165 15)" font-size="12" font-family="Segoe UI" x="135" y="33">
			corner point
	</text>
	<path fill="none" stroke="rgb(0,0,0)" stroke-width="1" stroke-linecap="round" stroke-linejoin="round" transform="matrix(1.5 0 0 1.5 165 15)" d="M-10 60L10 60"/>
	<path fill="none" stroke="rgb(0,0,0)" stroke-width="1" stroke-linecap="round" stroke-linejoin="round" transform="matrix(1.5 0 0 1.5 165 15)" d="M10 60L0.761204 56.1732"/>
	<path fill="none" stroke="rgb(0,0,0)" stroke-width="1" stroke-linecap="round" stroke-linejoin="round" transform="matrix(1.5 0 0 1.5 165 15)" d="M10 60L0.761206 63.8268"/>
	<text fill="rgb(0,0,0)" stroke="none" transform="matrix(1.5 0 0 1.5 165 15)" font-size="12" font-family="Segoe UI" x="-106.16797" y="63">
			destination point
	</text>
	<path fill="none" stroke="rgb(0,0,0)" stroke-width="1" stroke-linecap="round" stroke-linejoin="round" transform="matrix(1.5 0 0 1.5 165 15)" d="M0 0L100 30"/>
	<path fill="none" stroke="rgb(0,0,0)" stroke-width="1" stroke-linecap="round" stroke-linejoin="round" transform="matrix(1.5 0 0 1.5 165 15)" d="M100 30L20 60"/>
	<ellipse fill="rgb(0,0,0)" stroke="none" transform="matrix(1.5 0 0 1.5 165 15)" cx="0" cy="0" rx="3" ry="3"/>
	<ellipse fill="rgb(0,0,0)" stroke="none" transform="matrix(1.5 0 0 1.5 165 15)" cx="100" cy="30" rx="3" ry="3"/>
	<ellipse fill="rgb(0,0,0)" stroke="none" transform="matrix(1.5 0 0 1.5 165 15)" cx="20" cy="60" rx="3" ry="3"/>
	<path fill="none" stroke="rgb(0,0,0)" stroke-width="1" stroke-linecap="round" stroke-linejoin="round" transform="matrix(1.5 0 0 1.5 165 15)" d="M-30 0L-10 0"/>
	<path fill="none" stroke="rgb(0,0,0)" stroke-width="1" stroke-linecap="round" stroke-linejoin="round" transform="matrix(1.5 0 0 1.5 165 15)" d="M-10 0L-19.2388 -3.82683"/>
	<path fill="none" stroke="rgb(0,0,0)" stroke-width="1" stroke-linecap="round" stroke-linejoin="round" transform="matrix(1.5 0 0 1.5 165 15)" d="M-10 0L-19.2388 3.82683"/>
	<text fill="rgb(0,0,0)" stroke="none" transform="matrix(1.5 0 0 1.5 165 15)" font-size="12" font-family="Segoe UI" x="-104.88086" y="3">
			current point
	</text>
	<path fill="none" stroke="rgb(0,0,0)" stroke-width="1" stroke-linecap="round" stroke-linejoin="round" transform="matrix(1.5 0 0 1.5 165 15)" d="M130 30L110 30"/>
	<path fill="none" stroke="rgb(0,0,0)" stroke-width="1" stroke-linecap="round" stroke-linejoin="round" transform="matrix(1.5 0 0 1.5 165 15)" d="M110 30L119.239 33.8268"/>
	<path fill="none" stroke="rgb(0,0,0)" stroke-width="1" stroke-linecap="round" stroke-linejoin="round" transform="matrix(1.5 0 0 1.5 165 15)" d="M110 30L119.239 26.1732"/>
	<text fill="rgb(0,0,0)" stroke="none" transform="matrix(1.5 0 0 1.5 165 15)" font-size="12" font-family="Segoe UI" x="135" y="33">
			corner point
	</text>
	<path fill="none" stroke="rgb(0,0,0)" stroke-width="1" stroke-linecap="round" stroke-linejoin="round" transform="matrix(1.5 0 0 1.5 165 15)" d="M-10 60L10 60"/>
	<path fill="none" stroke="rgb(0,0,0)" stroke-width="1" stroke-linecap="round" stroke-linejoin="round" transform="matrix(1.5 0 0 1.5 165 15)" d="M10 60L0.761204 56.1732"/>
	<path fill="none" stroke="rgb(0,0,0)" stroke-width="1" stroke-linecap="round" stroke-linejoin="round" transform="matrix(1.5 0 0 1.5 165 15)" d="M10 60L0.761206 63.8268"/>
	<text fill="rgb(0,0,0)" stroke="none" transform="matrix(1.5 0 0 1.5 165 15)" font-size="12" font-family="Segoe UI" x="-106.16797" y="63">
			destination point
	</text>
</svg>
