<?xml version="1.0" encoding="utf-8" ?>
<svg xmlns="http://www.w3.org/2000/svg" xmlns:xlink="http://www.w3.org/1999/xlink" width="473" height="120">
	<ellipse fill="rgb(0,0,0)" stroke="none" transform="matrix(1.5 0 0 1.5 165 15)" cx="0" cy="0" rx="3" ry="3"/>
	<ellipse fill="rgb(0,0,0)" stroke="none" transform="matrix(1.5 0 0 1.5 165 15)" cx="100" cy="30" rx="3" ry="3"/>
	<ellipse fill="rgb(0,0,0)" stroke="none" transform="matrix(1.5 0 0 1.5 165 15)" cx="20" cy="60" rx="3" ry="3"/>
	<path fill="none" stroke="rgb(0,0,0)" stroke-width="1" stroke-linecap="round" stroke-linejoin="round" transform="matrix(1.5 0 0 1.5 165 15)" d="M-30 0L-10 0"/>
	<path fill="none" stroke="rgb(0,0,0)" stroke-width="1" stroke-linecap="round" stroke-linejoin="round" transform="matrix(1.5 0 0 1.5 165 15)" d="M-10 0L-19.2388 -3.82683"/>
	<path fill="none" stroke="rgb(0,0,0)" stroke-width="1" stroke-linecap="round" stroke-linejoin="round" transform="matrix(1.5 0 0 1.5 165 15)" d="M-10 0L-19.2388 3.82683"/>
	<text fill="rgb(0,0,0)" stroke="none" transform="matrix(1.5 0 0 1.5 165 15)" font-size="12" font-family="Segoe UI" x="-104.88086" y="3">
			current point
	</text>
	<path fill="none" stroke="rgb(0,0,0)" stroke-width="1" stroke-linecap="round" stroke-linejoin="round" transform="matrix(1.5 0 0 1.5 165 15)" d="M130 30L110 30"/>
	<path fill="none" stroke="rgb(0,0,0)" stroke-width="1" stroke-linecap="round" stroke-linejoin="round" transform="matrix(1.5 0 0 1.5 165 15)" d="M110 30L119.239 33.8268"/>
	<path fill="none" stroke="rgb(0,0,0)" stroke-width="1" stroke-linecap="round" stroke-linejoin="round" transform="matrix(1.5 0 0 1.5 165 15)" d="M110 30L119.239 26.1732"/>
	<text fill="rgb(0,0,0)" stroke="none" transform="matrix(1.5 0 0 1.5 165 15)" font-size="12" font-family="Segoe UI" x="135" y="33">
			corner point
	</text>
	<path fill="none" stroke="rgb(0,0,0)" stroke-width="1" stroke-linecap="round" stroke-linejoin="round" transform="matrix(1.5 0 0 1.5 165 15)" d="M-10 60L10 60"/>
	<path fill="none" stroke="rgb(0,0,0)" stroke-width="1" stroke-linecap="round" stroke-linejoin="round" transform="matrix(1.5 0 0 1.5 165 15)" d="M10 60L0.761204 56.1732"/>
	<path fill="none" stroke="rgb(0,0,0)" stroke-width="1" stroke-linecap="round" stroke-linejoin="round" transform="matrix(1.5 0 0 1.5 165 15)" d="M10 60L0.761206 63.8268"/>
	<text fill="rgb(0,0,0)" stroke="none" transform="matrix(1.5 0 0 1.5 165 15)" font-size="12" font-family="Segoe UI" x="-106.16797" y="63">
			destination point
	</text>
	<path fill="none" stroke="rgb(0,0,0)" stroke-width="1" stroke-linecap="round" stroke-linejoin="round" transform="matrix(1.5 0 0 1.5 165 15)" d="M0 0L71.5841 21.4752Q71.9572 21.5872 72.3204 21.7277Q72.6836 21.8683 73.0348 22.0367Q73.386 22.2052 73.723 22.4004Q74.06 22.5956 74.3808 22.8164Q74.7016 23.0373 75.0043 23.2824Q75.3069 23.5275 75.5896 23.7954Q75.8723 24.0633 76.1333 24.3524Q76.3943 24.6415 76.632 24.95Q76.8697 25.2585 77.0827 25.5846Q77.2957 25.9107 77.4827 26.2523Q77.6697 26.594 77.8295 26.9491Q77.9894 27.3043 78.1211 27.6708Q78.2529 28.0373 78.3557 28.413Q78.4586 28.7886 78.5319 29.1711Q78.6052 29.5536 78.6485 29.9407Q78.6919 30.3277 78.705 30.717Q78.7181 31.1062 78.7009 31.4953Q78.6837 31.8844 78.6363 32.271Q78.5888 32.6576 78.5115 33.0393Q78.4342 33.421 78.3274 33.7956Q78.2206 34.1701 78.085 34.5352Q77.9494 34.9003 77.7858 35.2538Q77.6222 35.6072 77.4316 35.9469Q77.241 36.2865 77.0246 36.6103Q76.8082 36.9341 76.5672 37.2401Q76.3263 37.5461 76.0622 37.8324Q75.7982 38.1188 75.5127 38.3837Q75.2272 38.6486 74.922 38.8905Q74.6168 39.1324 74.2936 39.3499Q73.9705 39.5673 73.6315 39.759Q73.2924 39.9506 72.9395 40.1153Q72.5865 40.28 72.2219 40.4168"/>
</svg>
