<?xml version="1.0" encoding="utf-8" ?>
<svg xmlns="http://www.w3.org/2000/svg" xmlns:xlink="http://www.w3.org/1999/xlink" width="200" height="150">
	<path fill="none" stroke="rgb(255,0,0)" stroke-width="2" stroke-linecap="round" stroke-linejoin="round" transform="translate(10 75)" d="M138.582 -57.4025C153.806 -20.6483 153.806 20.6483 138.582 57.4025"/>
	<path fill="none" stroke="rgb(0,0,0)" stroke-width="2" stroke-linecap="round" stroke-linejoin="round" transform="translate(10 75)" d="M0 0L138.582 -57.4025"/>
	<path fill="none" stroke="rgb(0,0,0)" stroke-width="2" stroke-linecap="round" stroke-linejoin="round" transform="translate(10 75)" d="M0 0L138.582 57.4025"/>
	<path fill="none" stroke="rgb(128,128,128)" stroke-width="1" stroke-miterlimit="4" transform="translate(10 75)" d="M138.582 -57.4025L153.806 -20.6483"/>
	<path fill="none" stroke="rgb(128,128,128)" stroke-width="1" stroke-miterlimit="4" transform="translate(10 75)" d="M153.806 20.6483L138.582 57.4025"/>
	<ellipse fill="rgb(0,0,0)" stroke="none" transform="translate(10 75)" cx="138.58192" cy="-57.402515" rx="3" ry="3"/>
	<ellipse fill="rgb(0,0,0)" stroke="none" transform="translate(10 75)" cx="153.80602" cy="-20.648304" rx="3" ry="3"/>
	<ellipse fill="rgb(0,0,0)" stroke="none" transform="translate(10 75)" cx="153.80602" cy="20.648304" rx="3" ry="3"/>
	<ellipse fill="rgb(0,0,0)" stroke="none" transform="translate(10 75)" cx="138.58192" cy="57.402515" rx="3" ry="3"/>
	<text fill="rgb(0,0,0)" stroke="none" transform="translate(10 75)" font-size="12" font-family="Segoe UI" x="143.58192" y="-59.402515">
			pt0
	</text>
	<text fill="rgb(0,0,0)" stroke="none" transform="translate(10 75)" font-size="12" font-family="Segoe UI" x="158.80602" y="-12.648304">
			pt1
	</text>
	<text fill="rgb(0,0,0)" stroke="none" transform="translate(10 75)" font-size="12" font-family="Segoe UI" x="158.80602" y="18.648304">
			pt2
	</text>
	<text fill="rgb(0,0,0)" stroke="none" transform="translate(10 75)" font-size="12" font-family="Segoe UI" x="143.58192" y="65.402512">
			pt3
	</text>
	<text fill="rgb(0,0,0)" stroke="none" transform="translate(10 75)" font-size="12" font-family="Segoe UI" x="149.19397" y="-34.52541">
			L
	</text>
	<text fill="rgb(0,0,0)" stroke="none" transform="translate(10 75)" font-size="12" font-family="Segoe UI" x="149.19397" y="43.52541">
			L
	</text>
	<text fill="rgb(0,0,0)" stroke="none" transform="translate(10 75)" font-size="12" font-family="Segoe UI" x="12" y="3">
			α
	</text>
</svg>
