<?xml version="1.0" encoding="utf-8" ?>
<svg xmlns="http://www.w3.org/2000/svg" xmlns:xlink="http://www.w3.org/1999/xlink" width="263" height="135">
	<ellipse fill="none" stroke="rgb(0,0,0)" stroke-width="2" stroke-linecap="round" stroke-linejoin="round" transform="matrix(1.5 0 0 1.5 82.5 45)" cx="0" cy="0" rx="40" ry="25"/>
	<path fill="none" stroke="rgb(0,0,0)" stroke-width="1" stroke-linecap="round" stroke-linejoin="round" transform="matrix(1.5 0 0 1.5 82.5 45)" d="M0 0L40 0"/>
	<path fill="none" stroke="rgb(0,0,0)" stroke-width="1" stroke-linecap="round" stroke-linejoin="round" transform="matrix(1.5 0 0 1.5 82.5 45)" d="M0 0L20 21.6506"/>
	<path fill="none" stroke="rgb(0,0,0)" stroke-width="1" stroke-linecap="round" stroke-linejoin="round" transform="matrix(1.5 0 0 1.5 82.5 45)" d="M0 0L-37.5877 8.5505"/>
	<path fill="none" stroke="rgb(0,0,0)" stroke-width="1" stroke-linecap="round" stroke-linejoin="round" transform="matrix(1.5 0 0 1.5 82.5 45)" d="M9.84808 1.04189Q9.77226 1.29987 9.65926 1.55291Q9.54626 1.80595 9.39693 2.05212Q9.2476 2.29829 9.06308 2.53571Q8.87856 2.77313 8.66025 3Q8.44195 3.22687 8.19152 3.44146Q7.94109 3.65605 7.66045 3.85673Q7.3798 4.0574 7.07107 4.24264Q6.76234 4.42788 6.42788 4.59627M3.4202 5.63816Q3.00992 5.72775 2.58819 5.79556Q2.16646 5.86336 1.73648 5.90885Q1.30651 5.95434 0.871558 5.97717Q0.43661 6 2.45831e-07 6Q-0.436609 6 -0.871557 5.97717Q-1.30651 5.95434 -1.73648 5.90885Q-2.16646 5.86336 -2.58819 5.79556Q-3.00992 5.72775 -3.4202 5.63816Q-3.83048 5.54856 -4.22618 5.43785Q-4.62189 5.32714 -5 5.19615Q-5.37812 5.06517 -5.73576 4.91491Q-6.09341 4.76466 -6.42788 4.59627Q-6.76234 4.42788 -7.07107 4.24264Q-7.3798 4.0574 -7.66044 3.85673Q-7.94109 3.65605 -8.19152 3.44146Q-8.44195 3.22687 -8.66025 3"/>
	<path fill="none" stroke="rgb(0,0,0)" stroke-width="1" stroke-linecap="round" stroke-linejoin="round" transform="matrix(1.5 0 0 1.5 82.5 45)" d="M60 15L18 8"/>
	<path fill="none" stroke="rgb(0,0,0)" stroke-width="1" stroke-linecap="round" stroke-linejoin="round" transform="matrix(1.5 0 0 1.5 82.5 45)" d="M18 8L26.484 13.2936"/>
	<path fill="none" stroke="rgb(0,0,0)" stroke-width="1" stroke-linecap="round" stroke-linejoin="round" transform="matrix(1.5 0 0 1.5 82.5 45)" d="M18 8L27.7422 5.74408"/>
	<text fill="rgb(0,0,0)" stroke="none" transform="matrix(1.5 0 0 1.5 82.5 45)" font-size="12" font-family="Segoe UI" x="60" y="18">
			startAngle
	</text>
	<path fill="none" stroke="rgb(0,0,0)" stroke-width="1" stroke-linecap="round" stroke-linejoin="round" transform="matrix(1.5 0 0 1.5 82.5 45)" d="M-15 45L-5 10"/>
	<path fill="none" stroke="rgb(0,0,0)" stroke-width="1" stroke-linecap="round" stroke-linejoin="round" transform="matrix(1.5 0 0 1.5 82.5 45)" d="M-5 10L-11.2177 17.832"/>
	<path fill="none" stroke="rgb(0,0,0)" stroke-width="1" stroke-linecap="round" stroke-linejoin="round" transform="matrix(1.5 0 0 1.5 82.5 45)" d="M-5 10L-3.8585 19.9346"/>
	<text fill="rgb(0,0,0)" stroke="none" transform="matrix(1.5 0 0 1.5 82.5 45)" font-size="12" font-family="Segoe UI" x="-47.436523" y="54">
			sweepAngle
	</text>
</svg>
