<svg xmlns="http://www.w3.org/2000/svg" viewBox="0 0 400 140"><defs>
<style>.cls-1{fill:#bad80a;}.cls-2{fill:#fff;}.cls-3{fill:#e5e5e5;}.cls-4{fill:none;stroke:#556a8a;stroke-miterlimit:10;stroke-width:2px;}.cls-5{fill:#556a8a;}.cls-6{fill:#2bc7f4;}</style>
</defs><title>sql-get-started-download</title>
<g id="ICONS">

<path class="cls-2" d="M254.25,22H145.75A7.71,7.71,0,0,0,138,29.63V96.37a7.71,7.71,0,0,0,7.75,7.63h108.5A7.71,7.71,0,0,0,262,96.37V29.63A7.71,7.71,0,0,0,254.25,22Z"/>
<path class="cls-3" d="M262,29V50H138V29a7,7,0,0,1,6.89-7H255.11A7,7,0,0,1,262,29Z"/><path class="cls-4" d="M154,22h-8.25A7.71,7.71,0,0,0,138,29.63V96.37a7.71,7.71,0,0,0,7.75,7.63h108.5A7.71,7.71,0,0,0,262,96.37V29.63A7.71,7.71,0,0,0,254.25,22H180"/>
<polygon class="cls-5" points="226 120 174 120 168 124 232 124 226 120"/>
<polygon class="cls-5" points="203 120 197 120 198 104 202 104 203 120"/>
<rect class="cls-5" x="176" y="92" width="48" height="4"/>
<path class="cls-5" d="M178.15,57.67l19.85,20V32h4V77.65l19.74-20L223.91,60,200,83.85,176,60Z"/>
<path class="cls-6" d="M169,53.29a1.6,1.6,0,0,0,1.74.64l3.19-1a1.71,1.71,0,0,0,.84-2l-1-4a2.38,2.38,0,0,1,.91-2.81c.38-.61,1.07-1,1.46-1.66A2.87,2.87,0,0,1,179,42l4.28,1.37A1.94,1.94,0,0,0,185,42.7l1.6-3.28c.19-.31,0-1.28-1-1.88l-3.7-2.29a2.09,2.09,0,0,1-1.1-2.38l-.29-.31a2.78,2.78,0,0,0,.34-1.93c-.24-1,0-2.12,1.71-2.78l3.58-1.64a2,2,0,0,0,.83-2l-1.28-3.39a1.28,1.28,0,0,0-1.68-.67l-.06,0-4,1a2.45,2.45,0,0,1-2.85-.91c-.61-.38-1-1.07-1.66-1.46a4.11,4.11,0,0,1-.72-3L176.22,12a1.85,1.85,0,0,0-.78-2.2l-3.17-1.1a1.56,1.56,0,0,0-2,.47l-2,3.9a2.62,2.62,0,0,1-2.55,1.41,8,8,0,0,0-2.12,0l-.31-.19a2.71,2.71,0,0,1-2.5-1.49L159,8.69a1.6,1.6,0,0,0-1.74-.64l-3.39,1.28a1.28,1.28,0,0,0-.67,1.68l0,.06.75,4.3c.36,1.49,0,2.12-.72,2.55-.38.61-1.07,1-1.46,1.66a2.7,2.7,0,0,1-3,.7l-4.09-1.67a2,2,0,0,0-1.83,1l-1.66,3.28a2.27,2.27,0,0,0,1,1.88l3.7,2.29c1.28.77,1.66,1.46,1.09,2.39a17.51,17.51,0,0,0,.28,2.31c-.06.78-.14,1.61-1.83,2.27L141.71,36a1.6,1.6,0,0,0-.65,1.74l1.28,3.39a1.64,1.64,0,0,0,1.55,1l4.19-1.28c1.49-.36,2.12,0,2.55.72a23,23,0,0,1,1.78,2,2.3,2.3,0,0,1,.89,2.7l-1.67,4.09a2,2,0,0,0,1,1.88l3,1.41a1.56,1.56,0,0,0,2-.47l2-3.9a2.55,2.55,0,0,1,2.55-1.41l2.43.22c1-.23,1.62.14,2.47,1.52L169,53.26M172.3,28A9,9,0,0,1,167,39.26,8.39,8.39,0,0,1,155.69,34a8.62,8.62,0,0,1,5.11-11,8.74,8.74,0,0,1,11.42,4.73l.08.2"/>
</g>
</svg>