<?xml version="1.0" encoding="utf-8" ?>
<svg xmlns="http://www.w3.org/2000/svg" xmlns:xlink="http://www.w3.org/1999/xlink" width="210" height="180">
	<path fill="none" stroke="rgb(255,0,0)" stroke-width="2" stroke-linecap="round" stroke-linejoin="round" transform="translate(10 90)" d="M129.904 -75Q131.131 -72.8743 132.288 -70.7095Q133.445 -68.5448 134.531 -66.3433Q135.617 -64.1418 136.63 -61.9061Q137.643 -59.6703 138.582 -57.4025Q139.521 -55.1348 140.386 -52.8375Q141.251 -50.5402 142.04 -48.2159Q142.829 -45.8916 143.541 -43.5427Q144.254 -41.1938 144.889 -38.8229Q145.524 -36.4519 146.082 -34.0614Q146.639 -31.671 147.118 -29.2636Q147.597 -26.8561 147.997 -24.4343Q148.396 -22.0125 148.717 -19.5789Q149.037 -17.1453 149.278 -14.7026Q149.518 -12.2598 149.679 -9.81047Q149.839 -7.36114 149.92 -4.90786Q150 -2.45459 150 0Q150 2.45459 149.92 4.90786Q149.839 7.36114 149.679 9.81047Q149.518 12.2598 149.278 14.7026Q149.037 17.1453 148.717 19.5789Q148.396 22.0125 147.997 24.4343Q147.597 26.8561 147.118 29.2636Q146.639 31.671 146.082 34.0614Q145.524 36.4519 144.889 38.8229Q144.254 41.1938 143.541 43.5427Q142.829 45.8916 142.04 48.2159Q141.251 50.5402 140.386 52.8375Q139.521 55.1348 138.582 57.4025Q137.643 59.6703 136.63 61.9061Q135.617 64.1418 134.531 66.3433Q133.445 68.5448 132.288 70.7095Q131.131 72.8743 129.904 75"/>
	<path fill="none" stroke="rgb(0,0,0)" stroke-width="2" stroke-linecap="round" stroke-linejoin="round" transform="translate(10 90)" d="M0 0L129.904 -75"/>
	<path fill="none" stroke="rgb(0,0,0)" stroke-width="2" stroke-linecap="round" stroke-linejoin="round" transform="translate(10 90)" d="M0 0L129.904 75"/>
	<path fill="none" stroke="rgb(128,128,128)" stroke-width="1" stroke-miterlimit="4" transform="translate(10 90)" d="M129.904 -75L173.205 0"/>
	<path fill="none" stroke="rgb(128,128,128)" stroke-width="1" stroke-miterlimit="4" transform="translate(10 90)" d="M129.904 75L173.205 0"/>
	<ellipse fill="rgb(0,0,0)" stroke="none" transform="translate(10 90)" cx="129.90381" cy="-75" rx="3" ry="3"/>
	<ellipse fill="rgb(0,0,0)" stroke="none" transform="translate(10 90)" cx="173.20508" cy="0" rx="3" ry="3"/>
	<ellipse fill="rgb(0,0,0)" stroke="none" transform="translate(10 90)" cx="129.90381" cy="75" rx="3" ry="3"/>
	<text fill="rgb(0,0,0)" stroke="none" transform="translate(10 90)" font-size="12" font-family="Segoe UI" x="134.90381" y="-77">
			pt0
	</text>
	<text fill="rgb(0,0,0)" stroke="none" transform="translate(10 90)" font-size="12" font-family="Segoe UI" x="178.20508" y="1">
			pt1
	</text>
	<text fill="rgb(0,0,0)" stroke="none" transform="translate(10 90)" font-size="12" font-family="Segoe UI" x="134.90381" y="83">
			pt2
	</text>
	<text fill="rgb(0,0,0)" stroke="none" transform="translate(10 90)" font-size="12" font-family="Segoe UI" x="10" y="3">
			α
	</text>
</svg>
