<?xml version="1.0" encoding="utf-8" ?>
<svg xmlns="http://www.w3.org/2000/svg" xmlns:xlink="http://www.w3.org/1999/xlink" width="510" height="240">
	<ellipse fill="none" stroke="rgb(0,0,0)" stroke-width="1" stroke-linecap="round" stroke-linejoin="round" transform="translate(255 120)" cx="-150" cy="0" rx="100" ry="100"/>
	<ellipse fill="none" stroke="rgb(0,0,0)" stroke-width="1" stroke-linecap="round" stroke-linejoin="round" transform="translate(255 120)" cx="150" cy="0" rx="100" ry="100"/>
	<path fill="none" stroke="rgb(0,0,0)" stroke-width="1" stroke-linecap="round" stroke-linejoin="round" transform="translate(255 120)" d="M124.5 112.5L-124.5 -112.5"/>
	<path fill="none" stroke="rgb(0,0,0)" stroke-width="1" stroke-linecap="round" stroke-linejoin="round" transform="translate(255 120)" d="M124.5 -112.5L-124.5 112.5"/>
	<path fill="none" stroke="rgb(0,0,0)" stroke-width="2" stroke-linecap="round" stroke-linejoin="round" transform="translate(255 120)" d="M0 0L150 0"/>
	<path fill="none" stroke="rgb(0,0,0)" stroke-width="2" stroke-linecap="round" stroke-linejoin="round" transform="translate(255 120)" d="M0 0L83 75"/>
	<path fill="none" stroke="rgb(0,0,0)" stroke-width="2" stroke-linecap="round" stroke-linejoin="round" transform="translate(255 120)" d="M150 0L83 75"/>
	<rect fill="none" stroke="rgb(0,0,0)" stroke-width="2" stroke-linecap="round" stroke-linejoin="round" transform="matrix(0.745476 0.666532 -0.666532 0.745476 326.115 83.7671)" x="73" y="65" width="10" height="10"/>
	<text fill="rgb(0,0,0)" stroke="none" transform="translate(255 120)" font-size="12" font-family="Segoe UI" x="65.53125" y="-3">
			150
	</text>
	<text fill="rgb(0,0,0)" stroke="none" transform="translate(255 120)" font-size="12" font-family="Segoe UI" x="120" y="44.5">
			100
	</text>
	<text fill="rgb(0,0,0)" stroke="none" transform="translate(255 120)" font-size="12" font-family="Segoe UI" x="12.5" y="9">
			α
	</text>
</svg>
