<?xml version="1.0" encoding="utf-8" ?>
<svg xmlns="http://www.w3.org/2000/svg" xmlns:xlink="http://www.w3.org/1999/xlink" width="488" height="60">
	<ellipse fill="rgb(0,0,0)" stroke="none" transform="matrix(1.5 0 0 1.5 240 30)" cx="-40" cy="0" rx="3" ry="3"/>
	<ellipse fill="rgb(0,0,0)" stroke="none" transform="matrix(1.5 0 0 1.5 240 30)" cx="40" cy="0" rx="3" ry="3"/>
	<path fill="none" stroke="rgb(0,0,0)" stroke-width="1" stroke-linecap="round" stroke-linejoin="round" transform="matrix(1.5 0 0 1.5 240 30)" d="M-70 0L-50 0"/>
	<path fill="none" stroke="rgb(0,0,0)" stroke-width="1" stroke-linecap="round" stroke-linejoin="round" transform="matrix(1.5 0 0 1.5 240 30)" d="M-50 0L-59.2388 -3.82684"/>
	<path fill="none" stroke="rgb(0,0,0)" stroke-width="1" stroke-linecap="round" stroke-linejoin="round" transform="matrix(1.5 0 0 1.5 240 30)" d="M-50 0L-59.2388 3.82684"/>
	<text fill="rgb(0,0,0)" stroke="none" transform="matrix(1.5 0 0 1.5 240 30)" font-size="12" font-family="Segoe UI" x="-149.88086" y="3">
			current point
	</text>
	<path fill="none" stroke="rgb(0,0,0)" stroke-width="1" stroke-linecap="round" stroke-linejoin="round" transform="matrix(1.5 0 0 1.5 240 30)" d="M70 0L50 0"/>
	<path fill="none" stroke="rgb(0,0,0)" stroke-width="1" stroke-linecap="round" stroke-linejoin="round" transform="matrix(1.5 0 0 1.5 240 30)" d="M50 0L59.2388 3.82684"/>
	<path fill="none" stroke="rgb(0,0,0)" stroke-width="1" stroke-linecap="round" stroke-linejoin="round" transform="matrix(1.5 0 0 1.5 240 30)" d="M50 0L59.2388 -3.82684"/>
	<text fill="rgb(0,0,0)" stroke="none" transform="matrix(1.5 0 0 1.5 240 30)" font-size="12" font-family="Segoe UI" x="80" y="3">
			specified point
	</text>
</svg>
