<?xml version="1.0" encoding="utf-8" ?>
<svg xmlns="http://www.w3.org/2000/svg" xmlns:xlink="http://www.w3.org/1999/xlink" width="400" height="145">
	<rect fill="none" stroke="rgb(0,0,0)" stroke-width="1" stroke-linecap="round" stroke-linejoin="round" transform="matrix(1 0 1.5 1 40.5 5.5)" width="200" height="100"/>
	<path fill="none" stroke="rgb(0,0,0)" stroke-width="1" stroke-linecap="round" stroke-linejoin="round" transform="translate(40.5 5.5)" d="M0 120L150 120"/>
	<path fill="none" stroke="rgb(0,0,0)" stroke-width="1" stroke-linecap="round" stroke-linejoin="round" transform="translate(40.5 5.5)" d="M150 120L140.761 116.173"/>
	<path fill="none" stroke="rgb(0,0,0)" stroke-width="1" stroke-linecap="round" stroke-linejoin="round" transform="translate(40.5 5.5)" d="M150 120L140.761 123.827"/>
	<path fill="none" stroke="rgb(0,0,0)" stroke-width="1" stroke-linecap="round" stroke-linejoin="round" transform="translate(40.5 5.5)" d="M0 115L0 125"/>
	<text fill="rgb(0,0,0)" stroke="none" transform="translate(40.5 5.5)" font-size="12" font-family="Segoe UI" x="65.53125" y="132.5">
			150
	</text>
	<path fill="none" stroke="rgb(0,0,0)" stroke-width="1" stroke-linecap="round" stroke-linejoin="round" transform="translate(40.5 5.5)" d="M-20 0L-20 100"/>
	<path fill="none" stroke="rgb(0,0,0)" stroke-width="1" stroke-linecap="round" stroke-linejoin="round" transform="translate(40.5 5.5)" d="M-20 100L-16.1732 90.7612"/>
	<path fill="none" stroke="rgb(0,0,0)" stroke-width="1" stroke-linecap="round" stroke-linejoin="round" transform="translate(40.5 5.5)" d="M-20 100L-23.8268 90.7612"/>
	<path fill="none" stroke="rgb(0,0,0)" stroke-width="1" stroke-linecap="round" stroke-linejoin="round" transform="translate(40.5 5.5)" d="M-20 0L-23.8268 9.23879"/>
	<path fill="none" stroke="rgb(0,0,0)" stroke-width="1" stroke-linecap="round" stroke-linejoin="round" transform="translate(40.5 5.5)" d="M-20 0L-16.1732 9.2388"/>
	<text fill="rgb(0,0,0)" stroke="none" transform="matrix(0 -1 1 0 -37.5 27.5)" font-size="12" font-family="Segoe UI" x="-37.46875" y="54.5">
			100
	</text>
</svg>
