<?xml version="1.0" encoding="utf-8" ?>
<svg xmlns="http://www.w3.org/2000/svg" xmlns:xlink="http://www.w3.org/1999/xlink" width="488" height="120">
	<path fill="none" stroke="rgb(0,0,0)" stroke-width="1" stroke-linecap="round" stroke-linejoin="round" transform="matrix(1.5 0 0 1.5 240 45)" d="M-40 0Q-40.1422 -0.700111 -40.2473 -1.39157Q-40.3524 -2.08303 -40.4204 -2.76471Q-40.4883 -3.44639 -40.5189 -4.11718Q-40.5495 -4.78797 -40.5427 -5.44677Q-40.536 -6.10558 -40.4918 -6.75132Q-40.4477 -7.39706 -40.3663 -8.0287Q-40.2849 -8.66033 -40.1663 -9.27682Q-40.0478 -9.89331 -39.8922 -10.4936Q-39.7367 -11.094 -39.5445 -11.6772Q-39.3522 -12.2604 -39.1236 -12.8256Q-38.895 -13.3907 -38.6303 -13.9368Q-38.3657 -14.483 -38.0654 -15.0092Q-37.7652 -15.5355 -37.4298 -16.041Q-37.0945 -16.5465 -36.7246 -17.0304Q-36.3547 -17.5143 -35.9509 -17.9759Q-35.547 -18.4374 -35.1099 -18.8759Q-34.6728 -19.3143 -34.203 -19.7289Q-33.7333 -20.1436 -33.2318 -20.5337Q-32.7303 -20.9238 -32.1978 -21.2888Q-31.6652 -21.6537 -31.1026 -21.993Q-30.54 -22.3322 -29.9481 -22.6451Q-29.3563 -22.9581 -28.7362 -23.2442Q-28.1161 -23.5304 -27.4687 -23.7892Q-26.8214 -24.0481 -26.1479 -24.2793Q-25.4744 -24.5105 -24.7758 -24.7136Q-24.0772 -24.9167 -23.3547 -25.0915Q-22.6322 -25.2662 -21.8869 -25.4122Q-21.1416 -25.5583 -20.3748 -25.6754Q-19.6079 -25.7925 -18.8208 -25.8805Q-18.0337 -25.9685 -17.2276 -26.0273Q-16.4214 -26.086 -15.5976 -26.1154Q-14.7738 -26.1448 -13.9336 -26.1448Q-13.0934 -26.1448 -12.2382 -26.1154Q-11.3831 -26.086 -10.5143 -26.0273Q-9.64554 -25.9685 -8.76462 -25.8805Q-7.88369 -25.7925 -6.99203 -25.6754Q-6.10036 -25.5583 -5.19942 -25.4122Q-4.29848 -25.2662 -3.38972 -25.0915Q-2.48097 -24.9167 -1.56588 -24.7136Q-0.650798 -24.5105 0.269124 -24.2793Q1.18905 -24.0481 2.11231 -23.7892Q3.03556 -23.5304 3.96065 -23.2442Q4.88575 -22.9581 5.81116 -22.6451Q6.73657 -22.3322 7.6608 -21.993Q8.58503 -21.6537 9.50656 -21.2888Q10.4281 -20.9238 11.3454 -20.5337Q12.2628 -20.1436 13.1744 -19.729Q14.0861 -19.3143 14.9905 -18.8759Q15.895 -18.4374 16.7908 -17.9759Q17.6866 -17.5143 18.5723 -17.0304Q19.458 -16.5465 20.3322 -16.041Q21.2063 -15.5355 22.0674 -15.0092Q22.9286 -14.483 23.7754 -13.9368Q24.6221 -13.3907 25.4531 -12.8256Q26.2841 -12.2604 27.098 -11.6772Q27.9119 -11.094 28.7073 -10.4936Q29.5027 -9.89331 30.2784 -9.27682Q31.054 -8.66033 31.8087 -8.0287Q32.5633 -7.39706 33.2958 -6.75132Q34.0282 -6.10557 34.7371 -5.44677Q35.4461 -4.78797 36.1305 -4.11718Q36.8149 -3.44639 37.4735 -2.76471Q38.1322 -2.08303 38.7641 -1.39157Q39.3959 -0.700108 40 3.8147e-06"/>
	<path fill="none" stroke="rgb(0,0,0)" stroke-width="1" stroke-linecap="round" stroke-linejoin="round" transform="matrix(1.5 0 0 1.5 240 45)" d="M-40 0Q-39.8644 0.667869 -39.6953 1.3426Q-39.5261 2.01732 -39.3238 2.69791Q-39.1214 3.37849 -38.8861 4.06393Q-38.6507 4.74936 -38.3828 5.43862Q-38.1149 6.12788 -37.8148 6.81995Q-37.5146 7.51202 -37.1828 8.20587Q-36.8509 8.89972 -36.4877 9.59432Q-36.1246 10.2889 -35.7307 10.9832Q-35.3368 11.6776 -34.9128 12.3706Q-34.4888 13.0636 -34.0353 13.7542Q-33.5818 14.4449 -33.0994 15.1322Q-32.6171 15.8195 -32.1066 16.5024Q-31.5961 17.1853 -31.0582 17.8629Q-30.5204 18.5404 -29.956 19.2115Q-29.3916 19.8826 -28.8014 20.5463Q-28.2113 21.2101 -27.5963 21.8654Q-26.9813 22.5207 -26.3423 23.1667Q-25.7034 23.8127 -25.0415 24.4483Q-24.3795 25.084 -23.6956 25.7084Q-23.0117 26.3328 -22.3067 26.945Q-21.6018 27.5572 -20.8769 28.1563Q-20.152 28.7555 -19.4083 29.3406Q-18.6645 29.9257 -17.903 30.496Q-17.1415 31.0663 -16.3633 31.6209Q-15.5851 32.1755 -14.7915 32.7136Q-13.9978 33.2516 -13.1899 33.7724Q-12.3819 34.2931 -11.5609 34.7958Q-10.7398 35.2984 -9.90685 35.7822Q-9.0739 36.266 -8.2303 36.7303Q-7.38669 37.1945 -6.53369 37.6386Q-5.68069 38.0826 -4.81955 38.5057Q-3.95841 38.9288 -3.09042 39.3304Q-2.22242 39.7319 -1.34886 40.1114Q-0.475297 40.4908 0.402539 40.8476Q1.28037 41.2043 2.16118 41.5379Q3.04198 41.8714 3.92445 42.1812Q4.80692 42.491 5.68973 42.7767Q6.57255 43.0623 7.45441 43.3234Q8.33628 43.5844 9.21587 43.8205Q10.0955 44.0565 10.9715 44.2672Q11.8475 44.4779 12.7187 44.663Q13.5898 44.8481 14.4548 45.0072Q15.3198 45.1664 16.1773 45.2993Q17.0349 45.4323 17.8837 45.5389Q18.7325 45.6456 19.5713 45.7257Q20.4102 45.8058 21.2378 45.8592Q22.0654 45.9127 22.8805 45.9395Q23.6957 45.9662 24.4972 45.9662Q25.2987 45.9662 26.0853 45.9395Q26.8719 45.9127 27.6426 45.8592Q28.4132 45.8058 29.1666 45.7257Q29.9201 45.6456 30.6553 45.5389Q31.3904 45.4323 32.1062 45.2993Q32.822 45.1664 33.5174 45.0072Q34.2127 44.8481 34.8866 44.663Q35.5605 44.4779 36.2119 44.2672Q36.8634 44.0565 37.4914 43.8205Q38.1194 43.5844 38.723 43.3234Q39.3266 43.0623 39.905 42.7767Q40.4833 42.491 41.0356 42.1812Q41.5878 41.8714 42.1131 41.5379Q42.6384 41.2043 43.136 40.8476Q43.6336 40.4908 44.1027 40.1114Q44.5718 39.7319 45.0118 39.3304Q45.4517 38.9288 45.8619 38.5057Q46.272 38.0826 46.6518 37.6386Q47.0315 37.1945 47.3803 36.7303Q47.729 36.266 48.0463 35.7822Q48.3636 35.2984 48.6489 34.7958Q48.9342 34.2931 49.1871 33.7724Q49.44 33.2516 49.6601 32.7135Q49.8802 32.1755 50.0673 31.6209Q50.2543 31.0663 50.408 30.496Q50.5617 29.9257 50.6818 29.3406Q50.8018 28.7555 50.8881 28.1563Q50.9744 27.5572 51.0268 26.945Q51.0792 26.3328 51.0976 25.7084Q51.116 25.084 51.1004 24.4483Q51.0848 23.8127 51.0352 23.1667Q50.9856 22.5207 50.9021 21.8654Q50.8186 21.2101 50.7013 20.5463Q50.584 19.8826 50.4331 19.2115Q50.2822 18.5404 50.0979 17.8629Q49.9136 17.1853 49.6961 16.5024Q49.4787 15.8195 49.2285 15.1322Q48.9783 14.4449 48.6956 13.7542Q48.413 13.0636 48.0983 12.3706Q47.7837 11.6776 47.4375 10.9832Q47.0913 10.2889 46.7141 9.59432Q46.3369 8.89972 45.9292 8.20587Q45.5215 7.51202 45.084 6.81995Q44.6465 6.12788 44.1797 5.43862Q43.713 4.74936 43.2177 4.06393Q42.7224 3.3785 42.1994 2.69791Q41.6763 2.01733 41.1263 1.3426Q40.5762 0.667873 40 3.8147e-06"/>
	<ellipse fill="rgb(0,0,0)" stroke="none" transform="matrix(1.5 0 0 1.5 240 45)" cx="-40" cy="0" rx="3" ry="3"/>
	<ellipse fill="rgb(0,0,0)" stroke="none" transform="matrix(1.5 0 0 1.5 240 45)" cx="40" cy="0" rx="3" ry="3"/>
	<path fill="none" stroke="rgb(0,0,0)" stroke-width="1" stroke-linecap="round" stroke-linejoin="round" transform="matrix(1.5 0 0 1.5 240 45)" d="M-70 0L-50 0"/>
	<path fill="none" stroke="rgb(0,0,0)" stroke-width="1" stroke-linecap="round" stroke-linejoin="round" transform="matrix(1.5 0 0 1.5 240 45)" d="M-50 0L-59.2388 -3.82684"/>
	<path fill="none" stroke="rgb(0,0,0)" stroke-width="1" stroke-linecap="round" stroke-linejoin="round" transform="matrix(1.5 0 0 1.5 240 45)" d="M-50 0L-59.2388 3.82684"/>
	<text fill="rgb(0,0,0)" stroke="none" transform="matrix(1.5 0 0 1.5 240 45)" font-size="12" font-family="Segoe UI" x="-149.88086" y="3">
			current point
	</text>
	<path fill="none" stroke="rgb(0,0,0)" stroke-width="1" stroke-linecap="round" stroke-linejoin="round" transform="matrix(1.5 0 0 1.5 240 45)" d="M70 0L50 0"/>
	<path fill="none" stroke="rgb(0,0,0)" stroke-width="1" stroke-linecap="round" stroke-linejoin="round" transform="matrix(1.5 0 0 1.5 240 45)" d="M50 0L59.2388 3.82684"/>
	<path fill="none" stroke="rgb(0,0,0)" stroke-width="1" stroke-linecap="round" stroke-linejoin="round" transform="matrix(1.5 0 0 1.5 240 45)" d="M50 0L59.2388 -3.82684"/>
	<text fill="rgb(0,0,0)" stroke="none" transform="matrix(1.5 0 0 1.5 240 45)" font-size="12" font-family="Segoe UI" x="80" y="3">
			specified point
	</text>
</svg>
